<svg width="48" height="48" viewBox="0 0 48 48" fill="none" xmlns="http://www.w3.org/2000/svg">
<rect width="48" height="48" rx="12" fill="#252525"/>
<path d="M15.2 31.4C14.8222 31.2222 14.5222 30.9333 14.3 30.5333C14.0778 30.1333 13.9667 29.7111 13.9667 29.2667V22.8L10.5 21.0667C10.2778 20.9555 10.1111 20.8069 10 20.6207C9.88889 20.4344 9.83334 20.2275 9.83334 20C9.83334 19.7724 9.88889 19.5655 10 19.3793C10.1111 19.1931 10.2778 19.0444 10.5 18.9333L21.7 13.3333C21.8684 13.2444 22.0416 13.1778 22.2193 13.1333C22.3971 13.0889 22.5796 13.0667 22.7667 13.0667C22.9538 13.0667 23.1362 13.0889 23.314 13.1333C23.4918 13.1778 23.6649 13.2444 23.8333 13.3333L36.5333 19.6667C36.7333 19.7778 36.8889 19.9248 37 20.1077C37.1111 20.2908 37.1667 20.4882 37.1667 20.7V29.2C37.1667 29.5111 37.0444 29.7889 36.8 30.0333C36.5556 30.2778 36.2722 30.4 35.95 30.4C35.6278 30.4 35.35 30.2778 35.1167 30.0333C34.8833 29.7889 34.7667 29.5111 34.7667 29.2V21.2L31.5667 22.8V29.2667C31.5667 29.7111 31.4611 30.1278 31.25 30.5167C31.0389 30.9055 30.7333 31.2 30.3333 31.4L23.8333 34.6667C23.6556 34.7555 23.4801 34.8167 23.307 34.85C23.1337 34.8833 22.9559 34.9 22.7737 34.9C22.5912 34.9 22.4111 34.8833 22.2333 34.85C22.0556 34.8167 21.8778 34.7555 21.7 34.6667L15.2 31.4ZM22.7667 24.5L31.8 20L22.7667 15.5L13.7333 20L22.7667 24.5ZM22.7667 32.4667L29.1667 29.3V24.0333L23.9333 26.6333C23.7333 26.7444 23.537 26.8222 23.3443 26.8667C23.1519 26.9111 22.9593 26.9333 22.7667 26.9333C22.5444 26.9333 22.3389 26.9111 22.15 26.8667C21.9611 26.8222 21.7778 26.7444 21.6 26.6333L16.3667 24.0333V29.3L22.7667 32.4667Z" fill="#FAFAFA"/>
</svg>
