<svg width="48" height="48" viewBox="0 0 48 48" fill="none" xmlns="http://www.w3.org/2000/svg">
<rect width="48" height="48" rx="12" fill="#252525"/>
<path d="M24.5 34.4333C24.6111 34.4333 24.7166 34.4111 24.8166 34.3667C24.9166 34.3222 25 34.2667 25.0666 34.2L35.3 23.9333C35.5222 23.7111 35.6944 23.4556 35.8166 23.1667C35.9389 22.8778 36 22.5806 36 22.275C36 21.949 35.9389 21.6383 35.8166 21.343C35.6944 21.0477 35.5222 20.7889 35.3 20.5667L29.1 14.3333C28.8555 14.1111 28.5901 13.9389 28.3036 13.8167C28.0172 13.6945 27.716 13.6333 27.4 13.6333C26.9555 13.6333 26.55 13.7611 26.1833 14.0167C25.8166 14.2722 25.4777 14.5556 25.1666 14.8667L27.6666 17.2667C28.0222 17.6222 28.3055 18.0167 28.5166 18.45C28.7278 18.8833 28.8333 19.3556 28.8333 19.8667C28.8333 20.7556 28.5222 21.5111 27.9 22.1333C27.2778 22.7556 26.5235 23.0667 25.6373 23.0667C25.2153 23.0667 24.8092 22.9889 24.419 22.8333C24.0285 22.6778 23.6777 22.4445 23.3666 22.1333L20.6333 19.4L15.4666 24.5667C15.4 24.6556 15.3444 24.7471 15.3 24.8413C15.2555 24.9353 15.2333 25.0362 15.2333 25.144C15.2333 25.3591 15.3139 25.5445 15.475 25.7C15.6361 25.8556 15.8241 25.9333 16.039 25.9333C16.1463 25.9333 16.2444 25.9111 16.3333 25.8667C16.4222 25.8222 16.5111 25.7667 16.6 25.7L19.7333 22.6C19.9777 22.3556 20.2555 22.2333 20.5666 22.2333C20.8777 22.2333 21.1555 22.3556 21.4 22.6C21.6444 22.8445 21.7666 23.1222 21.7666 23.4333C21.7666 23.7445 21.6444 24.0222 21.4 24.2667L18.2666 27.4C18.1777 27.4889 18.1166 27.5798 18.0833 27.6727C18.05 27.7653 18.0333 27.8648 18.0333 27.971C18.0333 28.1832 18.1119 28.3689 18.269 28.528C18.4261 28.6871 18.6147 28.7667 18.835 28.7667C18.945 28.7667 19.05 28.7445 19.15 28.7C19.25 28.6556 19.3333 28.6 19.4 28.5333L22.5333 25.4C22.7778 25.1556 23.0555 25.0333 23.3666 25.0333C23.6777 25.0333 23.9555 25.1556 24.2 25.4C24.4444 25.6445 24.5666 25.9278 24.5666 26.25C24.5666 26.5722 24.4444 26.8556 24.2 27.1L21.1 30.2C21.0111 30.2889 20.95 30.3861 20.9166 30.4917C20.8833 30.5972 20.8666 30.7028 20.8666 30.8083C20.8666 31.0195 20.9452 31.2041 21.1023 31.3623C21.2594 31.5208 21.4481 31.6 21.6683 31.6C21.7783 31.6 21.8833 31.5778 21.9833 31.5333C22.0833 31.4889 22.1666 31.4333 22.2333 31.3667L25.3666 28.2333C25.6111 27.9889 25.8889 27.8667 26.2 27.8667C26.5111 27.8667 26.7889 27.9889 27.0333 28.2333C27.2778 28.4778 27.4 28.7611 27.4 29.0833C27.4 29.4056 27.2778 29.6889 27.0333 29.9333L23.9333 33.0333C23.8666 33.1222 23.8111 33.2158 23.7666 33.314C23.7222 33.4122 23.7 33.5175 23.7 33.6297C23.7 33.8543 23.7778 34.0445 23.9333 34.2C24.0889 34.3556 24.2778 34.4333 24.5 34.4333ZM24.4666 36.7667C23.6444 36.7667 22.9333 36.4945 22.3333 35.95C21.7333 35.4056 21.3889 34.7333 21.3 33.9333C20.5666 33.8667 19.9389 33.5667 19.4166 33.0333C18.8944 32.5 18.5778 31.8652 18.4666 31.129C17.7111 31.0208 17.0722 30.7056 16.55 30.1833C16.0277 29.6611 15.7333 29.0333 15.6666 28.3C14.8444 28.2556 14.1666 27.9222 13.6333 27.3C13.1 26.6778 12.8333 25.959 12.8333 25.1437C12.8333 24.7146 12.9111 24.3056 13.0666 23.9167C13.2222 23.5278 13.4555 23.1778 13.7666 22.8667L18.9333 17.7333C19.3933 17.2667 19.9583 17.0333 20.6283 17.0333C21.2983 17.0333 21.8666 17.2667 22.3333 17.7333L25.0333 20.4333C25.1222 20.5222 25.2111 20.5833 25.3 20.6167C25.3889 20.65 25.4849 20.6667 25.588 20.6667C25.82 20.6667 26.0133 20.5889 26.168 20.4333C26.3226 20.2778 26.4 20.0857 26.4 19.857C26.4 19.7555 26.3778 19.6539 26.3333 19.5523C26.2889 19.4508 26.2333 19.3667 26.1666 19.3L21.2 14.3333C20.9555 14.0889 20.6883 13.9111 20.3983 13.8C20.1083 13.6889 19.8033 13.6333 19.4833 13.6333C19.1833 13.6333 18.8889 13.6945 18.6 13.8167C18.3111 13.9389 18.0444 14.1111 17.8 14.3333L12.7 19.4333C12.4111 19.7222 12.2111 20.0667 12.1 20.4667C11.9889 20.8667 11.9777 21.2667 12.0666 21.6667C12.1333 21.9778 12.0777 22.2722 11.9 22.55C11.7222 22.8278 11.4666 23 11.1333 23.0667C10.8 23.1333 10.4944 23.0778 10.2166 22.9C9.93886 22.7222 9.76664 22.4667 9.69997 22.1333C9.52219 21.3556 9.54997 20.5722 9.7833 19.7833C10.0166 18.9945 10.4222 18.3111 11 17.7333L16.1 12.6333C16.5444 12.1889 17.0611 11.8445 17.65 11.6C18.2389 11.3556 18.8555 11.2333 19.5 11.2333C20.1444 11.2333 20.7611 11.3556 21.35 11.6C21.9389 11.8445 22.4555 12.1889 22.9 12.6333L23.4333 13.1667L23.9666 12.6C24.4111 12.1556 24.9278 11.8111 25.5166 11.5667C26.1055 11.3222 26.7222 11.2 27.3666 11.2C28.0111 11.2 28.6222 11.3222 29.2 11.5667C29.7778 11.8111 30.2889 12.1556 30.7333 12.6L36.9666 18.8333C37.4111 19.2778 37.7555 19.7889 38 20.3667C38.2444 20.9445 38.3666 21.5556 38.3666 22.2C38.3666 22.8445 38.2444 23.4611 38 24.05C37.7555 24.6389 37.4111 25.1556 36.9666 25.6L26.7333 35.8333C26.4222 36.1445 26.0719 36.3778 25.6823 36.5333C25.293 36.6889 24.8877 36.7667 24.4666 36.7667Z" fill="#FAFAFA"/>
</svg>
