<svg width="48" height="48" viewBox="0 0 48 48" fill="none" xmlns="http://www.w3.org/2000/svg">
<rect width="48" height="48" rx="12" fill="#252525"/>
<path d="M31.2 32.9V34.3867C31.2 34.7305 31.0857 35.0186 30.857 35.251C30.6283 35.4837 30.345 35.6 30.007 35.6C29.669 35.6 29.3833 35.485 29.15 35.255C28.9167 35.025 28.8 34.74 28.8 34.4V30.4C28.8 29.9556 28.9556 29.5778 29.2667 29.2667C29.5778 28.9556 29.9556 28.8 30.4 28.8H34.4C34.74 28.8 35.025 28.9143 35.255 29.143C35.485 29.3717 35.6 29.655 35.6 29.993C35.6 30.331 35.485 30.6167 35.255 30.85C35.025 31.0833 34.74 31.2 34.4 31.2H32.9L35.6 33.9C35.8444 34.1445 35.9667 34.4222 35.9667 34.7333C35.9667 35.0445 35.8498 35.3222 35.616 35.5667C35.3609 35.8111 35.0703 35.9333 34.7443 35.9333C34.4186 35.9333 34.1371 35.8111 33.9 35.5667L31.2 32.9ZM23.9847 36.8C22.2393 36.8 20.5889 36.4667 19.0333 35.8C17.4778 35.1333 16.1167 34.2167 14.95 33.05C13.7833 31.8833 12.8667 30.5227 12.2 28.968C11.5333 27.4133 11.2 25.7522 11.2 23.9847C11.2 22.2171 11.5333 20.5611 12.2 19.0167C12.8667 17.4722 13.7833 16.1167 14.95 14.95C16.1167 13.7833 17.4773 12.8667 19.032 12.2C20.5867 11.5333 22.2478 11.2 24.0153 11.2C25.7829 11.2 27.4389 11.5333 28.9833 12.2C30.5278 12.8667 31.8833 13.7833 33.05 14.95C34.2167 16.1167 35.1333 17.4722 35.8 19.0167C36.4667 20.5611 36.8 22.2222 36.8 24C36.8 24.204 36.7944 24.4285 36.7833 24.6733C36.7722 24.918 36.7556 25.1423 36.7333 25.3463C36.6889 25.6932 36.55 25.9556 36.3167 26.1333C36.0833 26.3111 35.7778 26.4 35.4 26.4C35.0818 26.4 34.8133 26.2556 34.5947 25.9667C34.376 25.6778 34.2889 25.3746 34.3333 25.057C34.3778 24.8588 34.4 24.6802 34.4 24.5213V23.9857C34.4 23.5888 34.3722 23.192 34.3167 22.7953C34.2611 22.3985 34.1889 22 34.1 21.6H28.7333C28.7778 21.9778 28.8056 22.3667 28.8167 22.7667C28.8278 23.1667 28.8333 23.5571 28.8333 23.938V24.5523C28.8333 24.7715 28.8222 24.9762 28.8 25.1667C28.7778 25.5 28.645 25.7889 28.4017 26.0333C28.1586 26.2778 27.8647 26.4 27.52 26.4C27.1956 26.4 26.9167 26.2778 26.6833 26.0333C26.45 25.7889 26.3444 25.5 26.3667 25.1667C26.3889 24.9445 26.4 24.7333 26.4 24.5333V23.9C26.4 23.5149 26.3944 23.1297 26.3833 22.7443C26.3722 22.3592 26.3422 21.9778 26.2933 21.6H21.7C21.6667 22 21.6417 22.4 21.625 22.8C21.6083 23.2 21.6 23.6 21.6 24C21.6 24.4 21.6083 24.8 21.625 25.2C21.6417 25.6 21.6667 26 21.7 26.4H24.41C24.7367 26.4 25.0167 26.5143 25.25 26.743C25.4833 26.9717 25.6 27.255 25.6 27.593C25.6 27.931 25.485 28.2167 25.255 28.45C25.025 28.6833 24.74 28.8 24.4 28.8H22C22.176 29.8025 22.4033 30.7642 22.682 31.6853C22.9607 32.6062 23.4 33.5111 24 34.4C24.2 34.4 24.3889 34.3945 24.5667 34.3833C24.7444 34.3722 24.9321 34.3556 25.1297 34.3333C25.4654 34.2889 25.7722 34.3778 26.05 34.6C26.3278 34.8222 26.4667 35.0889 26.4667 35.4C26.4667 35.7778 26.3833 36.0833 26.2167 36.3167C26.05 36.55 25.7814 36.6889 25.411 36.7333C25.1932 36.7556 24.9536 36.7722 24.692 36.7833C24.4307 36.7945 24.1949 36.8 23.9847 36.8ZM13.9 26.4H19.2667C19.2222 26.0222 19.1944 25.6333 19.1833 25.2333C19.1722 24.8333 19.1667 24.4445 19.1667 24.0667C19.1667 23.6445 19.1722 23.2333 19.1833 22.8333C19.1944 22.4333 19.2222 22.0222 19.2667 21.6H13.9C13.8111 22 13.7389 22.4 13.6833 22.8C13.6278 23.2 13.6 23.6 13.6 24C13.6 24.4 13.6278 24.8 13.6833 25.2C13.7389 25.6 13.8111 26 13.9 26.4ZM21 33.9667C20.6 33.1445 20.2959 32.3023 20.0877 31.4403C19.8792 30.5786 19.7056 29.6985 19.5667 28.8H14.8C15.4444 30.0667 16.3 31.1445 17.3667 32.0333C18.4333 32.9222 19.6444 33.5667 21 33.9667ZM14.8 19.2H19.5667C19.7 18.3111 19.8778 17.4333 20.1 16.5667C20.3222 15.7 20.6111 14.8556 20.9667 14.0333C19.6333 14.4333 18.4333 15.0778 17.3667 15.9667C16.3 16.8556 15.4444 17.9333 14.8 19.2ZM22 19.2H26C25.8222 18.2222 25.5833 17.2667 25.2833 16.3333C24.9833 15.4 24.5556 14.5222 24 13.7C23.4444 14.5222 23.0222 15.4 22.7333 16.3333C22.4444 17.2667 22.2 18.2222 22 19.2ZM28.4333 19.2H33.2C32.5556 17.9333 31.7 16.8556 30.6333 15.9667C29.5667 15.0778 28.3667 14.4333 27.0333 14.0333C27.3889 14.8556 27.6778 15.7 27.9 16.5667C28.1222 17.4333 28.3 18.3111 28.4333 19.2Z" fill="#FAFAFA"/>
</svg>
