<svg width="48" height="48" viewBox="0 0 48 48" fill="none" xmlns="http://www.w3.org/2000/svg">
<rect width="48" height="48" rx="12" fill="#252525"/>
<path d="M13.6 35.2C12.94 35.2 12.375 34.965 11.905 34.495C11.435 34.025 11.2 33.46 11.2 32.8V18.4C11.2 17.74 11.435 17.175 11.905 16.705C12.375 16.235 12.94 16 13.6 16H17.6V13.593C17.6 12.931 17.835 12.3667 18.305 11.9C18.775 11.4333 19.34 11.2 20 11.2H28C28.66 11.2 29.225 11.435 29.695 11.905C30.165 12.375 30.4 12.94 30.4 13.6V16H34.4C35.06 16 35.625 16.235 36.095 16.705C36.565 17.175 36.8 17.74 36.8 18.4V32.8C36.8 33.46 36.565 34.025 36.095 34.495C35.625 34.965 35.06 35.2 34.4 35.2H13.6ZM20 16H28V13.6H20V16ZM34.4 27.6H28V29.2C28 29.54 27.885 29.825 27.655 30.055C27.425 30.285 27.14 30.4 26.8 30.4H21.2C20.86 30.4 20.575 30.285 20.345 30.055C20.115 29.825 20 29.54 20 29.2V27.6H13.6V32.8H34.4V27.6ZM22.4 28H25.6V24.8H22.4V28ZM13.6 25.2H20V23.6C20 23.26 20.115 22.975 20.345 22.745C20.575 22.515 20.86 22.4 21.2 22.4H26.8C27.14 22.4 27.425 22.515 27.655 22.745C27.885 22.975 28 23.26 28 23.6V25.2H34.4V18.4H13.6V25.2Z" fill="#FAFAFA"/>
</svg>
