<svg width="54" height="54" viewBox="0 0 54 54" fill="none" xmlns="http://www.w3.org/2000/svg">
<path d="M45.3334 50.667V8.00033C45.3334 6.58584 44.7715 5.22928 43.7713 4.22909C42.7711 3.2289 41.4145 2.66699 40 2.66699H13.3334C11.9189 2.66699 10.5623 3.2289 9.56212 4.22909C8.56192 5.22928 8.00002 6.58584 8.00002 8.00033V50.667M45.3334 50.667H50.6667M45.3334 50.667H32M8.00002 50.667H2.66669M8.00002 50.667H21.3334M32 50.667V37.3337C32 36.6264 31.7191 35.9481 31.219 35.448C30.7189 34.9479 30.0406 34.667 29.3334 34.667H24C23.2928 34.667 22.6145 34.9479 22.1144 35.448C21.6143 35.9481 21.3334 36.6264 21.3334 37.3337V50.667M32 50.667H21.3334M18.6667 13.3337H21.3334M18.6667 24.0003H21.3334M32 13.3337H34.6667M32 24.0003H34.6667" stroke="#1A9EB7" stroke-width="5.33333" stroke-linecap="round" stroke-linejoin="round"/>
</svg>
