<svg width="64" height="64" viewBox="0 0 64 64" fill="none" xmlns="http://www.w3.org/2000/svg">
<rect width="64" height="64" rx="16" fill="#1E1E1E" fill-opacity="0.5"/>
<path d="M27.0153 10.9635C27.4499 10.9932 27.3647 10.7433 27.924 10.7728C29.6787 10.8642 31.4345 10.8667 33.191 10.851C34.1984 10.8421 35.2053 10.8223 36.2108 10.7579C36.4432 10.743 36.7673 10.8939 36.9942 10.9554C37.2138 11.0148 37.4249 11.0023 37.6506 10.9941L37.8424 11.0075L37.8465 11.037C37.7193 11.0492 37.7585 11.0392 37.675 11.0838C37.5648 11.1427 37.1363 11.1611 37.0094 11.1641C37.3976 11.1754 37.7753 11.1882 38.1643 11.179C37.8005 11.2612 37.6182 11.3451 37.2228 11.3346C37.1426 11.3325 36.7565 11.3296 36.7031 11.3584C36.9924 11.419 38.8188 11.4555 39.1904 11.4235C39.8508 11.499 39.6595 11.4999 40.1664 11.8418C40.4599 12.0397 40.8867 11.7946 41.2077 12.2866C41.3654 12.3495 41.4546 12.3536 41.6221 12.3734L41.6182 12.4709C41.4317 12.5968 41.0942 12.4497 40.9421 12.5625L40.9449 12.5943C41.2351 12.7561 42.1745 12.7394 42.7865 13.0323L42.7061 13.0493L42.895 13.1313L42.8949 13.1757L42.7788 13.2337C42.9118 13.3506 43.175 13.2867 43.3776 13.3309C43.6064 13.3808 43.9118 13.8082 44.0851 13.8059C44.439 13.8994 44.4533 13.9993 44.643 14.3182C44.8917 14.396 45.8007 14.9397 45.8771 15.1888C45.7574 15.1816 45.5433 15.1541 45.4432 15.1982C45.569 15.3479 45.7209 15.2821 45.8542 15.4039C45.8672 15.4157 45.8003 15.6311 45.9176 15.6689C46.0649 15.7164 46.2932 15.7213 46.4125 15.8181L46.3559 15.9645C46.4735 16.1566 46.5371 16.0521 46.6162 16.1102C46.8389 16.274 47.2956 17.1515 47.6309 17.0599L47.6608 16.9955L47.6334 16.9364L47.4307 16.9348C47.4258 16.8387 47.4314 16.8627 47.4836 16.7642C47.5779 16.7659 47.6721 16.767 47.7663 16.7676L47.8265 16.8869C47.6705 17.0024 47.7185 16.9566 47.6339 17.1391C47.6513 17.2123 47.7834 17.3874 47.8352 17.5174C48.0215 17.6543 48.1589 17.5917 48.2188 17.791C48.3222 18.1347 48.3786 18.2152 48.7641 18.2439C48.6641 18.3105 48.7055 18.2921 48.574 18.295L48.5785 18.3486L48.6623 18.3938L48.5829 18.4325C48.7013 18.5631 48.9199 18.5889 49.0901 18.5988C49.1606 18.8443 48.877 18.986 49.1143 19.1206C49.2627 19.2048 49.511 19.0952 49.5855 19.2356L49.4749 19.3034L49.5482 19.3799L49.527 19.4438L49.371 19.3372L49.376 19.3059C49.3825 19.2633 49.381 19.2806 49.3814 19.2406L49.2199 19.242L49.1837 19.3029C49.2703 19.4826 49.2717 19.5283 49.5065 19.513C49.7023 19.9711 49.619 19.9566 50.1108 20.1265C50.158 20.3618 50.1383 20.8379 50.3458 20.8943C50.7871 21.0143 50.5875 21.2096 50.8258 21.378C50.8866 21.35 50.9493 21.3189 51.0117 21.2959C51.0876 21.862 51.2161 21.7871 51.5566 22.201C51.5521 22.1955 51.6736 22.5786 51.6828 22.6074C51.7792 22.9194 51.8121 22.8424 51.9493 23.1051C52.0535 23.3045 52.1436 23.6453 52.24 23.8395C52.0674 23.9415 52.1186 23.9093 52.016 24.1073C52.0668 24.6151 52.3695 24.6949 52.3975 25.0026L52.4478 24.9877C52.4522 24.8774 52.4559 24.7759 52.4665 24.6656L52.5678 24.6359C52.6144 25.2167 52.9298 25.296 52.9971 25.9049C52.9664 26.7145 53.149 27.5762 53.1593 28.381C53.1904 30.82 53.1571 33.2603 53.1802 35.6993C53.1851 36.2242 53.0554 36.7973 53.0791 37.3111L53.0529 37.4187L53.019 37.1878L52.9642 37.1604C52.8725 37.3568 52.7791 37.9968 52.8813 38.1937C52.9153 38.18 52.9617 38.1638 52.9921 38.1456C52.9217 38.57 52.6657 38.7995 52.6003 39.2348C52.5683 39.4482 52.4493 39.8397 52.2779 39.9713C52.1802 39.8744 52.2321 39.8971 52.0778 39.8962C51.9287 40.0633 51.802 40.5952 52.0125 40.7703C52.0029 40.8148 51.9984 40.9087 51.9545 40.9356C51.4175 41.2642 51.9055 41.9228 51.2949 42.1941C51.184 42.2433 51.143 42.9506 50.9439 42.9862C50.4583 43.2858 50.4363 44.3975 49.8145 44.4454C49.6927 44.4548 49.1988 45.4425 49.1522 45.6155L49.1457 45.6398C49.084 45.5675 49.0429 45.5221 48.9927 45.4416C48.8274 45.3747 48.864 45.3629 48.7044 45.3845C48.6016 45.6966 48.8447 45.6917 48.655 45.8377C48.561 45.819 48.5162 45.8069 48.4209 45.8077C48.2621 45.9987 48.2984 46.3745 48.217 46.6259C48.1452 46.8482 47.923 46.762 47.8068 46.908C47.7524 46.9765 47.744 47.1926 47.6503 47.3079C47.2742 47.4867 47.4421 47.4937 47.2848 47.7342C47.1061 47.7284 46.6931 47.6883 46.561 47.77C46.4783 47.9678 46.4607 48.0232 46.3161 48.1779L46.191 48.1037C46.0206 48.19 45.9716 48.239 45.8281 48.3665C45.8526 48.5178 45.9194 48.5828 45.8853 48.7321C45.6728 49.3014 45.2976 49.1074 44.9491 49.5283C44.8946 49.594 44.8817 49.5996 44.8089 49.6436L44.7565 49.6452C44.5292 49.6189 44.0697 49.6057 43.9278 49.8187C43.9526 50.023 44.0425 50.0176 44.2264 50.0753C43.7883 50.2542 43.3995 50.0522 43.362 50.6001C43.1588 50.7396 42.139 50.6488 42.0735 50.8788C42.2985 50.9757 42.5189 50.8862 42.7048 51.0057C42.6797 51.1014 42.7045 51.0651 42.6425 51.1266L42.6117 51.1302C42.0575 51.1233 41.7625 51.1827 41.2565 51.4289C41.4658 51.4513 41.4716 51.4179 41.6094 51.53C41.569 51.5975 41.5914 51.5924 41.5334 51.6045C40.771 51.7646 40.2825 51.5698 39.5162 51.8192C39.8811 51.8623 40.6461 51.826 40.8359 51.9731C40.7482 52.0189 40.7043 52.04 40.6117 52.0746C39.9798 52.097 39.946 52.0118 39.6122 52.4815C39.4677 52.6848 38.4786 52.5679 38.2829 52.7554L38.6356 52.8697C37.678 52.9168 37.1062 52.7578 36.0941 52.9382C36.5368 53.0138 36.9204 53.0062 37.3663 53.0096C37.2046 53.0231 36.9883 53.0474 36.8313 53.0466C36.2749 52.9868 35.8409 53.1474 35.3749 53.139C34.0396 53.1149 32.7093 53.1243 31.374 53.1363C30.4735 53.1444 29.477 53.0974 28.5994 53.2739C28.9613 53.3483 29.4295 53.3513 29.8068 53.3653C29.474 53.3923 28.1897 53.3221 28.0343 53.3737C28.1518 53.4043 28.8636 53.5346 28.8912 53.5538C28.507 53.5728 27.592 53.5046 27.225 53.3755C27.0225 53.3044 27.1614 53.314 27.0851 53.1411C26.8515 53.0471 26.4513 53.0481 26.1656 53.0056C26.4207 52.9965 26.8924 53.0073 27.1169 52.9552C26.9408 52.8285 26.2099 52.8403 25.9809 52.876L25.9479 52.9276L26.1245 53.0161C25.3137 53.0108 24.3149 52.4779 23.5684 52.1768C23.0234 52.006 22.4017 51.7822 21.8977 51.5068C19.0695 49.9616 16.4085 47.7651 14.5211 45.139C13.9039 44.3978 13.2386 43.54 12.8094 42.6632C12.0112 41.0325 11.0972 39.1345 10.899 37.3206C10.4908 36.8956 10.4919 36.4762 10.4869 35.9126C10.4704 34.0341 10.2504 32.1805 10.4206 30.3049C10.4676 29.7872 10.4132 29.2362 10.4843 28.7102C10.5396 29.123 10.517 31.2757 10.5056 31.7959C10.4702 33.4091 10.5512 34.8038 10.6009 36.404L10.6372 36.3586C10.6873 35.9871 10.649 27.7701 10.6271 27.6847L10.5269 27.6555C10.5026 26.9355 10.7871 27.2114 10.8889 26.6623C11.0299 25.9013 11.2577 24.6144 11.6379 23.9627C12.0025 23.3377 12.1406 22.7847 12.437 22.11C12.6235 21.6855 12.7803 21.6355 12.949 21.0836L13.2132 20.8836L13.2197 20.8625C13.5687 19.7523 14.4104 19.5248 14.9072 18.2973C15.4004 18.0243 15.3789 17.7009 15.7091 17.3917C16.275 16.8745 16.8004 16.1481 17.4225 15.7349C17.6405 15.59 17.5721 15.7465 17.652 15.4294C17.9476 15.1371 17.9745 15.6262 18.2585 14.8864C18.4478 14.8407 18.6583 14.7772 18.8482 14.7249C19.1192 14.4121 19.1768 14.4624 19.4928 14.2313C19.5228 14.177 19.6045 13.8543 19.664 13.8519C20.296 13.8272 20.1028 13.3938 20.6395 13.3117C20.8799 13.3161 21.7208 13.3122 21.864 13.1695C21.7354 13.0442 21.2809 13.1038 21.1424 13.0064L21.2065 12.9423C21.3249 12.9502 21.3717 12.9225 21.4772 12.875L21.514 12.8582C22.0673 12.6858 21.6439 12.4649 22.3351 12.3679C22.7661 12.3539 23.59 12.3867 23.9533 12.2853L23.9651 12.2343C23.7813 12.1461 23.6672 12.2592 23.5457 12.2043C23.6101 12.1807 23.675 12.1584 23.7403 12.1373C23.8945 12.1029 24.0318 12.0727 24.1835 12.0268C24.0895 11.9679 23.734 11.9478 23.6022 11.9341C24.2576 11.8392 23.7919 11.5027 24.6216 11.4257C24.9507 11.438 26.8369 11.4078 27.0517 11.3475C26.8981 11.322 26.3717 11.3246 26.1656 11.3122L26.1531 11.2749C26.3689 11.2141 26.8357 11.2261 27.0793 11.224L26.9733 11.2L26.9549 11.2182C26.9025 11.1805 26.8043 11.1867 26.7342 11.1839C26.9989 11.1557 27.3096 11.1334 27.5639 11.0667C27.2988 11.0253 26.9192 11.0112 26.6425 10.9941C26.7435 10.9796 26.9087 10.9717 27.0153 10.9635ZM21.2556 37.5988C20.9343 36.9006 20.4762 35.8593 20.3075 35.1317C19.8995 33.3721 19.8848 30.7987 20.2376 29.0346C20.2505 28.9895 20.2643 28.8799 20.2721 28.8281C20.6434 27.6442 21.0716 26.6294 21.7101 25.5698C21.716 25.3632 21.7512 25.3731 21.6496 25.248L21.5382 25.2734C21.4821 25.4237 21.433 25.6694 21.3321 25.7802C21.019 26.1242 20.8689 25.9001 20.9075 26.4449C20.7915 26.6211 20.5154 26.9609 20.4718 27.1196C20.5153 27.3214 20.5668 27.3897 20.4745 27.5856C20.3936 27.7575 20.3393 27.9661 20.1774 28.083L20.1052 28.0173C20.1159 27.9114 20.1277 27.8056 20.1405 27.7L20.0792 27.6498C20.0957 28.0214 20.0348 27.9426 19.8795 28.2569C19.8551 28.306 19.7966 28.5674 19.823 28.6036L19.8655 28.6047L19.9064 28.71C19.8489 28.798 19.6493 29.1083 19.6507 29.1824C19.6646 29.9246 19.4442 33.1763 19.8024 33.6391C19.9265 34.3522 19.907 35.1886 20.289 35.8287C20.3115 35.8663 20.221 36.4418 20.2547 36.6269L20.2758 36.6236C20.4697 36.5945 20.4494 36.6161 20.6118 36.7266L20.6388 36.8206C20.5701 36.8775 20.5179 36.9232 20.4541 36.9855C21.1951 37.4056 20.8488 37.5601 21.0886 37.7956C21.2274 37.7233 21.1801 37.768 21.2556 37.5988ZM30.7681 43.9892C30.8122 44.0436 30.8635 44.1207 30.9407 44.1245C31.6056 44.1569 32.1517 44.1309 32.8182 44.2165L32.6548 44.2402C33.0108 44.2669 33.4432 44.28 33.7945 44.2075C33.6025 44.2 33.5207 44.2058 33.3448 44.1319L33.3353 44.0753C33.7398 43.9087 35.0969 44.3637 35.2763 43.9853C35.3845 43.9106 36.1299 43.7521 36.3578 43.6777C36.3715 43.5969 36.3696 43.573 36.4203 43.5066C36.7825 43.7337 37.0691 43.0854 37.6216 43.1617L37.7342 43.1703L37.8092 43.0799L37.7766 43.0644C37.9229 42.8168 37.8578 42.895 38.1436 42.7514C38.3609 42.6558 39.1226 42.1769 39.2394 42.1703L39.2747 42.336L39.3225 42.3005L39.3357 42.07C39.4068 41.9685 39.6803 41.8799 39.8119 41.8265C39.7488 41.7411 39.7467 41.7291 39.7108 41.6278L39.7555 41.5868L39.8433 41.6319L39.8869 41.6095C39.8666 41.5238 39.8633 41.5247 39.8739 41.4325L40.088 41.2656L40.0865 41.1774L39.9558 41.0913C39.297 41.6382 38.6077 42.252 37.845 42.6444L37.5709 42.7868C36.8893 43.0862 36.199 43.365 35.5007 43.6231L35.4789 43.6205C33.8378 44.0187 32.4509 44.0414 30.7681 43.9892ZM42.4199 25.771C42.8907 26.6654 43.3229 27.604 43.615 28.5745C43.6588 28.7204 43.7882 29.2968 43.8442 29.4049C44.0411 29.605 43.9315 29.6167 43.9781 29.8945L44.06 29.9371C44.1903 29.6628 44.0831 29.196 43.9988 28.9191C43.8117 28.3047 43.6694 27.6781 43.5022 27.0585C43.4767 26.9639 43.2707 26.8595 43.2467 26.746C43.1947 26.5571 43.2437 26.326 43.1895 26.1388C43.1107 26.0192 42.7815 25.7121 42.701 25.5829C42.636 25.4784 42.8272 25.4469 42.7985 25.2417L42.74 25.2042C42.6954 25.3128 42.704 25.3409 42.6188 25.4052L42.5652 25.3486L42.5702 25.2103L42.4903 25.2488C42.4055 25.4076 42.421 25.5898 42.4199 25.771ZM37.5753 21.1923C37.6939 21.1925 37.8321 21.2181 37.9513 21.2356C37.9636 21.1071 37.943 21.1567 38.049 21.0504C37.917 20.649 36.9285 20.5157 36.573 20.4364C36.5008 20.3454 36.5235 20.3764 36.5404 20.2191C36.434 20.1302 36.2995 20.1471 36.1388 20.1323L36.141 20.1639L36.4745 20.2786C36.3032 20.3706 35.8496 20.161 35.6553 20.1218C35.4008 20.0705 35.52 20.025 35.3078 20.1475C35.101 20.0065 34.8357 19.7955 34.6191 20.0689L34.6526 20.186C35.3795 20.3448 35.8576 20.4846 36.5483 20.7801C36.6667 20.8308 37.4744 21.1663 37.5753 21.1923ZM26.7368 43.5418C26.8775 43.7133 27.1794 43.7172 27.4544 43.8843C27.536 43.8038 27.8835 43.6462 27.9883 43.7429C27.9188 43.7844 27.8116 43.8331 27.7818 43.9017C28.035 43.9103 28.3938 43.9265 28.5425 43.6964L28.4352 43.5752L28.0757 43.436C27.9057 43.3736 27.7343 43.3154 27.5614 43.2617C27.0985 43.0146 26.5599 42.8157 26.038 42.5353C25.981 42.5428 25.3147 42.8426 25.3027 42.8545C25.5046 42.837 25.63 42.8181 25.8291 42.7786C25.8491 43.0286 25.8185 43.0235 25.949 43.2009C26.3174 43.3914 26.6955 43.0261 26.912 43.33C26.7795 43.4358 26.7757 43.4046 26.7368 43.5418ZM34.6178 20.1791C34.4378 20.043 34.421 20.0765 34.3643 19.8986C34.5676 19.6894 35.1899 20.0536 35.4775 19.9098C35.4893 19.7902 35.5027 19.834 35.4361 19.7469C35.4066 19.8084 35.4082 19.8542 35.3255 19.8474C34.5073 19.7805 31.9468 19.7497 31.3134 19.9949C32.599 19.9848 33.3385 20.0302 34.6178 20.1791ZM23.8027 40.8312C23.6422 40.8408 23.598 40.8489 23.441 40.8056L23.3554 40.8686C23.3209 41.2641 23.9853 41.9024 24.3737 41.6718C24.4303 41.5554 24.3954 41.4739 24.3684 41.3423L23.8027 40.8312ZM40.5411 23.4618L40.6985 23.425L40.7565 23.331C40.7903 23.0398 40.0016 22.1686 39.5746 22.3355L39.5459 22.5459C39.8735 22.8429 40.2278 23.1531 40.5411 23.4618ZM38.604 21.8222L38.8582 22.0094C38.9628 22.0036 39.0703 21.9809 39.174 21.9625C39.2407 21.8314 39.2595 21.7836 39.2265 21.6409L39.1008 21.7851C38.9651 21.7675 39.0257 21.6305 38.8256 21.4685L38.7434 21.4991C38.692 21.6067 38.6494 21.7122 38.604 21.8222ZM28.8318 20.2186C29.0377 20.1732 29.1103 20.163 29.2919 20.0608L29.2916 20.0093C29.2379 19.9834 29.2164 19.9633 29.1621 19.9659C28.9986 19.9965 28.8144 20.0187 28.6734 20.1018L28.6574 20.1609C28.7253 20.1906 28.7568 20.2087 28.8318 20.2186ZM28.2342 20.398L28.3553 20.2924L28.3243 20.2407C28.2198 20.2305 28.1319 20.2204 28.0261 20.2211L27.8948 20.3193L27.9032 20.3911C28.0582 20.422 28.0799 20.4195 28.2342 20.398ZM27.3824 20.6546C27.5605 20.6092 27.6468 20.5994 27.7849 20.4779L27.7716 20.4145L27.6971 20.4226C27.574 20.4719 27.511 20.4663 27.3837 20.459L27.3384 20.5112L27.3824 20.6546ZM11.1629 26.2112C11.1721 26.0626 11.2024 25.9005 11.138 25.7759L11.0696 25.7417C11.0588 25.9023 11.0236 26.055 11.1087 26.1778L11.1629 26.2112ZM26.0619 21.4035C26.2642 21.3085 26.383 21.2541 26.5673 21.1303C26.6365 20.9192 26.6916 20.9789 26.7089 20.9052C26.4895 20.921 25.8965 21.1292 25.7926 21.3222C25.8828 21.4189 25.8992 21.3903 26.0619 21.4035ZM22.184 24.9222C22.321 24.7341 22.4744 24.5536 22.6227 24.3738L22.5517 24.2204C22.3382 24.2249 21.91 24.8099 21.8929 24.9849C22.0563 24.9981 22.0322 24.9347 22.184 24.9222ZM21.3758 37.8574C21.0607 38.0662 21.3556 38.3972 21.5502 38.5931C21.5517 38.805 21.5149 38.8222 21.6185 38.9578L21.7254 38.9626L21.6961 38.846C21.8037 38.6822 21.7723 38.7267 21.7872 38.5139C21.6757 38.36 21.4836 38.0299 21.3758 37.8574ZM43.8473 34.4523C43.8237 34.5774 43.732 35.0132 43.7266 35.1156C43.7435 35.3168 43.6886 35.6113 43.7343 35.7756C43.9189 35.508 44.1969 34.4717 44.0547 34.1862C43.9992 34.3266 43.9862 34.3709 43.8473 34.4523ZM43.054 36.9389C42.9762 37.1134 42.7176 37.6568 42.6693 37.8081C42.6535 37.9798 42.6176 38.0508 42.6828 38.1878C42.8031 38.1227 43.3366 36.9486 43.3675 36.853L43.3002 36.7844L43.054 36.9389Z" fill="#FAFAFA" fill-opacity="0.1"/>
<path d="M31.3134 19.995C32.599 19.9849 33.3385 20.0303 34.6178 20.1792L34.6527 20.1861C35.3796 20.3449 35.8576 20.4847 36.5483 20.7802C36.6667 20.8309 37.4744 21.1664 37.5753 21.1924C37.857 21.357 38.3547 21.6375 38.604 21.8223L38.8582 22.0095C39.0717 22.1764 39.3304 22.3909 39.5459 22.546C39.8735 22.843 40.2278 23.1532 40.5411 23.4619C41.2579 24.2235 41.8517 24.8716 42.4199 25.7711C42.8907 26.6655 43.3229 27.6041 43.615 28.5746C43.6589 28.7205 43.7882 29.2969 43.8442 29.405C44.0493 31.1477 44.084 32.7037 43.8473 34.4524C43.8237 34.5775 43.732 35.0133 43.7266 35.1157C43.5109 35.8059 43.2928 36.2847 43.0541 36.939C42.9763 37.1135 42.7176 37.6569 42.6693 37.8082C41.7298 39.3626 41.1717 39.8278 39.9558 41.0914C39.297 41.6383 38.6077 42.2521 37.845 42.6445L37.5709 42.7869C36.8894 43.0863 36.199 43.3651 35.5008 43.6232L35.4789 43.6206C33.8378 44.0188 32.4509 44.0415 30.7681 43.9893C30.7018 43.9627 30.3133 43.9257 30.2159 43.917C29.5843 43.8605 29.0447 43.7589 28.4353 43.5753L28.0757 43.4361C27.9058 43.3737 27.7343 43.3155 27.5614 43.2618C27.0985 43.0147 26.5599 42.8158 26.038 42.5354C25.3891 42.1578 24.9382 41.828 24.3684 41.3424L23.8027 40.8313C23.0526 40.1305 22.3772 39.354 21.7872 38.514C21.6757 38.3601 21.4837 38.03 21.3758 37.8575L21.2556 37.5989C20.9344 36.9007 20.4763 35.8594 20.3075 35.1318C19.8995 33.3722 19.8848 30.7988 20.2376 29.0347C20.2505 28.9896 20.2643 28.88 20.2722 28.8282C20.6434 27.6443 21.0717 26.6295 21.7102 25.5699C21.8615 25.3527 22.0262 25.1357 22.184 24.9223C22.321 24.7342 22.4744 24.5537 22.6228 24.3739C23.6571 23.1922 24.7266 22.2278 26.0619 21.4036C26.2642 21.3086 26.383 21.2542 26.5673 21.1304C26.7296 21.0998 27.7826 20.6415 28.0448 20.5482C29.2222 20.1293 30.0984 20.0753 31.3134 19.995Z" fill="#FEFEFE"/>
<path d="M31.7557 26.0584C35.035 25.9231 37.804 28.4701 37.9425 31.7494C38.081 35.0286 35.5366 37.8 32.2575 37.9417C28.9739 38.0835 26.1979 35.5349 26.0592 32.2512C25.9205 28.9674 28.4718 26.1939 31.7557 26.0584Z" fill="#2C2C2C"/>
<path d="M19.9064 28.71L19.8656 28.6047L19.823 28.6037C19.7966 28.5675 19.8551 28.3061 19.8795 28.2569C20.0348 27.9427 20.0957 28.0215 20.0792 27.6499L20.1405 27.7C20.1277 27.8057 20.1159 27.9114 20.1052 28.0173L20.1774 28.0831C20.3393 27.9662 20.3936 27.7575 20.4745 27.5857C20.5668 27.3897 20.5153 27.3215 20.4718 27.1196C20.5154 26.9609 20.7915 26.6211 20.9075 26.4449C20.8689 25.9002 21.019 26.1242 21.3321 25.7802C21.433 25.6694 21.4821 25.4238 21.5382 25.2735L21.6496 25.248C21.7512 25.3732 21.716 25.3633 21.7101 25.5699C21.0716 26.6294 20.6434 27.6442 20.2721 28.8281C20.2736 28.6718 20.2745 28.5279 20.2675 28.3717L20.2227 28.3702C20.0726 28.5902 20.0059 28.7438 19.9974 29.0125L20.0551 29.0964C20.15 29.0943 20.1545 29.0869 20.2376 29.0347C19.8848 30.7988 19.8995 33.3721 20.3075 35.1317C20.4762 35.8593 20.9344 36.9006 21.2556 37.5989C21.1801 37.768 21.2274 37.7233 21.0886 37.7957C20.8488 37.5602 21.1951 37.4056 20.4541 36.9855C20.5179 36.9233 20.5701 36.8776 20.6388 36.8206L20.6119 36.7266C20.4494 36.6161 20.4697 36.5946 20.2759 36.6236L20.2547 36.6269C20.2211 36.4418 20.3115 35.8664 20.289 35.8287C19.907 35.1886 19.9265 34.3523 19.8024 33.6391C19.8217 33.3866 19.7426 32.483 19.7051 32.1999C19.5651 31.1389 20.027 29.6787 19.9064 28.71Z" fill="#FAFAFA" fill-opacity="0.1"/>
<path d="M35.5008 43.6234C36.199 43.3654 36.8893 43.0865 37.5709 42.7871L37.6216 43.162C37.0691 43.0857 36.7825 43.734 36.4203 43.5069C36.3696 43.5733 36.3716 43.5972 36.3578 43.678C36.1299 43.7524 35.3845 43.9109 35.2763 43.9856C35.0969 44.364 33.7398 43.9091 33.3353 44.0756L33.3448 44.1322C33.5207 44.2061 33.6025 44.2003 33.7946 44.2078C33.4432 44.2804 33.0108 44.2672 32.6548 44.2406L32.8182 44.2168C32.1517 44.1313 31.6056 44.1572 30.9407 44.1248C30.8635 44.121 30.8122 44.0439 30.7681 43.9895C32.4509 44.0418 33.8378 44.019 35.4789 43.6208C35.4007 43.7042 35.3438 43.7331 35.3358 43.8275C35.4785 43.8733 35.6377 43.8046 35.7663 43.7396C35.8166 43.7139 35.8665 43.6873 35.916 43.6599L35.9138 43.6346L35.8748 43.6381C35.7095 43.6526 35.6635 43.6482 35.5008 43.6234Z" fill="#FAFAFA" fill-opacity="0.1"/>
<path d="M42.4199 25.7714C42.421 25.5902 42.4055 25.408 42.4903 25.2493L42.5702 25.2107L42.5652 25.3491L42.6188 25.4056C42.704 25.3413 42.6954 25.3132 42.74 25.2046L42.7985 25.2421C42.8272 25.4474 42.636 25.4789 42.701 25.5833C42.7815 25.7126 43.1107 26.0197 43.1895 26.1392C43.2437 26.3264 43.1947 26.5575 43.2467 26.7464C43.2707 26.8599 43.4767 26.9643 43.5022 27.0589C43.6694 27.6785 43.8117 28.3051 43.9988 28.9196C44.0831 29.1965 44.1903 29.6632 44.06 29.9375L43.9781 29.8949C43.9315 29.6172 44.0411 29.6054 43.8442 29.4053C43.7882 29.2972 43.6588 28.7208 43.615 28.5749C43.3229 27.6044 42.8907 26.6658 42.4199 25.7714Z" fill="#FAFAFA" fill-opacity="0.1"/>
<path d="M34.6527 20.186L34.6191 20.0689C34.8358 19.7955 35.101 20.0065 35.3078 20.1475C35.52 20.025 35.4008 20.0705 35.6554 20.1218C35.8497 20.161 36.3032 20.3706 36.4745 20.2785L36.141 20.1638L36.1388 20.1323C36.2996 20.147 36.434 20.1302 36.5404 20.2191C36.5235 20.3764 36.5008 20.3453 36.573 20.4363C36.9285 20.5157 37.917 20.649 38.049 21.0504C37.943 21.1567 37.9636 21.1071 37.9513 21.2356C37.8321 21.2181 37.694 21.1924 37.5753 21.1922C37.4744 21.1663 36.6667 20.8308 36.5483 20.7801C35.8576 20.4845 35.3795 20.3448 34.6527 20.186Z" fill="#FAFAFA" fill-opacity="0.1"/>
<path d="M37.845 42.6444C38.6077 42.252 39.297 41.6382 39.9558 41.0913L40.0866 41.1774L40.088 41.2656L39.8739 41.4325C39.8633 41.5247 39.8666 41.5238 39.887 41.6096L39.8433 41.6319L39.7555 41.5869L39.7108 41.6278C39.7468 41.7292 39.7488 41.7411 39.8119 41.8265C39.6803 41.8799 39.4068 41.9685 39.3357 42.0701L39.3225 42.3005L39.2747 42.336L39.2394 42.1704C39.1227 42.1769 38.3609 42.6558 38.1436 42.7514C38.1447 42.6783 38.1529 42.7147 38.0936 42.6472L37.845 42.6444Z" fill="#FAFAFA" fill-opacity="0.1"/>
<path d="M26.038 42.5356C26.5599 42.8161 27.0985 43.0149 27.5614 43.2621C27.0548 43.2529 27.1577 43.3418 26.7368 43.5421C26.7757 43.405 26.7795 43.4362 26.912 43.3304C26.6955 43.0265 26.3174 43.3918 25.949 43.2013C25.8185 43.0238 25.8491 43.029 25.8291 42.779C25.63 42.8184 25.5046 42.8374 25.3027 42.8549C25.3147 42.843 25.981 42.5432 26.038 42.5356Z" fill="#FAFAFA" fill-opacity="0.1"/>
<path d="M19.9064 28.71C20.027 29.6786 19.5651 31.1388 19.7052 32.1998C19.7426 32.4829 19.8217 33.3865 19.8024 33.6391C19.4442 33.1763 19.6646 29.9246 19.6507 29.1823C19.6493 29.1083 19.8489 28.7979 19.9064 28.71Z" fill="#FAFAFA" fill-opacity="0.1"/>
<path d="M31.3134 19.9951C31.9468 19.7499 34.5073 19.7807 35.3255 19.8476C35.4082 19.8544 35.4066 19.8086 35.4361 19.7471C35.5027 19.8342 35.4893 19.7904 35.4776 19.91C35.1899 20.0538 34.5676 19.6896 34.3643 19.8988C34.421 20.0766 34.4378 20.0432 34.6178 20.1793C33.3385 20.0304 32.599 19.985 31.3134 19.9951Z" fill="#FAFAFA" fill-opacity="0.1"/>
<path d="M24.3684 41.3423C24.3954 41.4739 24.4303 41.5555 24.3737 41.6719C23.9854 41.9024 23.321 41.2642 23.3555 40.8687L23.4411 40.8057C23.598 40.8489 23.6422 40.8409 23.8027 40.8312L24.3684 41.3423Z" fill="#FAFAFA" fill-opacity="0.1"/>
<path d="M39.5459 22.5459L39.5746 22.3355C40.0016 22.1686 40.7903 23.0398 40.7565 23.331L40.6985 23.425L40.5411 23.4618C40.2278 23.1531 39.8735 22.8429 39.5459 22.5459Z" fill="#FAFAFA" fill-opacity="0.1"/>
<path d="M27.5614 43.2619C27.7343 43.3156 27.9057 43.3738 28.0757 43.4362C27.8757 43.4388 27.7426 43.4078 27.5871 43.5C27.5285 43.6493 27.5425 43.7632 27.4544 43.8845C27.1794 43.7174 26.8775 43.7135 26.7368 43.5419C27.1577 43.3416 27.0548 43.2527 27.5614 43.2619Z" fill="#FAFAFA" fill-opacity="0.1"/>
<path d="M28.0757 43.436L28.4352 43.5753L28.5425 43.6965C28.3938 43.9266 28.035 43.9104 27.7818 43.9018C27.8116 43.8332 27.9188 43.7845 27.9883 43.743C27.8835 43.6463 27.536 43.8039 27.4544 43.8844C27.5425 43.763 27.5285 43.6492 27.5871 43.4999C27.7426 43.4077 27.8757 43.4387 28.0757 43.436Z" fill="#FAFAFA" fill-opacity="0.1"/>
<path d="M43.0541 36.9392L43.3003 36.7847L43.3676 36.8533C43.3366 36.949 42.8032 38.123 42.6829 38.1882C42.6177 38.0511 42.6536 37.9802 42.6693 37.8084C42.7176 37.6572 42.9763 37.1137 43.0541 36.9392Z" fill="#FAFAFA" fill-opacity="0.1"/>
<path d="M43.8473 34.4527C43.9862 34.3712 43.9992 34.327 44.0547 34.1865C44.1969 34.472 43.9189 35.5084 43.7343 35.776C43.6886 35.6116 43.7435 35.3172 43.7266 35.116C43.732 35.0136 43.8237 34.5777 43.8473 34.4527Z" fill="#FAFAFA" fill-opacity="0.1"/>
<path d="M21.3758 37.8574C21.4836 38.03 21.6757 38.3601 21.7872 38.514C21.7723 38.7268 21.8037 38.6823 21.6961 38.8461L21.7254 38.9627L21.6185 38.9579C21.5149 38.8223 21.5517 38.805 21.5502 38.5931C21.3556 38.3973 21.0607 38.0663 21.3758 37.8574Z" fill="#FAFAFA" fill-opacity="0.1"/>
<path d="M22.184 24.9225C22.0322 24.935 22.0564 24.9984 21.8929 24.9852C21.91 24.8102 22.3382 24.2252 22.5517 24.2207L22.6227 24.3741C22.4744 24.5539 22.321 24.7344 22.184 24.9225Z" fill="#FAFAFA" fill-opacity="0.1"/>
<path d="M26.0619 21.4036C25.8992 21.3903 25.8829 21.419 25.7926 21.3223C25.8966 21.1292 26.4895 20.921 26.7089 20.9053C26.6916 20.979 26.6366 20.9193 26.5673 21.1304C26.383 21.2542 26.2642 21.3086 26.0619 21.4036Z" fill="#FAFAFA" fill-opacity="0.1"/>
<path d="M38.604 21.8224C38.6494 21.7124 38.692 21.607 38.7434 21.4993L38.8256 21.4688C39.0257 21.6307 38.9651 21.7677 39.1008 21.7853L39.2265 21.6412C39.2595 21.7839 39.2407 21.8316 39.174 21.9627C39.0703 21.9811 38.9628 22.0038 38.8582 22.0096L38.604 21.8224Z" fill="#FAFAFA" fill-opacity="0.1"/>
<path d="M37.845 42.6445L38.0935 42.6473C38.1529 42.7148 38.1447 42.6784 38.1436 42.7515C37.8578 42.8951 37.9229 42.8169 37.7766 43.0646L37.8092 43.08L37.7342 43.1705L37.6216 43.1618L37.5709 42.7869L37.845 42.6445Z" fill="#FAFAFA" fill-opacity="0.1"/>
<path d="M20.2376 29.0346C20.1545 29.0869 20.15 29.0942 20.0551 29.0964L19.9974 29.0124C20.0059 28.7438 20.0725 28.5901 20.2227 28.3701L20.2675 28.3716C20.2745 28.5279 20.2736 28.6718 20.2721 28.8281C20.2643 28.8799 20.2505 28.9895 20.2376 29.0346Z" fill="#FAFAFA" fill-opacity="0.1"/>
<path d="M29.1621 19.966C29.2164 19.9635 29.2379 19.9836 29.2917 20.0095L29.2919 20.0609C29.1103 20.1632 29.0377 20.1733 28.8319 20.2188C28.7568 20.2089 28.7253 20.1907 28.6574 20.161L28.6734 20.102C28.8144 20.0189 28.9986 19.9967 29.1621 19.966Z" fill="#FAFAFA" fill-opacity="0.1"/>
<path d="M35.5008 43.6232C35.6635 43.648 35.7095 43.6523 35.8748 43.6379L35.9138 43.6343L35.916 43.6597C35.8665 43.6871 35.8166 43.7137 35.7663 43.7394C35.6377 43.8044 35.4785 43.8731 35.3359 43.8272C35.3438 43.7329 35.4007 43.704 35.4789 43.6206L35.5008 43.6232Z" fill="#FAFAFA" fill-opacity="0.1"/>
<path d="M27.6971 20.4226L27.7716 20.4146L27.7849 20.478C27.6468 20.5995 27.5605 20.6093 27.3824 20.6546L27.3384 20.5112L27.3837 20.459C27.511 20.4663 27.574 20.4719 27.6971 20.4226Z" fill="#FAFAFA" fill-opacity="0.1"/>
<path d="M28.0261 20.2212C28.1319 20.2205 28.2198 20.2307 28.3243 20.2409L28.3553 20.2926L28.2342 20.3981C28.0799 20.4197 28.0582 20.4222 27.9032 20.3912L27.8948 20.3194L28.0261 20.2212Z" fill="#FAFAFA" fill-opacity="0.1"/>
<path d="M11.0696 25.7417L11.138 25.7759C11.2024 25.9006 11.1722 26.0626 11.163 26.2112L11.1087 26.1778C11.0236 26.0551 11.0588 25.9023 11.0696 25.7417Z" fill="#FAFAFA" fill-opacity="0.1"/>
<path d="M52.9971 25.9053C53.0871 26.6789 53.1709 26.6136 53.4296 27.3017C53.5423 27.6017 53.5481 28.5799 53.5121 28.9328L53.504 28.8919C53.4732 28.7323 53.4489 28.2325 53.4134 28.1611C53.3062 29.6042 53.4451 31.4281 53.4178 32.9364C53.3697 33.3821 53.2509 35.6886 53.453 35.9465C53.4645 35.9613 53.4772 35.9751 53.4899 35.9889C53.5159 36.4744 53.4697 36.9618 53.0791 37.3115C53.0554 36.7977 53.1851 36.2246 53.1802 35.6997C53.1571 33.2607 53.1904 30.8204 53.1593 28.3814C53.149 27.5766 52.9664 26.7149 52.9971 25.9053Z" fill="#FAFAFA" fill-opacity="0.1"/>
<path d="M28.5995 53.2739C29.4771 53.0974 30.4736 53.1444 31.374 53.1363C32.7093 53.1242 34.0396 53.1149 35.3749 53.139C35.8409 53.1473 36.275 52.9868 36.8313 53.0466C36.6457 53.0912 36.6178 53.0654 36.5066 53.1815C36.5602 53.2849 36.6266 53.3082 36.7288 53.3674L36.7048 53.4232C36.3635 53.549 34.6448 53.5834 34.2242 53.5602C34.5307 53.4867 35.0104 53.5084 35.4223 53.4151C35.316 53.3387 34.2798 53.3652 34.0639 53.37L30.6974 53.4023C30.4044 53.4041 29.5877 53.3668 29.3663 53.4155L29.3279 53.4914C29.5674 53.5959 30.9135 53.4844 31.0923 53.5645C30.8695 53.6235 29.1952 53.5688 28.8913 53.5538C28.8636 53.5345 28.1518 53.4043 28.0343 53.3737C28.1897 53.3221 29.4741 53.3923 29.8068 53.3653C29.4295 53.3513 28.9613 53.3483 28.5995 53.2739Z" fill="#FAFAFA" fill-opacity="0.1"/>
<path d="M51.6829 22.6076C51.6736 22.5788 51.5521 22.1958 51.5566 22.2012C51.2161 21.7874 51.0877 21.8623 51.0118 21.2962C50.9494 21.3192 50.8867 21.3503 50.8259 21.3783C50.5875 21.2098 50.7871 21.0146 50.3459 20.8946C50.1383 20.8382 50.158 20.3621 50.1109 20.1267C49.6191 19.9569 49.7024 19.9714 49.5066 19.5133C49.2718 19.5285 49.2704 19.4828 49.1837 19.3031L49.22 19.2423L49.3814 19.2409C49.381 19.2809 49.3825 19.2636 49.376 19.3062L49.371 19.3375L49.5271 19.4441L49.5482 19.3802L49.475 19.3036L49.5855 19.2359C49.511 19.0954 49.2627 19.205 49.1144 19.1209C48.877 18.9863 49.1606 18.8445 49.0901 18.599C48.9199 18.5891 48.7013 18.5634 48.5829 18.4328L48.6623 18.3941L48.5786 18.3489L48.5741 18.2953C48.7055 18.2923 48.6642 18.3108 48.7641 18.2442C48.3787 18.2155 48.3223 18.135 48.2189 17.7913C48.1589 17.5919 48.0215 17.6546 47.8352 17.5177C47.7834 17.3877 47.6513 17.2125 47.6339 17.1393C47.7185 16.9568 47.6705 17.0027 47.8266 16.8872C48.2731 17.3514 48.6778 17.8409 49.1085 18.3225C49.1999 18.4248 49.334 18.8778 49.3793 18.9247C49.7021 19.2592 50.3067 20.0043 50.6153 20.2873C50.7794 21.1571 51.6599 21.6701 51.6829 22.6076Z" fill="#FAFAFA" fill-opacity="0.1"/>
<path d="M27.0153 10.9638L27.1056 10.838C27.0769 10.6957 27.0749 10.7316 26.9369 10.6176L26.9348 10.5747C27.2154 10.4392 28.5295 10.4554 28.8791 10.4878C28.5229 10.5308 28.2445 10.5346 27.8846 10.5399C27.6355 10.5147 27.3919 10.5496 27.1428 10.575C27.9605 10.8497 28.6764 10.686 29.5201 10.6727C30.7347 10.6629 31.9494 10.6606 33.1641 10.6657C33.8035 10.6639 34.443 10.6714 35.0823 10.6883C35.4636 10.7018 36.1751 10.7606 36.5105 10.7248L36.5817 10.6801C36.4969 10.5478 36.4937 10.581 36.3108 10.5151C36.6308 10.5149 36.9353 10.466 37.1273 10.7765C37.25 10.9748 37.4374 10.9611 37.6506 10.9944C37.4249 11.0026 37.2138 11.0151 36.9943 10.9557C36.7673 10.8942 36.4432 10.7433 36.2108 10.7582C35.2053 10.8227 34.1984 10.8424 33.191 10.8514C31.4345 10.867 29.6787 10.8645 27.924 10.7731C27.3647 10.7436 27.4499 10.9935 27.0153 10.9638Z" fill="#FAFAFA" fill-opacity="0.1"/>
<path d="M9.98345 29.5073C10.3902 30.0301 10.1524 33.9069 10.0736 34.7889L10.0486 34.8334C9.87506 33.3082 9.92316 31.0825 9.98345 29.5073ZM10.0394 33.554C10.0809 32.941 10.1291 31.112 10.033 30.5337C9.99267 31.4457 9.94589 32.6362 10.0394 33.554Z" fill="#FAFAFA" fill-opacity="0.1"/>
<path d="M10.033 30.5337C10.1291 31.112 10.0809 32.9409 10.0394 33.5539C9.94588 32.6362 9.99266 31.4457 10.033 30.5337Z" fill="#FAFAFA" fill-opacity="0.1"/>
<path d="M10.5269 27.6558L10.6271 27.685C10.649 27.7703 10.6873 35.9873 10.6372 36.3589L10.6009 36.4042C10.5512 34.804 10.4702 33.4093 10.5056 31.7961C10.517 31.276 10.5396 29.1232 10.4843 28.7104C10.493 28.3582 10.4982 28.007 10.5269 27.6558Z" fill="#FAFAFA" fill-opacity="0.1"/>
<path d="M28.8791 10.4878C30.7757 10.4959 32.6496 10.4684 34.5533 10.4898C34.9249 10.5376 35.3659 10.5269 35.6971 10.5855C35.0094 10.6226 28.0783 10.688 27.8846 10.5399C28.2445 10.5345 28.5229 10.5307 28.8791 10.4878Z" fill="#FAFAFA" fill-opacity="0.1"/>
<path d="M53.4177 32.9359C53.4451 31.4277 53.3062 29.6037 53.4133 28.1606C53.4489 28.232 53.4731 28.7318 53.5039 28.8914L53.512 28.9324C53.5571 30.3798 53.6281 31.8311 53.5768 33.2774C53.5652 33.6066 53.5726 34.3071 53.5177 34.6023C53.3332 34.3421 53.4485 33.3339 53.4177 32.9359Z" fill="#FAFAFA" fill-opacity="0.1"/>
<path d="M53.9021 29.5415L53.9733 29.5779C53.9932 29.6172 54.0165 29.6581 54.0176 29.7136C54.0484 31.2697 54.0908 32.8574 54.0046 34.4098C53.972 34.4496 53.9452 34.4826 53.924 34.5084C53.7922 34.2482 53.8262 29.9423 53.9021 29.5415Z" fill="#FAFAFA" fill-opacity="0.1"/>
<path d="M47.7663 16.7677C47.6721 16.7671 47.5779 16.766 47.4837 16.7643C47.4314 16.8628 47.4258 16.8388 47.4307 16.9349L47.6335 16.9365L47.6608 16.9956L47.6309 17.06C47.2956 17.1516 46.8389 16.2741 46.6162 16.1103C46.5372 16.0523 46.4736 16.1567 46.3559 15.9646L46.4126 15.8182C46.2932 15.7214 46.0649 15.7165 45.9177 15.6691C45.8003 15.6312 45.8672 15.4158 45.8542 15.404C45.7209 15.2822 45.569 15.3481 45.4432 15.1983C45.5433 15.1542 45.7574 15.1817 45.8771 15.1889L45.9087 15.2079C46.0092 15.2676 46.1126 15.2966 46.1266 15.304C46.5329 15.5193 46.3195 15.6359 46.833 15.814C47.0499 16.1794 47.1955 16.261 47.4593 16.5785C47.5754 16.7183 47.64 16.6723 47.7663 16.7677Z" fill="#FAFAFA" fill-opacity="0.1"/>
<path d="M34.5533 10.4897C35.0707 10.4624 35.9435 10.5504 36.3108 10.5149C36.4937 10.5809 36.4969 10.5476 36.5817 10.68L36.5104 10.7247C36.1751 10.7604 35.4636 10.7017 35.0823 10.6881C34.443 10.6712 33.8035 10.6637 33.164 10.6656C31.9494 10.6605 30.7347 10.6628 29.5201 10.6726C28.6764 10.6858 27.9605 10.8496 27.1428 10.5749C27.3919 10.5494 27.6355 10.5145 27.8846 10.5398C28.0783 10.688 35.0094 10.6225 35.6971 10.5854C35.3659 10.5269 34.9249 10.5375 34.5533 10.4897Z" fill="#FAFAFA" fill-opacity="0.1"/>
<path d="M42.6426 51.1267C42.7046 51.0651 42.6797 51.1015 42.7049 51.0057C42.5189 50.8862 42.2985 50.9758 42.0735 50.8788C42.139 50.6488 43.1588 50.7396 43.362 50.6001C43.3995 50.0522 43.7884 50.2543 44.2265 50.0753C44.0426 50.0177 43.9526 50.023 43.9279 49.8187C44.0698 49.6057 44.5293 49.619 44.7565 49.6452C44.4168 49.8636 44.6042 49.9116 44.3814 50.0961C44.0768 50.3483 43.0862 50.8223 42.9101 51.0884C42.7934 51.1401 42.7744 51.132 42.6426 51.1267Z" fill="#FAFAFA" fill-opacity="0.1"/>
<path d="M30.1139 53.8655C30.3916 53.7688 34.3195 53.8314 34.4604 53.9124C34.3394 53.978 34.1804 53.9695 34.0399 53.9746C33.6212 54.0288 29.9202 54.0639 29.6938 53.9279C29.8407 53.8492 29.947 53.864 30.1139 53.8655Z" fill="#FAFAFA" fill-opacity="0.1"/>
<path d="M31.0923 53.5646C30.9135 53.4845 29.5674 53.5961 29.3279 53.4915L29.3663 53.4156C29.5877 53.3669 30.4044 53.4042 30.6974 53.4024L34.0639 53.3701L34.1405 53.4457C33.938 53.5909 32.8094 53.4484 32.3945 53.562C31.9933 53.5863 31.5006 53.5688 31.0923 53.5646Z" fill="#FAFAFA" fill-opacity="0.1"/>
<path d="M41.6221 12.3735C42.02 12.4092 42.1746 12.514 42.4477 12.8228C42.9248 12.9035 43.075 13.1067 43.5107 13.2913C43.8882 13.4513 43.9276 13.4155 44.0851 13.8061C43.9118 13.8083 43.6064 13.3809 43.3776 13.331C43.175 13.2868 42.9118 13.3508 42.7788 13.2338L42.8949 13.1759L42.895 13.1315L42.7061 13.0495L42.7865 13.0325C42.1745 12.7395 41.2351 12.7562 40.9449 12.5945L40.9421 12.5627C41.0942 12.4499 41.4317 12.597 41.6182 12.4711L41.6221 12.3735Z" fill="#FAFAFA" fill-opacity="0.1"/>
<path d="M39.5163 51.8195C40.2825 51.57 40.771 51.7648 41.5334 51.6048C41.5914 51.5926 41.569 51.5977 41.6094 51.5302C41.4716 51.4181 41.4658 51.4515 41.2565 51.4292C41.7625 51.1829 42.0575 51.1236 42.6117 51.1304C42.3882 51.17 42.3334 51.1439 42.1749 51.2748C42.0299 51.751 41.8082 51.6126 41.3648 51.7031C40.7819 51.822 41.3907 52.0812 40.6117 52.0748C40.7043 52.0402 40.7482 52.0191 40.8359 51.9733C40.6461 51.8262 39.8811 51.8625 39.5163 51.8195Z" fill="#FAFAFA" fill-opacity="0.1"/>
<path d="M32.5001 9.97385C32.9489 9.94059 33.8991 9.97214 34.3177 10.0622L34.307 10.1024C33.7879 10.1836 29.5442 10.1826 29.1817 10.0404C29.8636 9.99068 30.3903 9.95376 31.078 9.97414C30.9785 9.98636 30.7815 9.98896 30.7303 10.0457C31.0082 10.113 32.5274 10.1064 32.837 10.0552L32.8386 10.0223C32.722 10.0028 32.6184 9.98722 32.5001 9.97385Z" fill="#FAFAFA" fill-opacity="0.1"/>
<path d="M47.6503 47.3082C47.744 47.1929 47.7524 46.9768 47.8069 46.9083C47.9231 46.7624 48.1452 46.8485 48.2171 46.6263C48.2984 46.3748 48.2622 45.999 48.4209 45.8081C48.5163 45.8072 48.561 45.8194 48.6551 45.838C48.8447 45.6921 48.6016 45.697 48.7044 45.3848C48.864 45.3633 48.8274 45.375 48.9927 45.442C49.043 45.5225 49.0841 45.5678 49.1457 45.6402C49.1237 45.6885 47.7276 47.2832 47.6503 47.3082Z" fill="#FAFAFA" fill-opacity="0.1"/>
<path d="M37.8425 11.0078C38.8287 11.045 38.5599 11.3051 39.1904 11.4238C38.8188 11.4558 36.9924 11.4193 36.7031 11.3586C36.7565 11.3299 37.1426 11.3328 37.2229 11.3349C37.6182 11.3454 37.8005 11.2615 38.1643 11.1793L38.2014 11.1352C38.1214 11.0634 37.9713 11.0598 37.8465 11.0373L37.8425 11.0078Z" fill="#FAFAFA" fill-opacity="0.1"/>
<path d="M24.6216 11.4257C25.4701 11.2746 25.187 10.9632 26.2516 11.0018L25.8177 11.0564C25.6832 11.0756 25.5869 11.0624 25.5079 11.1417C25.6727 11.2096 25.7427 11.201 25.92 11.2003C26.2008 11.1886 26.4526 11.1794 26.7342 11.1839C26.8043 11.1867 26.9025 11.1805 26.9549 11.2182L26.9733 11.2L27.0793 11.224C26.8357 11.226 26.3689 11.2141 26.1531 11.2749L26.1656 11.3122C26.3717 11.3246 26.8981 11.322 27.0517 11.3475C26.8369 11.4078 24.9507 11.438 24.6216 11.4257Z" fill="#FAFAFA" fill-opacity="0.1"/>
<path d="M45.8854 48.7321C45.9194 48.5827 45.8526 48.5178 45.8281 48.3665C45.9717 48.239 46.0206 48.1899 46.191 48.1036L46.3161 48.1778C46.4608 48.0232 46.4783 47.9678 46.561 47.7699C46.6932 47.6883 47.1061 47.7284 47.2849 47.7342C46.8043 47.9148 46.991 48.0286 46.7743 48.1861C46.5283 48.1915 46.1845 48.311 45.9892 48.4514C45.968 48.5445 45.9452 48.6372 45.9208 48.7294L45.8854 48.7321Z" fill="#FAFAFA" fill-opacity="0.1"/>
<path d="M52.5678 24.6362L52.4666 24.6659C52.4559 24.7762 52.4522 24.8777 52.4478 24.988L52.3976 25.0029C52.3695 24.6952 52.0668 24.6154 52.016 24.1076C52.1186 23.9096 52.0674 23.9418 52.2401 23.8398C52.3504 24.0055 52.4112 24.0203 52.2803 24.204C52.4349 24.316 52.5984 24.1903 52.5678 24.6362Z" fill="#FAFAFA" fill-opacity="0.1"/>
<path d="M36.0941 52.9382C37.1062 52.7578 37.678 52.9168 38.6356 52.8697L38.6095 52.9252C38.2252 52.9963 37.7578 53.0189 37.3663 53.0096C36.9204 53.0062 36.5368 53.0138 36.0941 52.9382Z" fill="#FAFAFA" fill-opacity="0.1"/>
<path d="M34.0639 53.3701C34.2798 53.3653 35.316 53.3389 35.4222 53.4153C35.0104 53.5085 34.5307 53.4868 34.2242 53.5603C33.6174 53.5681 33.0004 53.5836 32.3945 53.562C32.8094 53.4484 33.938 53.5909 34.1405 53.4457L34.0639 53.3701Z" fill="#FAFAFA" fill-opacity="0.1"/>
<path d="M22.3351 12.3681C22.5493 12.2973 22.6902 12.3587 22.8678 12.1536C23.0731 11.9166 23.2396 11.9372 23.5284 11.9326C23.3778 11.9801 23.2883 11.9803 23.1943 12.083C23.3471 12.1387 23.5715 12.1327 23.7403 12.1375C23.675 12.1586 23.6101 12.1809 23.5457 12.2045C23.6672 12.2594 23.7813 12.1463 23.9651 12.2345L23.9533 12.2855C23.5901 12.3869 22.7661 12.3541 22.3351 12.3681Z" fill="#FAFAFA" fill-opacity="0.1"/>
<path d="M53.4177 32.936C53.4485 33.334 53.3332 34.3422 53.5177 34.6024C53.5453 34.9285 53.5059 35.6366 53.4898 35.9885C53.4772 35.9747 53.4645 35.9609 53.453 35.9462C53.2509 35.6882 53.3697 33.3818 53.4177 32.936Z" fill="#FAFAFA" fill-opacity="0.1"/>
<path d="M20.6395 13.3119C21.2053 13.1046 20.7891 12.8996 21.514 12.8584L21.4772 12.8752C21.3717 12.9227 21.3249 12.9505 21.2065 12.9425L21.1424 13.0066C21.281 13.104 21.7354 13.0444 21.864 13.1697C21.7208 13.3124 20.8799 13.3163 20.6395 13.3119Z" fill="#FAFAFA" fill-opacity="0.1"/>
<path d="M31.078 9.97422C31.5458 9.97104 32.0341 9.96052 32.5001 9.97392C32.6184 9.98729 32.722 10.0029 32.8386 10.0224L32.837 10.0553C32.5274 10.1064 31.0082 10.1131 30.7303 10.0457C30.7815 9.98903 30.9785 9.98643 31.078 9.97422Z" fill="#FAFAFA" fill-opacity="0.1"/>
<path d="M26.2516 11.0019L26.6425 10.9941C26.9192 11.0113 27.2988 11.0253 27.5639 11.0668C27.3096 11.1335 26.9989 11.1558 26.7342 11.184C26.4526 11.1795 26.2008 11.1886 25.92 11.2004C25.8648 11.1643 25.8486 11.116 25.8177 11.0565L26.2516 11.0019Z" fill="#FAFAFA" fill-opacity="0.1"/>
<path d="M45.9208 48.7299C45.9452 48.6376 45.968 48.5449 45.9892 48.4519C46.1845 48.3115 46.5283 48.1919 46.7743 48.1865C46.4262 48.334 46.5024 48.4569 46.2525 48.6723C46.2199 48.7005 45.9917 48.7118 45.9208 48.7299Z" fill="#FAFAFA" fill-opacity="0.1"/>
<path d="M52.0125 40.7703C51.802 40.5952 51.9287 40.0633 52.0778 39.8962C52.2322 39.8971 52.1803 39.8745 52.278 39.9713C52.1483 40.2128 52.0845 40.5037 52.0125 40.7703Z" fill="#FAFAFA" fill-opacity="0.1"/>
<path d="M26.1245 53.0162L25.9479 52.9277L25.9809 52.8761C26.21 52.8404 26.9408 52.8286 27.1169 52.9554C26.8925 53.0074 26.4208 52.9966 26.1656 53.0057L26.1245 53.0162Z" fill="#FAFAFA" fill-opacity="0.1"/>
<path d="M52.9921 38.1459C52.9617 38.1641 52.9153 38.1803 52.8813 38.194C52.7791 37.9971 52.8725 37.3571 52.9642 37.1606L53.019 37.188L53.0529 37.4189C53.0312 37.6491 52.999 37.9179 52.9921 38.1459Z" fill="#FAFAFA" fill-opacity="0.1"/>
<path d="M23.5284 11.9326L23.6022 11.9343C23.7341 11.948 24.0895 11.9681 24.1835 12.027C24.0318 12.0729 23.8946 12.1031 23.7403 12.1375C23.5716 12.1327 23.3471 12.1387 23.1943 12.083C23.2883 11.9803 23.3778 11.9801 23.5284 11.9326Z" fill="#FAFAFA" fill-opacity="0.1"/>
<path d="M37.8465 11.0371C37.9713 11.0597 38.1214 11.0632 38.2014 11.1351L38.1644 11.1792C37.7753 11.1883 37.3977 11.1755 37.0094 11.1642C37.1363 11.1612 37.5648 11.1428 37.6751 11.0839C37.7585 11.0393 37.7194 11.0494 37.8465 11.0371Z" fill="#FAFAFA" fill-opacity="0.1"/>
<path d="M25.92 11.2005C25.7427 11.2012 25.6727 11.2098 25.5079 11.1419C25.5869 11.0626 25.6832 11.0758 25.8177 11.0566C25.8486 11.1162 25.8649 11.1644 25.92 11.2005Z" fill="#FAFAFA" fill-opacity="0.1"/>
</svg>
