<svg width="238" height="221" viewBox="0 0 238 221" fill="none" xmlns="http://www.w3.org/2000/svg">
<g clip-path="url(#clip0_1896_6329)">
<mask id="mask0_1896_6329" style="mask-type:luminance" maskUnits="userSpaceOnUse" x="-71" y="-75" width="364" height="364">
<path d="M127.554 -74.2998L292.28 124.43L94.5582 288.4L-70.4199 89.9227" fill="white"/>
</mask>
<g mask="url(#mask0_1896_6329)">
<path d="M112.442 13.6045C62.0666 14.8639 21.7666 56.1713 21.7666 107.05C21.7666 158.684 63.8297 200.496 115.212 200.496C132.34 200.496 178.685 193.443 200.598 145.083C191.278 148.861 181.203 151.128 170.373 151.128C125.791 151.128 89.7729 122.163 89.7729 77.5807C89.7729 54.66 96.5735 36.2731 107.152 22.9237C109.167 20.1531 112.945 16.1232 115.212 13.8563C114.708 13.6044 112.442 13.6045 112.442 13.6045Z" fill="url(#paint0_linear_1896_6329)"/>
</g>
<mask id="mask1_1896_6329" style="mask-type:luminance" maskUnits="userSpaceOnUse" x="-1" y="-18" width="240" height="250">
<path d="M238.379 -17.6279H-0.146484V231.477H238.379V-17.6279Z" fill="white"/>
</mask>
<g mask="url(#mask1_1896_6329)">
<path d="M123.524 22.6721C137.629 41.5627 140.651 59.194 140.651 77.8327C140.651 122.415 104.633 151.38 60.0512 151.38C49.2205 151.38 39.1455 149.365 29.8262 145.335C51.9912 194.703 98.0843 200.748 115.212 200.748C166.846 200.748 208.657 158.684 208.657 107.302C208.657 56.6751 168.357 15.6196 117.982 13.8564H115.212C117.479 15.8714 121.509 19.9014 123.524 22.6721Z" fill="url(#paint1_linear_1896_6329)"/>
</g>
<path d="M105.48 24.8363C95.6568 38.1857 89.3599 56.0688 89.6118 77.2263C89.6118 100.399 99.6868 119.793 115.555 132.891C130.919 120.045 141.498 100.903 140.994 77.7301C140.742 60.3507 139.231 44.2307 124.119 23.3251C121.852 20.0507 117.318 15.517 115.303 13.502C114.799 13.7538 109.006 19.547 105.48 24.8363Z" fill="white"/>
</g>
<defs>
<linearGradient id="paint0_linear_1896_6329" x1="21.2142" y1="20.3411" x2="176.703" y2="207.78" gradientUnits="userSpaceOnUse">
<stop stop-color="#EF3B23"/>
<stop offset="1" stop-color="#8B131E"/>
</linearGradient>
<linearGradient id="paint1_linear_1896_6329" x1="22.5793" y1="107.337" x2="231.342" y2="107.337" gradientUnits="userSpaceOnUse">
<stop stop-color="#B7212F"/>
<stop offset="1" stop-color="#EF3B23"/>
</linearGradient>
<clipPath id="clip0_1896_6329">
<rect width="238" height="221" fill="white"/>
</clipPath>
</defs>
</svg>
