<svg width="130" height="36" viewBox="0 0 130 36" fill="none" xmlns="http://www.w3.org/2000/svg">
<g clip-path="url(#clip0_532_12639)">
<mask id="mask0_532_12639" style="mask-type:luminance" maskUnits="userSpaceOnUse" x="-34" y="-454" width="776" height="548">
<path d="M-33.031 93.374H741.23V-453.188H-33.031V93.374Z" fill="white"/>
</mask>
<g mask="url(#mask0_532_12639)">
<path d="M38.5381 34.569H26.9196L19.8651 22.0584H31.4819L38.5381 34.569Z" fill="#800000"/>
<path d="M19.8235 1.64406L25.6493 11.833L12.7804 34.5692H1.1842L19.8235 1.64406Z" fill="#800000"/>
<path d="M45.7474 17.7515L43.7894 13.9368L41.7353 17.7515H45.7474ZM46.5556 19.3454H40.9065L39.4376 22.0584H37.2852L43.8277 10.1342L50.1323 22.0584H47.9513L46.5556 19.3454Z" fill="#800000"/>
<path d="M54.5508 16.203L50.9088 10.8566H53.1791L55.7068 14.6406L58.35 10.8566H60.638L56.8371 16.203L60.8325 22.0583H58.5977L55.6759 17.7654L52.6557 22.0583H50.4003L54.5508 16.203Z" fill="#800000"/>
<path d="M64.6111 22.0586H62.6211V10.8563H64.6105L64.6111 22.0586Z" fill="#800000"/>
<path d="M74.5625 12.5048L72.9374 13.3244C72.6343 12.8794 72.3506 12.5892 72.072 12.4525C71.7871 12.2966 71.4222 12.2204 70.9692 12.2204C70.42 12.2204 69.9636 12.3542 69.5906 12.6252C69.2274 12.8835 69.045 13.2098 69.0455 13.6048C69.0455 14.1592 69.5266 14.5966 70.4807 14.9276L71.7997 15.39C72.8716 15.7472 73.6547 16.205 74.1564 16.7303C74.6597 17.2643 74.8988 17.9117 74.8988 18.6894C74.8988 19.7161 74.4967 20.5747 73.6816 21.2367C72.8711 21.9213 71.8506 22.2593 70.642 22.2593C69.4951 22.2593 68.5462 21.9731 67.8037 21.3896C67.0613 20.805 66.6088 19.9976 66.4218 18.9582L68.4403 18.5789C68.5364 19.2414 68.6892 19.687 68.9243 19.9418C69.331 20.4223 69.9384 20.6683 70.7215 20.6683C71.3478 20.6683 71.8592 20.4973 72.2682 20.1355C72.6823 19.7859 72.8842 19.3351 72.8842 18.7953C72.8842 18.5789 72.8533 18.3765 72.7675 18.2019C72.7103 18.0123 72.5971 17.8512 72.4478 17.6976C72.3025 17.5534 72.0972 17.398 71.8592 17.2683C71.6213 17.1316 71.3364 17.0159 71.0058 16.8827L69.7319 16.4342C67.9141 15.7885 67.0195 14.8415 67.0195 13.5908C67.0195 12.7474 67.4004 12.0528 68.1555 11.488C68.9094 10.9133 69.8543 10.6207 70.984 10.6219C72.5044 10.6219 73.7056 11.2501 74.5625 12.5048Z" fill="#800000"/>
<path d="M84.7066 20.4635H85.9404C86.8493 20.4635 87.5117 20.3163 87.9344 20.0214C88.3759 19.6927 88.6036 19.2826 88.6036 18.7899C88.6036 18.3025 88.3759 17.8947 87.9532 17.5567C87.5351 17.2508 86.7949 17.0774 85.7161 17.0774H84.7066V20.4635ZM84.7066 15.6645H85.338C86.0771 15.6645 86.6256 15.5278 86.9671 15.2486C87.308 14.9688 87.4853 14.5604 87.4853 14.0253C87.4853 13.4901 87.308 13.0876 86.9568 12.8258C86.5976 12.5437 86.0879 12.4064 85.4124 12.4064H84.7066V15.6645ZM82.7148 22.0585V10.8562H84.7066C85.5903 10.8562 86.2939 10.9062 86.8195 11.0254C87.3486 11.1377 87.7948 11.3431 88.1574 11.6066C88.5321 11.9038 88.8181 12.2557 89.0395 12.6908C89.2683 13.1091 89.3792 13.55 89.3792 13.9892C89.3792 14.7913 89.0114 15.4696 88.2867 16.0274C88.9949 16.2293 89.5417 16.5853 89.9472 17.0943C90.3631 17.5951 90.5656 18.1745 90.5656 18.8557C90.5656 19.7235 90.2029 20.4635 89.469 21.0725C89.0326 21.4459 88.5395 21.7083 87.9921 21.8467C87.391 21.9904 86.6428 22.0585 85.7373 22.0585H82.7148Z" fill="#800000"/>
<path d="M99.1401 17.7515L97.1747 13.9368L95.1121 17.7515H99.1401ZM99.9506 19.3454H94.2935L92.8229 22.0584H90.6693L97.2021 10.1342L103.518 22.0584H101.326L99.9506 19.3454Z" fill="#800000"/>
<path d="M104.823 22.0586V10.0774L114.454 18.6429V10.8563H116.449V22.7421L106.816 14.2057V22.0586H104.823Z" fill="#800000"/>
<path d="M120.916 15.3287L126.063 10.8566H128.717L122.749 15.9319L128.759 22.0583H126.087L121.331 17.0726L120.916 17.4228V22.0583H118.918V10.8566H120.916V15.3287Z" fill="#800000"/>
</g>
</g>
<defs>
<clipPath id="clip0_532_12639">
<rect width="130" height="36" fill="white"/>
</clipPath>
</defs>
</svg>
