<svg width="174" height="58" viewBox="0 0 174 58" fill="none" xmlns="http://www.w3.org/2000/svg">
<rect width="174" height="58" fill="#94144C"/>
<path d="M54.8386 48.3311H40.7176L32.1437 33.7354H46.2626L54.8386 48.3311Z" fill="white"/>
<path d="M32.0931 9.91837L39.1737 21.8055L23.5331 48.3311H9.43925L32.0931 9.91837Z" fill="white"/>
<path d="M63.6006 28.7107L61.2209 24.2601L58.7244 28.7107H63.6006ZM64.5829 30.5702H57.7171L55.9318 33.7354H53.3158L61.2675 19.8238L68.93 33.7354H66.2792L64.5829 30.5702Z" fill="white"/>
<path d="M74.3002 26.9041L69.8738 20.6667H72.6331L75.7052 25.0813L78.9177 20.6667H81.6985L77.0789 26.9041L81.9349 33.7354H79.2187L75.6676 28.7269L71.997 33.7354H69.2558L74.3002 26.9041Z" fill="white"/>
<path d="M86.5273 33.7354H84.1087V20.666H86.5266L86.5273 33.7354Z" fill="white"/>
<path d="M98.6221 22.5895L96.647 23.5457C96.2785 23.0266 95.9337 22.6879 95.5952 22.5284C95.249 22.3466 94.8054 22.2577 94.2548 22.2577C93.5874 22.2577 93.0326 22.4138 92.5794 22.73C92.1379 23.0313 91.9162 23.412 91.9168 23.8728C91.9168 24.5196 92.5015 25.0299 93.6611 25.4161L95.2642 25.9556C96.5671 26.3723 97.5188 26.9064 98.1285 27.5192C98.7403 28.1422 99.0309 28.8975 99.0309 29.8049C99.0309 31.0027 98.5421 32.0044 97.5515 32.7767C96.5664 33.5754 95.3261 33.9697 93.8572 33.9697C92.4633 33.9697 91.3099 33.6358 90.4076 32.9552C89.5052 32.2731 88.9553 31.3312 88.728 30.1184L91.1813 29.6759C91.2981 30.4489 91.4837 30.9688 91.7695 31.266C92.2638 31.8266 93.0021 32.1136 93.9538 32.1136C94.715 32.1136 95.3365 31.9141 95.8336 31.492C96.3369 31.0841 96.5823 30.5582 96.5823 29.9284C96.5823 29.6759 96.5448 29.4398 96.4405 29.2362C96.371 29.0149 96.2334 28.827 96.0519 28.6478C95.8753 28.4795 95.6258 28.2983 95.3365 28.147C95.0473 27.9875 94.7011 27.8524 94.2993 27.697L92.7511 27.1738C90.5417 26.4205 89.4544 25.3156 89.4544 23.8566C89.4544 22.8725 89.9174 22.0622 90.8351 21.4033C91.7514 20.7328 92.8999 20.3914 94.2729 20.3927C96.1207 20.3927 97.5807 21.1257 98.6221 22.5895Z" fill="white"/>
<path d="M110.951 31.8745H112.451C113.555 31.8745 114.36 31.7028 114.874 31.3587C115.411 30.9753 115.687 30.4969 115.687 29.922C115.687 29.3533 115.411 28.8776 114.897 28.4833C114.389 28.1263 113.489 27.9241 112.178 27.9241H110.951V31.8745ZM110.951 26.2757H111.719C112.617 26.2757 113.283 26.1162 113.698 25.7905C114.113 25.464 114.328 24.9876 114.328 24.3633C114.328 23.7389 114.113 23.2693 113.686 22.9639C113.249 22.6348 112.63 22.4746 111.809 22.4746H110.951V26.2757ZM108.53 33.7354V20.666H110.951C112.025 20.666 112.88 20.7244 113.519 20.8635C114.162 20.9945 114.704 21.234 115.145 21.5415C115.601 21.8882 115.948 22.2988 116.217 22.8064C116.495 23.2944 116.63 23.8088 116.63 24.3212C116.63 25.257 116.183 26.0483 115.302 26.6992C116.163 26.9346 116.828 27.35 117.32 27.9438C117.826 28.5281 118.072 29.204 118.072 29.9987C118.072 31.0113 117.631 31.8745 116.739 32.585C116.209 33.0207 115.61 33.3268 114.944 33.4883C114.214 33.656 113.304 33.7354 112.204 33.7354H108.53Z" fill="white"/>
<path d="M128.493 28.7107L126.105 24.2601L123.598 28.7107H128.493ZM129.478 30.5702H122.603L120.815 33.7354H118.198L126.138 19.8238L133.814 33.7354H131.15L129.478 30.5702Z" fill="white"/>
<path d="M135.401 33.7358V19.7577L147.106 29.7508V20.6664H149.531V34.5332L137.823 24.5741V33.7358H135.401Z" fill="white"/>
<path d="M154.959 25.8841L161.215 20.6667H164.441L157.187 26.5879L164.491 33.7354H161.244L155.464 27.9187L154.959 28.3272V33.7354H152.531V20.6667H154.959V25.8841Z" fill="white"/>
</svg>
