<svg width="174" height="58" viewBox="0 0 174 58" fill="none" xmlns="http://www.w3.org/2000/svg">
<rect width="174" height="58" fill="#94144C"/>
<path d="M54.8387 48.3301H40.7177L32.1438 33.7345H46.2627L54.8387 48.3301Z" fill="white"/>
<path d="M32.0933 9.91739L39.1739 21.8045L23.5333 48.3301H9.43945L32.0933 9.91739Z" fill="white"/>
<path d="M63.6007 28.7097L61.2211 24.2591L58.7246 28.7097H63.6007ZM64.5831 30.5692H57.7172L55.932 33.7344H53.3159L61.2676 19.8228L68.9302 33.7344H66.2794L64.5831 30.5692Z" fill="white"/>
<path d="M74.3002 26.9031L69.8739 20.6657H72.6332L75.7053 25.0803L78.9178 20.6657H81.6986L77.079 26.9031L81.935 33.7344H79.2188L75.6677 28.726L71.997 33.7344H69.2559L74.3002 26.9031Z" fill="white"/>
<path d="M86.5275 33.7344H84.1089V20.665H86.5268L86.5275 33.7344Z" fill="white"/>
<path d="M98.6224 22.5885L96.6473 23.5448C96.2789 23.0256 95.934 22.687 95.5955 22.5275C95.2493 22.3456 94.8057 22.2567 94.2551 22.2567C93.5877 22.2567 93.033 22.4128 92.5797 22.729C92.1382 23.0303 91.9165 23.4111 91.9172 23.8719C91.9172 24.5186 92.5018 25.029 93.6614 25.4151L95.2646 25.9546C96.5674 26.3713 97.5191 26.9054 98.1288 27.5182C98.7406 28.1412 99.0312 28.8966 99.0312 29.8039C99.0312 31.0017 98.5424 32.0034 97.5518 32.7757C96.5667 33.5745 95.3264 33.9688 93.8575 33.9688C92.4636 33.9688 91.3103 33.6349 90.4079 32.9542C89.5055 32.2721 88.9556 31.3302 88.7283 30.1174L91.1816 29.675C91.2984 30.4479 91.4841 30.9678 91.7698 31.265C92.2641 31.8256 93.0024 32.1127 93.9541 32.1127C94.7154 32.1127 95.3369 31.9131 95.8339 31.491C96.3373 31.0832 96.5827 30.5572 96.5827 29.9274C96.5827 29.675 96.5451 29.4388 96.4408 29.2352C96.3713 29.014 96.2337 28.826 96.0522 28.6468C95.8756 28.4785 95.6261 28.2973 95.3369 28.146C95.0477 27.9865 94.7014 27.8514 94.2996 27.696L92.7514 27.1728C90.5421 26.4195 89.4548 25.3147 89.4548 23.8556C89.4548 22.8715 89.9178 22.0612 90.8354 21.4023C91.7517 20.7318 92.9002 20.3904 94.2732 20.3918C96.1211 20.3918 97.581 21.1247 98.6224 22.5885Z" fill="white"/>
<path d="M110.951 31.8735H112.451C113.555 31.8735 114.36 31.7018 114.874 31.3578C115.411 30.9743 115.688 30.4959 115.688 29.9211C115.688 29.3524 115.411 28.8766 114.897 28.4823C114.389 28.1254 113.489 27.9231 112.178 27.9231H110.951V31.8735ZM110.951 26.2747H111.719C112.617 26.2747 113.284 26.1152 113.699 25.7895C114.113 25.463 114.329 24.9866 114.329 24.3623C114.329 23.7379 114.113 23.2683 113.686 22.9629C113.25 22.6338 112.63 22.4736 111.809 22.4736H110.951V26.2747ZM108.531 33.7344V20.665H110.951C112.025 20.665 112.88 20.7234 113.519 20.8625C114.162 20.9935 114.705 21.233 115.145 21.5405C115.601 21.8873 115.948 22.2978 116.217 22.8055C116.495 23.2934 116.63 23.8078 116.63 24.3202C116.63 25.2561 116.183 26.0474 115.302 26.6982C116.163 26.9337 116.828 27.349 117.321 27.9428C117.826 28.5271 118.072 29.2031 118.072 29.9978C118.072 31.0103 117.631 31.8735 116.739 32.5841C116.209 33.0198 115.61 33.3258 114.944 33.4873C114.214 33.655 113.304 33.7344 112.204 33.7344H108.531Z" fill="white"/>
<path d="M128.493 28.7097L126.105 24.2591L123.598 28.7097H128.493ZM129.479 30.5692H122.603L120.816 33.7344H118.198L126.138 19.8228L133.814 33.7344H131.15L129.479 30.5692Z" fill="white"/>
<path d="M135.401 33.7338V19.7558L147.106 29.7488V20.6645H149.531V34.5312L137.823 24.5721V33.7338H135.401Z" fill="white"/>
<path d="M154.959 25.8831L161.215 20.6657H164.441L157.187 26.5869L164.491 33.7344H161.244L155.464 27.9177L154.959 28.3263V33.7344H152.531V20.6657H154.959V25.8831Z" fill="white"/>
</svg>
