<svg width="129" height="40" viewBox="0 0 129 40" fill="none" xmlns="http://www.w3.org/2000/svg">
<g clip-path="url(#clip0_532_12666)">
<rect width="129" height="40" fill="#0A3152"/>
<mask id="mask0_532_12666" style="mask-type:luminance" maskUnits="userSpaceOnUse" x="-1" y="-1" width="42" height="41">
<path d="M22.0638 -0.013916L40.463 21.912L18.3915 39.9861L-0.00762939 18.0972" fill="white"/>
</mask>
<g mask="url(#mask0_532_12666)">
<path d="M20.3775 9.6898C14.7566 9.83795 10.2599 14.3935 10.2599 19.9861C10.2599 25.6898 14.944 30.2824 20.6773 30.2824C22.5884 30.2824 27.7597 29.5046 30.1954 24.1713C29.1462 24.5787 28.022 24.838 26.8228 24.838C21.839 24.838 17.8294 21.6528 17.8294 16.7268C17.8294 14.2083 18.5788 12.1713 19.778 10.6898C20.0028 10.3935 20.415 9.94906 20.6773 9.6898C20.6398 9.6898 20.3775 9.6898 20.3775 9.6898Z" fill="url(#paint0_linear_532_12666)"/>
</g>
<mask id="mask1_532_12666" style="mask-type:luminance" maskUnits="userSpaceOnUse" x="7" y="6" width="28" height="28">
<path d="M34.4298 33.7268H7.82416V6.24532H34.4298V33.7268Z" fill="white"/>
</mask>
<g mask="url(#mask1_532_12666)">
<path d="M21.6141 10.6898C23.188 12.7638 23.5253 14.7268 23.5253 16.7639C23.5253 21.6898 19.5157 24.8749 14.5318 24.8749C13.3327 24.8749 12.2085 24.6527 11.1592 24.2083C13.6324 29.6527 18.7662 30.3194 20.6773 30.3194C26.4481 30.3194 31.0948 25.6898 31.0948 20.0231C31.0948 14.4305 26.598 9.912 20.9771 9.72681H20.6773C20.9396 9.94904 21.3893 10.3935 21.6141 10.6898Z" fill="url(#paint1_linear_532_12666)"/>
</g>
<path d="M19.6041 10.9272C18.5174 12.4087 17.8054 14.3717 17.8429 16.705C17.8429 19.2606 18.9671 21.4087 20.7283 22.8531C22.4521 21.4457 23.6137 19.3346 23.5762 16.7791C23.5388 14.8531 23.3889 13.0754 21.7026 10.7791C21.4403 10.4087 20.9531 9.92722 20.7283 9.705C20.6534 9.705 20.0163 10.3346 19.6041 10.9272Z" fill="#0A3152"/>
<path d="M37.0237 20.7632V23.7262C37.2111 23.7632 37.4359 23.7632 37.6608 23.7632C37.8856 23.7632 38.1104 23.7632 38.2978 23.7632C38.6725 23.7632 39.0098 23.7262 39.347 23.6891C39.6843 23.6521 39.9466 23.578 40.1714 23.4299C40.3963 23.3188 40.5836 23.1706 40.7335 22.9484C40.8834 22.7632 40.9209 22.5039 40.9209 22.1706C40.9209 21.6151 40.7335 21.2447 40.3213 21.0225C39.9091 20.8002 39.347 20.6891 38.6351 20.6891H37.0237V20.7632ZM37.0237 19.3558H38.2978C38.9723 19.3558 39.5344 19.2447 39.9091 19.0595C40.2839 18.8743 40.5087 18.5039 40.5087 18.0225C40.5087 17.541 40.3213 17.2077 39.9091 17.0225C39.4969 16.8373 38.9723 16.7632 38.3353 16.7632C38.073 16.7632 37.8107 16.7632 37.5858 16.7632C37.361 16.7632 37.1736 16.8002 37.0237 16.8002V19.3558ZM38.2603 25.2447C37.7357 25.2447 37.2111 25.2447 36.6865 25.2077C36.1619 25.1706 35.6747 25.0965 35.3 24.9854V15.5039C35.5248 15.4669 35.7122 15.4299 35.9745 15.3928C36.1993 15.3558 36.4616 15.3188 36.6865 15.3188C36.9488 15.3188 37.1736 15.2817 37.4359 15.2817C37.6608 15.2817 37.9231 15.2817 38.1104 15.2817C38.71 15.2817 39.2721 15.3188 39.7592 15.4299C40.2839 15.5039 40.7335 15.6521 41.1083 15.8743C41.483 16.0965 41.7828 16.3558 41.9701 16.6891C42.195 17.0225 42.2699 17.4299 42.2699 17.9484C42.2699 18.3928 42.1575 18.8002 41.9327 19.1336C41.7078 19.4669 41.408 19.7262 40.9958 19.9114C41.5954 20.0965 42.0451 20.3928 42.3074 20.8002C42.6072 21.1706 42.7196 21.6891 42.7196 22.2447C42.7196 23.2447 42.3449 23.9854 41.5954 24.5039C40.9209 25.0225 39.7592 25.2447 38.2603 25.2447Z" fill="white"/>
<path d="M46.2349 23.9602C46.7595 23.9602 47.1717 23.9232 47.434 23.8862V21.9973C47.3591 21.9602 47.2092 21.9232 47.0218 21.9232C46.8344 21.8862 46.6471 21.8862 46.4222 21.8862C46.2349 21.8862 46.0475 21.8862 45.8601 21.9232C45.6728 21.9602 45.4854 21.9973 45.3355 22.0714C45.1856 22.1454 45.0357 22.2565 44.9608 22.3677C44.8859 22.5158 44.8109 22.6639 44.8109 22.8862C44.8109 23.2936 44.9233 23.5528 45.1856 23.738C45.4479 23.8862 45.7852 23.9602 46.2349 23.9602ZM46.085 17.5899C46.6471 17.5899 47.1342 17.6639 47.5089 17.8121C47.8837 17.9602 48.2209 18.1454 48.4458 18.4047C48.6706 18.6639 48.858 18.9602 48.9329 19.3306C49.0453 19.701 49.0828 20.0714 49.0828 20.5158V24.9602C48.8205 25.0343 48.4083 25.0714 47.8837 25.1825C47.3591 25.2565 46.7595 25.2936 46.085 25.2936C45.6353 25.2936 45.2231 25.2565 44.8484 25.1825C44.4737 25.1084 44.1739 24.9602 43.9116 24.7751C43.6493 24.5899 43.4619 24.3306 43.312 24.0343C43.1621 23.738 43.0872 23.3677 43.0872 22.9232C43.0872 22.5158 43.1621 22.1454 43.3495 21.8491C43.4994 21.5528 43.7242 21.3306 44.024 21.1454C44.3238 20.9602 44.6235 20.8491 44.9983 20.738C45.373 20.6639 45.7477 20.6269 46.1599 20.6269C46.3473 20.6269 46.5347 20.6269 46.7595 20.6639C46.9843 20.701 47.1717 20.738 47.434 20.7751V20.4788C47.434 20.2936 47.3965 20.1084 47.3591 19.9232C47.3216 19.738 47.2092 19.5899 47.0967 19.4417C46.9843 19.2936 46.8344 19.1825 46.6096 19.1084C46.4222 19.0343 46.1599 18.9973 45.8601 18.9973C45.4479 18.9973 45.1107 19.0343 44.7734 19.0714C44.4362 19.1454 44.1739 19.1825 43.949 19.2565L43.7991 17.9232C44.024 17.8491 44.3238 17.7751 44.736 17.701C45.1856 17.6269 45.6353 17.5899 46.085 17.5899Z" fill="white"/>
<path d="M50.2763 18.0417C50.6136 17.9306 51.0258 17.8565 51.5504 17.7824C52.075 17.7083 52.6746 17.6713 53.3116 17.6713C53.9112 17.6713 54.4358 17.7454 54.848 17.9306C55.2602 18.0787 55.5974 18.338 55.8223 18.6343C56.0471 18.9306 56.2345 19.3009 56.3469 19.7083C56.4593 20.1158 56.4968 20.5972 56.4968 21.0787V25.2269H54.773V21.2639C54.773 20.8565 54.7356 20.5232 54.6981 20.2639C54.6606 20.0046 54.5482 19.7454 54.4358 19.5972C54.3234 19.4121 54.1735 19.3009 53.9486 19.2269C53.7613 19.1528 53.499 19.1158 53.1992 19.1158C52.9743 19.1158 52.7495 19.1158 52.5247 19.1528C52.2998 19.1898 52.1125 19.1898 52.0001 19.2269V25.1528H50.2763" fill="white"/>
<path d="M59.0547 21.4373C59.0547 22.178 59.242 22.7706 59.5793 23.2151C59.954 23.6595 60.4412 23.8447 61.0782 23.8447C61.3405 23.8447 61.6028 23.8447 61.7902 23.8077C61.9776 23.7706 62.1274 23.7706 62.2773 23.7336V19.5114C62.1274 19.4002 61.9401 19.3262 61.6778 19.2151C61.4155 19.141 61.1532 19.0669 60.8908 19.0669C60.2538 19.0669 59.8041 19.2891 59.5043 19.6965C59.2046 20.141 59.0547 20.7336 59.0547 21.4373ZM64.0011 24.9188C63.6638 25.0299 63.2142 25.1039 62.727 25.2151C62.2024 25.2891 61.6778 25.3262 61.0782 25.3262C60.4786 25.3262 59.954 25.2521 59.5043 25.0669C59.0547 24.8817 58.6425 24.6225 58.3052 24.2891C57.968 23.9558 57.7431 23.5484 57.5558 23.0669C57.3684 22.5854 57.2935 22.0669 57.2935 21.4743C57.2935 20.8817 57.3684 20.3632 57.5183 19.8817C57.6682 19.4002 57.893 18.9928 58.1553 18.6595C58.4551 18.3262 58.7924 18.0669 59.2046 17.8817C59.6168 17.6965 60.0664 17.6225 60.6285 17.6225C61.0033 17.6225 61.303 17.6595 61.5654 17.7336C61.8277 17.8077 62.09 17.9188 62.2773 18.0299V14.5114L64.0011 14.2151" fill="white"/>
<path d="M65.2369 25.1632V14.5335L66.9607 14.2372V17.8669C67.148 17.7928 67.3729 17.7558 67.6352 17.6817C67.8975 17.6446 68.1223 17.6076 68.3847 17.6076C68.9842 17.6076 69.4714 17.6817 69.8836 17.8669C70.2583 18.015 70.5955 18.2743 70.8204 18.5706C71.0452 18.8669 71.2326 19.2372 71.345 19.6446C71.4574 20.052 71.4949 20.5335 71.4949 21.015V25.1632H69.7711V21.3113C69.7711 20.9039 69.7337 20.5706 69.6962 20.3113C69.6587 20.052 69.5463 19.7928 69.4339 19.6446C69.3215 19.4595 69.1716 19.3483 68.9467 19.2743C68.7594 19.2002 68.4971 19.1632 68.1973 19.1632C67.9725 19.1632 67.7476 19.2002 67.4853 19.2372C67.2605 19.2743 67.0731 19.3113 66.9607 19.3483V25.2002" fill="white"/>
<path d="M75.2392 23.9602C75.7638 23.9602 76.176 23.9232 76.4383 23.8862V21.9973C76.3259 21.9602 76.2135 21.9232 76.0261 21.9232C75.8388 21.8862 75.6514 21.8862 75.4266 21.8862C75.2392 21.8862 75.0518 21.8862 74.8645 21.9232C74.6771 21.9602 74.4898 21.9973 74.3399 22.0714C74.19 22.1454 74.0401 22.2565 73.9651 22.3677C73.8527 22.5158 73.8152 22.6639 73.8152 22.8862C73.8152 23.2936 73.9277 23.5528 74.19 23.738C74.4523 23.8862 74.7895 23.9602 75.2392 23.9602ZM75.0893 17.5899C75.6514 17.5899 76.1385 17.6639 76.5133 17.8121C76.888 17.9602 77.2253 18.1454 77.4501 18.4047C77.6749 18.6639 77.8623 18.9602 77.9372 19.3306C78.0497 19.701 78.0871 20.0714 78.0871 20.5158V24.9602C77.8248 25.0343 77.4126 25.0714 76.888 25.1825C76.3634 25.2565 75.7638 25.2936 75.0893 25.2936C74.6396 25.2936 74.2274 25.2565 73.8527 25.1825C73.478 25.1084 73.1782 24.9602 72.9159 24.7751C72.6536 24.5899 72.4662 24.3306 72.3163 24.0343C72.1664 23.738 72.0915 23.3677 72.0915 22.9232C72.0915 22.5158 72.1664 22.1454 72.3538 21.8491C72.5037 21.5528 72.7285 21.3306 73.0283 21.1454C73.3281 20.9602 73.6279 20.8491 74.0026 20.738C74.3773 20.6639 74.7521 20.6269 75.1643 20.6269C75.3516 20.6269 75.539 20.6269 75.7638 20.6639C75.9887 20.701 76.176 20.738 76.4383 20.7751V20.4788C76.4383 20.2936 76.4009 20.1084 76.3634 19.9232C76.3259 19.738 76.251 19.5899 76.1011 19.4417C75.9887 19.2936 75.8388 19.1825 75.6514 19.1084C75.464 19.0343 75.2017 18.9973 74.902 18.9973C74.4898 18.9973 74.1525 19.0343 73.8152 19.0714C73.478 19.1454 73.2157 19.1825 72.9908 19.2565L72.766 17.8862C72.9908 17.8121 73.2906 17.738 73.7028 17.6639C74.1525 17.6269 74.6022 17.5899 75.0893 17.5899Z" fill="white"/>
<path d="M79.2787 18.0417C79.616 17.9306 80.0282 17.8565 80.5903 17.7824C81.1149 17.7083 81.7145 17.6713 82.3515 17.6713C82.9511 17.6713 83.4757 17.7454 83.8879 17.9306C84.3001 18.0787 84.6374 18.338 84.8622 18.6343C85.087 18.9306 85.2744 19.3009 85.3868 19.7083C85.4992 20.1158 85.5367 20.5972 85.5367 21.0787V25.2269H83.8129V21.2639C83.8129 20.8565 83.7755 20.5232 83.738 20.2639C83.7005 20.0046 83.5881 19.7454 83.4757 19.5972C83.3633 19.4121 83.2134 19.3009 82.9885 19.2269C82.8012 19.1528 82.5389 19.1158 82.2391 19.1158C82.0143 19.1158 81.7894 19.1158 81.5646 19.1528C81.3397 19.1898 81.1524 19.1898 81.04 19.2269V25.1528H79.3162" fill="white"/>
<path d="M90.2167 20.4639V24.3158C90.3666 24.3528 90.5539 24.3528 90.8537 24.3898C91.1535 24.4269 91.4158 24.4269 91.7156 24.4269C92.1652 24.4269 92.5774 24.3898 92.9896 24.3528C93.4018 24.2787 93.7766 24.2047 94.0764 24.0565C94.3761 23.9084 94.6385 23.6861 94.8258 23.4269C95.0132 23.1676 95.1256 22.8343 95.1256 22.4269C95.1256 22.0565 95.0507 21.7232 94.9382 21.501C94.7883 21.2417 94.601 21.0565 94.3761 20.9084C94.1138 20.7602 93.814 20.6491 93.4768 20.6121C93.1395 20.538 92.7273 20.538 92.2777 20.538H90.2167V20.4639ZM90.2167 19.6491H92.0903C92.4276 19.6491 92.7648 19.6121 93.1021 19.575C93.4018 19.538 93.7016 19.4269 93.9265 19.2787C94.1513 19.1306 94.3387 18.9454 94.4886 18.7232C94.6384 18.501 94.6759 18.2047 94.6759 17.8343C94.6759 17.501 94.601 17.2417 94.4511 17.0195C94.3012 16.7973 94.1138 16.6121 93.8515 16.4639C93.5892 16.3158 93.2894 16.2417 92.9147 16.1676C92.54 16.0936 92.1652 16.0565 91.7156 16.0565C91.3783 16.0565 91.0785 16.0565 90.8162 16.0936C90.5914 16.0936 90.3666 16.1306 90.2167 16.1676V19.6491ZM91.6406 25.2417C91.4907 25.2417 91.3034 25.2417 91.0785 25.2047C90.8537 25.2047 90.6289 25.1676 90.4415 25.1306C90.2167 25.0936 89.9918 25.0936 89.8045 25.0565C89.6171 25.0195 89.4297 24.9824 89.2798 24.9454V15.575C89.4672 15.538 89.6546 15.501 89.8419 15.4639C90.0668 15.4269 90.2541 15.3898 90.479 15.3898C90.7038 15.3528 90.9286 15.3528 91.116 15.3528C91.3408 15.3528 91.5282 15.3528 91.7156 15.3528C92.2402 15.3528 92.7648 15.3898 93.2145 15.4639C93.7016 15.538 94.1138 15.6861 94.4886 15.8713C94.8633 16.0565 95.1256 16.3158 95.3504 16.6491C95.5753 16.9824 95.6502 17.3898 95.6502 17.8343C95.6502 18.3528 95.5003 18.7973 95.238 19.1676C94.9757 19.538 94.601 19.7973 94.1513 19.9454C94.4511 20.0195 94.7134 20.0936 94.9382 20.2417C95.1631 20.3528 95.3879 20.538 95.5753 20.7232C95.7626 20.9084 95.9125 21.1306 95.9875 21.4269C96.0999 21.6861 96.1374 22.0195 96.1374 22.4269C96.1374 23.3528 95.7626 24.0565 95.0132 24.538C94.3012 24.9824 93.177 25.2417 91.6406 25.2417Z" fill="white"/>
<path d="M99.5579 24.5002C99.9326 24.5002 100.232 24.5002 100.495 24.4632C100.757 24.4262 100.982 24.3891 101.169 24.3891V21.8336C101.057 21.7965 100.907 21.7225 100.682 21.6854C100.457 21.6484 100.157 21.6113 99.7453 21.6113C99.5204 21.6113 99.2956 21.6113 99.0333 21.6484C98.771 21.6854 98.5461 21.7595 98.3588 21.8706C98.1339 21.9817 97.984 22.1299 97.8341 22.3151C97.6842 22.5002 97.6468 22.7595 97.6468 23.0558C97.6468 23.3151 97.6842 23.5743 97.7967 23.7595C97.8716 23.9447 98.0215 24.0928 98.1714 24.2039C98.3213 24.3151 98.5461 24.3891 98.771 24.4632C98.9958 24.4632 99.2956 24.5002 99.5579 24.5002ZM99.4829 17.6854C99.9701 17.6854 100.382 17.7595 100.72 17.8706C101.057 18.0188 101.319 18.2039 101.544 18.4262C101.769 18.6484 101.919 18.9447 101.994 19.278C102.106 19.6113 102.144 19.9447 102.144 20.3521V24.9447C102.069 24.9817 101.919 25.0188 101.731 25.0188C101.544 25.0558 101.357 25.0928 101.094 25.1299C100.869 25.1669 100.607 25.2039 100.307 25.241C100.008 25.278 99.7078 25.278 99.408 25.278C99.0333 25.278 98.6585 25.241 98.3213 25.1669C97.984 25.0928 97.7217 24.9447 97.4594 24.7595C97.2346 24.5743 97.0097 24.3521 96.8973 24.0558C96.7474 23.7595 96.6725 23.4262 96.6725 23.0188C96.6725 22.6113 96.7474 22.278 96.8973 22.0188C97.0472 21.7225 97.272 21.5002 97.5344 21.3151C97.7967 21.1299 98.1339 20.9817 98.5086 20.9076C98.8834 20.8336 99.2956 20.7965 99.7453 20.7965C99.8951 20.7965 100.008 20.7965 100.157 20.8336C100.307 20.8336 100.457 20.8706 100.57 20.9076C100.72 20.9447 100.832 20.9447 100.944 20.9817C101.057 21.0188 101.094 21.0188 101.132 21.0558V20.6113C101.132 20.3521 101.132 20.1299 101.057 19.8706C101.019 19.6484 100.944 19.4262 100.794 19.241C100.682 19.0558 100.495 18.9076 100.27 18.7595C100.045 18.6484 99.7452 18.5743 99.333 18.5743C98.8084 18.5743 98.3962 18.6113 98.1339 18.6854C97.8716 18.7595 97.6842 18.8336 97.5344 18.8706L97.4219 18.0558C97.5718 17.9817 97.8341 17.9076 98.1714 17.8336C98.6211 17.7225 98.9958 17.6854 99.4829 17.6854Z" fill="white"/>
<path d="M103.577 18.1172C103.839 18.0432 104.214 17.9691 104.701 17.858C105.151 17.7469 105.75 17.7098 106.425 17.7098C106.987 17.7098 107.436 17.7839 107.811 17.9321C108.186 18.0802 108.486 18.3024 108.711 18.5987C108.935 18.895 109.085 19.2654 109.198 19.6728C109.31 20.0802 109.348 20.5247 109.348 21.0432V25.1172H108.411V21.3395C108.411 20.821 108.373 20.3765 108.298 20.0432C108.223 19.6728 108.111 19.3765 107.924 19.1543C107.774 18.9321 107.549 18.7839 107.287 18.6728C107.024 18.5617 106.687 18.5247 106.275 18.5247C105.825 18.5247 105.45 18.5617 105.151 18.5987C104.851 18.6358 104.626 18.6728 104.514 18.7098V25.0802H103.577" fill="white"/>
<path d="M112.609 21.1884C112.946 21.4106 113.284 21.7069 113.621 22.0032C113.958 22.2995 114.296 22.6328 114.633 23.0032C114.97 23.3735 115.27 23.7439 115.57 24.1143C115.869 24.4847 116.132 24.855 116.319 25.1884H115.195C114.97 24.818 114.708 24.4476 114.408 24.1143C114.108 23.7439 113.808 23.4106 113.471 23.1143C113.134 22.818 112.834 22.5217 112.497 22.2624C112.16 22.0032 111.897 21.818 111.635 21.6698V25.1884H110.698V14.4476L111.635 14.2624V21.0032C111.822 20.818 112.085 20.5958 112.384 20.2995C112.684 20.0032 112.984 19.7069 113.284 19.4106C113.584 19.1143 113.883 18.818 114.146 18.5587C114.408 18.2995 114.633 18.0402 114.82 17.855H115.944C115.719 18.0772 115.495 18.3365 115.195 18.5958C114.895 18.855 114.633 19.1513 114.296 19.4476C113.996 19.7439 113.696 20.0402 113.396 20.3365C113.171 20.6328 112.872 20.9291 112.609 21.1884Z" fill="white"/>
</g>
<defs>
<linearGradient id="paint0_linear_532_12666" x1="10.2135" y1="10.4335" x2="27.3232" y2="31.3017" gradientUnits="userSpaceOnUse">
<stop stop-color="#EF3B23"/>
<stop offset="1" stop-color="#8B131E"/>
</linearGradient>
<linearGradient id="paint1_linear_532_12666" x1="10.3663" y1="20.0088" x2="33.6604" y2="20.0088" gradientUnits="userSpaceOnUse">
<stop stop-color="#B7212F"/>
<stop offset="1" stop-color="#EF3B23"/>
</linearGradient>
<clipPath id="clip0_532_12666">
<rect width="129" height="40" fill="white"/>
</clipPath>
</defs>
</svg>
