<svg width="24" height="24" viewBox="0 0 24 24" fill="none" xmlns="http://www.w3.org/2000/svg">
<g clip-path="url(#clip0_669_5614)">
<path d="M20.8729 1.00254C21.4138 0.935542 21.9086 1.31479 21.9843 1.85459C22.0601 2.39439 21.6889 2.8952 21.1504 2.97972C20.7942 3.03564 20.4356 2.89518 20.2121 2.61222C19.9886 2.32925 19.9351 1.94778 20.072 1.61423C20.2089 1.28068 20.5151 1.04687 20.8729 1.00254Z" fill="black"/>
<path d="M20.9209 15.0111C21.4667 14.9701 21.9431 15.3778 21.9869 15.9234C22.0308 16.469 21.6256 16.9475 21.0802 16.9942C20.5308 17.0412 20.048 16.6324 20.0039 16.0828C19.9597 15.5331 20.371 15.0525 20.9209 15.0111Z" fill="black"/>
<path d="M2.92082 15.0111C3.46664 14.9701 3.94305 15.3778 3.9869 15.9234C4.03075 16.469 3.62556 16.9475 3.08022 16.9941C2.53085 17.0412 2.04804 16.6324 2.00386 16.0828C1.95968 15.5331 2.37098 15.0525 2.92082 15.0111Z" fill="black"/>
<path d="M11.2541 0.986131C11.7129 0.981779 12.1718 0.981838 12.6306 0.986305C12.7266 1.00218 12.8093 1.01785 12.9073 1.02026C12.7755 1.07874 11.2773 1.06581 11.0659 1.03668C11.1102 0.999976 11.1884 0.997831 11.2541 0.986131Z" fill="black" fill-opacity="0.607843"/>
<path d="M12.5338 1.0833C12.2618 1.08328 10.9822 1.09855 10.7834 1.04626L10.7967 1.03198C10.9801 0.969886 11.0639 0.979089 11.2541 0.986107C11.1885 0.997807 11.1102 0.999951 11.0659 1.03665C11.2773 1.06578 12.7756 1.07871 12.9073 1.02023L12.9643 1.02813L12.9561 1.05818C12.8115 1.08643 12.6807 1.07903 12.5338 1.0833Z" fill="black" fill-opacity="0.270588"/>
<path d="M12.6306 0.986335C12.7748 0.979491 13.0091 0.979044 13.1459 1.02252L13.1742 1.05356C13.0882 1.12871 12.8413 1.10757 12.7265 1.10013C12.6622 1.09575 12.5979 1.09016 12.5338 1.08336C12.6807 1.07908 12.8115 1.08648 12.9561 1.05824L12.9642 1.02819L12.9073 1.02029C12.8093 1.01788 12.7266 1.00221 12.6306 0.986335Z" fill="black" fill-opacity="0.164706"/>
<path d="M9.67073 1.49791C9.78656 1.48387 9.8913 1.48108 9.96809 1.39472C9.9574 1.36353 9.94606 1.33256 9.93406 1.30184C10.1353 1.22126 10.6575 1.23273 10.8873 1.24368C10.7531 1.25725 10.4726 1.2652 10.371 1.28257C10.4432 1.32669 13.3206 1.32313 13.577 1.28906C13.4361 1.27183 13.1381 1.26378 13.0423 1.2447C13.2336 1.23776 13.9069 1.21496 14.0742 1.33764C14.0887 1.34827 14.1274 1.42329 14.1383 1.44506C14.2741 1.51138 14.5887 1.49682 14.7738 1.56179L14.7779 1.58938L14.7197 1.64733C14.8135 1.7028 15.0981 1.7186 15.2206 1.73102L15.2256 1.77779C15.1608 1.81417 14.6835 1.79248 14.5315 1.81081C14.7503 1.91133 14.8994 1.88441 15.1304 1.90865C15.3313 1.92973 15.4577 1.9848 15.6658 1.97806C15.7636 1.9854 16.1814 2.24812 16.2983 2.31875C16.3592 2.35551 16.304 2.39104 16.4682 2.44814L16.5079 2.50204C16.4841 2.54189 16.4798 2.54765 16.4492 2.58253C16.5666 2.72383 16.6684 2.60744 16.7868 2.69465C16.7891 2.73808 16.7867 2.73836 16.7729 2.77769C16.8952 2.92195 17.0123 2.86697 17.0919 2.95488L17.0865 2.96376C17.0641 3.00197 17.0626 3.0063 17.0508 3.04851C17.1114 3.14676 17.2381 3.14676 17.3088 3.24914C17.2856 3.29983 17.2858 3.2808 17.2952 3.32943C17.4392 3.42679 17.4933 3.36832 17.5133 3.54696L17.5718 3.60382L17.6522 3.59357C17.771 3.74475 17.6484 3.84529 17.9271 3.90016C17.9356 3.90185 17.9821 4.0616 17.9829 4.08178C18.0326 4.17225 18.1366 4.10484 18.1708 4.18343L18.0931 4.23961L18.0872 4.27668C18.1718 4.36802 18.3124 4.35058 18.4264 4.33523C18.4435 4.37334 18.495 4.51727 18.4993 4.52327C18.5592 4.60882 18.7583 4.79043 18.7931 4.87493C18.7556 4.92693 18.7405 4.94589 18.7157 5.00662C18.7781 5.10872 18.8758 5.04257 18.9021 5.11326C18.9525 5.24829 18.8907 5.27721 19.0114 5.40272L18.962 5.47289C19.0199 5.59781 19.1482 5.47856 19.1773 5.56228C19.2288 5.7104 19.1714 5.75025 19.3004 5.87486L19.2508 5.94269C19.3003 6.02395 19.3612 5.9954 19.3708 6.01636C19.4232 6.13127 19.4582 6.32948 19.5047 6.44704C19.5627 6.48321 19.6133 6.51215 19.6255 6.58291C19.6614 6.79221 19.6716 7.02691 19.686 7.23918C19.6714 7.59093 19.6954 8.00142 19.6979 8.35971C19.7066 9.09717 19.7043 9.83472 19.691 10.5721C19.6825 10.7511 19.6701 11.143 19.6399 11.3009C19.6249 11.2844 19.6068 11.2645 19.5855 11.2412C19.5643 11.0114 19.5276 10.659 19.5209 10.4402C19.5145 10.452 19.4551 11.4993 19.4443 11.6145C19.4395 11.9768 19.3249 11.9679 19.2356 12.1588L19.2004 12.1007L19.1672 12.1067C19.1319 12.1871 19.1112 12.3228 19.1486 12.4034L19.1858 12.3959C19.1623 12.5566 19.1406 12.4746 19.0041 12.57L18.9281 12.7203L18.8981 12.6845L18.863 12.6993C18.8307 12.7891 18.8293 12.8008 18.84 12.8956L18.8855 12.9103C18.862 12.9261 18.7994 12.9572 18.7849 12.9778C18.7184 13.0722 18.6791 13.2151 18.6185 13.3199C18.5175 13.4943 17.9588 14.2994 17.8354 14.349C17.6596 14.4196 17.6034 14.6769 17.4579 14.7825C17.3898 14.8319 17.2881 14.8097 17.2511 14.9024C17.2501 14.9048 17.2414 14.9416 17.2411 14.9429C17.2139 15.041 17.0561 15.1531 16.9814 15.2256L16.9697 15.2106C16.953 15.1895 16.9399 15.1765 16.921 15.1574C16.8091 15.208 16.5822 15.4883 16.5524 15.623C16.5 15.8603 16.4175 16.0874 16.3389 16.3165C16.2909 16.4525 16.2903 16.6782 16.2774 16.8242C16.1529 16.7314 16.1882 16.2608 16.1222 16.1317C16.089 16.1962 16.127 16.2142 16.1282 16.2836C16.1346 16.6804 16.1121 17.1373 16.0345 17.5231C16.0189 17.4603 16.0306 17.4598 15.9911 17.4354C15.952 17.5187 15.957 17.5714 15.9552 17.6633L15.9767 17.7077C16.0077 17.6889 16.0033 17.6968 16.0236 17.6697L16.0338 17.7079L16.0318 17.7269C16.0033 17.7899 15.9856 17.8261 15.9682 17.8945C15.87 17.8942 15.6683 17.8673 15.6004 17.9325C15.6536 17.9739 15.7222 17.9828 15.7885 17.9975C13.2823 17.9675 10.7681 17.9984 8.26132 17.9946C8.20198 17.9945 8.13019 17.9986 8.07309 18.014C8.03791 18.0806 8.06538 18.2292 8.07049 18.3186C7.91777 17.9913 8.00205 17.8163 7.91709 17.4739C7.87315 17.2967 7.7682 17.2001 7.73135 17.023C7.7033 16.8881 7.70529 16.4847 7.66877 16.3819C7.5829 16.1399 7.48399 16.1005 7.48758 15.7901C7.49156 15.4447 7.08309 15.2951 6.85697 15.0931C6.71313 14.9647 6.5727 14.8031 6.42959 14.6642C5.61052 13.8693 4.94904 12.7979 4.54242 11.7333C4.45549 11.5057 4.37597 11.4897 4.35673 11.2484L4.38738 11.2404C4.44935 11.1438 4.41841 10.5079 4.4104 10.3589C4.42359 10.275 4.43166 10.302 4.39296 10.2479L4.35253 10.2662L4.32708 10.3415C4.30835 10.3054 4.30083 10.3039 4.26881 10.2797L4.18284 10.3331L4.12289 10.3175C4.13398 10.2222 4.13252 10.092 4.13433 9.99349C4.08412 9.96689 4.03526 9.9378 3.98794 9.90635C3.67383 9.70022 3.53238 9.31099 3.45996 8.95404C3.73512 9.36778 3.63492 9.88591 4.35455 10.0042C4.90521 10.0947 5.67933 10.069 6.17491 9.8058C6.2742 9.62072 6.38662 9.40748 6.4515 9.20648C6.46493 9.30213 6.44803 9.28586 6.50538 9.34521C6.65632 9.33925 6.72145 9.03075 6.62362 8.89804L6.55247 8.90953C6.61629 8.78503 6.66143 8.73628 6.77081 8.65279C6.74414 8.70302 6.73976 8.71012 6.72637 8.76482C6.84766 8.82417 7.06484 8.68165 7.12252 8.57901L7.10243 8.524L7.02187 8.4937C7.66929 8.18707 7.99969 8.53186 8.60018 8.37464C8.63337 8.36594 8.76326 8.23019 8.82954 8.18348L8.84496 8.17275L8.8478 8.23371C8.90726 8.26893 8.88 8.26143 8.95303 8.25818C9.06715 8.17518 9.07598 8.13616 9.10924 8.00057L9.04188 7.95C9.13144 7.85294 9.33469 7.53243 9.39722 7.41457C9.38123 7.49786 9.35906 7.55437 9.43559 7.60837C9.54183 7.55754 9.58284 7.38926 9.56723 7.27936C9.51696 7.2284 9.54277 7.24066 9.46973 7.23447C10.0974 5.78965 9.18033 6.22258 9.03377 4.96089C9.00495 4.71269 9.39553 4.04679 9.59168 3.86461C9.61092 3.94622 9.59405 3.92135 9.64852 3.96996C9.68456 3.96272 9.68264 3.96032 9.71623 3.94345C9.75633 3.84218 9.80084 3.62217 9.72185 3.54286C9.6634 2.94616 9.17672 1.90276 8.59416 1.65362C8.68123 1.6643 8.81264 1.70115 8.90114 1.72306C9.19045 1.6479 9.29892 1.51401 9.56857 1.49657L9.46221 1.53688L9.44763 1.57061C9.54663 1.61127 9.89283 1.59526 9.9844 1.54033C9.88762 1.4956 9.77817 1.50469 9.67073 1.49791ZM13.5409 1.39481C13.635 1.39301 13.7331 1.39266 13.8266 1.38851C13.645 1.30154 10.8935 1.32686 10.511 1.34723C10.4514 1.35748 10.2113 1.38179 10.1895 1.38938C11.3177 1.39281 12.3907 1.46893 13.5409 1.39481Z" fill="black" fill-opacity="0.407843"/>
<path d="M10.511 1.34723C10.8935 1.32686 13.645 1.30155 13.8266 1.38851C13.733 1.39266 13.6349 1.39302 13.5409 1.39481C12.3906 1.46893 11.3177 1.39281 10.1895 1.38938C10.2112 1.38179 10.4514 1.35749 10.511 1.34723Z" fill="black" fill-opacity="0.156863"/>
<path d="M4.07204 0H5.92405C6.02575 0.165685 6.20441 0.220748 6.27008 0.366792C6.55597 1.00242 6.4933 1.39167 7.28422 1.63435C7.70059 1.76211 8.30821 1.51847 8.59412 1.65358C9.17668 1.90272 9.66336 2.94612 9.72182 3.54281C9.69057 3.6349 9.64604 3.79092 9.59164 3.86456C9.3955 4.04674 9.00491 4.71265 9.03374 4.96085C9.18029 6.22254 10.0973 5.7896 9.4697 7.23443L9.39718 7.41452C9.33465 7.53239 9.1314 7.8529 9.04185 7.94995L8.84492 8.1727L8.8295 8.18344C8.76322 8.23015 8.63333 8.3659 8.60014 8.37459C7.99965 8.53181 7.66925 8.18702 7.02184 8.49366C6.9316 8.54548 6.85346 8.58802 6.77078 8.65275C6.66139 8.73623 6.61625 8.78498 6.55243 8.90948L6.45146 9.20644C6.38659 9.40744 6.27416 9.62067 6.17488 9.80576C5.67929 10.0689 4.90518 10.0946 4.35451 10.0042C3.63489 9.88587 3.73508 9.36773 3.45993 8.95399C3.40042 8.80533 3.3021 8.67539 3.17521 8.57773C2.80215 8.29467 2.31764 8.35038 1.89291 8.4203C1.08115 8.55394 0.406448 7.22726 0.312902 6.5838C0.226144 5.98706 0.854522 5.86355 0.935913 5.20275C1.04761 4.29595 0.508425 4.28623 0.305444 3.55498C0.209972 3.15326 0.804775 2.22562 1.04861 1.9368C1.61352 1.206 2.38028 2.00265 3.09132 1.4803C3.52977 1.1582 3.48596 0.861155 3.70658 0.41362C3.78306 0.258466 3.96859 0.133691 4.07204 0ZM3.1048 4.56881C2.74426 5.08655 2.9713 5.36149 3.2105 5.87088C3.25185 5.95891 3.31412 6.03033 3.39149 6.08798C3.90814 6.85003 4.88877 7.14471 5.7399 6.79371C6.59103 6.44269 7.07886 5.54241 6.90812 4.6377C6.7374 3.73301 5.95501 3.07242 5.03448 3.05573C4.11397 3.03907 3.30819 3.6709 3.1048 4.56881Z" fill="black"/>
<path d="M3.10476 4.56882C3.30815 3.67091 4.11393 3.03908 5.03444 3.05574C5.95497 3.07243 6.73736 3.73302 6.90808 4.6377C7.07882 5.54241 6.59099 6.44269 5.73986 6.79372C4.88873 7.14472 3.9081 6.85004 3.39145 6.08799C3.08981 5.64308 2.98602 5.09307 3.10476 4.56882Z" fill="black" fill-opacity="0.415686"/>
<path d="M3.3915 6.08802C3.31414 6.03036 3.25186 5.95895 3.21052 5.87092C2.97132 5.36153 2.74428 5.08658 3.10482 4.56885C2.98608 5.0931 3.08986 5.64311 3.3915 6.08802Z" fill="black" fill-opacity="0.831373"/>
<path d="M8.07045 18.3185C8.06534 18.2292 8.03787 18.0806 8.07305 18.014C8.13014 17.9986 8.20193 17.9945 8.26128 17.9945C10.7681 17.9984 13.2822 17.9675 15.7885 17.9975C15.882 18.0133 15.9084 18.0025 15.9736 18.0539C15.9881 18.1522 15.9512 18.1784 15.9405 18.2607C15.6578 19.5553 15.4675 20.7711 14.2506 21.5508C13.2545 22.189 11.6956 22.0494 10.5676 21.8974C9.89136 21.8063 9.10641 21.1231 8.75939 20.566C8.43005 20.0313 8.18996 18.9563 8.07045 18.3185Z" fill="black"/>
<path d="M24 9.43915C23.611 9.7132 23.7141 9.89449 23.1234 9.97978C21.7639 10.1761 21.6273 8.07935 22.9001 8.01082C23.4532 7.98106 23.6286 8.21824 24 8.544V9.43915Z" fill="black"/>
<path d="M16.4682 2.44812C16.5505 2.46225 16.5387 2.44812 16.5943 2.49708C16.6383 2.7301 16.8457 2.60628 16.9693 2.70867C17.1135 2.82807 17.0157 2.85767 17.2354 2.95062C17.315 3.11614 17.5423 3.37278 17.7158 3.43498C17.8209 3.6259 17.9957 3.75635 18.1328 3.92421C18.203 4.01018 18.2511 4.09697 18.3244 4.18266L18.2612 4.26417C18.2991 4.31192 18.3632 4.3186 18.4264 4.33521C18.3124 4.35057 18.1718 4.368 18.0872 4.27667L18.0931 4.23959L18.1708 4.18341C18.1366 4.10482 18.0326 4.17223 17.9829 4.08176C17.9821 4.06158 17.9356 3.90183 17.9271 3.90014C17.6484 3.84528 17.771 3.74473 17.6522 3.59356L17.5718 3.6038L17.5133 3.54694C17.4933 3.3683 17.4392 3.42678 17.2951 3.32942C17.2858 3.28078 17.2856 3.29982 17.3088 3.24912C17.2381 3.14675 17.1114 3.14674 17.0508 3.04849C17.0626 3.00628 17.0641 3.00195 17.0865 2.96375L17.0919 2.95486C17.0123 2.86695 16.8952 2.92193 16.7729 2.77767C16.7867 2.73835 16.7891 2.73807 16.7868 2.69464C16.6684 2.60742 16.5665 2.72382 16.4492 2.58251C16.4798 2.54764 16.484 2.54187 16.5078 2.50203L16.4682 2.44812Z" fill="black" fill-opacity="0.32549"/>
<path d="M19.6859 7.23901C19.7116 7.3933 19.709 7.35025 19.7927 7.45806C19.8913 7.58493 19.8824 7.86618 19.8815 8.01196L19.8369 7.89344C19.7842 7.95151 19.7818 9.91004 19.807 10.0853L19.8258 10.0976C19.8623 10.0307 19.8646 10.0085 19.8787 9.93651C19.8902 10.4314 19.7897 10.2287 19.691 10.5719C19.7043 9.83455 19.7066 9.097 19.6978 8.35954C19.6954 8.00125 19.6714 7.59076 19.6859 7.23901Z" fill="black" fill-opacity="0.329412"/>
<path d="M10.8872 1.2437C11.5973 1.23636 12.3322 1.22597 13.0423 1.24472C13.1381 1.26381 13.4361 1.27185 13.5769 1.28908C13.3205 1.32315 10.4432 1.32671 10.371 1.28259C10.4726 1.26522 10.753 1.25727 10.8872 1.2437Z" fill="black" fill-opacity="0.772549"/>
<path d="M19.8786 9.93663C19.8645 10.0086 19.8622 10.0308 19.8258 10.0977L19.8069 10.0855C19.7817 9.91016 19.7841 7.95163 19.8368 7.89355L19.8814 8.01208C19.888 8.65359 19.8871 9.29514 19.8786 9.93663Z" fill="black" fill-opacity="0.513725"/>
<path d="M16.0345 17.523C16.1121 17.1372 16.1346 16.6803 16.1282 16.2835C16.127 16.2141 16.089 16.196 16.1222 16.1316C16.1882 16.2607 16.1529 16.7313 16.2774 16.8241C16.2851 17.1299 16.2012 17.1183 16.097 17.3991C16.0761 17.4555 16.0456 17.6393 16.0338 17.7078L16.0236 17.6696L16.0345 17.523Z" fill="black" fill-opacity="0.337255"/>
<path d="M15.2206 1.73096C15.4318 1.74816 15.4985 1.91814 15.6658 1.97799C15.4576 1.98474 15.3313 1.92967 15.1303 1.90858C14.8994 1.88434 14.7503 1.91127 14.5315 1.81074C14.6835 1.79241 15.1607 1.8141 15.2255 1.77772L15.2206 1.73096Z" fill="black" fill-opacity="0.309804"/>
<path d="M4.12279 10.3176L4.18274 10.3332L4.26871 10.2798C4.30073 10.304 4.30825 10.3055 4.32698 10.3416L4.33282 10.3805C4.28524 10.5915 4.33621 10.884 4.33441 11.1013C4.30373 11.0292 4.27959 10.8349 4.24942 10.7278L4.1992 10.7667L4.16688 10.7568C4.1092 10.6328 4.11496 10.4529 4.12279 10.3176Z" fill="black" fill-opacity="0.0470588"/>
<path d="M19.4442 11.6145C19.455 11.4993 19.5144 10.452 19.5208 10.4402C19.5275 10.659 19.5642 11.0114 19.5854 11.2412C19.6067 11.2645 19.6248 11.2844 19.6398 11.3009C19.6103 11.546 19.5407 11.4351 19.4442 11.6145Z" fill="black" fill-opacity="0.321569"/>
<path d="M6.55239 8.90943L6.62354 8.89795C6.72137 9.03065 6.65624 9.33916 6.5053 9.34511C6.44795 9.28577 6.46485 9.30204 6.45142 9.20639L6.55239 8.90943Z" fill="black" fill-opacity="0.305882"/>
<path d="M15.7885 17.9976C15.7222 17.9829 15.6536 17.974 15.6003 17.9326C15.6683 17.8674 15.8699 17.8943 15.9681 17.8946C15.9856 17.8262 16.0033 17.79 16.0317 17.7271C16.0314 17.9154 16.0612 18.1185 15.9405 18.2608C15.9512 18.1785 15.9881 18.1523 15.9735 18.054C15.9084 18.0027 15.8819 18.0135 15.7885 17.9976Z" fill="black" fill-opacity="0.345098"/>
<path d="M7.02182 8.49365L7.10237 8.52396L7.12246 8.57897C7.06478 8.6816 6.84761 8.82412 6.72632 8.76478C6.7397 8.71007 6.74408 8.70297 6.77076 8.65275C6.85344 8.58801 6.93158 8.54547 7.02182 8.49365Z" fill="black" fill-opacity="0.329412"/>
<path d="M4.41034 10.3589C4.41836 10.5079 4.4493 11.1438 4.38733 11.2403L4.35667 11.2483L4.33445 11.1012C4.33626 10.8838 4.28528 10.5913 4.33286 10.3803C4.3525 10.5275 4.36487 10.6896 4.37889 10.8384C4.40622 10.7051 4.40612 10.5006 4.41034 10.3589Z" fill="black" fill-opacity="0.447059"/>
<path d="M9.46965 7.2345C9.54268 7.24068 9.51687 7.22843 9.56715 7.27938C9.58275 7.38928 9.54174 7.55756 9.4355 7.6084C9.35897 7.5544 9.38115 7.49789 9.39713 7.41459L9.46965 7.2345Z" fill="black" fill-opacity="0.298039"/>
<path d="M9.72172 3.54272C9.80071 3.62204 9.7562 3.84204 9.7161 3.94332C9.68251 3.96019 9.68444 3.96258 9.64839 3.96983C9.59392 3.92122 9.61079 3.94608 9.59155 3.86447C9.64595 3.79083 9.69048 3.63481 9.72172 3.54272Z" fill="black" fill-opacity="0.392157"/>
<path d="M9.04189 7.94995L9.10925 8.00053C9.07599 8.13611 9.06716 8.17514 8.95304 8.25813C8.88001 8.26139 8.90727 8.26889 8.84781 8.23366L8.84497 8.1727L9.04189 7.94995Z" fill="black" fill-opacity="0.337255"/>
<path d="M9.56857 1.49658L9.67073 1.49793C9.77817 1.5047 9.88762 1.49561 9.9844 1.54035C9.89283 1.59528 9.54663 1.61128 9.44763 1.57063L9.46221 1.5369L9.56857 1.49658Z" fill="black" fill-opacity="0.603922"/>
<path d="M4.32703 10.3413L4.35248 10.2661L4.39291 10.2478C4.4316 10.3019 4.42354 10.2749 4.41035 10.3588C4.40613 10.5005 4.40622 10.705 4.37889 10.8384C4.36488 10.6895 4.3525 10.5274 4.33286 10.3802L4.32703 10.3413Z" fill="black" fill-opacity="0.572549"/>
<path d="M19.1856 12.3959L19.1485 12.4034C19.1111 12.3228 19.1318 12.1871 19.1671 12.1067L19.2003 12.1007L19.2355 12.1588C19.2178 12.2328 19.1937 12.3218 19.1856 12.3959Z" fill="black" fill-opacity="0.490196"/>
<path d="M16.0235 17.6695C16.0032 17.6966 16.0076 17.6887 15.9766 17.7076L15.9551 17.6631C15.9569 17.5713 15.9519 17.5186 15.991 17.4353C16.0305 17.4597 16.0188 17.4602 16.0344 17.5229L16.0235 17.6695Z" fill="black" fill-opacity="0.458824"/>
<path d="M18.8855 12.9102L18.8399 12.8956C18.8293 12.8007 18.8307 12.789 18.863 12.6992L18.8981 12.6844L18.9281 12.7203C18.9194 12.7689 18.9053 12.8701 18.8855 12.9102Z" fill="black" fill-opacity="0.427451"/>
</g>
<defs>
<clipPath id="clip0_669_5614">
<rect width="24" height="24" fill="white"/>
</clipPath>
</defs>
</svg>
