<svg width="64" height="64" viewBox="0 0 64 64" fill="none" xmlns="http://www.w3.org/2000/svg">
<rect width="64" height="64" rx="16" fill="black"/>
<rect width="64" height="64" rx="16" fill="#A81B58" fill-opacity="0.3"/>
<g clip-path="url(#clip0_683_15056)">
<path d="M25.9307 15.5744L25.9779 15.2594C25.977 15.4439 25.9567 15.6617 26.04 15.8204C26.2882 16.068 29.4725 16.0016 30.0476 16.0021L35.9612 16.0035C36.6291 16.0027 37.3329 15.9625 37.9833 15.9704C38.0838 15.8497 38.0618 15.7484 38.0626 15.5633L38.1384 15.9239C38.1577 15.9926 38.1542 16.0392 38.2192 16.0768C38.547 16.266 44.2272 16.1631 45.0688 16.1635C45.8293 16.1639 46.7578 16.0581 47.4845 16.2833C49.0026 16.754 49.3425 17.2141 50.4327 18.2846C50.5977 18.4466 50.7638 18.6896 50.967 18.7909C51.262 19.2642 51.5752 19.6496 51.6558 20.1929C51.7209 21.0106 51.9147 21.7361 51.995 22.5218C52.0678 23.2361 51.9513 24.1052 51.9996 24.8351C52.0384 27.5895 51.8969 30.4814 52.1305 33.2226C52.1441 33.3798 52.1668 33.5771 52.1617 33.7311C52.0998 33.5649 52.1067 33.4912 51.9832 33.4056C51.8474 33.4422 51.7722 33.5038 51.6579 33.5821C50.0353 33.6212 49.968 33.4264 48.6078 32.6284C47.2235 31.8163 45.1219 31.7882 43.6761 32.4613C43.0725 32.7424 42.4371 33.2057 41.8505 33.5529C39.8756 33.5147 38.4209 33.6985 36.9327 35.1133C36.2682 35.7449 35.9081 36.3385 35.5419 37.1721C35.4579 37.3633 35.2367 37.8626 35.1295 38.0201C34.2451 38.0768 33.0236 38.0343 32.1025 38.0329L26.6425 38.033L21.1452 38.0331C18.4071 38.0325 16.1606 38.2956 13.9371 36.3301C13.3896 35.8418 12.9312 35.262 12.5822 34.6168C12.4776 34.4258 12.1732 33.7325 11.9805 33.7357C11.8568 33.9629 11.8888 34.2696 11.8918 34.5341C11.6887 33.746 11.9731 31.8249 12.0705 30.9402C12.2781 29.0549 11.5799 20.4126 12.7025 19.1541C12.8682 19.0858 12.8751 19.0752 12.9603 18.9282C13.1841 18.5304 13.6603 18.366 13.9619 17.9866C15.5441 15.9968 17.0537 16.1583 19.3894 16.1616L23.6961 16.1699C24.3275 16.1714 25.3745 16.2401 25.9174 15.9619C25.9735 15.8588 25.9412 15.7012 25.9307 15.5744Z" fill="#A61A56" fill-opacity="0.8"/>
<path d="M19.6238 30.058C20.3175 29.9198 21.0319 30.165 21.4946 30.7C21.9573 31.235 22.0968 31.9773 21.8599 32.6438C21.6231 33.3103 21.0464 33.7981 20.3499 33.9212C19.2891 34.1086 18.2751 33.4073 18.0761 32.3487C17.8772 31.29 18.5674 30.2685 19.6238 30.058Z" fill="white"/>
<path d="M19.6238 30.058C20.3175 29.9198 21.0319 30.165 21.4946 30.7C21.9573 31.235 22.0968 31.9773 21.8599 32.6438C21.6231 33.3103 21.0464 33.7981 20.3499 33.9212C19.2891 34.1086 18.2751 33.4073 18.0761 32.3487C17.8772 31.29 18.5674 30.2685 19.6238 30.058Z" fill="#A81B58" fill-opacity="0.6"/>
<path d="M41.8504 33.553C42.4369 33.2057 43.0724 32.7424 43.6759 32.4614C45.1217 31.7882 47.2233 31.8164 48.6077 32.6285C49.9679 33.4265 50.0351 33.6212 51.6577 33.5821C51.772 33.5039 51.8473 33.4423 51.983 33.4056C52.1065 33.4912 52.0996 33.565 52.1616 33.7311C52.1488 34.9998 52.1396 36.4614 52.17 37.7265C51.6482 37.7744 51.0148 37.6718 50.4665 37.7117C49.9692 37.7478 49.3632 37.7463 48.8886 37.6042C47.9701 37.2884 47.1492 36.1939 46.1714 36.0811C45.1763 35.9664 44.3616 36.9879 43.5474 37.4019C42.2652 38.0905 40.6752 37.0899 39.689 38.1955C39.0717 38.8874 39.0454 39.9691 38.6075 40.6624C38.0374 41.5651 35.9299 42.1143 36.0298 43.3926C36.0863 44.1155 36.8289 45.5435 36.706 46.2008C36.6123 46.5282 36.5187 46.876 36.4157 47.1988C36.0068 48.5138 35.8309 48.5826 36.494 49.8614C36.5358 49.9408 36.5795 50.019 36.6251 50.0962C35.2976 50.1364 33.7629 50.0894 32.4145 50.0887L23.5863 50.0876C22.2832 50.0877 20.3287 50.0294 19.0848 50.1022C16.8444 50.1022 15.5194 49.8341 13.6948 48.3154C12.8943 47.6491 12.3395 46.3912 12.1147 45.3891C11.8312 44.1255 11.9396 42.6023 11.9226 41.2876C11.8938 39.0548 11.9815 36.7645 11.8916 34.5342C11.8886 34.2696 11.8567 33.963 11.9804 33.7357C12.1731 33.7326 12.4774 34.4259 12.5821 34.6168C12.931 35.2621 13.3894 35.8418 13.9369 36.3301C16.1604 38.2956 18.407 38.0325 21.145 38.0331L26.6423 38.0331L32.1024 38.0329C33.0235 38.0343 34.2449 38.0769 35.1293 38.0202C35.2365 37.8626 35.4577 37.3634 35.5417 37.1722C35.908 36.3386 36.268 35.745 36.9325 35.1133C38.4207 33.6986 39.8755 33.5147 41.8504 33.553Z" fill="white"/>
<path d="M41.8504 33.553C42.4369 33.2057 43.0724 32.7424 43.6759 32.4614C45.1217 31.7882 47.2233 31.8164 48.6077 32.6285C49.9679 33.4265 50.0351 33.6212 51.6577 33.5821C51.772 33.5039 51.8473 33.4423 51.983 33.4056C52.1065 33.4912 52.0996 33.565 52.1616 33.7311C52.1488 34.9998 52.1396 36.4614 52.17 37.7265C51.6482 37.7744 51.0148 37.6718 50.4665 37.7117C49.9692 37.7478 49.3632 37.7463 48.8886 37.6042C47.9701 37.2884 47.1492 36.1939 46.1714 36.0811C45.1763 35.9664 44.3616 36.9879 43.5474 37.4019C42.2652 38.0905 40.6752 37.0899 39.689 38.1955C39.0717 38.8874 39.0454 39.9691 38.6075 40.6624C38.0374 41.5651 35.9299 42.1143 36.0298 43.3926C36.0863 44.1155 36.8289 45.5435 36.706 46.2008C36.6123 46.5282 36.5187 46.876 36.4157 47.1988C36.0068 48.5138 35.8309 48.5826 36.494 49.8614C36.5358 49.9408 36.5795 50.019 36.6251 50.0962C35.2976 50.1364 33.7629 50.0894 32.4145 50.0887L23.5863 50.0876C22.2832 50.0877 20.3287 50.0294 19.0848 50.1022C16.8444 50.1022 15.5194 49.8341 13.6948 48.3154C12.8943 47.6491 12.3395 46.3912 12.1147 45.3891C11.8312 44.1255 11.9396 42.6023 11.9226 41.2876C11.8938 39.0548 11.9815 36.7645 11.8916 34.5342C11.8886 34.2696 11.8567 33.963 11.9804 33.7357C12.1731 33.7326 12.4774 34.4259 12.5821 34.6168C12.931 35.2621 13.3894 35.8418 13.9369 36.3301C16.1604 38.2956 18.407 38.0325 21.145 38.0331L26.6423 38.0331L32.1024 38.0329C33.0235 38.0343 34.2449 38.0769 35.1293 38.0202C35.2365 37.8626 35.4577 37.3634 35.5417 37.1722C35.908 36.3386 36.268 35.745 36.9325 35.1133C38.4207 33.6986 39.8755 33.5147 41.8504 33.553Z" fill="#A81B58" fill-opacity="0.6"/>
<path d="M36.7062 46.2008C36.829 45.5435 36.0864 44.1155 36.0299 43.3927C35.9301 42.1143 38.0375 41.5651 38.6076 40.6624C39.0456 39.9692 39.0719 38.8875 39.6891 38.1956C40.6754 37.0899 42.2653 38.0906 43.5475 37.4019C44.3617 36.988 45.1764 35.9665 46.1715 36.0812C47.1493 36.1939 47.9702 37.2884 48.8887 37.6043C49.3633 37.7464 49.9693 37.7479 50.4666 37.7117C51.0149 37.6719 51.6483 37.7745 52.1701 37.7266C52.2409 38.0968 52.2381 38.1613 52.5281 38.384C52.668 38.9453 53.132 40.4485 53.5111 40.9466C53.7069 41.2039 54.5998 41.583 54.8728 41.8034C55.1516 42.0285 55.6574 42.7624 56 42.7748V44.0273C55.835 44.0625 55.7586 44.0663 55.6391 44.1847C55.4628 44.8144 55.2828 45.4437 55.0742 46.0645C55.0095 46.2576 55.3845 46.6492 55.4389 46.8143C55.5458 47.149 55.4717 47.8685 56 47.871V49.1793C55.6124 49.2244 55.5374 49.435 55.3358 49.7436C55.1722 49.7872 55.0058 50.0035 54.8844 50.1323C54.307 50.7443 53.7522 50.54 53.3167 51.3781C52.882 52.215 52.7236 53.3215 52.1058 54.027C50.8357 54.5569 50.5271 54.1268 49.2977 54.2475C48.792 54.2971 46.9811 55.4619 46.7448 55.8889L46.7323 56H45.2128C45.1731 55.5969 43.9307 54.8743 43.5889 54.6036C43.1884 54.4663 42.9224 54.2529 42.4514 54.2079C41.5104 54.1179 41.0855 54.378 40.1378 54.1062C40.0821 54.0613 39.9291 54.032 39.852 54.0124C39.2808 53.1019 39.2139 52.665 38.8224 51.7511C38.7706 50.9704 38.1012 50.7125 37.4719 50.4606C37.4109 50.4442 37.1561 50.2552 37.0862 50.2061C32.9299 50.0831 28.8009 50.1268 24.6411 50.1285L21.0828 50.1325C20.5336 50.1331 19.598 50.1594 19.085 50.1023C20.3288 50.0295 22.2833 50.0878 23.5864 50.0876L32.4146 50.0888C33.763 50.0895 35.2978 50.1365 36.6253 50.0963C36.5796 50.0191 36.5359 49.9408 36.4941 49.8615C35.831 48.5827 36.0069 48.5138 36.4158 47.1989C36.5834 47.4261 36.5039 47.4296 36.5002 47.7401L36.5015 47.6678L36.578 47.6318C36.7156 47.3385 36.8694 46.481 36.7062 46.2008Z" fill="#A61A56" fill-opacity="0.8"/>
<path d="M25.9779 15.2596C26.6601 13.7915 26.8358 12.8342 28.582 12.1928C28.8819 12.0808 29.1946 12.0065 29.5129 11.9714C30.159 11.9019 31.325 11.9314 32.0205 11.9308C32.7185 11.9301 33.9582 11.8997 34.5955 11.9838C34.9964 12.0373 35.3866 12.153 35.752 12.3266C37.1095 12.9632 37.6641 14.2058 38.0626 15.5635C38.0618 15.7485 38.0838 15.8499 37.9833 15.9705C37.3329 15.9626 36.6291 16.0029 35.9612 16.0037L30.0476 16.0022C29.4725 16.0018 26.2882 16.0682 26.04 15.8206C25.9567 15.6618 25.977 15.4441 25.9779 15.2596Z" fill="white"/>
<path d="M25.9779 15.2596C26.6601 13.7915 26.8358 12.8342 28.582 12.1928C28.8819 12.0808 29.1946 12.0065 29.5129 11.9714C30.159 11.9019 31.325 11.9314 32.0205 11.9308C32.7185 11.9301 33.9582 11.8997 34.5955 11.9838C34.9964 12.0373 35.3866 12.153 35.752 12.3266C37.1095 12.9632 37.6641 14.2058 38.0626 15.5635C38.0618 15.7485 38.0838 15.8499 37.9833 15.9705C37.3329 15.9626 36.6291 16.0029 35.9612 16.0037L30.0476 16.0022C29.4725 16.0018 26.2882 16.0682 26.04 15.8206C25.9567 15.6618 25.977 15.4441 25.9779 15.2596Z" fill="#A81B58" fill-opacity="0.6"/>
<path d="M12.7024 19.1543C13.2205 17.8966 14.0687 17.6163 15.0099 16.7126C15.1882 16.5414 15.9584 16.354 16.2081 16.1767C16.2641 16.137 16.5169 16.203 16.6749 16.1413C16.7182 16.0831 16.7212 16.0239 16.7349 15.9516C16.9395 15.8054 17.063 15.8987 17.381 15.787L17.4013 15.649C17.7774 15.5374 19.0355 15.6102 19.5372 15.6147C21.0372 15.6281 22.6444 15.5813 24.143 15.6628C24.9553 15.707 25.2528 15.9687 25.9306 15.5745C25.9411 15.7014 25.9734 15.859 25.9173 15.9621C25.3744 16.2402 24.3274 16.1715 23.696 16.1701L19.3893 16.1618C17.0536 16.1585 15.544 15.997 13.9618 17.9868C13.6602 18.3662 13.184 18.5306 12.9602 18.9283C12.875 19.0754 12.8681 19.086 12.7024 19.1543Z" fill="#07304E" fill-opacity="0.0313725"/>
<path d="M38.1384 15.9241C38.8524 15.512 40.3063 15.6298 41.1522 15.6413C42.8965 15.665 44.6793 15.533 46.4142 15.6718C46.6584 15.6913 47.5017 16.0804 47.7935 16.1427C48.3772 16.3917 48.3395 16.6137 49.0717 16.6742C49.908 17.4569 50.446 17.7546 50.9671 18.7911C50.7639 18.6897 50.5978 18.4467 50.4328 18.2847C49.3426 17.2143 49.0027 16.7541 47.4845 16.2835C46.7578 16.0583 45.8294 16.1641 45.0688 16.1637C44.2272 16.1633 38.5471 16.2662 38.2192 16.0769C38.1542 16.0394 38.1577 15.9927 38.1384 15.9241Z" fill="#07304E" fill-opacity="0.0352941"/>
<path d="M51.6558 20.193C51.8525 20.1563 51.85 20.1213 51.9896 20.1964C52.0576 20.3672 52.2372 21.0184 52.2402 21.187C52.2712 22.949 52.259 24.7341 52.2589 26.4952L52.2616 30.886C52.2641 31.3738 52.3933 32.9244 52.1305 33.2227C51.8969 30.4816 52.0384 27.5897 51.9996 24.8352C51.9513 24.1053 52.0678 23.2362 51.9949 22.522C51.9147 21.7362 51.7209 21.0107 51.6558 20.193Z" fill="#052E4E" fill-opacity="0.0156863"/>
<path d="M55.9999 47.871C55.4716 47.8685 55.5457 47.149 55.4388 46.8143C55.3844 46.6492 55.0094 46.2576 55.0741 46.0645C55.2827 45.4437 55.4627 44.8144 55.639 44.1847C55.7585 44.0662 55.8349 44.0625 55.9999 44.0273V47.871Z" fill="#052E4E" fill-opacity="0.01"/>
<path d="M40.1379 54.1061C41.0856 54.378 41.5105 54.1179 42.4515 54.2079C42.9225 54.2529 43.1885 54.4663 43.589 54.6035C42.852 54.6447 40.4355 54.8391 40.1379 54.1061Z" fill="#052E4E" fill-opacity="0.0235294"/>
<path d="M37.4719 50.4605C38.1013 50.7124 38.7707 50.9703 38.8224 51.751C38.4143 51.5714 37.5773 50.8859 37.4719 50.4605Z" fill="#052E4E" fill-opacity="0.0156863"/>
<path d="M36.7061 46.2007C36.8694 46.4809 36.7155 47.3384 36.5779 47.6317L36.5014 47.6677L36.5002 47.74C36.5039 47.4295 36.5833 47.426 36.4158 47.1988C36.5188 46.8759 36.6124 46.5282 36.7061 46.2007Z" fill="#052E4E" fill-opacity="0.384314"/>
<path d="M55.9999 49.1793V49.7669C55.8738 49.6363 55.5335 49.7298 55.3357 49.7436C55.5373 49.4351 55.6123 49.2244 55.9999 49.1793Z" fill="#052E4E" fill-opacity="0.0156863"/>
</g>
<defs>
<clipPath id="clip0_683_15056">
<rect width="48" height="48" fill="white" transform="translate(8 8)"/>
</clipPath>
</defs>
</svg>
