<svg width="64" height="64" viewBox="0 0 64 64" fill="none" xmlns="http://www.w3.org/2000/svg">
<rect width="64" height="64" rx="16" fill="black"/>
<rect width="64" height="64" rx="16" fill="#3A2D7D" fill-opacity="0.3"/>
<path d="M25.2897 14.3713L25.4719 14.5512C25.6222 14.5136 25.9051 14.3611 25.9633 14.3571C26.3838 14.3282 26.8622 14.3338 27.2838 14.325C28.7184 14.3071 30.1532 14.3014 31.588 14.308L40.7462 14.3049C42.2212 14.3046 44.0803 14.36 45.5165 14.29C45.8883 14.539 46.2185 14.6228 46.6522 14.7773C47.0698 14.9261 47.4687 15.2755 47.8041 15.5656C47.9096 15.6568 48.058 15.7362 48.1802 15.8057C48.4056 16.151 48.699 16.9903 49.1801 16.9857L49.1913 17.069C49.2226 17.8658 49.6487 17.9768 49.6796 18.8451C49.7286 20.2225 49.7144 21.5875 49.7127 22.9644L49.7168 29.112L49.7214 33.9765C49.7221 35.0915 49.7321 36.7342 49.6184 37.8482C49.7293 37.8602 50.1208 37.8922 50.1997 37.9299C49.9505 37.9571 49.1556 37.9541 48.8728 37.9599C47.6167 37.9833 46.3603 37.9821 45.1043 37.9563C44.6992 37.8651 44.2353 37.9352 43.8277 37.8773C43.4995 37.8307 43.4665 37.8294 43.2985 37.6014L43.4509 37.4284C43.485 37.5385 43.5431 37.5754 43.6288 37.6541C43.7762 37.6779 43.7186 37.6887 43.8459 37.6156C43.9991 37.389 43.9752 37.1829 43.7594 37.0135C44.0146 36.3898 44.1245 35.8755 43.8542 35.2101C43.6451 34.7018 43.2369 34.3014 42.7247 34.102C42.4897 34.0105 42.2426 33.9538 41.9912 33.9336C41.376 33.8782 40.6552 33.9119 40.0274 33.9208C38.5432 33.9418 36.714 33.5686 36.0762 35.3461C35.9083 35.8246 35.9411 36.3507 36.167 36.8046C36.3042 37.0848 36.7114 37.6501 36.7648 37.797L36.9154 37.8316L36.8065 37.9389C36.8445 38.0091 36.8253 37.9944 36.8834 38.0403C36.7504 38.0284 36.5899 37.9636 36.4535 37.9604C35.1569 37.9302 33.8085 37.9956 32.5157 37.9753C30.3785 37.9418 28.2029 38.066 26.0771 37.8846C25.9699 35.5083 26.0006 33.0844 26.0475 30.7059C26.0572 30.2102 26.416 29.951 26.7632 29.6555L33.031 28.7431C34.0638 28.5971 35.2405 28.5078 36.2359 28.2661C36.9849 28.0596 37.5205 27.5161 37.8741 26.8506C38.4396 25.7861 37.4634 24.1567 36.3037 24.0376C35.1383 23.918 33.8852 23.9644 32.7001 23.965L27.471 23.9636L21.5244 23.9625C20.3715 23.9625 19.2208 23.9592 18.0716 23.9824C17.0014 24.004 16.193 24.2307 15.3634 24.9228C15.0424 25.1906 14.6426 25.4932 14.4465 25.8695C14.547 25.5755 14.3993 25.3886 14.3529 25.0923C14.3093 24.8144 14.2957 24.5449 14.2846 24.2649C14.2272 22.3667 14.2232 20.4672 14.2723 18.5688C14.4681 17.7091 14.8096 16.9429 15.7961 16.8193L15.8434 16.8137C15.9248 16.6926 15.9328 16.3061 16.0027 16.0773L16.0154 16.0367C15.6456 18.0661 16.5523 20.1156 18.3028 21.207C20.0534 22.2983 22.2927 22.2102 23.9522 20.9848C23.9369 21.0456 23.9574 21.0962 23.9729 21.1584C24.0938 21.2079 24.041 21.2064 24.1712 21.1581C24.2456 21.0333 24.2375 21.0877 24.2081 20.955L24.0831 20.8847C25.0027 20.1579 25.6396 19.1328 25.8838 17.9864C25.8898 18.2367 25.9793 18.2937 25.9522 18.5098L25.9713 18.5026C26.0533 18.2876 26.2043 17.8558 25.9276 17.754C26.0252 17.16 26.0154 16.5533 25.8987 15.9628L25.9806 15.9546C26.0982 15.7827 26.0772 15.492 25.916 15.3541C25.8106 15.4222 25.8446 15.3964 25.7989 15.5506C25.6803 15.1374 25.5092 14.741 25.2897 14.3713Z" fill="#3A2D7D" fill-opacity="0.8"/>
<path d="M14.4464 25.8694C14.6425 25.4931 15.0422 25.1905 15.3633 24.9227C16.1928 24.2306 17.0012 24.0039 18.0714 23.9823C19.2206 23.9591 20.3713 23.9624 21.5242 23.9624L27.4708 23.9635L32.6999 23.9649C33.8851 23.9643 35.1381 23.9179 36.3035 24.0375C37.4632 24.1566 38.4395 25.786 37.8739 26.8505C37.5204 27.516 36.9847 28.0595 36.2358 28.266C35.2403 28.5077 34.0636 28.597 33.0309 28.743L26.763 29.6554C26.4159 29.9509 26.0571 30.2101 26.0473 30.7058C26.0005 33.0843 25.9698 35.5082 26.077 37.8845C28.2027 38.0659 30.3783 37.9416 32.5155 37.9752C33.8083 37.9955 35.1567 37.9301 36.4533 37.9603C36.5897 37.9635 36.7503 38.0283 36.8833 38.0402L37.1191 38.0702C37.1073 38.0655 42.3333 38.0203 42.7535 38.0679C42.8553 38.0794 43.6705 37.9642 43.8938 37.9594C44.2817 37.9511 44.7165 37.9724 45.1041 37.9562C46.3602 37.982 47.6166 37.9832 48.8727 37.9598C49.1555 37.954 49.9503 37.957 50.1995 37.9297C50.5704 38.0223 50.6757 38.0456 51.0214 38.2217C51.6575 38.6868 51.8684 38.921 52.0187 39.7374C52.2331 40.9006 51.3225 41.9181 50.1852 42.0257C49.3663 42.1032 48.5419 42.0799 47.7188 42.0789L43.6368 42.0745L29.5494 42.0741C29.1223 42.0741 26.2971 42.0486 26.1088 42.1344C26.0192 42.5179 26.046 43.9709 26.045 44.4615L26.0396 48.733C26.0425 49.2691 26.1105 50.0985 25.9663 50.5964C25.6551 51.6714 24.4337 52.2167 23.3843 51.9763C22.8388 51.8512 21.9944 51.1569 21.8073 50.6142C21.6743 50.3203 21.604 49.5767 21.5598 49.2265C21.3512 47.7808 21.2787 46.2088 21.0729 44.7456C20.8667 43.28 21.001 41.5494 20.428 40.1422C20.1523 40.1395 19.7964 40.1189 19.5541 40.2358C19.0492 40.8434 18.5759 48.5451 18.3648 49.9239C18.1601 51.2598 17.242 52.2175 15.8102 52.0417C15.2787 51.9779 14.7973 51.6972 14.48 51.2662C13.6873 50.2071 13.9037 48.2481 13.9038 46.9431L13.9024 41.2157L13.827 31.9309C13.8273 30.6857 13.7626 28.5368 13.9296 27.3922C14.0522 26.9226 14.2573 26.3114 14.4464 25.8694Z" fill="white"/>
<path d="M14.4464 25.8694C14.6425 25.4931 15.0422 25.1905 15.3633 24.9227C16.1928 24.2306 17.0012 24.0039 18.0714 23.9823C19.2206 23.9591 20.3713 23.9624 21.5242 23.9624L27.4708 23.9635L32.6999 23.9649C33.8851 23.9643 35.1381 23.9179 36.3035 24.0375C37.4632 24.1566 38.4395 25.786 37.8739 26.8505C37.5204 27.516 36.9847 28.0595 36.2358 28.266C35.2403 28.5077 34.0636 28.597 33.0309 28.743L26.763 29.6554C26.4159 29.9509 26.0571 30.2101 26.0473 30.7058C26.0005 33.0843 25.9698 35.5082 26.077 37.8845C28.2027 38.0659 30.3783 37.9416 32.5155 37.9752C33.8083 37.9955 35.1567 37.9301 36.4533 37.9603C36.5897 37.9635 36.7503 38.0283 36.8833 38.0402L37.1191 38.0702C37.1073 38.0655 42.3333 38.0203 42.7535 38.0679C42.8553 38.0794 43.6705 37.9642 43.8938 37.9594C44.2817 37.9511 44.7165 37.9724 45.1041 37.9562C46.3602 37.982 47.6166 37.9832 48.8727 37.9598C49.1555 37.954 49.9503 37.957 50.1995 37.9297C50.5704 38.0223 50.6757 38.0456 51.0214 38.2217C51.6575 38.6868 51.8684 38.921 52.0187 39.7374C52.2331 40.9006 51.3225 41.9181 50.1852 42.0257C49.3663 42.1032 48.5419 42.0799 47.7188 42.0789L43.6368 42.0745L29.5494 42.0741C29.1223 42.0741 26.2971 42.0486 26.1088 42.1344C26.0192 42.5179 26.046 43.9709 26.045 44.4615L26.0396 48.733C26.0425 49.2691 26.1105 50.0985 25.9663 50.5964C25.6551 51.6714 24.4337 52.2167 23.3843 51.9763C22.8388 51.8512 21.9944 51.1569 21.8073 50.6142C21.6743 50.3203 21.604 49.5767 21.5598 49.2265C21.3512 47.7808 21.2787 46.2088 21.0729 44.7456C20.8667 43.28 21.001 41.5494 20.428 40.1422C20.1523 40.1395 19.7964 40.1189 19.5541 40.2358C19.0492 40.8434 18.5759 48.5451 18.3648 49.9239C18.1601 51.2598 17.242 52.2175 15.8102 52.0417C15.2787 51.9779 14.7973 51.6972 14.48 51.2662C13.6873 50.2071 13.9037 48.2481 13.9038 46.9431L13.9024 41.2157L13.827 31.9309C13.8273 30.6857 13.7626 28.5368 13.9296 27.3922C14.0522 26.9226 14.2573 26.3114 14.4464 25.8694Z" fill="#3A2D7D" fill-opacity="0.6"/>
<path d="M16.0153 16.0365C16.3697 14.0915 17.8307 12.5345 19.7492 12.057C21.6678 11.5796 23.6881 12.2703 24.9128 13.8224C25.0504 13.9968 25.1763 14.1801 25.2896 14.3711C25.5091 14.7409 25.6802 15.1372 25.7988 15.5504C25.8378 15.6863 25.8711 15.8239 25.8985 15.9626C26.0153 16.5531 26.0251 17.1598 25.9275 17.7538C25.9147 17.8317 25.9001 17.9091 25.8837 17.9862C25.6395 19.1326 25.0026 20.1578 24.083 20.8846C24.0399 20.9187 23.9963 20.952 23.9521 20.9847C22.2926 22.2101 20.0533 22.2981 18.3027 21.2068C16.5522 20.1155 15.6455 18.0659 16.0153 16.0365Z" fill="white"/>
<path d="M16.0153 16.0365C16.3697 14.0915 17.8307 12.5345 19.7492 12.057C21.6678 11.5796 23.6881 12.2703 24.9128 13.8224C25.0504 13.9968 25.1763 14.1801 25.2896 14.3711C25.5091 14.7409 25.6802 15.1372 25.7988 15.5504C25.8378 15.6863 25.8711 15.8239 25.8985 15.9626C26.0153 16.5531 26.0251 17.1598 25.9275 17.7538C25.9147 17.8317 25.9001 17.9091 25.8837 17.9862C25.6395 19.1326 25.0026 20.1578 24.083 20.8846C24.0399 20.9187 23.9963 20.952 23.9521 20.9847C22.2926 22.2101 20.0533 22.2981 18.3027 21.2068C16.5522 20.1155 15.6455 18.0659 16.0153 16.0365Z" fill="#3A2D7D" fill-opacity="0.6"/>
<path d="M36.9154 37.8316L36.7648 37.797C36.7113 37.6501 36.3042 37.0848 36.167 36.8046C35.941 36.3507 35.9082 35.8246 36.0761 35.3461C36.714 33.5686 38.5431 33.9418 40.0273 33.9208C40.6552 33.9119 41.376 33.8782 41.9912 33.9336C42.2425 33.9538 42.4896 34.0106 42.7246 34.102C43.2368 34.3014 43.645 34.7018 43.8541 35.2101C44.1245 35.8755 44.0146 36.3898 43.7593 37.0136L43.4508 37.4285L43.2984 37.6014C43.2613 37.6804 43.1988 37.8623 43.1243 37.868C41.5796 37.9853 39.9301 37.8904 38.3785 37.915C38.1204 37.9191 37.4829 37.895 37.3474 37.9184L36.9154 37.8316Z" fill="white"/>
<path d="M36.9154 37.8316L36.7648 37.797C36.7113 37.6501 36.3042 37.0848 36.167 36.8046C35.941 36.3507 35.9082 35.8246 36.0761 35.3461C36.714 33.5686 38.5431 33.9418 40.0273 33.9208C40.6552 33.9119 41.376 33.8782 41.9912 33.9336C42.2425 33.9538 42.4896 34.0106 42.7246 34.102C43.2368 34.3014 43.645 34.7018 43.8541 35.2101C44.1245 35.8755 44.0146 36.3898 43.7593 37.0136L43.4508 37.4285L43.2984 37.6014C43.2613 37.6804 43.1988 37.8623 43.1243 37.868C41.5796 37.9853 39.9301 37.8904 38.3785 37.915C38.1204 37.9191 37.4829 37.895 37.3474 37.9184L36.9154 37.8316Z" fill="#3A2D7D" fill-opacity="0.6"/>
<path d="M24.9126 13.8223C25.0024 13.7781 25.0568 13.7632 25.1043 13.6721C25.1816 13.6352 25.3883 13.6644 25.486 13.6716L25.2882 13.6762C27.5563 13.867 45.0059 13.5552 45.3886 13.7811C45.4126 13.8865 45.4272 13.9102 45.3949 14.0085L45.2697 14.11C45.3314 14.2563 45.3798 14.1932 45.5032 14.2126C46.1469 14.3137 46.5934 14.6613 47.2512 14.8001L47.2929 14.8085C47.6887 15.2617 48.9931 16.4335 49.1798 16.9855C48.6988 16.99 48.4053 16.1508 48.1799 15.8055C48.0577 15.736 47.9093 15.6566 47.8038 15.5653C47.4684 15.2753 47.0696 14.9259 46.6519 14.7771C46.2182 14.6225 45.888 14.5388 45.5162 14.2898C44.0801 14.3598 42.221 14.3044 40.7459 14.3047L31.5877 14.3078C30.1529 14.3012 28.7181 14.3068 27.2835 14.3247C26.8619 14.3335 26.3835 14.328 25.9631 14.3569C25.9048 14.3609 25.622 14.5134 25.4716 14.551L25.2895 14.3711C25.1761 14.18 25.0502 13.9967 24.9126 13.8223Z" fill="#09314F" fill-opacity="0.0392157"/>
<path d="M49.1909 17.0688C49.5978 17.8968 49.564 17.6948 49.7668 18.6275C49.8566 19.2038 50.0365 19.8627 50.1095 20.4175C50.1442 20.6808 50.1142 21.4274 50.1111 21.7377C50.1044 22.4219 50.1049 23.1061 50.1126 23.7902L50.1577 31.9436L50.1732 34.4379C50.1739 34.7817 50.1487 35.5043 50.1935 35.8224C50.2512 35.6118 50.2424 35.394 50.2449 35.1753C50.2606 35.5794 50.2383 37.4225 50.3667 37.6597C50.542 37.7469 50.865 37.7215 51.0696 37.7195C51.1517 37.8578 51.2429 38.0283 51.3175 38.1605C51.3559 38.2286 51.5064 38.2667 51.5782 38.426C51.3452 38.3788 51.2572 38.2339 51.0679 38.1871L51.0212 38.2217C50.6755 38.0456 50.5702 38.0223 50.1993 37.9297C50.1204 37.8921 49.729 37.8601 49.6181 37.8481C49.7318 36.7341 49.7217 35.0913 49.721 33.9764L49.7164 29.1118L49.7124 22.9643C49.714 21.5874 49.7283 20.2224 49.6793 18.8449C49.6484 17.9766 49.2222 17.8656 49.1909 17.0688Z" fill="#09324F" fill-opacity="0.0627451"/>
<path d="M13.7204 18.6037C13.92 18.599 14.0736 18.5895 14.2721 18.5686C14.223 20.467 14.227 22.3665 14.2844 24.2647C14.2955 24.5447 14.3091 24.8142 14.3527 25.0922C14.3991 25.3884 14.5468 25.5753 14.4463 25.8693C14.2572 26.3113 14.0521 26.9225 13.9296 27.3922L13.8708 27.3341L13.7412 27.3469C13.6192 26.5379 13.7048 25.0669 13.723 24.2441C13.7343 23.733 13.6785 23.1278 13.6685 22.5969C13.6364 21.2656 13.6537 19.9336 13.7204 18.6037Z" fill="#093153" fill-opacity="0.0117647"/>
<path d="M49.7671 18.6275C49.9207 18.6122 50.1179 18.5715 50.2422 18.6516C50.345 18.8472 50.2565 19.1709 50.2544 19.4108L50.2541 22.7151C50.2456 26.8047 50.329 31.109 50.2452 35.1753C50.2427 35.394 50.2515 35.6118 50.1938 35.8224C50.149 35.5043 50.1742 34.7817 50.1735 34.4379L50.158 31.9437L50.1129 23.7902C50.1052 23.1061 50.1047 22.4219 50.1114 21.7378C50.1145 21.4274 50.1445 20.6808 50.1098 20.4175C50.0368 19.8628 49.8569 19.2038 49.7671 18.6275Z" fill="#093153" fill-opacity="0.0352941"/>
<path d="M37.3474 37.9181C37.4828 37.8947 38.1203 37.9188 38.3785 37.9147C39.9301 37.8901 41.5796 37.985 43.1243 37.8677C43.1988 37.862 43.2612 37.6801 43.2984 37.6011C43.4664 37.8291 43.4994 37.8304 43.8276 37.877C44.2352 37.9349 44.6991 37.8648 45.1042 37.9561C44.7166 37.9722 44.2817 37.9509 43.8938 37.9592C43.6706 37.964 42.8553 38.0792 42.7535 38.0677C42.3334 38.0201 37.1073 38.0654 37.1192 38.07C37.251 38.0371 37.2627 38.0254 37.3474 37.9181Z" fill="#093153" fill-opacity="0.654902"/>
<path d="M43.7592 37.0134C43.975 37.1828 43.9988 37.3889 43.8457 37.6154C43.7183 37.6886 43.776 37.6778 43.6286 37.654C43.5429 37.5753 43.4848 37.5384 43.4507 37.4283L43.7592 37.0134Z" fill="#093153" fill-opacity="0.2"/>
<path d="M25.7988 15.5505C25.8445 15.3963 25.8105 15.4221 25.916 15.354C26.0772 15.4919 26.0981 15.7826 25.9806 15.9545L25.8986 15.9627C25.8711 15.8239 25.8379 15.6864 25.7988 15.5505Z" fill="#093153" fill-opacity="0.356863"/>
<path d="M25.9276 17.7539C26.2043 17.8557 26.0533 18.2875 25.9713 18.5025L25.9522 18.5097C25.9793 18.2936 25.8898 18.2366 25.8838 17.9863C25.9002 17.9092 25.9148 17.8317 25.9276 17.7539Z" fill="#093153" fill-opacity="0.368627"/>
<path d="M23.9521 20.9846C23.9963 20.952 24.04 20.9186 24.0831 20.8845L24.2081 20.9548C24.2375 21.0875 24.2456 21.0331 24.1711 21.1579C24.041 21.2061 24.0938 21.2076 23.9729 21.1582C23.9574 21.096 23.9369 21.0454 23.9521 20.9846Z" fill="#093153" fill-opacity="0.309804"/>
<path d="M36.9151 37.8315L37.3471 37.9184C37.2625 38.0257 37.2508 38.0373 37.1189 38.0703L36.8831 38.0403C36.825 37.9944 36.8442 38.0091 36.8062 37.9388L36.9151 37.8315Z" fill="#093153" fill-opacity="0.309804"/>
</svg>
