<svg width="64" height="64" viewBox="0 0 64 64" fill="none" xmlns="http://www.w3.org/2000/svg">
<rect width="64" height="64" rx="16" fill="#0A3152" fill-opacity="0.1"/>
<path d="M25.2896 14.3713L25.4718 14.5512C25.6221 14.5136 25.9049 14.3611 25.9632 14.3571C26.3837 14.3282 26.862 14.3338 27.2836 14.325C28.7183 14.3071 30.1531 14.3014 31.5879 14.308L40.746 14.3049C42.2211 14.3046 44.0802 14.36 45.5164 14.29C45.8881 14.539 46.2184 14.6228 46.6521 14.7773C47.0697 14.9261 47.4686 15.2755 47.804 15.5656C47.9094 15.6568 48.0579 15.7362 48.18 15.8057C48.4055 16.151 48.6989 16.9903 49.18 16.9857L49.1911 17.069C49.2225 17.8658 49.6486 17.9768 49.6795 18.8451C49.7285 20.2225 49.7143 21.5875 49.7126 22.9644L49.7167 29.112L49.7212 33.9765C49.722 35.0915 49.732 36.7342 49.6183 37.8482C49.7292 37.8602 50.1207 37.8922 50.1996 37.9299C49.9504 37.9571 49.1555 37.9541 48.8727 37.9599C47.6166 37.9833 46.3602 37.9821 45.1042 37.9563C44.6991 37.8651 44.2352 37.9352 43.8276 37.8773C43.4993 37.8307 43.4663 37.8294 43.2984 37.6014L43.4508 37.4284C43.4849 37.5385 43.543 37.5754 43.6287 37.6541C43.7761 37.6779 43.7184 37.6887 43.8458 37.6156C43.9989 37.389 43.9751 37.1829 43.7593 37.0135C44.0145 36.3898 44.1244 35.8755 43.8541 35.2101C43.6449 34.7018 43.2367 34.3014 42.7245 34.102C42.4896 34.0105 42.2425 33.9538 41.9911 33.9336C41.3759 33.8782 40.6551 33.9119 40.0273 33.9208C38.5431 33.9418 36.7139 33.5686 36.0761 35.3461C35.9082 35.8246 35.9409 36.3507 36.1669 36.8046C36.3041 37.0848 36.7112 37.6501 36.7647 37.797L36.9153 37.8316L36.8063 37.9389C36.8444 38.0091 36.8252 37.9944 36.8833 38.0403C36.7503 38.0284 36.5897 37.9636 36.4534 37.9604C35.1568 37.9302 33.8084 37.9956 32.5155 37.9753C30.3784 37.9418 28.2028 38.066 26.077 37.8846C25.9698 35.5083 26.0005 33.0844 26.0474 30.7059C26.0571 30.2102 26.4159 29.951 26.763 29.6555L33.0309 28.7431C34.0636 28.5971 35.2403 28.5078 36.2358 28.2661C36.9847 28.0596 37.5204 27.5161 37.874 26.8506C38.4395 25.7861 37.4632 24.1567 36.3036 24.0376C35.1382 23.918 33.8851 23.9644 32.7 23.965L27.4709 23.9636L21.5242 23.9625C20.3714 23.9625 19.2207 23.9592 18.0714 23.9824C17.0012 24.004 16.1929 24.2307 15.3633 24.9228C15.0422 25.1906 14.6425 25.4932 14.4464 25.8695C14.5469 25.5755 14.3992 25.3886 14.3527 25.0923C14.3092 24.8144 14.2956 24.5449 14.2844 24.2649C14.2271 22.3667 14.223 20.4672 14.2722 18.5688C14.468 17.7091 14.8094 16.9429 15.796 16.8193L15.8433 16.8137C15.9247 16.6926 15.9327 16.3061 16.0026 16.0773L16.0153 16.0367C15.6455 18.0661 16.5522 20.1156 18.3027 21.207C20.0533 22.2983 22.2926 22.2102 23.952 20.9848C23.9368 21.0456 23.9573 21.0962 23.9728 21.1584C24.0937 21.2079 24.0409 21.2064 24.171 21.1581C24.2455 21.0333 24.2374 21.0877 24.208 20.955L24.083 20.8847C25.0026 20.1579 25.6395 19.1328 25.8837 17.9864C25.8897 18.2367 25.9792 18.2937 25.9521 18.5098L25.9712 18.5026C26.0532 18.2876 26.2042 17.8558 25.9275 17.754C26.0251 17.16 26.0153 16.5533 25.8985 15.9628L25.9805 15.9546C26.098 15.7827 26.0771 15.492 25.9159 15.3541C25.8105 15.4222 25.8444 15.3964 25.7988 15.5506C25.6802 15.1374 25.509 14.741 25.2896 14.3713Z" fill="#093153" fill-opacity="0.419608"/>
<path d="M14.4464 25.8694C14.6425 25.4931 15.0422 25.1905 15.3633 24.9227C16.1928 24.2306 17.0012 24.0039 18.0714 23.9823C19.2206 23.9591 20.3713 23.9624 21.5242 23.9624L27.4708 23.9635L32.6999 23.9649C33.8851 23.9643 35.1381 23.9179 36.3035 24.0375C37.4632 24.1566 38.4395 25.786 37.8739 26.8505C37.5204 27.516 36.9847 28.0595 36.2358 28.266C35.2403 28.5077 34.0636 28.597 33.0309 28.743L26.763 29.6554C26.4159 29.9509 26.0571 30.2101 26.0473 30.7058C26.0005 33.0843 25.9698 35.5082 26.077 37.8845C28.2027 38.0659 30.3783 37.9416 32.5155 37.9752C33.8083 37.9955 35.1567 37.9301 36.4533 37.9603C36.5897 37.9635 36.7503 38.0283 36.8833 38.0402L37.1191 38.0702C37.1073 38.0655 42.3333 38.0203 42.7535 38.0679C42.8553 38.0794 43.6705 37.9642 43.8938 37.9594C44.2817 37.9511 44.7165 37.9724 45.1041 37.9562C46.3602 37.982 47.6166 37.9832 48.8727 37.9598C49.1555 37.954 49.9503 37.957 50.1995 37.9297C50.5704 38.0223 50.6757 38.0456 51.0214 38.2217C51.6575 38.6868 51.8684 38.921 52.0187 39.7374C52.2331 40.9006 51.3225 41.9181 50.1852 42.0257C49.3663 42.1032 48.5419 42.0799 47.7188 42.0789L43.6368 42.0745L29.5494 42.0741C29.1223 42.0741 26.2971 42.0486 26.1088 42.1344C26.0192 42.5179 26.046 43.9709 26.045 44.4615L26.0396 48.733C26.0425 49.2691 26.1105 50.0985 25.9663 50.5964C25.6551 51.6714 24.4337 52.2167 23.3843 51.9763C22.8388 51.8512 21.9944 51.1569 21.8073 50.6142C21.6743 50.3203 21.604 49.5767 21.5598 49.2265C21.3512 47.7808 21.2787 46.2088 21.0729 44.7456C20.8667 43.28 21.001 41.5494 20.428 40.1422C20.1523 40.1395 19.7964 40.1189 19.5541 40.2358C19.0492 40.8434 18.5759 48.5451 18.3648 49.9239C18.1601 51.2598 17.242 52.2175 15.8102 52.0417C15.2787 51.9779 14.7973 51.6972 14.48 51.2662C13.6873 50.2071 13.9037 48.2481 13.9038 46.9431L13.9024 41.2157L13.827 31.9309C13.8273 30.6857 13.7626 28.5368 13.9296 27.3922C14.0522 26.9226 14.2573 26.3114 14.4464 25.8694Z" fill="#0D3E68"/>
<path d="M16.0152 16.0365C16.3696 14.0915 17.8306 12.5345 19.7491 12.057C21.6677 11.5796 23.688 12.2703 24.9126 13.8224C25.0503 13.9968 25.1762 14.1801 25.2895 14.3711C25.5089 14.7409 25.6801 15.1372 25.7987 15.5504C25.8377 15.6863 25.8709 15.8239 25.8984 15.9626C26.0152 16.5531 26.025 17.1598 25.9274 17.7538C25.9146 17.8317 25.9 17.9091 25.8836 17.9862C25.6394 19.1326 25.0025 20.1578 24.0829 20.8846C24.0398 20.9187 23.9961 20.952 23.9519 20.9847C22.2925 22.2101 20.0532 22.2981 18.3026 21.2068C16.5521 20.1155 15.6454 18.0659 16.0152 16.0365Z" fill="#0D3E68"/>
<path d="M36.9153 37.8316L36.7647 37.797C36.7112 37.6501 36.3041 37.0848 36.1669 36.8046C35.9409 36.3507 35.9081 35.8246 36.076 35.3461C36.7138 33.5686 38.543 33.9418 40.0272 33.9208C40.655 33.9119 41.3758 33.8782 41.991 33.9336C42.2424 33.9538 42.4895 34.0106 42.7245 34.102C43.2367 34.3014 43.6449 34.7018 43.854 35.2101C44.1244 35.8755 44.0144 36.3898 43.7592 37.0136L43.4507 37.4285L43.2983 37.6014C43.2612 37.6804 43.1987 37.8623 43.1242 37.868C41.5795 37.9853 39.93 37.8904 38.3784 37.915C38.1202 37.9191 37.4827 37.895 37.3473 37.9184L36.9153 37.8316Z" fill="#0D3E68"/>
<path d="M24.9127 13.8225C25.0025 13.7783 25.0569 13.7633 25.1044 13.6722C25.1817 13.6353 25.3884 13.6645 25.4861 13.6717L25.2883 13.6763C27.5564 13.8671 45.006 13.5553 45.3887 13.7812C45.4127 13.8867 45.4273 13.9103 45.395 14.0086L45.2698 14.1101C45.3315 14.2565 45.3799 14.1933 45.5033 14.2127C46.147 14.3138 46.5935 14.6614 47.2513 14.8002L47.293 14.8086C47.6889 15.2618 48.9932 16.4336 49.18 16.9856C48.6989 16.9902 48.4054 16.1509 48.18 15.8056C48.0579 15.7361 47.9094 15.6567 47.8039 15.5655C47.4685 15.2754 47.0697 14.926 46.652 14.7772C46.2183 14.6227 45.8881 14.5389 45.5163 14.2899C44.0802 14.3599 42.2211 14.3045 40.746 14.3048L31.5879 14.3079C30.1531 14.3013 28.7183 14.307 27.2836 14.3249C26.862 14.3337 26.3837 14.3281 25.9632 14.357C25.9049 14.361 25.6221 14.5135 25.4718 14.5511L25.2896 14.3712C25.1763 14.1802 25.0503 13.9968 24.9127 13.8225Z" fill="#09314F" fill-opacity="0.0392157"/>
<path d="M49.191 17.0688C49.5979 17.8968 49.5641 17.6948 49.7669 18.6275C49.8568 19.2038 50.0366 19.8627 50.1097 20.4175C50.1443 20.6808 50.1143 21.4274 50.1112 21.7377C50.1045 22.4219 50.105 23.1061 50.1127 23.7902L50.1578 31.9436L50.1733 34.4379C50.174 34.7817 50.1488 35.5043 50.1936 35.8224C50.2514 35.6118 50.2425 35.394 50.245 35.1753C50.2607 35.5794 50.2384 37.4225 50.3669 37.6597C50.5421 37.7469 50.8651 37.7215 51.0697 37.7195C51.1519 37.8578 51.243 38.0283 51.3176 38.1605C51.356 38.2286 51.5065 38.2667 51.5783 38.426C51.3453 38.3788 51.2573 38.2339 51.068 38.1871L51.0213 38.2217C50.6757 38.0456 50.5703 38.0223 50.1995 37.9297C50.1206 37.8921 49.7291 37.8601 49.6182 37.8481C49.7319 36.7341 49.7219 35.0913 49.7212 33.9764L49.7166 29.1118L49.7125 22.9643C49.7142 21.5874 49.7284 20.2224 49.6794 18.8449C49.6485 17.9766 49.2224 17.8656 49.191 17.0688Z" fill="#09324F" fill-opacity="0.0627451"/>
<path d="M13.7204 18.6037C13.92 18.599 14.0736 18.5895 14.2721 18.5686C14.223 20.467 14.227 22.3665 14.2844 24.2647C14.2955 24.5447 14.3091 24.8142 14.3527 25.0922C14.3991 25.3884 14.5468 25.5753 14.4463 25.8693C14.2572 26.3113 14.0521 26.9225 13.9296 27.3922L13.8708 27.3341L13.7412 27.3469C13.6192 26.5379 13.7048 25.0669 13.723 24.2441C13.7343 23.733 13.6785 23.1278 13.6685 22.5969C13.6364 21.2656 13.6537 19.9336 13.7204 18.6037Z" fill="#093153" fill-opacity="0.0117647"/>
<path d="M49.767 18.6276C49.9206 18.6123 50.1178 18.5716 50.2421 18.6517C50.3449 18.8473 50.2563 19.171 50.2542 19.4109L50.254 22.7152C50.2455 26.8048 50.3289 31.1091 50.245 35.1754C50.2426 35.3941 50.2514 35.6119 50.1937 35.8225C50.1489 35.5044 50.1741 34.7819 50.1734 34.438L50.1579 31.9438L50.1128 23.7903C50.1051 23.1062 50.1046 22.422 50.1113 21.7379C50.1144 21.4275 50.1444 20.6809 50.1097 20.4176C50.0367 19.8629 49.8568 19.2039 49.767 18.6276Z" fill="#093153" fill-opacity="0.0352941"/>
<path d="M37.3472 37.9183C37.4827 37.8949 38.1202 37.9189 38.3784 37.9148C39.9299 37.8902 41.5795 37.9851 43.1241 37.8678C43.1986 37.8621 43.2611 37.6802 43.2983 37.6012C43.4662 37.8292 43.4992 37.8305 43.8275 37.8771C44.2351 37.935 44.699 37.8649 45.1041 37.9562C44.7164 37.9723 44.2816 37.951 43.8937 37.9594C43.6705 37.9641 42.8552 38.0794 42.7534 38.0678C42.3333 38.0203 37.1072 38.0655 37.119 38.0701C37.2509 38.0372 37.2626 38.0255 37.3472 37.9183Z" fill="#093153" fill-opacity="0.654902"/>
<path d="M43.7592 37.0134C43.975 37.1828 43.9988 37.3889 43.8457 37.6154C43.7183 37.6886 43.776 37.6778 43.6286 37.654C43.5429 37.5753 43.4848 37.5384 43.4507 37.4283L43.7592 37.0134Z" fill="#093153" fill-opacity="0.2"/>
<path d="M25.7987 15.5505C25.8444 15.3963 25.8104 15.4221 25.9158 15.354C26.077 15.4919 26.098 15.7826 25.9804 15.9545L25.8985 15.9627C25.871 15.8239 25.8378 15.6864 25.7987 15.5505Z" fill="#093153" fill-opacity="0.356863"/>
<path d="M25.9275 17.754C26.2042 17.8558 26.0532 18.2877 25.9712 18.5026L25.9521 18.5098C25.9792 18.2937 25.8897 18.2367 25.8837 17.9864C25.9001 17.9093 25.9147 17.8318 25.9275 17.754Z" fill="#093153" fill-opacity="0.368627"/>
<path d="M23.952 20.9846C23.9962 20.952 24.0399 20.9186 24.083 20.8845L24.208 20.9548C24.2374 21.0875 24.2455 21.0331 24.171 21.1579C24.0409 21.2061 24.0936 21.2076 23.9727 21.1582C23.9573 21.096 23.9368 21.0454 23.952 20.9846Z" fill="#093153" fill-opacity="0.309804"/>
<path d="M36.9153 37.8315L37.3473 37.9184C37.2627 38.0257 37.2509 38.0373 37.1191 38.0703L36.8832 38.0403C36.8251 37.9944 36.8443 38.0091 36.8063 37.9388L36.9153 37.8315Z" fill="#093153" fill-opacity="0.309804"/>
</svg>
