<svg width="64" height="64" viewBox="0 0 64 64" fill="none" xmlns="http://www.w3.org/2000/svg">
<rect width="64" height="64" rx="16" fill="black"/>
<rect width="64" height="64" rx="16" fill="#97144D" fill-opacity="0.3"/>
<path d="M25.2895 14.3703L25.4717 14.5502C25.622 14.5127 25.9048 14.3601 25.9631 14.3561C26.3836 14.3272 26.8619 14.3328 27.2835 14.324C28.7182 14.3061 30.153 14.3005 31.5878 14.307L40.7459 14.304C42.221 14.3036 44.0801 14.359 45.5163 14.2891C45.888 14.5381 46.2182 14.6218 46.6519 14.7763C47.0696 14.9252 47.4685 15.2745 47.8038 15.5646C47.9093 15.6558 48.0578 15.7352 48.1799 15.8047C48.4053 16.15 48.6988 16.9893 49.1799 16.9847L49.191 17.068C49.2223 17.8648 49.6485 17.9758 49.6794 18.8441C49.7284 20.2216 49.7141 21.5865 49.7125 22.9635L49.7165 29.111L49.7211 33.9755C49.7218 35.0905 49.7319 36.7332 49.6182 37.8473C49.7291 37.8593 50.1205 37.8912 50.1994 37.9289C49.9502 37.9561 49.1554 37.9532 48.8726 37.959C47.6165 37.9823 46.3601 37.9811 45.104 37.9554C44.6989 37.8641 44.2351 37.9342 43.8274 37.8763C43.4992 37.8297 43.4662 37.8284 43.2983 37.6004L43.4507 37.4275C43.4848 37.5376 43.5429 37.5745 43.6286 37.6532C43.776 37.677 43.7183 37.6877 43.8457 37.6146C43.9988 37.388 43.975 37.1819 43.7591 37.0126C44.0144 36.3888 44.1243 35.8745 43.854 35.2091C43.6448 34.7008 43.2366 34.3004 42.7244 34.101C42.4894 34.0096 42.2424 33.9528 41.991 33.9326C41.3758 33.8772 40.655 33.9109 40.0271 33.9198C38.5429 33.9408 36.7138 33.5676 36.076 35.3451C35.908 35.8236 35.9408 36.3497 36.1668 36.8036C36.304 37.0838 36.7111 37.6491 36.7646 37.796L36.9152 37.8306L36.8062 37.9379C36.8443 38.0081 36.8251 37.9934 36.8832 38.0394C36.7502 38.0274 36.5896 37.9626 36.4533 37.9594C35.1566 37.9292 33.8082 37.9946 32.5154 37.9743C30.3783 37.9408 28.2026 38.065 26.0769 37.8836C25.9697 35.5074 26.0004 33.0835 26.0472 30.7049C26.057 30.2092 26.4158 29.95 26.7629 29.6545L33.0308 28.7421C34.0635 28.5961 35.2402 28.5068 36.2357 28.2652C36.9846 28.0586 37.5203 27.5152 37.8738 26.8496C38.4394 25.7851 37.4631 24.1557 36.3034 24.0366C35.138 23.917 33.885 23.9635 32.6998 23.9641L27.4707 23.9627L21.5241 23.9615C20.3712 23.9615 19.2205 23.9582 18.0713 23.9815C17.0011 24.0031 16.1927 24.2297 15.3632 24.9218C15.0421 25.1897 14.6424 25.4922 14.4463 25.8685C14.5467 25.5745 14.3991 25.3877 14.3526 25.0914C14.309 24.8134 14.2955 24.5439 14.2843 24.2639C14.227 22.3657 14.2229 20.4662 14.2721 18.5678C14.4678 17.7081 14.8093 16.9419 15.7959 16.8183L15.8432 16.8127C15.9246 16.6916 15.9325 16.3052 16.0024 16.0764L16.0152 16.0357C15.6453 18.0651 16.5521 20.1146 18.3026 21.206C20.0531 22.2973 22.2925 22.2092 23.9519 20.9838C23.9367 21.0446 23.9572 21.0953 23.9726 21.1575C24.0935 21.2069 24.0408 21.2054 24.1709 21.1571C24.2454 21.0324 24.2373 21.0867 24.2079 20.954L24.0829 20.8838C25.0025 20.157 25.6394 19.1318 25.8835 17.9854C25.8896 18.2357 25.979 18.2927 25.9519 18.5088L25.9711 18.5016C26.053 18.2867 26.2041 17.8548 25.9274 17.753C26.025 17.159 26.0152 16.5523 25.8984 15.9618L25.9804 15.9536C26.0979 15.7817 26.077 15.491 25.9158 15.3531C25.8104 15.4212 25.8443 15.3955 25.7987 15.5496C25.6801 15.1364 25.5089 14.74 25.2895 14.3703Z" fill="#97144D" fill-opacity="0.8"/>
<path d="M14.4464 25.8689C14.6425 25.4926 15.0422 25.19 15.3633 24.9222C16.1928 24.2301 17.0012 24.0034 18.0714 23.9818C19.2206 23.9586 20.3713 23.9619 21.5242 23.9619L27.4708 23.963L32.6999 23.9644C33.8851 23.9638 35.1381 23.9174 36.3035 24.037C37.4632 24.1561 38.4395 25.7855 37.8739 26.85C37.5204 27.5156 36.9847 28.059 36.2358 28.2656C35.2403 28.5072 34.0636 28.5965 33.0309 28.7425L26.763 29.6549C26.4159 29.9504 26.0571 30.2096 26.0473 30.7053C26.0005 33.0838 25.9698 35.5077 26.077 37.884C28.2027 38.0654 30.3783 37.9412 32.5155 37.9747C33.8083 37.995 35.1567 37.9296 36.4533 37.9598C36.5897 37.963 36.7503 38.0278 36.8833 38.0397L37.1191 38.0697C37.1073 38.065 42.3333 38.0198 42.7535 38.0674C42.8553 38.0789 43.6705 37.9637 43.8938 37.9589C44.2817 37.9506 44.7165 37.9719 45.1041 37.9557C46.3602 37.9815 47.6166 37.9827 48.8727 37.9593C49.1555 37.9535 49.9503 37.9565 50.1995 37.9293C50.5704 38.0218 50.6757 38.0451 51.0214 38.2212C51.6575 38.6863 51.8684 38.9205 52.0187 39.7369C52.2331 40.9001 51.3225 41.9176 50.1852 42.0252C49.3663 42.1027 48.5419 42.0794 47.7188 42.0784L43.6368 42.074L29.5494 42.0736C29.1223 42.0737 26.2971 42.0481 26.1088 42.1339C26.0192 42.5174 26.046 43.9704 26.045 44.4611L26.0396 48.7325C26.0425 49.2686 26.1105 50.0981 25.9663 50.596C25.6551 51.6709 24.4337 52.2162 23.3843 51.9758C22.8388 51.8508 21.9944 51.1564 21.8073 50.6137C21.6743 50.3198 21.604 49.5762 21.5598 49.226C21.3512 47.7803 21.2787 46.2083 21.0729 44.7452C20.8667 43.2795 21.001 41.5489 20.428 40.1418C20.1523 40.139 19.7964 40.1184 19.5541 40.2354C19.0492 40.8429 18.5759 48.5446 18.3648 49.9234C18.1601 51.2593 17.242 52.217 15.8102 52.0412C15.2787 51.9774 14.7973 51.6967 14.48 51.2657C13.6873 50.2066 13.9037 48.2476 13.9038 46.9426L13.9024 41.2152L13.827 31.9304C13.8273 30.6852 13.7626 28.5363 13.9296 27.3918C14.0522 26.9221 14.2573 26.3109 14.4464 25.8689Z" fill="white"/>
<path d="M14.4464 25.8689C14.6425 25.4926 15.0422 25.19 15.3633 24.9222C16.1928 24.2301 17.0012 24.0034 18.0714 23.9818C19.2206 23.9586 20.3713 23.9619 21.5242 23.9619L27.4708 23.963L32.6999 23.9644C33.8851 23.9638 35.1381 23.9174 36.3035 24.037C37.4632 24.1561 38.4395 25.7855 37.8739 26.85C37.5204 27.5156 36.9847 28.059 36.2358 28.2656C35.2403 28.5072 34.0636 28.5965 33.0309 28.7425L26.763 29.6549C26.4159 29.9504 26.0571 30.2096 26.0473 30.7053C26.0005 33.0838 25.9698 35.5077 26.077 37.884C28.2027 38.0654 30.3783 37.9412 32.5155 37.9747C33.8083 37.995 35.1567 37.9296 36.4533 37.9598C36.5897 37.963 36.7503 38.0278 36.8833 38.0397L37.1191 38.0697C37.1073 38.065 42.3333 38.0198 42.7535 38.0674C42.8553 38.0789 43.6705 37.9637 43.8938 37.9589C44.2817 37.9506 44.7165 37.9719 45.1041 37.9557C46.3602 37.9815 47.6166 37.9827 48.8727 37.9593C49.1555 37.9535 49.9503 37.9565 50.1995 37.9293C50.5704 38.0218 50.6757 38.0451 51.0214 38.2212C51.6575 38.6863 51.8684 38.9205 52.0187 39.7369C52.2331 40.9001 51.3225 41.9176 50.1852 42.0252C49.3663 42.1027 48.5419 42.0794 47.7188 42.0784L43.6368 42.074L29.5494 42.0736C29.1223 42.0737 26.2971 42.0481 26.1088 42.1339C26.0192 42.5174 26.046 43.9704 26.045 44.4611L26.0396 48.7325C26.0425 49.2686 26.1105 50.0981 25.9663 50.596C25.6551 51.6709 24.4337 52.2162 23.3843 51.9758C22.8388 51.8508 21.9944 51.1564 21.8073 50.6137C21.6743 50.3198 21.604 49.5762 21.5598 49.226C21.3512 47.7803 21.2787 46.2083 21.0729 44.7452C20.8667 43.2795 21.001 41.5489 20.428 40.1418C20.1523 40.139 19.7964 40.1184 19.5541 40.2354C19.0492 40.8429 18.5759 48.5446 18.3648 49.9234C18.1601 51.2593 17.242 52.217 15.8102 52.0412C15.2787 51.9774 14.7973 51.6967 14.48 51.2657C13.6873 50.2066 13.9037 48.2476 13.9038 46.9426L13.9024 41.2152L13.827 31.9304C13.8273 30.6852 13.7626 28.5363 13.9296 27.3918C14.0522 26.9221 14.2573 26.3109 14.4464 25.8689Z" fill="#97144D" fill-opacity="0.6"/>
<path d="M16.0153 16.0368C16.3697 14.0918 17.8307 12.5347 19.7492 12.0573C21.6678 11.5799 23.6881 12.2706 24.9128 13.8226C25.0504 13.997 25.1763 14.1803 25.2896 14.3714C25.5091 14.7411 25.6802 15.1374 25.7988 15.5506C25.8378 15.6866 25.8711 15.8241 25.8985 15.9629C26.0153 16.5534 26.0251 17.1601 25.9275 17.7541C25.9147 17.8319 25.9001 17.9093 25.8837 17.9865C25.6395 19.1329 25.0026 20.158 24.083 20.8848C24.0399 20.9189 23.9963 20.9523 23.9521 20.9849C22.2926 22.2103 20.0533 22.2984 18.3027 21.207C16.5522 20.1157 15.6455 18.0662 16.0153 16.0368Z" fill="white"/>
<path d="M16.0153 16.0368C16.3697 14.0918 17.8307 12.5347 19.7492 12.0573C21.6678 11.5799 23.6881 12.2706 24.9128 13.8226C25.0504 13.997 25.1763 14.1803 25.2896 14.3714C25.5091 14.7411 25.6802 15.1374 25.7988 15.5506C25.8378 15.6866 25.8711 15.8241 25.8985 15.9629C26.0153 16.5534 26.0251 17.1601 25.9275 17.7541C25.9147 17.8319 25.9001 17.9093 25.8837 17.9865C25.6395 19.1329 25.0026 20.158 24.083 20.8848C24.0399 20.9189 23.9963 20.9523 23.9521 20.9849C22.2926 22.2103 20.0533 22.2984 18.3027 21.207C16.5522 20.1157 15.6455 18.0662 16.0153 16.0368Z" fill="#97144D" fill-opacity="0.6"/>
<path d="M36.9154 37.8323L36.7648 37.7978C36.7113 37.6509 36.3042 37.0855 36.167 36.8054C35.941 36.3514 35.9082 35.8254 36.0761 35.3469C36.714 33.5694 38.5431 33.9426 40.0273 33.9215C40.6552 33.9126 41.376 33.8789 41.9912 33.9343C42.2425 33.9545 42.4896 34.0113 42.7246 34.1027C43.2368 34.3021 43.645 34.7026 43.8541 35.2108C44.1245 35.8762 44.0146 36.3906 43.7593 37.0143L43.4508 37.4292L43.2984 37.6021C43.2613 37.6811 43.1988 37.8631 43.1243 37.8687C41.5796 37.986 39.9301 37.8911 38.3785 37.9157C38.1204 37.9198 37.4829 37.8958 37.3474 37.9192L36.9154 37.8323Z" fill="white"/>
<path d="M36.9154 37.8323L36.7648 37.7978C36.7113 37.6509 36.3042 37.0855 36.167 36.8054C35.941 36.3514 35.9082 35.8254 36.0761 35.3469C36.714 33.5694 38.5431 33.9426 40.0273 33.9215C40.6552 33.9126 41.376 33.8789 41.9912 33.9343C42.2425 33.9545 42.4896 34.0113 42.7246 34.1027C43.2368 34.3021 43.645 34.7026 43.8541 35.2108C44.1245 35.8762 44.0146 36.3906 43.7593 37.0143L43.4508 37.4292L43.2984 37.6021C43.2613 37.6811 43.1988 37.8631 43.1243 37.8687C41.5796 37.986 39.9301 37.8911 38.3785 37.9157C38.1204 37.9198 37.4829 37.8958 37.3474 37.9192L36.9154 37.8323Z" fill="#97144D" fill-opacity="0.6"/>
<path d="M24.9126 13.8228C25.0024 13.7786 25.0568 13.7637 25.1043 13.6726C25.1816 13.6356 25.3883 13.6649 25.486 13.6721L25.2882 13.6767C27.5563 13.8675 45.0059 13.5557 45.3886 13.7816C45.4126 13.887 45.4272 13.9107 45.3949 14.009L45.2697 14.1104C45.3314 14.2568 45.3798 14.1937 45.5032 14.2131C46.1469 14.3142 46.5934 14.6617 47.2512 14.8006L47.2929 14.809C47.6887 15.2622 48.9931 16.4339 49.1798 16.986C48.6988 16.9905 48.4053 16.1513 48.1799 15.806C48.0577 15.7365 47.9093 15.657 47.8038 15.5658C47.4684 15.2758 47.0696 14.9264 46.6519 14.7776C46.2182 14.623 45.888 14.5393 45.5162 14.2903C44.0801 14.3602 42.221 14.3049 40.7459 14.3052L31.5877 14.3083C30.1529 14.3017 28.7181 14.3073 27.2835 14.3252C26.8619 14.334 26.3835 14.3285 25.9631 14.3574C25.9048 14.3614 25.622 14.5139 25.4716 14.5514L25.2895 14.3715C25.1761 14.1805 25.0502 13.9972 24.9126 13.8228Z" fill="#09314F" fill-opacity="0.0392157"/>
<path d="M49.1912 17.0684C49.598 17.8963 49.5642 17.6943 49.767 18.627C49.8569 19.2033 50.0367 19.8622 50.1098 20.417C50.1444 20.6803 50.1145 21.4269 50.1113 21.7372C50.1046 22.4214 50.1051 23.1056 50.1129 23.7897L50.1579 31.9432L50.1734 34.4374C50.1741 34.7812 50.149 35.5038 50.1937 35.8219C50.2515 35.6113 50.2427 35.3935 50.2451 35.1748C50.2609 35.5789 50.2385 37.422 50.367 37.6592C50.5422 37.7464 50.8653 37.721 51.0698 37.719C51.152 37.8573 51.2431 38.0279 51.3177 38.16C51.3561 38.2281 51.5066 38.2662 51.5785 38.4255C51.3454 38.3783 51.2575 38.2335 51.0681 38.1866L51.0214 38.2212C50.6758 38.0451 50.5705 38.0218 50.1996 37.9292C50.1207 37.8916 49.7292 37.8596 49.6183 37.8476C49.732 36.7336 49.722 35.0909 49.7213 33.9759L49.7167 29.1113L49.7126 22.9638C49.7143 21.5869 49.7285 20.2219 49.6795 18.8445C49.6486 17.9761 49.2225 17.8651 49.1912 17.0684Z" fill="#09324F" fill-opacity="0.0627451"/>
<path d="M13.7204 18.6034C13.92 18.5987 14.0736 18.5893 14.2721 18.5684C14.223 20.4668 14.227 22.3663 14.2844 24.2645C14.2955 24.5445 14.3091 24.814 14.3527 25.0919C14.3991 25.3882 14.5468 25.575 14.4463 25.8691C14.2572 26.3111 14.0521 26.9223 13.9296 27.3919L13.8708 27.3338L13.7412 27.3466C13.6192 26.5377 13.7048 25.0667 13.723 24.2438C13.7343 23.7327 13.6785 23.1275 13.6685 22.5966C13.6364 21.2654 13.6537 19.9334 13.7204 18.6034Z" fill="#093153" fill-opacity="0.0117647"/>
<path d="M49.7668 18.6275C49.9205 18.6122 50.1177 18.5715 50.242 18.6516C50.3448 18.8472 50.2562 19.1709 50.2541 19.4108L50.2538 22.7151C50.2453 26.8047 50.3287 31.109 50.2449 35.1753C50.2425 35.394 50.2513 35.6118 50.1935 35.8224C50.1488 35.5043 50.174 34.7817 50.1733 34.4379L50.1577 31.9437L50.1127 23.7902C50.105 23.1061 50.1044 22.4219 50.1111 21.7378C50.1143 21.4274 50.1442 20.6808 50.1096 20.4175C50.0366 19.8628 49.8567 19.2038 49.7668 18.6275Z" fill="#093153" fill-opacity="0.0352941"/>
<path d="M37.3474 37.9186C37.4828 37.8952 38.1203 37.9193 38.3785 37.9152C39.9301 37.8906 41.5796 37.9855 43.1243 37.8682C43.1988 37.8625 43.2612 37.6805 43.2984 37.6016C43.4664 37.8296 43.4994 37.8309 43.8276 37.8775C44.2352 37.9354 44.6991 37.8653 45.1042 37.9565C44.7166 37.9727 44.2817 37.9514 43.8938 37.9597C43.6706 37.9645 42.8553 38.0797 42.7535 38.0682C42.3334 38.0206 37.1073 38.0659 37.1192 38.0705C37.251 38.0375 37.2627 38.0259 37.3474 37.9186Z" fill="#093153" fill-opacity="0.654902"/>
<path d="M43.7592 37.0137C43.975 37.183 43.9988 37.3891 43.8457 37.6157C43.7183 37.6889 43.776 37.6781 43.6286 37.6543C43.5429 37.5756 43.4848 37.5387 43.4507 37.4286L43.7592 37.0137Z" fill="#093153" fill-opacity="0.2"/>
<path d="M25.7988 15.55C25.8445 15.3958 25.8105 15.4216 25.916 15.3535C26.0772 15.4914 26.0981 15.7821 25.9806 15.954L25.8986 15.9622C25.8711 15.8234 25.8379 15.6859 25.7988 15.55Z" fill="#093153" fill-opacity="0.356863"/>
<path d="M25.9274 17.7539C26.2041 17.8557 26.053 18.2875 25.9711 18.5025L25.9519 18.5097C25.979 18.2936 25.8896 18.2366 25.8835 17.9863C25.9 17.9092 25.9146 17.8317 25.9274 17.7539Z" fill="#093153" fill-opacity="0.368627"/>
<path d="M23.9519 20.9848C23.9961 20.9522 24.0398 20.9188 24.0829 20.8848L24.2079 20.955C24.2373 21.0877 24.2454 21.0334 24.1709 21.1581C24.0408 21.2064 24.0935 21.2079 23.9726 21.1585C23.9571 21.0963 23.9367 21.0456 23.9519 20.9848Z" fill="#093153" fill-opacity="0.309804"/>
<path d="M36.9154 37.832L37.3474 37.9189C37.2628 38.0261 37.2511 38.0378 37.1192 38.0708L36.8834 38.0408C36.8252 37.9949 36.8445 38.0095 36.8064 37.9393L36.9154 37.832Z" fill="#093153" fill-opacity="0.309804"/>
</svg>
