<svg width="64" height="64" viewBox="0 0 64 64" fill="none" xmlns="http://www.w3.org/2000/svg">
<rect width="64" height="64" rx="16" fill="black"/>
<rect width="64" height="64" rx="16" fill="#8F282C" fill-opacity="0.3"/>
<path d="M25.2895 14.3713L25.4717 14.5512C25.622 14.5136 25.9048 14.3611 25.9631 14.3571C26.3836 14.3282 26.8619 14.3338 27.2835 14.325C28.7182 14.3071 30.153 14.3014 31.5878 14.308L40.7459 14.3049C42.221 14.3046 44.0801 14.36 45.5163 14.29C45.888 14.539 46.2182 14.6228 46.6519 14.7773C47.0696 14.9261 47.4685 15.2755 47.8038 15.5656C47.9093 15.6568 48.0578 15.7362 48.1799 15.8057C48.4053 16.151 48.6988 16.9903 49.1799 16.9857L49.191 17.069C49.2223 17.8658 49.6485 17.9768 49.6794 18.8451C49.7284 20.2225 49.7141 21.5875 49.7125 22.9644L49.7165 29.112L49.7211 33.9765C49.7218 35.0915 49.7319 36.7342 49.6182 37.8482C49.7291 37.8602 50.1205 37.8922 50.1994 37.9299C49.9502 37.9571 49.1554 37.9541 48.8726 37.9599C47.6165 37.9833 46.3601 37.9821 45.104 37.9563C44.6989 37.8651 44.2351 37.9352 43.8274 37.8773C43.4992 37.8307 43.4662 37.8294 43.2983 37.6014L43.4507 37.4284C43.4848 37.5385 43.5429 37.5754 43.6286 37.6541C43.776 37.6779 43.7183 37.6887 43.8457 37.6156C43.9988 37.389 43.975 37.1829 43.7591 37.0135C44.0144 36.3898 44.1243 35.8755 43.854 35.2101C43.6448 34.7018 43.2366 34.3014 42.7244 34.102C42.4894 34.0105 42.2424 33.9538 41.991 33.9336C41.3758 33.8782 40.655 33.9119 40.0271 33.9208C38.5429 33.9418 36.7138 33.5686 36.076 35.3461C35.908 35.8246 35.9408 36.3507 36.1668 36.8046C36.304 37.0848 36.7111 37.6501 36.7646 37.797L36.9152 37.8316L36.8062 37.9389C36.8443 38.0091 36.8251 37.9944 36.8832 38.0403C36.7502 38.0284 36.5896 37.9636 36.4533 37.9604C35.1566 37.9302 33.8082 37.9956 32.5154 37.9753C30.3783 37.9418 28.2026 38.066 26.0769 37.8846C25.9697 35.5083 26.0004 33.0844 26.0472 30.7059C26.057 30.2102 26.4158 29.951 26.7629 29.6555L33.0308 28.7431C34.0635 28.5971 35.2402 28.5078 36.2357 28.2661C36.9846 28.0596 37.5203 27.5161 37.8738 26.8506C38.4394 25.7861 37.4631 24.1567 36.3034 24.0376C35.138 23.918 33.885 23.9644 32.6998 23.965L27.4707 23.9636L21.5241 23.9625C20.3712 23.9625 19.2205 23.9592 18.0713 23.9824C17.0011 24.004 16.1927 24.2307 15.3632 24.9228C15.0421 25.1906 14.6424 25.4932 14.4463 25.8695C14.5467 25.5755 14.3991 25.3886 14.3526 25.0923C14.309 24.8144 14.2955 24.5449 14.2843 24.2649C14.227 22.3667 14.2229 20.4672 14.2721 18.5688C14.4678 17.7091 14.8093 16.9429 15.7959 16.8193L15.8432 16.8137C15.9246 16.6926 15.9325 16.3061 16.0024 16.0773L16.0152 16.0367C15.6453 18.0661 16.5521 20.1156 18.3026 21.207C20.0531 22.2983 22.2925 22.2102 23.9519 20.9848C23.9367 21.0456 23.9572 21.0962 23.9726 21.1584C24.0935 21.2079 24.0408 21.2064 24.1709 21.1581C24.2454 21.0333 24.2373 21.0877 24.2079 20.955L24.0829 20.8847C25.0025 20.1579 25.6394 19.1328 25.8835 17.9864C25.8896 18.2367 25.979 18.2937 25.9519 18.5098L25.9711 18.5026C26.053 18.2876 26.2041 17.8558 25.9274 17.754C26.025 17.16 26.0152 16.5533 25.8984 15.9628L25.9804 15.9546C26.0979 15.7827 26.077 15.492 25.9158 15.3541C25.8104 15.4222 25.8443 15.3964 25.7987 15.5506C25.6801 15.1374 25.5089 14.741 25.2895 14.3713Z" fill="#8F282C" fill-opacity="0.8"/>
<path d="M14.4464 25.8694C14.6425 25.4931 15.0422 25.1905 15.3633 24.9227C16.1928 24.2306 17.0012 24.0039 18.0714 23.9823C19.2206 23.9591 20.3713 23.9624 21.5242 23.9624L27.4708 23.9635L32.6999 23.9649C33.8851 23.9643 35.1381 23.9179 36.3035 24.0375C37.4632 24.1566 38.4395 25.786 37.8739 26.8505C37.5204 27.516 36.9847 28.0595 36.2358 28.266C35.2403 28.5077 34.0636 28.597 33.0309 28.743L26.763 29.6554C26.4159 29.9509 26.0571 30.2101 26.0473 30.7058C26.0005 33.0843 25.9698 35.5082 26.077 37.8845C28.2027 38.0659 30.3783 37.9416 32.5155 37.9752C33.8083 37.9955 35.1567 37.9301 36.4533 37.9603C36.5897 37.9635 36.7503 38.0283 36.8833 38.0402L37.1191 38.0702C37.1073 38.0655 42.3333 38.0203 42.7535 38.0679C42.8553 38.0794 43.6705 37.9642 43.8938 37.9594C44.2817 37.9511 44.7165 37.9724 45.1041 37.9562C46.3602 37.982 47.6166 37.9832 48.8727 37.9598C49.1555 37.954 49.9503 37.957 50.1995 37.9297C50.5704 38.0223 50.6757 38.0456 51.0214 38.2217C51.6575 38.6868 51.8684 38.921 52.0187 39.7374C52.2331 40.9006 51.3225 41.9181 50.1852 42.0257C49.3663 42.1032 48.5419 42.0799 47.7188 42.0789L43.6368 42.0745L29.5494 42.0741C29.1223 42.0741 26.2971 42.0486 26.1088 42.1344C26.0192 42.5179 26.046 43.9709 26.045 44.4615L26.0396 48.733C26.0425 49.2691 26.1105 50.0985 25.9663 50.5964C25.6551 51.6714 24.4337 52.2167 23.3843 51.9763C22.8388 51.8512 21.9944 51.1569 21.8073 50.6142C21.6743 50.3203 21.604 49.5767 21.5598 49.2265C21.3512 47.7808 21.2787 46.2088 21.0729 44.7456C20.8667 43.28 21.001 41.5494 20.428 40.1422C20.1523 40.1395 19.7964 40.1189 19.5541 40.2358C19.0492 40.8434 18.5759 48.5451 18.3648 49.9239C18.1601 51.2598 17.242 52.2175 15.8102 52.0417C15.2787 51.9779 14.7973 51.6972 14.48 51.2662C13.6873 50.2071 13.9037 48.2481 13.9038 46.9431L13.9024 41.2157L13.827 31.9309C13.8273 30.6857 13.7626 28.5368 13.9296 27.3922C14.0522 26.9226 14.2573 26.3114 14.4464 25.8694Z" fill="white"/>
<path d="M14.4464 25.8694C14.6425 25.4931 15.0422 25.1905 15.3633 24.9227C16.1928 24.2306 17.0012 24.0039 18.0714 23.9823C19.2206 23.9591 20.3713 23.9624 21.5242 23.9624L27.4708 23.9635L32.6999 23.9649C33.8851 23.9643 35.1381 23.9179 36.3035 24.0375C37.4632 24.1566 38.4395 25.786 37.8739 26.8505C37.5204 27.516 36.9847 28.0595 36.2358 28.266C35.2403 28.5077 34.0636 28.597 33.0309 28.743L26.763 29.6554C26.4159 29.9509 26.0571 30.2101 26.0473 30.7058C26.0005 33.0843 25.9698 35.5082 26.077 37.8845C28.2027 38.0659 30.3783 37.9416 32.5155 37.9752C33.8083 37.9955 35.1567 37.9301 36.4533 37.9603C36.5897 37.9635 36.7503 38.0283 36.8833 38.0402L37.1191 38.0702C37.1073 38.0655 42.3333 38.0203 42.7535 38.0679C42.8553 38.0794 43.6705 37.9642 43.8938 37.9594C44.2817 37.9511 44.7165 37.9724 45.1041 37.9562C46.3602 37.982 47.6166 37.9832 48.8727 37.9598C49.1555 37.954 49.9503 37.957 50.1995 37.9297C50.5704 38.0223 50.6757 38.0456 51.0214 38.2217C51.6575 38.6868 51.8684 38.921 52.0187 39.7374C52.2331 40.9006 51.3225 41.9181 50.1852 42.0257C49.3663 42.1032 48.5419 42.0799 47.7188 42.0789L43.6368 42.0745L29.5494 42.0741C29.1223 42.0741 26.2971 42.0486 26.1088 42.1344C26.0192 42.5179 26.046 43.9709 26.045 44.4615L26.0396 48.733C26.0425 49.2691 26.1105 50.0985 25.9663 50.5964C25.6551 51.6714 24.4337 52.2167 23.3843 51.9763C22.8388 51.8512 21.9944 51.1569 21.8073 50.6142C21.6743 50.3203 21.604 49.5767 21.5598 49.2265C21.3512 47.7808 21.2787 46.2088 21.0729 44.7456C20.8667 43.28 21.001 41.5494 20.428 40.1422C20.1523 40.1395 19.7964 40.1189 19.5541 40.2358C19.0492 40.8434 18.5759 48.5451 18.3648 49.9239C18.1601 51.2598 17.242 52.2175 15.8102 52.0417C15.2787 51.9779 14.7973 51.6972 14.48 51.2662C13.6873 50.2071 13.9037 48.2481 13.9038 46.9431L13.9024 41.2157L13.827 31.9309C13.8273 30.6857 13.7626 28.5368 13.9296 27.3922C14.0522 26.9226 14.2573 26.3114 14.4464 25.8694Z" fill="#8F282C" fill-opacity="0.6"/>
<path d="M16.0153 16.0368C16.3697 14.0918 17.8307 12.5347 19.7492 12.0573C21.6678 11.5799 23.6881 12.2706 24.9128 13.8226C25.0504 13.997 25.1763 14.1803 25.2896 14.3714C25.5091 14.7411 25.6802 15.1374 25.7988 15.5506C25.8378 15.6866 25.8711 15.8241 25.8985 15.9629C26.0153 16.5534 26.0251 17.1601 25.9275 17.7541C25.9147 17.8319 25.9001 17.9093 25.8837 17.9865C25.6395 19.1329 25.0026 20.158 24.083 20.8848C24.0399 20.9189 23.9963 20.9523 23.9521 20.9849C22.2926 22.2103 20.0533 22.2984 18.3027 21.207C16.5522 20.1157 15.6455 18.0662 16.0153 16.0368Z" fill="white"/>
<path d="M16.0153 16.0368C16.3697 14.0918 17.8307 12.5347 19.7492 12.0573C21.6678 11.5799 23.6881 12.2706 24.9128 13.8226C25.0504 13.997 25.1763 14.1803 25.2896 14.3714C25.5091 14.7411 25.6802 15.1374 25.7988 15.5506C25.8378 15.6866 25.8711 15.8241 25.8985 15.9629C26.0153 16.5534 26.0251 17.1601 25.9275 17.7541C25.9147 17.8319 25.9001 17.9093 25.8837 17.9865C25.6395 19.1329 25.0026 20.158 24.083 20.8848C24.0399 20.9189 23.9963 20.9523 23.9521 20.9849C22.2926 22.2103 20.0533 22.2984 18.3027 21.207C16.5522 20.1157 15.6455 18.0662 16.0153 16.0368Z" fill="#8F282C" fill-opacity="0.6"/>
<path d="M36.9154 37.8313L36.7648 37.7968C36.7113 37.6499 36.3042 37.0846 36.167 36.8044C35.941 36.3505 35.9082 35.8244 36.0761 35.3459C36.714 33.5684 38.5431 33.9416 40.0273 33.9206C40.6552 33.9116 41.376 33.8779 41.9912 33.9333C42.2425 33.9536 42.4896 34.0103 42.7246 34.1018C43.2368 34.3011 43.645 34.7016 43.8541 35.2098C44.1245 35.8752 44.0146 36.3896 43.7593 37.0133L43.4508 37.4282L43.2984 37.6011C43.2613 37.6801 43.1988 37.8621 43.1243 37.8678C41.5796 37.985 39.9301 37.8902 38.3785 37.9147C38.1204 37.9189 37.4829 37.8948 37.3474 37.9182L36.9154 37.8313Z" fill="white"/>
<path d="M36.9154 37.8313L36.7648 37.7968C36.7113 37.6499 36.3042 37.0846 36.167 36.8044C35.941 36.3505 35.9082 35.8244 36.0761 35.3459C36.714 33.5684 38.5431 33.9416 40.0273 33.9206C40.6552 33.9116 41.376 33.8779 41.9912 33.9333C42.2425 33.9536 42.4896 34.0103 42.7246 34.1018C43.2368 34.3011 43.645 34.7016 43.8541 35.2098C44.1245 35.8752 44.0146 36.3896 43.7593 37.0133L43.4508 37.4282L43.2984 37.6011C43.2613 37.6801 43.1988 37.8621 43.1243 37.8678C41.5796 37.985 39.9301 37.8902 38.3785 37.9147C38.1204 37.9189 37.4829 37.8948 37.3474 37.9182L36.9154 37.8313Z" fill="#8F282C" fill-opacity="0.6"/>
<path d="M24.9126 13.8223C25.0024 13.7781 25.0568 13.7632 25.1043 13.6721C25.1816 13.6352 25.3883 13.6644 25.486 13.6716L25.2882 13.6762C27.5563 13.867 45.0059 13.5552 45.3886 13.7811C45.4126 13.8865 45.4272 13.9102 45.3949 14.0085L45.2697 14.11C45.3314 14.2563 45.3798 14.1932 45.5032 14.2126C46.1469 14.3137 46.5934 14.6613 47.2512 14.8001L47.2929 14.8085C47.6887 15.2617 48.9931 16.4335 49.1798 16.9855C48.6988 16.99 48.4053 16.1508 48.1799 15.8055C48.0577 15.736 47.9093 15.6566 47.8038 15.5653C47.4684 15.2753 47.0696 14.9259 46.6519 14.7771C46.2182 14.6225 45.888 14.5388 45.5162 14.2898C44.0801 14.3598 42.221 14.3044 40.7459 14.3047L31.5877 14.3078C30.1529 14.3012 28.7181 14.3068 27.2835 14.3247C26.8619 14.3335 26.3835 14.328 25.9631 14.3569C25.9048 14.3609 25.622 14.5134 25.4716 14.551L25.2895 14.3711C25.1761 14.18 25.0502 13.9967 24.9126 13.8223Z" fill="#09314F" fill-opacity="0.0392157"/>
<path d="M49.1912 17.0688C49.598 17.8968 49.5642 17.6948 49.767 18.6275C49.8569 19.2038 50.0367 19.8627 50.1098 20.4175C50.1444 20.6808 50.1145 21.4274 50.1113 21.7377C50.1046 22.4219 50.1051 23.1061 50.1129 23.7902L50.1579 31.9436L50.1734 34.4379C50.1741 34.7817 50.149 35.5043 50.1937 35.8224C50.2515 35.6118 50.2427 35.394 50.2451 35.1753C50.2609 35.5794 50.2385 37.4225 50.367 37.6597C50.5422 37.7469 50.8653 37.7215 51.0698 37.7195C51.152 37.8578 51.2431 38.0283 51.3177 38.1605C51.3561 38.2286 51.5066 38.2667 51.5785 38.426C51.3454 38.3788 51.2575 38.2339 51.0681 38.1871L51.0214 38.2217C50.6758 38.0456 50.5705 38.0223 50.1996 37.9297C50.1207 37.8921 49.7292 37.8601 49.6183 37.8481C49.732 36.7341 49.722 35.0913 49.7213 33.9764L49.7167 29.1118L49.7126 22.9643C49.7143 21.5874 49.7285 20.2224 49.6795 18.8449C49.6486 17.9766 49.2225 17.8656 49.1912 17.0688Z" fill="#09324F" fill-opacity="0.0627451"/>
<path d="M13.7204 18.6039C13.92 18.5992 14.0736 18.5898 14.2721 18.5688C14.223 20.4673 14.227 22.3668 14.2844 24.265C14.2955 24.5449 14.3091 24.8145 14.3527 25.0924C14.3991 25.3887 14.5468 25.5755 14.4463 25.8696C14.2572 26.3116 14.0521 26.9228 13.9296 27.3924L13.8708 27.3343L13.7412 27.3471C13.6192 26.5382 13.7048 25.0672 13.723 24.2443C13.7343 23.7332 13.6785 23.128 13.6685 22.5971C13.6364 21.2658 13.6537 19.9338 13.7204 18.6039Z" fill="#093153" fill-opacity="0.0117647"/>
<path d="M49.7668 18.6275C49.9205 18.6122 50.1177 18.5715 50.242 18.6516C50.3448 18.8472 50.2562 19.1709 50.2541 19.4108L50.2538 22.7151C50.2453 26.8047 50.3287 31.109 50.2449 35.1753C50.2425 35.394 50.2513 35.6118 50.1935 35.8224C50.1488 35.5043 50.174 34.7817 50.1733 34.4379L50.1577 31.9437L50.1127 23.7902C50.105 23.1061 50.1044 22.4219 50.1111 21.7378C50.1143 21.4274 50.1442 20.6808 50.1096 20.4175C50.0366 19.8628 49.8567 19.2038 49.7668 18.6275Z" fill="#093153" fill-opacity="0.0352941"/>
<path d="M37.3474 37.9181C37.4828 37.8947 38.1203 37.9188 38.3785 37.9147C39.9301 37.8901 41.5796 37.985 43.1243 37.8677C43.1988 37.862 43.2612 37.6801 43.2984 37.6011C43.4664 37.8291 43.4994 37.8304 43.8276 37.877C44.2352 37.9349 44.6991 37.8648 45.1042 37.9561C44.7166 37.9722 44.2817 37.9509 43.8938 37.9592C43.6706 37.964 42.8553 38.0792 42.7535 38.0677C42.3334 38.0201 37.1073 38.0654 37.1192 38.07C37.251 38.0371 37.2627 38.0254 37.3474 37.9181Z" fill="#093153" fill-opacity="0.654902"/>
<path d="M43.7592 37.0137C43.975 37.183 43.9988 37.3891 43.8457 37.6157C43.7183 37.6889 43.776 37.6781 43.6286 37.6543C43.5429 37.5756 43.4848 37.5387 43.4507 37.4286L43.7592 37.0137Z" fill="#093153" fill-opacity="0.2"/>
<path d="M25.7988 15.5505C25.8445 15.3963 25.8105 15.4221 25.916 15.354C26.0772 15.4919 26.0981 15.7826 25.9806 15.9545L25.8986 15.9627C25.8711 15.8239 25.8379 15.6864 25.7988 15.5505Z" fill="#093153" fill-opacity="0.356863"/>
<path d="M25.9274 17.7539C26.2041 17.8557 26.053 18.2875 25.9711 18.5025L25.9519 18.5097C25.979 18.2936 25.8896 18.2366 25.8835 17.9863C25.9 17.9092 25.9146 17.8317 25.9274 17.7539Z" fill="#093153" fill-opacity="0.368627"/>
<path d="M23.9519 20.9848C23.9961 20.9522 24.0398 20.9188 24.0829 20.8848L24.2079 20.955C24.2373 21.0877 24.2454 21.0334 24.1709 21.1581C24.0408 21.2064 24.0935 21.2079 23.9726 21.1585C23.9571 21.0963 23.9367 21.0456 23.9519 20.9848Z" fill="#093153" fill-opacity="0.309804"/>
<path d="M36.9154 37.8315L37.3474 37.9184C37.2628 38.0257 37.2511 38.0373 37.1192 38.0703L36.8834 38.0403C36.8252 37.9944 36.8445 38.0091 36.8064 37.9388L36.9154 37.8315Z" fill="#093153" fill-opacity="0.309804"/>
</svg>
