<svg width="64" height="64" viewBox="0 0 64 64" fill="none" xmlns="http://www.w3.org/2000/svg">
<rect width="64" height="64" rx="16" fill="#FAFAFA" fill-opacity="0.08"/>
<g opacity="0.5">
<path d="M25.8667 16.056L25.9452 16.0698C26.1601 15.6891 25.5096 14.5063 26.1482 14.4524C27.1151 14.3707 28.4012 14.4052 29.3787 14.4051L37.5069 14.4048L42.2652 14.405C42.9746 14.405 43.923 14.3806 44.6103 14.4261C45.3237 14.4734 46.302 15.0347 47.057 15.3095C47.2149 15.479 47.1127 15.548 47.3284 15.6887C47.5315 15.8211 47.7281 15.9582 47.9361 16.086L48.0997 16.0736C48.15 16.3106 48.2216 16.6709 48.4005 16.836C48.5177 16.7692 48.5889 16.7795 48.7169 16.786C48.7375 16.8843 48.7161 16.9177 48.6839 17.0172C48.7506 17.1573 49.0205 17.2953 49.0293 17.3214C49.0947 17.5186 49.02 17.5995 49.1771 17.8218L49.2616 17.8451C49.2895 17.8114 49.3379 17.7573 49.3602 17.7228C49.4153 17.8144 49.6133 18.135 49.622 18.2272C49.8946 21.0909 49.8222 23.9358 49.8218 26.8114L49.8224 35.1785C49.8205 35.5573 49.6661 37.6806 49.7779 37.8374C50.174 37.8281 50.1333 37.8186 50.4775 38.0243C49.3603 37.8057 44.0088 38.3236 43.4748 37.8388C43.3862 37.7584 43.3407 37.681 43.3356 37.5593C43.382 37.4356 43.3908 37.4226 43.4925 37.3383L43.5918 37.4141C43.6528 37.4194 43.757 37.4477 43.7991 37.3777C44.0349 36.9855 44.3755 35.545 44.0304 35.2145L43.9651 35.2534L43.924 35.4302C43.5394 34.5526 42.8472 33.9018 41.8299 33.9139C40.3855 33.9462 38.7519 33.7492 37.3462 34.0458C36.7955 34.1621 36.2445 34.9302 36.0513 35.44L35.9924 35.2983L35.9324 35.3159C35.7107 35.7884 35.857 37.4674 36.5232 37.4652L36.5853 37.4298L36.727 37.5615C36.5833 37.6999 36.4387 37.8371 36.293 37.9733C34.1342 38.0393 31.895 37.948 29.7326 37.9836C29.0427 37.9949 27.6637 37.9355 27.0268 38.0034C26.6597 38.0304 26.0696 38.0267 26.0496 37.5644C26.006 36.5576 25.9346 35.5319 25.981 34.5148C26.046 33.0917 25.7863 31.3914 26.2586 30.047C26.476 29.5493 28.1948 29.4213 28.7805 29.348L28.8004 29.3999C28.9533 29.5072 29.3662 29.4649 29.5032 29.3507C29.4194 29.2683 29.3287 29.2764 29.2056 29.2632C29.8874 29.128 30.5866 29.118 31.2502 28.995C32.6812 28.7298 34.0892 28.5925 35.5303 28.4116L35.5414 28.4531C35.7565 28.6591 36.4864 28.4841 36.5705 28.2448L36.4629 28.1739C37.6365 27.6446 38.1946 26.7157 37.841 25.434C37.8867 25.4001 37.9107 25.3621 37.947 25.3169C37.971 24.9303 37.219 24.0947 36.8233 24.046C36.6955 24.0303 36.6913 24.0666 36.5953 24.1394C35.5693 23.8661 33.3785 23.9588 32.2112 23.959L25.9802 23.9576L21.0184 23.9569C19.9734 23.9568 18.9562 23.9459 17.9112 24.0002C16.3952 24.0789 15.6297 24.5543 14.5828 25.6241C14.6304 25.54 14.6544 25.484 14.6923 25.3948C14.1019 24.1575 14.3582 22.0261 14.3301 20.6366C14.3094 19.6165 14.5113 18.3351 15.2516 17.6063C15.359 17.5006 15.4799 17.4384 15.6359 17.4469C15.8014 17.4963 15.8613 17.603 15.9682 17.7407L15.9919 17.4628C16.0509 18.0545 16.215 18.6309 16.4767 19.1649C16.1085 20.2774 19.4274 22.452 20.3176 21.9185C21.8623 22.1187 23.412 21.5863 24.5075 20.479L24.5494 20.5856L24.6208 20.6013C25.2304 20.2813 25.9812 18.642 25.9565 17.9738L25.8542 17.9449C25.8665 17.8836 25.8776 17.822 25.8875 17.7602C25.9046 17.7428 25.9618 17.6801 25.9693 17.6623C26.0789 17.4016 26.1738 15.9769 26.1282 15.7945C25.9216 15.9955 26.2027 15.9462 25.9037 16.2845C25.8931 16.208 25.8808 16.1319 25.8667 16.056Z" fill="#FAFAF9" fill-opacity="0.501961"/>
<path d="M14.5827 25.624C15.6296 24.5542 16.3951 24.0788 17.9111 24.0001C18.9561 23.9458 19.9733 23.9567 21.0183 23.9568L25.9801 23.9575L32.2111 23.9589C33.3784 23.9587 35.5692 23.866 36.5952 24.1393C37.3039 24.4869 37.5005 24.7126 37.8409 25.4339C38.1945 26.7156 37.6364 27.6445 36.4628 28.1738C36.109 28.2852 35.8941 28.341 35.5302 28.4115C34.0891 28.5924 32.6811 28.7297 31.2501 28.9949C30.5865 29.1179 29.8873 29.1279 29.2055 29.2631L28.7804 29.3479C28.1947 29.4212 26.4759 29.5492 26.2585 30.0469C25.7862 31.3913 26.0459 33.0916 25.9809 34.5147C25.9345 35.5318 26.0059 36.5575 26.0495 37.5643C26.0695 38.0266 26.6596 38.0303 27.0267 38.0033C27.3335 38.0608 28.4724 38.0411 28.8311 38.0401L32.2574 38.034L40.8291 38.0658C41.3993 38.0677 42.7259 38.1657 43.1968 38.0228L43.1368 38.0324L43.1184 37.9639C42.5897 37.8379 42.0525 37.9464 41.4958 37.933C40.1034 37.8994 38.6497 38.0327 37.2659 37.888C37.0112 37.8614 36.8597 37.7702 36.7269 37.5614L36.5852 37.4297C36.1499 36.8054 35.8118 36.2217 36.0512 35.4399C36.2444 34.9301 36.7954 34.162 37.3461 34.0458C38.7518 33.7491 40.3855 33.9461 41.8298 33.9138C42.8471 33.9017 43.5393 34.5525 43.9239 35.4301C44.0937 36.1158 43.9545 36.573 43.5982 37.1682C43.5638 37.2254 43.5286 37.2821 43.4924 37.3383C43.3907 37.4225 43.3819 37.4355 43.3355 37.5592C43.3406 37.6809 43.3861 37.7583 43.4747 37.8387C44.0087 38.3235 49.3602 37.8056 50.4774 38.0242C51.4542 38.165 51.8831 39.1915 52.1317 40.0125C51.8709 40.6891 51.5322 41.5538 50.8155 41.8052C49.8526 42.1429 48.3155 42.0358 47.3052 42.0342L43.3853 42.0344L30.896 42.0355L28.1718 42.0311C27.7139 42.0308 26.7259 42.0262 26.289 42.0882C26.1217 42.1888 26.1115 42.261 26.0469 42.4498C25.8663 43.5059 25.9184 44.7207 25.9119 45.7958C25.9034 47.2089 25.9012 48.55 26.0019 49.9612C25.9656 50.1036 25.9261 50.2477 25.8992 50.392C25.5682 51.313 25.1565 51.9586 24.0593 51.9921C23.061 52.0225 22.5882 51.4594 21.9336 50.8227C21.6615 49.8686 21.6127 48.5126 21.4139 47.5105C21.3087 46.9801 21.3876 46.2099 21.2989 45.6466C21.2162 45.1209 21.0915 44.6208 21.0194 44.0963C20.9237 43.264 20.9396 40.7823 20.4566 40.1728C20.2156 40.1206 19.8393 40.1448 19.5829 40.1505C19.522 40.3079 19.3659 40.66 19.3315 40.7949C18.986 42.1524 19.0804 43.5681 18.9971 44.9545C18.9811 45.2209 18.7408 45.5107 18.7133 45.7773C18.6259 46.6225 18.6204 47.4659 18.5769 48.3101C18.559 48.6566 18.4075 49.1728 18.3529 49.5459C18.2747 49.9421 18.2417 50.3491 18.0836 50.7259C17.6665 51.7299 16.3941 52.2583 15.3891 51.8514C14.3694 51.4385 14.0975 50.5854 14.0742 49.5824C14.0068 46.6869 14.0911 43.7829 14.0529 40.8889C13.9918 37.9981 13.9746 35.1064 14.0013 32.2151C14.0013 30.9617 13.9438 29.0664 14.0233 27.852C14.0657 27.1078 14.2425 26.3775 14.545 25.6962L14.5827 25.624Z" fill="#FAFAF9"/>
<path d="M16.0223 16.2292C16.3328 14.1555 17.9061 12.4969 19.9605 12.0775C22.0149 11.6581 24.1124 12.5672 25.2109 14.3533C25.5322 14.8757 25.7545 15.4529 25.8666 16.056C25.8807 16.1319 25.893 16.2081 25.9036 16.2845C25.9714 16.7745 25.9659 17.2718 25.8875 17.7602C25.8775 17.822 25.8664 17.8836 25.8542 17.945C25.663 18.9033 25.1947 19.7843 24.5075 20.479C23.4119 21.5863 21.8622 22.1188 20.3175 21.9186C18.6562 21.7033 17.2137 20.6691 16.4766 19.1649C16.2149 18.6309 16.0508 18.0545 15.9919 17.4628C15.9509 17.0519 15.9612 16.6375 16.0223 16.2292Z" fill="#FAFAF9"/>
<path d="M25.2108 14.3533L25.4141 14.564C25.5062 14.502 25.5073 14.4672 25.5492 14.3574C25.7671 14.178 34.1213 14.2458 35.3951 14.2455L41.3646 14.2407C42.1647 14.2385 42.954 14.2291 43.7537 14.2163C44.2473 14.2084 44.8898 14.3053 45.3907 14.3364C45.7641 14.3595 45.9496 14.512 46.2525 14.616C47.2692 14.965 47.9282 15.5203 48.6008 16.3546C48.7566 16.5478 49.1004 16.9741 49.1939 17.2095C49.2654 17.3896 49.2282 17.4755 49.3601 17.7229C49.3378 17.7573 49.2894 17.8115 49.2614 17.8452L49.177 17.8218C49.0198 17.5995 49.0946 17.5186 49.0291 17.3215C49.0204 17.2953 48.7505 17.1574 48.6838 17.0172C48.716 16.9177 48.7373 16.8844 48.7168 16.7861C48.5887 16.7796 48.5176 16.7693 48.4003 16.8361C48.2215 16.671 48.1498 16.3107 48.0996 16.0736L47.936 16.0861C47.728 15.9582 47.5314 15.8211 47.3283 15.6887C47.1126 15.5481 47.2148 15.4791 47.0569 15.3096C46.3019 15.0348 45.3236 14.4734 44.6101 14.4261C43.9229 14.3806 42.9745 14.4051 42.2651 14.4051L37.5067 14.4048L29.3786 14.4051C28.4011 14.4053 27.115 14.3707 26.148 14.4524C25.5095 14.5064 26.16 15.6892 25.9451 16.0699L25.8665 16.056C25.7544 15.453 25.5321 14.8758 25.2108 14.3533Z" fill="#FAFAF9" fill-opacity="0.4"/>
<path d="M16.0223 16.229C15.9611 16.6374 15.9509 17.0518 15.9918 17.4627L15.9681 17.7406C15.8612 17.6029 15.8013 17.4962 15.6358 17.4468C15.4798 17.4382 15.3589 17.5004 15.2515 17.6062C14.5112 18.335 14.3093 19.6164 14.33 20.6365C14.3581 22.0259 14.1018 24.1574 14.6922 25.3947C14.6543 25.4839 14.6303 25.5399 14.5827 25.624L14.545 25.6962C13.7502 24.5437 14.1986 21.3835 14.1253 19.9299C14.0816 19.061 14.5492 17.8918 14.8767 17.0954C15.0798 17.017 15.4154 16.8687 15.6232 16.8056C15.6825 16.7876 15.7775 16.884 15.8276 16.9258C16.0337 16.7632 15.8752 16.5315 16.0223 16.229Z" fill="#FAFAF9" fill-opacity="0.294118"/>
<path d="M26.0469 42.4497C26.0611 42.5926 26.0611 42.8444 26.1357 42.939L26.2192 42.8388C26.3079 42.9818 26.2722 48.1625 26.2827 48.8076C26.2394 49.0277 26.248 49.0944 26.0811 49.2374L26.1003 49.1903C26.0066 49.3072 26.0376 49.5345 26.0427 49.6927C26.0325 49.7706 26.0209 49.8879 26.002 49.9611C25.9012 48.5499 25.9034 47.2087 25.9119 45.7956C25.9184 44.7206 25.8664 43.5058 26.0469 42.4497Z" fill="#FAFAF9" fill-opacity="0.380392"/>
<path d="M36.7269 37.5613C36.8597 37.7701 37.0112 37.8613 37.2659 37.8879C38.6497 38.0326 40.1035 37.8993 41.4958 37.9329C42.0525 37.9463 42.5897 37.8378 43.1184 37.9638L43.1368 38.0323L43.1968 38.0227C42.7259 38.1656 41.3993 38.0676 40.8291 38.0657L32.2574 38.0339L28.8311 38.04C28.4724 38.041 27.3335 38.0607 27.0267 38.0032C27.6636 37.9353 29.0426 37.9947 29.7325 37.9834C31.8949 37.9478 34.1341 38.0391 36.2929 37.9731C36.4386 37.8369 36.5832 37.6997 36.7269 37.5613Z" fill="#FAFAF9" fill-opacity="0.615686"/>
<path d="M16.4766 19.1648C17.2138 20.669 18.6563 21.7032 20.3175 21.9185C19.4274 22.452 16.1084 20.2773 16.4766 19.1648Z" fill="#FAFAF9" fill-opacity="0.376471"/>
<path d="M26.0468 42.4497C26.1115 42.2609 26.1216 42.1887 26.2889 42.0881C26.3552 42.8142 26.3876 49.7958 26.2522 50.1154C26.1681 50.1141 26.1845 50.1013 26.1015 50.0217C25.9748 50.1835 26.0423 50.2455 25.8992 50.3919C25.9261 50.2476 25.9655 50.1035 26.0019 49.9611C26.0208 49.8879 26.0324 49.7706 26.0427 49.6928L26.1093 49.4967C26.1822 49.5577 26.219 49.7608 26.2472 49.8648C26.2724 49.4887 26.293 49.1835 26.2827 48.8076C26.2721 48.1625 26.3079 42.9818 26.2191 42.8388L26.1356 42.939C26.061 42.8444 26.0611 42.5926 26.0468 42.4497Z" fill="#FAFAF9" fill-opacity="0.184314"/>
<path d="M25.8542 17.9448L25.9564 17.9737C25.9811 18.6419 25.2303 20.2812 24.6207 20.6011L24.5493 20.5855L24.5074 20.4788C25.1947 19.7842 25.663 18.9031 25.8542 17.9448Z" fill="#FAFAF9" fill-opacity="0.415686"/>
<path d="M43.924 35.4301L43.9651 35.2533L44.0303 35.2144C44.3754 35.5449 44.0348 36.9853 43.799 37.3775C43.7569 37.4475 43.6527 37.4193 43.5917 37.414L43.4924 37.3382C43.5286 37.2821 43.5639 37.2254 43.5982 37.1682C43.9545 36.5729 44.0938 36.1158 43.924 35.4301Z" fill="#FAFAF9" fill-opacity="0.415686"/>
<path d="M36.5852 37.4298L36.5231 37.4652C35.8569 37.4674 35.7106 35.7884 35.9323 35.3159L35.9923 35.2983L36.0513 35.44C35.8118 36.2218 36.1499 36.8055 36.5852 37.4298Z" fill="#FAFAF9" fill-opacity="0.407843"/>
<path d="M36.5952 24.1393C36.6912 24.0664 36.6954 24.0301 36.8232 24.0459C37.2189 24.0946 37.9709 24.9302 37.9469 25.3167C37.9106 25.3619 37.8866 25.3999 37.8409 25.4339C37.5005 24.7126 37.3039 24.4868 36.5952 24.1393Z" fill="#FAFAF9" fill-opacity="0.443137"/>
<path d="M25.9036 16.2845C26.2026 15.9462 25.9215 15.9954 26.1282 15.7944C26.1738 15.9769 26.0788 17.4015 25.9692 17.6623C25.9617 17.6801 25.9045 17.7428 25.8875 17.7602C25.9659 17.2718 25.9714 16.7744 25.9036 16.2845Z" fill="#FAFAF9" fill-opacity="0.517647"/>
<path d="M36.4628 28.1738L36.5705 28.2448C36.4864 28.484 35.7565 28.6591 35.5414 28.4531L35.5303 28.4116C35.8941 28.341 36.1091 28.2852 36.4628 28.1738Z" fill="#FAFAF9" fill-opacity="0.396078"/>
<path d="M26.0427 49.693C26.0376 49.5348 26.0065 49.3075 26.1003 49.1905L26.0811 49.2377C26.2479 49.0947 26.2393 49.028 26.2826 48.8079C26.293 49.1838 26.2724 49.4889 26.2472 49.8651C26.219 49.7611 26.1821 49.558 26.1093 49.4969L26.0427 49.693Z" fill="#FAFAF9" fill-opacity="0.270588"/>
<path d="M28.7805 29.348L29.2056 29.2632C29.3287 29.2764 29.4194 29.2682 29.5032 29.3507C29.3662 29.4649 28.9533 29.5072 28.8004 29.3999L28.7805 29.348Z" fill="#FAFAF9" fill-opacity="0.443137"/>
</g>
</svg>
