<svg width="64" height="64" viewBox="0 0 64 64" fill="none" xmlns="http://www.w3.org/2000/svg">
<rect width="64" height="64" rx="16" fill="black"/>
<rect width="64" height="64" rx="16" fill="#A81B58" fill-opacity="0.3"/>
<path d="M25.2895 14.3713L25.4717 14.5512C25.622 14.5136 25.9048 14.3611 25.9631 14.3571C26.3836 14.3282 26.8619 14.3338 27.2835 14.325C28.7182 14.3071 30.153 14.3014 31.5878 14.308L40.7459 14.3049C42.221 14.3046 44.0801 14.36 45.5163 14.29C45.888 14.539 46.2182 14.6228 46.6519 14.7773C47.0696 14.9261 47.4685 15.2755 47.8038 15.5656C47.9093 15.6568 48.0578 15.7362 48.1799 15.8057C48.4053 16.151 48.6988 16.9903 49.1799 16.9857L49.191 17.069C49.2223 17.8658 49.6485 17.9768 49.6794 18.8451C49.7284 20.2225 49.7141 21.5875 49.7125 22.9644L49.7165 29.112L49.7211 33.9765C49.7218 35.0915 49.7319 36.7342 49.6182 37.8482C49.7291 37.8602 50.1205 37.8922 50.1994 37.9299C49.9502 37.9571 49.1554 37.9541 48.8726 37.9599C47.6165 37.9833 46.3601 37.9821 45.104 37.9563C44.6989 37.8651 44.2351 37.9352 43.8274 37.8773C43.4992 37.8307 43.4662 37.8294 43.2983 37.6014L43.4507 37.4284C43.4848 37.5385 43.5429 37.5754 43.6286 37.6541C43.776 37.6779 43.7183 37.6887 43.8457 37.6156C43.9988 37.389 43.975 37.1829 43.7591 37.0135C44.0144 36.3898 44.1243 35.8755 43.854 35.2101C43.6448 34.7018 43.2366 34.3014 42.7244 34.102C42.4894 34.0105 42.2424 33.9538 41.991 33.9336C41.3758 33.8782 40.655 33.9119 40.0271 33.9208C38.5429 33.9418 36.7138 33.5686 36.076 35.3461C35.908 35.8246 35.9408 36.3507 36.1668 36.8046C36.304 37.0848 36.7111 37.6501 36.7646 37.797L36.9152 37.8316L36.8062 37.9389C36.8443 38.0091 36.8251 37.9944 36.8832 38.0403C36.7502 38.0284 36.5896 37.9636 36.4533 37.9604C35.1566 37.9302 33.8082 37.9956 32.5154 37.9753C30.3783 37.9418 28.2026 38.066 26.0769 37.8846C25.9697 35.5083 26.0004 33.0844 26.0472 30.7059C26.057 30.2102 26.4158 29.951 26.7629 29.6555L33.0308 28.7431C34.0635 28.5971 35.2402 28.5078 36.2357 28.2661C36.9846 28.0596 37.5203 27.5161 37.8738 26.8506C38.4394 25.7861 37.4631 24.1567 36.3034 24.0376C35.138 23.918 33.885 23.9644 32.6998 23.965L27.4707 23.9636L21.5241 23.9625C20.3712 23.9625 19.2205 23.9592 18.0713 23.9824C17.0011 24.004 16.1927 24.2307 15.3632 24.9228C15.0421 25.1906 14.6424 25.4932 14.4463 25.8695C14.5467 25.5755 14.3991 25.3886 14.3526 25.0923C14.309 24.8144 14.2955 24.5449 14.2843 24.2649C14.227 22.3667 14.2229 20.4672 14.2721 18.5688C14.4678 17.7091 14.8093 16.9429 15.7959 16.8193L15.8432 16.8137C15.9246 16.6926 15.9325 16.3061 16.0024 16.0773L16.0152 16.0367C15.6453 18.0661 16.5521 20.1156 18.3026 21.207C20.0531 22.2983 22.2925 22.2102 23.9519 20.9848C23.9367 21.0456 23.9572 21.0962 23.9726 21.1584C24.0935 21.2079 24.0408 21.2064 24.1709 21.1581C24.2454 21.0333 24.2373 21.0877 24.2079 20.955L24.0829 20.8847C25.0025 20.1579 25.6394 19.1328 25.8835 17.9864C25.8896 18.2367 25.979 18.2937 25.9519 18.5098L25.9711 18.5026C26.053 18.2876 26.2041 17.8558 25.9274 17.754C26.025 17.16 26.0152 16.5533 25.8984 15.9628L25.9804 15.9546C26.0979 15.7827 26.077 15.492 25.9158 15.3541C25.8104 15.4222 25.8443 15.3964 25.7987 15.5506C25.6801 15.1374 25.5089 14.741 25.2895 14.3713Z" fill="#A61A56" fill-opacity="0.8"/>
<path d="M14.4464 25.8695C14.6425 25.4932 15.0422 25.1906 15.3633 24.9227C16.1928 24.2306 17.0012 24.004 18.0714 23.9824C19.2206 23.9591 20.3713 23.9625 21.5242 23.9625L27.4708 23.9636L32.6999 23.965C33.8851 23.9644 35.1381 23.918 36.3035 24.0376C37.4632 24.1566 38.4395 25.786 37.8739 26.8505C37.5204 27.5161 36.9847 28.0596 36.2358 28.2661C35.2403 28.5077 34.0636 28.597 33.0309 28.7431L26.763 29.6555C26.4159 29.9509 26.0571 30.2101 26.0473 30.7058C26.0005 33.0844 25.9698 35.5083 26.077 37.8845C28.2027 38.0659 30.3783 37.9417 32.5155 37.9752C33.8083 37.9955 35.1567 37.9301 36.4533 37.9604C36.5897 37.9636 36.7503 38.0283 36.8833 38.0403L37.1191 38.0702C37.1073 38.0656 42.3333 38.0204 42.7535 38.0679C42.8553 38.0795 43.6705 37.9643 43.8938 37.9595C44.2817 37.9511 44.7165 37.9724 45.1041 37.9563C46.3602 37.9821 47.6166 37.9832 48.8727 37.9599C49.1555 37.9541 49.9503 37.957 50.1995 37.9298C50.5704 38.0224 50.6757 38.0457 51.0214 38.2217C51.6575 38.6869 51.8684 38.9211 52.0187 39.7374C52.2331 40.9006 51.3225 41.9181 50.1852 42.0257C49.3663 42.1032 48.5419 42.08 47.7188 42.0789L43.6368 42.0745L29.5494 42.0741C29.1223 42.0742 26.2971 42.0487 26.1088 42.1344C26.0192 42.518 26.046 43.971 26.045 44.4616L26.0396 48.733C26.0425 49.2692 26.1105 50.0986 25.9663 50.5965C25.6551 51.6714 24.4337 52.2168 23.3843 51.9763C22.8388 51.8513 21.9944 51.1569 21.8073 50.6143C21.6743 50.3203 21.604 49.5768 21.5598 49.2265C21.3512 47.7808 21.2787 46.2089 21.0729 44.7457C20.8667 43.28 21.001 41.5494 20.428 40.1423C20.1523 40.1396 19.7964 40.119 19.5541 40.2359C19.0492 40.8435 18.5759 48.5452 18.3648 49.9239C18.1601 51.2598 17.242 52.2175 15.8102 52.0417C15.2787 51.9779 14.7973 51.6973 14.48 51.2663C13.6873 50.2071 13.9037 48.2482 13.9038 46.9431L13.9024 41.2158L13.827 31.931C13.8273 30.6857 13.7626 28.5369 13.9296 27.3923C14.0522 26.9227 14.2573 26.3115 14.4464 25.8695Z" fill="white"/>
<path d="M14.4464 25.8695C14.6425 25.4932 15.0422 25.1906 15.3633 24.9227C16.1928 24.2306 17.0012 24.004 18.0714 23.9824C19.2206 23.9591 20.3713 23.9625 21.5242 23.9625L27.4708 23.9636L32.6999 23.965C33.8851 23.9644 35.1381 23.918 36.3035 24.0376C37.4632 24.1566 38.4395 25.786 37.8739 26.8505C37.5204 27.5161 36.9847 28.0596 36.2358 28.2661C35.2403 28.5077 34.0636 28.597 33.0309 28.7431L26.763 29.6555C26.4159 29.9509 26.0571 30.2101 26.0473 30.7058C26.0005 33.0844 25.9698 35.5083 26.077 37.8845C28.2027 38.0659 30.3783 37.9417 32.5155 37.9752C33.8083 37.9955 35.1567 37.9301 36.4533 37.9604C36.5897 37.9636 36.7503 38.0283 36.8833 38.0403L37.1191 38.0702C37.1073 38.0656 42.3333 38.0204 42.7535 38.0679C42.8553 38.0795 43.6705 37.9643 43.8938 37.9595C44.2817 37.9511 44.7165 37.9724 45.1041 37.9563C46.3602 37.9821 47.6166 37.9832 48.8727 37.9599C49.1555 37.9541 49.9503 37.957 50.1995 37.9298C50.5704 38.0224 50.6757 38.0457 51.0214 38.2217C51.6575 38.6869 51.8684 38.9211 52.0187 39.7374C52.2331 40.9006 51.3225 41.9181 50.1852 42.0257C49.3663 42.1032 48.5419 42.08 47.7188 42.0789L43.6368 42.0745L29.5494 42.0741C29.1223 42.0742 26.2971 42.0487 26.1088 42.1344C26.0192 42.518 26.046 43.971 26.045 44.4616L26.0396 48.733C26.0425 49.2692 26.1105 50.0986 25.9663 50.5965C25.6551 51.6714 24.4337 52.2168 23.3843 51.9763C22.8388 51.8513 21.9944 51.1569 21.8073 50.6143C21.6743 50.3203 21.604 49.5768 21.5598 49.2265C21.3512 47.7808 21.2787 46.2089 21.0729 44.7457C20.8667 43.28 21.001 41.5494 20.428 40.1423C20.1523 40.1396 19.7964 40.119 19.5541 40.2359C19.0492 40.8435 18.5759 48.5452 18.3648 49.9239C18.1601 51.2598 17.242 52.2175 15.8102 52.0417C15.2787 51.9779 14.7973 51.6973 14.48 51.2663C13.6873 50.2071 13.9037 48.2482 13.9038 46.9431L13.9024 41.2158L13.827 31.931C13.8273 30.6857 13.7626 28.5369 13.9296 27.3923C14.0522 26.9227 14.2573 26.3115 14.4464 25.8695Z" fill="#A81B58" fill-opacity="0.6"/>
<path d="M16.0153 16.0366C16.3697 14.0916 17.8307 12.5345 19.7492 12.0571C21.6678 11.5797 23.6881 12.2704 24.9128 13.8225C25.0504 13.9968 25.1763 14.1802 25.2896 14.3712C25.5091 14.7409 25.6802 15.1373 25.7988 15.5505C25.8378 15.6864 25.8711 15.8239 25.8985 15.9627C26.0153 16.5532 26.0251 17.1599 25.9275 17.7539C25.9147 17.8317 25.9001 17.9092 25.8837 17.9863C25.6395 19.1327 25.0026 20.1578 24.083 20.8846C24.0399 20.9187 23.9963 20.9521 23.9521 20.9847C22.2926 22.2101 20.0533 22.2982 18.3027 21.2069C16.5522 20.1155 15.6455 18.066 16.0153 16.0366Z" fill="white"/>
<path d="M16.0153 16.0366C16.3697 14.0916 17.8307 12.5345 19.7492 12.0571C21.6678 11.5797 23.6881 12.2704 24.9128 13.8225C25.0504 13.9968 25.1763 14.1802 25.2896 14.3712C25.5091 14.7409 25.6802 15.1373 25.7988 15.5505C25.8378 15.6864 25.8711 15.8239 25.8985 15.9627C26.0153 16.5532 26.0251 17.1599 25.9275 17.7539C25.9147 17.8317 25.9001 17.9092 25.8837 17.9863C25.6395 19.1327 25.0026 20.1578 24.083 20.8846C24.0399 20.9187 23.9963 20.9521 23.9521 20.9847C22.2926 22.2101 20.0533 22.2982 18.3027 21.2069C16.5522 20.1155 15.6455 18.066 16.0153 16.0366Z" fill="#A81B58" fill-opacity="0.6"/>
<path d="M36.9154 37.8315L36.7648 37.797C36.7113 37.6501 36.3042 37.0848 36.167 36.8046C35.941 36.3506 35.9082 35.8246 36.0761 35.3461C36.714 33.5686 38.5431 33.9418 40.0273 33.9207C40.6552 33.9118 41.376 33.8781 41.9912 33.9335C42.2425 33.9537 42.4896 34.0105 42.7246 34.102C43.2368 34.3013 43.645 34.7018 43.8541 35.21C44.1245 35.8754 44.0146 36.3898 43.7593 37.0135L43.4508 37.4284L43.2984 37.6013C43.2613 37.6803 43.1988 37.8623 43.1243 37.8679C41.5796 37.9852 39.9301 37.8903 38.3785 37.9149C38.1204 37.919 37.4829 37.895 37.3474 37.9184L36.9154 37.8315Z" fill="white"/>
<path d="M36.9154 37.8315L36.7648 37.797C36.7113 37.6501 36.3042 37.0848 36.167 36.8046C35.941 36.3506 35.9082 35.8246 36.0761 35.3461C36.714 33.5686 38.5431 33.9418 40.0273 33.9207C40.6552 33.9118 41.376 33.8781 41.9912 33.9335C42.2425 33.9537 42.4896 34.0105 42.7246 34.102C43.2368 34.3013 43.645 34.7018 43.8541 35.21C44.1245 35.8754 44.0146 36.3898 43.7593 37.0135L43.4508 37.4284L43.2984 37.6013C43.2613 37.6803 43.1988 37.8623 43.1243 37.8679C41.5796 37.9852 39.9301 37.8903 38.3785 37.9149C38.1204 37.919 37.4829 37.895 37.3474 37.9184L36.9154 37.8315Z" fill="#A81B58" fill-opacity="0.6"/>
<path d="M24.9126 13.8225C25.0024 13.7783 25.0568 13.7633 25.1043 13.6722C25.1816 13.6353 25.3883 13.6645 25.486 13.6717L25.2882 13.6763C27.5563 13.8671 45.0059 13.5553 45.3886 13.7812C45.4126 13.8867 45.4272 13.9103 45.3949 14.0086L45.2697 14.1101C45.3314 14.2565 45.3798 14.1933 45.5032 14.2127C46.1469 14.3138 46.5934 14.6614 47.2512 14.8002L47.2929 14.8086C47.6887 15.2618 48.9931 16.4336 49.1798 16.9856C48.6988 16.9902 48.4053 16.1509 48.1799 15.8056C48.0577 15.7361 47.9093 15.6567 47.8038 15.5655C47.4684 15.2754 47.0696 14.926 46.6519 14.7772C46.2182 14.6227 45.888 14.5389 45.5162 14.2899C44.0801 14.3599 42.221 14.3045 40.7459 14.3048L31.5877 14.3079C30.1529 14.3013 28.7181 14.307 27.2835 14.3249C26.8619 14.3337 26.3835 14.3281 25.9631 14.357C25.9048 14.361 25.622 14.5135 25.4716 14.5511L25.2895 14.3712C25.1761 14.1802 25.0502 13.9968 24.9126 13.8225Z" fill="#09314F" fill-opacity="0.0392157"/>
<path d="M49.1912 17.0688C49.598 17.8968 49.5642 17.6948 49.767 18.6275C49.8569 19.2038 50.0367 19.8627 50.1098 20.4175C50.1444 20.6808 50.1145 21.4274 50.1113 21.7377C50.1046 22.4219 50.1051 23.1061 50.1129 23.7902L50.1579 31.9436L50.1734 34.4379C50.1741 34.7817 50.149 35.5043 50.1937 35.8224C50.2515 35.6118 50.2427 35.394 50.2451 35.1753C50.2609 35.5794 50.2385 37.4225 50.367 37.6597C50.5422 37.7469 50.8653 37.7215 51.0698 37.7195C51.152 37.8578 51.2431 38.0283 51.3177 38.1605C51.3561 38.2286 51.5066 38.2667 51.5785 38.426C51.3454 38.3788 51.2575 38.2339 51.0681 38.1871L51.0214 38.2217C50.6758 38.0456 50.5705 38.0223 50.1996 37.9297C50.1207 37.8921 49.7292 37.8601 49.6183 37.8481C49.732 36.7341 49.722 35.0913 49.7213 33.9764L49.7167 29.1118L49.7126 22.9643C49.7143 21.5874 49.7285 20.2224 49.6795 18.8449C49.6486 17.9766 49.2225 17.8656 49.1912 17.0688Z" fill="#09324F" fill-opacity="0.0627451"/>
<path d="M13.7204 18.6037C13.92 18.599 14.0736 18.5896 14.2721 18.5687C14.223 20.4671 14.227 22.3666 14.2844 24.2648C14.2955 24.5448 14.3091 24.8143 14.3527 25.0922C14.3991 25.3885 14.5468 25.5754 14.4463 25.8694C14.2572 26.3114 14.0521 26.9226 13.9296 27.3922L13.8708 27.3342L13.7412 27.3469C13.6192 26.538 13.7048 25.067 13.723 24.2441C13.7343 23.733 13.6785 23.1278 13.6685 22.5969C13.6364 21.2657 13.6537 19.9337 13.7204 18.6037Z" fill="#093153" fill-opacity="0.0117647"/>
<path d="M49.7668 18.6276C49.9205 18.6123 50.1177 18.5716 50.242 18.6517C50.3448 18.8473 50.2562 19.171 50.2541 19.4109L50.2538 22.7152C50.2453 26.8048 50.3287 31.1091 50.2449 35.1754C50.2425 35.3941 50.2513 35.6119 50.1935 35.8225C50.1488 35.5044 50.174 34.7819 50.1733 34.438L50.1577 31.9438L50.1127 23.7903C50.105 23.1062 50.1044 22.422 50.1111 21.7379C50.1143 21.4275 50.1442 20.6809 50.1096 20.4176C50.0366 19.8629 49.8567 19.2039 49.7668 18.6276Z" fill="#093153" fill-opacity="0.0352941"/>
<path d="M37.3474 37.9183C37.4828 37.8949 38.1203 37.9189 38.3785 37.9148C39.9301 37.8902 41.5796 37.9851 43.1243 37.8678C43.1988 37.8621 43.2612 37.6802 43.2984 37.6012C43.4664 37.8292 43.4994 37.8305 43.8276 37.8771C44.2352 37.935 44.6991 37.8649 45.1042 37.9562C44.7166 37.9723 44.2817 37.951 43.8938 37.9594C43.6706 37.9641 42.8553 38.0794 42.7535 38.0678C42.3334 38.0203 37.1073 38.0655 37.1192 38.0701C37.251 38.0372 37.2627 38.0255 37.3474 37.9183Z" fill="#093153" fill-opacity="0.654902"/>
<path d="M43.7592 37.0134C43.975 37.1828 43.9988 37.3889 43.8457 37.6154C43.7183 37.6886 43.776 37.6778 43.6286 37.654C43.5429 37.5753 43.4848 37.5384 43.4507 37.4283L43.7592 37.0134Z" fill="#093153" fill-opacity="0.2"/>
<path d="M25.7988 15.5505C25.8445 15.3964 25.8105 15.4222 25.916 15.3541C26.0772 15.492 26.0981 15.7827 25.9806 15.9545L25.8986 15.9627C25.8711 15.824 25.8379 15.6865 25.7988 15.5505Z" fill="#093153" fill-opacity="0.356863"/>
<path d="M25.9274 17.754C26.2041 17.8558 26.053 18.2877 25.9711 18.5026L25.9519 18.5098C25.979 18.2937 25.8896 18.2367 25.8835 17.9864C25.9 17.9093 25.9146 17.8318 25.9274 17.754Z" fill="#093153" fill-opacity="0.368627"/>
<path d="M23.9519 20.9847C23.9961 20.952 24.0398 20.9187 24.0829 20.8846L24.2079 20.9548C24.2373 21.0876 24.2454 21.0332 24.1709 21.158C24.0408 21.2062 24.0935 21.2077 23.9726 21.1583C23.9571 21.0961 23.9367 21.0454 23.9519 20.9847Z" fill="#093153" fill-opacity="0.309804"/>
<path d="M36.9154 37.8315L37.3474 37.9184C37.2628 38.0257 37.2511 38.0373 37.1192 38.0703L36.8834 38.0403C36.8252 37.9944 36.8445 38.0091 36.8064 37.9388L36.9154 37.8315Z" fill="#093153" fill-opacity="0.309804"/>
</svg>
