<svg width="64" height="64" viewBox="0 0 64 64" fill="none" xmlns="http://www.w3.org/2000/svg">
<rect width="64" height="64" rx="16" fill="#FFD900" fill-opacity="0.15"/>
<path d="M24.2741 13.2114C24.5595 13.3588 25.0978 13.9646 25.3123 14.2331C25.9528 14.3732 26.1558 14.3651 26.8051 14.3773C26.5913 14.3977 26.2005 14.4158 26.0245 14.4933C26.1493 14.569 26.4772 14.5623 26.635 14.5682C26.4262 14.5937 25.9445 14.6018 25.8077 14.7526C26.0332 14.8357 29.2206 14.7732 29.7579 14.7733L40.3108 14.7742C42.3738 14.7741 44.4583 14.738 46.5146 14.8005L46.8142 14.8456L46.7711 14.9516C46.4818 14.9939 45.8514 14.8969 45.7606 15.0108C45.9791 15.2996 46.9634 15.0713 47.4343 15.4396L47.2301 15.5531L47.2141 15.6199C47.3813 15.7623 47.964 15.797 48.19 15.799C48.2672 15.9161 48.723 16.5888 48.8007 16.6369C48.7744 17.2118 48.8623 17.4803 49.0341 18.0285L49.0763 18.037L49.1247 17.8574C49.235 18.0628 49.0318 18.0393 49.222 18.1454L49.3855 18.1207C49.5734 18.1692 49.5197 18.1276 49.6114 18.2613L49.6227 18.5698L49.5492 18.5392C49.4407 18.7064 49.4833 29.2888 49.4834 30.173L49.483 34.1804C49.4826 34.7433 49.4506 35.7255 49.4947 36.2428C49.4856 36.5631 49.4233 37.2022 49.5794 37.4467L49.4698 37.4325C49.3874 37.2821 49.4568 35.2088 49.4556 34.8754L49.448 23.5543L49.4459 20.0141C49.444 19.5202 49.4456 19.0029 49.4435 18.5073C49.4428 18.3653 49.4113 18.3611 49.3299 18.31C49.1855 18.4365 49.2861 19.2889 49.2841 19.5563C49.2692 20.7816 49.2627 22.0069 49.2647 23.2322L49.2606 34.6309C49.2585 34.9688 49.3045 37.2168 49.1938 37.3921C49.1436 37.4719 49.1017 37.4997 49.1716 37.5817C49.3038 37.7368 49.584 37.8168 49.764 37.9025C49.1383 37.8327 48.1905 37.9169 47.5346 37.9348C45.9038 37.9792 44.7834 37.9074 43.1931 37.6045C43.4975 37.3982 43.6055 37.3594 43.7149 37.0108C43.7232 36.9792 43.8253 36.7744 43.8498 36.7302C44.0688 36.3283 44.0411 35.6871 43.8837 35.2701C43.541 34.324 42.4536 33.8149 41.483 33.875C40.3395 33.9458 39.0444 33.7917 37.9108 33.8835C37.7186 33.8985 37.5297 33.941 37.3497 34.0097C36.8096 34.2169 36.3776 34.6356 36.1534 35.1688C35.9565 35.6338 35.8649 36.0104 36.0613 36.4861C36.1506 37.0755 36.4056 37.2275 36.4903 37.6103C35.6031 38.2176 27.9593 37.8908 26.4844 37.8189C26.0135 37.796 26.2212 36.9703 26.1956 36.5842C26.2503 34.8696 26.2024 32.9227 26.1997 31.1906C26.1961 30.8068 26.0808 30.5623 26.2388 30.1842L26.5735 29.779C27.0373 29.5979 27.842 29.5658 28.3626 29.4722C29.8107 29.1867 31.3068 29.0811 32.756 28.8129C34.5688 28.4774 37.0302 28.837 37.858 26.7798C37.9877 26.6879 37.9427 26.6262 38.0791 26.564L38.1461 26.6553L38.1945 26.6384C38.3015 26.4111 38.5908 25.5012 38.3506 25.3418L38.3206 25.4483C38.2549 25.3913 37.9277 25.1177 37.9137 25.0572C37.8801 24.9123 37.9056 24.6965 37.7833 24.5697C37.6704 24.5761 37.6055 24.6065 37.5001 24.6441C37.481 24.5621 37.4066 24.4272 37.3393 24.3829C36.3202 23.7125 34.9118 23.8629 33.8152 23.938L23.2135 23.9357L20.083 23.9324C18.1617 23.9331 16.3637 23.7761 14.9479 25.2356C14.3897 25.811 14.2454 26.5242 14.1923 27.2791C14.1681 27.0935 14.1725 26.9857 14.1777 26.798C14.2443 26.345 14.5109 25.7092 14.3555 25.3397L14.4082 25.3295C14.4275 25.3093 14.4507 25.2849 14.4779 25.2562C14.6619 23.2319 14.4409 20.0778 14.5549 18.1382C14.9293 18.0798 14.6648 17.4231 14.894 17.0783C15.0965 17.0951 14.9717 17.6772 15.1156 17.8106C15.3322 17.5387 15.2381 16.4587 15.3834 16.2969C15.621 16.4041 15.3659 17.4338 15.5983 17.8093C15.621 17.6797 15.6398 17.6089 15.6763 17.4851L15.7406 17.5493C15.7478 17.5763 15.784 17.6492 15.7977 17.6788C15.923 17.5378 15.8853 17.0775 15.8813 16.872L15.9292 16.8244C15.9578 17.0923 15.9054 17.2512 16.067 17.4414C16.3684 21.8752 21.9959 23.5312 24.7332 20.2813C24.9115 20.0696 25.1723 19.7568 25.2936 19.5122C25.2649 19.6647 25.2518 19.6997 25.3197 19.8461L25.3835 19.8621C25.5643 19.7523 25.7789 19.2765 25.5815 19.1123L25.4427 19.1637C25.6707 18.6628 25.766 18.3762 25.835 17.8317C25.9513 17.5382 26.0989 17.5881 26.1775 17.2268C26.2539 16.8756 26.2575 16.5844 26.069 16.2698L25.9783 16.2686C25.8538 16.1458 25.9503 15.8625 25.7422 15.5329C25.3631 14.1919 25.0907 14.1737 24.2741 13.2114ZM15.4036 17.8195C15.4207 17.6109 15.5469 16.7552 15.3555 16.6476C15.3161 16.9138 15.2553 17.6015 15.4036 17.8195Z" fill="#FFD900" fill-opacity="0.411765"/>
<path d="M15.3555 16.6475C15.5469 16.755 15.4207 17.6107 15.4036 17.8193C15.2553 17.6013 15.3161 16.9136 15.3555 16.6475Z" fill="#FFD900" fill-opacity="0.690196"/>
<path d="M14.1923 27.2791C14.2454 26.5241 14.3897 25.8109 14.9478 25.2355C16.3637 23.776 18.1617 23.933 20.083 23.9324L23.2135 23.9356L33.8152 23.9379L33.8623 23.9427C35.8604 24.1337 38.2156 23.5435 37.869 26.6889C37.8656 26.7192 37.8619 26.7495 37.858 26.7797C37.0301 28.8369 34.5687 28.4773 32.7559 28.8129C31.3068 29.081 29.8107 29.1866 28.3626 29.4721C27.842 29.5657 27.0373 29.5978 26.5735 29.7789L26.2388 30.1841L26.1086 30.1106C25.8128 30.3241 25.7602 31.9712 25.8024 32.3518C25.918 33.3964 25.5791 37.0541 25.9733 37.8347C26.4159 38.2306 27.497 38.0362 27.941 38.1368L27.3637 38.1377C29.7344 38.322 32.3554 38.0257 34.7376 38.0948C35.4426 38.1152 36.1895 38.1931 36.8775 38.1247C36.9287 38.1181 36.9219 38.1155 36.9789 38.1234C37.5093 38.0155 42.2444 38.0187 42.7065 38.1159C43.3787 38.3195 44.1854 38.1461 44.878 38.1211C45.9233 38.0835 50.2782 37.9531 50.9405 38.414C51.3345 38.6882 51.5702 39.1036 51.8507 39.326C52.0144 40.0064 51.9967 40.4666 51.6349 41.0918C50.8966 42.3675 49.0894 42.1126 47.8221 42.1126L44.6388 42.1125L31.9347 42.1108L27.7616 42.1113C27.4023 42.1116 26.3361 42.0155 26.1009 42.1927L26.0311 42.3722C26.006 42.4489 25.9705 42.5942 25.9169 42.6429C25.7194 43.2749 25.8685 48.4329 25.8515 49.5055C25.8491 49.6547 25.9215 49.9486 25.9673 50.104C25.8063 50.7179 25.5129 51.394 24.9395 51.7271C24.466 52.0021 23.8191 52.0149 23.3028 51.8664C22.7335 51.7026 22.2248 51.2858 21.9454 50.7635C21.5668 50.0554 21.4089 46.6619 21.3045 45.6772C21.1975 44.6677 21.024 43.6644 20.9201 42.6516C20.8526 41.9938 20.8531 41.0636 20.6523 40.4473C20.6126 40.3257 20.5629 40.226 20.4346 40.1884C20.1938 40.118 19.7173 40.1408 19.5005 40.2523C19.1162 40.6726 19.1 42.6469 19.0068 43.2576C18.6851 45.3634 18.5681 47.4985 18.2766 49.6098C18.2114 50.0819 18.2035 50.4181 17.9838 50.8611C17.1905 52.4608 14.5234 52.3024 14.188 50.4435C14.1131 50.1248 14.1879 49.162 14.1908 48.7624L14.1952 44.7711L14.1923 27.2791Z" fill="#FFD900"/>
<path d="M16.115 15.7569C16.3778 15.6059 16.2817 15.6052 16.4312 15.3579C16.7149 14.8891 16.9626 14.2637 17.3281 13.8609C17.876 13.257 18.676 12.9673 19.3249 12.4969C19.374 12.4614 19.7527 12.438 19.8363 12.4189C20.9182 12.2285 21.9692 12.4613 23.0535 12.4223C23.5532 12.6645 23.844 12.8607 24.2741 13.2112C25.0907 14.1735 25.3631 14.1917 25.7422 15.5327C25.8294 16.1053 25.8373 16.5212 25.8287 17.1036C25.8275 17.1849 25.8221 17.7763 25.835 17.8314C25.766 18.376 25.6707 18.6626 25.4427 19.1635L25.2937 19.512C25.1723 19.7566 24.9115 20.0694 24.7332 20.2811C21.9959 23.531 16.3684 21.875 16.067 17.4412C16.0719 16.8939 16.0643 16.2981 16.115 15.7569Z" fill="#FFD900"/>
<path d="M36.0613 36.486C35.8649 36.0103 35.9565 35.6337 36.1534 35.1687C36.3776 34.6355 36.8096 34.2168 37.3497 34.0096C37.5297 33.9409 37.7186 33.8984 37.9107 33.8834C39.0444 33.7916 40.3395 33.9457 41.483 33.8749C42.4536 33.8148 43.541 34.3239 43.8837 35.2701C44.0411 35.687 44.0688 36.3282 43.8498 36.7301C43.8253 36.7743 43.7232 36.9791 43.7149 37.0107C43.4437 37.3776 43.3094 37.2813 43.0777 37.5539C43.034 37.6054 43.2086 37.8281 42.9777 37.9217C42.3764 37.8773 37.6579 37.8329 37.3734 37.976C37.3645 37.9804 37.3559 37.9857 37.3473 37.9906L37.291 37.911C37.2329 37.8716 37.1906 37.8666 37.1297 37.8382C36.4969 37.5433 36.3815 36.9809 36.0613 36.486Z" fill="#FFD900"/>
<path d="M49.764 37.9023C49.584 37.8166 49.3038 37.7366 49.1716 37.5816C49.1017 37.4995 49.1435 37.4717 49.1938 37.392C49.3045 37.2167 49.2585 34.9686 49.2606 34.6308L49.2647 23.2321C49.2627 22.0068 49.2692 20.7814 49.2841 19.5562C49.2861 19.2888 49.1855 18.4363 49.3299 18.3098C49.4113 18.3609 49.4428 18.3651 49.4435 18.5071C49.4456 19.0027 49.444 19.52 49.4459 20.0139L49.448 23.5541L49.4556 34.8752C49.4568 35.2087 49.3874 37.282 49.4698 37.4323L49.5794 37.4465C49.6532 37.1705 49.6379 35.9009 49.6374 35.5633L49.6305 32.3351C49.6274 28.074 49.682 23.6939 49.6179 19.4437C49.6301 19.3628 49.6264 18.7674 49.6285 18.6415C49.709 19.1697 49.6896 20.0605 49.6898 20.6131L49.6887 23.6465L49.6864 34.0007C49.6884 34.7148 49.6866 35.4288 49.6809 36.1428C49.6747 36.5178 49.6287 37.4236 49.6885 37.7325C49.9307 37.8936 50.1195 37.8578 50.3434 38.0132C50.1506 37.9745 49.9574 37.9376 49.764 37.9023Z" fill="#FFD900" fill-opacity="0.286275"/>
<path d="M36.9789 38.1234C36.9219 38.1155 36.9287 38.1181 36.8775 38.1247C36.1896 38.1931 35.4426 38.1152 34.7376 38.0948C32.3554 38.0257 29.7344 38.322 27.3637 38.1377L27.9411 38.1368C27.4971 38.0362 26.4159 38.2306 25.9733 37.8347C25.5791 37.0541 25.9181 33.3964 25.8024 32.3518C25.7602 31.9713 25.8128 30.3241 26.1087 30.1106L26.2388 30.1841C26.0808 30.5623 26.1961 30.8068 26.1997 31.1905L26.1135 31.1013C26.0187 31.2495 26.0049 36.3443 26.0653 36.8315L26.1141 36.8866C26.1448 36.7868 26.172 36.6859 26.1956 36.5842C26.2212 36.9703 26.0135 37.7959 26.4844 37.8189C27.9593 37.8907 35.6031 38.2175 36.4903 37.6102C36.4056 37.2274 36.1506 37.0755 36.0614 36.4861C36.3815 36.981 36.4969 37.5433 37.1297 37.8383C37.1906 37.8666 37.2329 37.8716 37.291 37.911C37.12 37.8898 37.0183 37.8619 36.8626 37.9339L36.8575 38.0168L36.9789 38.1234ZM25.8836 36.9455C25.9864 36.5689 26.0464 31.4784 25.9237 31.1866L25.8779 31.1437C25.8134 31.7918 25.8373 32.6757 25.838 33.3446C25.8284 34.5451 25.8436 35.7456 25.8836 36.9455Z" fill="#FFD900" fill-opacity="0.835294"/>
<path d="M25.8779 31.1438L25.9237 31.1867C26.0464 31.4784 25.9864 36.569 25.8836 36.9456C25.8436 35.7457 25.8284 34.5451 25.8379 33.3447C25.8373 32.6758 25.8134 31.7918 25.8779 31.1438Z" fill="#FFD900" fill-opacity="0.560784"/>
<path d="M13.8055 27.3317L13.9183 27.2375C14.0852 27.3478 14.0151 28.2727 14.0151 28.5174L14.0159 31.2359L14.006 42.3175L14.0045 47.5989C14.0045 47.942 14.0317 49.49 13.9752 49.7254L13.9131 49.7681C13.869 49.7198 13.8345 49.6869 13.8021 49.6293C13.8475 49.362 13.8132 47.3085 13.8123 46.9427L13.8112 40.7579L13.8025 31.6141L13.8116 28.9389C13.815 28.4682 13.8405 27.7888 13.8055 27.3317Z" fill="#FFD900" fill-opacity="0.952941"/>
<path d="M44.3737 14.3768C44.7717 14.3298 45.6881 14.3389 46.0496 14.4938C46.2469 14.7498 46.1261 14.6765 46.5146 14.8004C44.4582 14.7378 42.3738 14.774 40.3108 14.7741L29.7579 14.7732C29.2206 14.773 26.0332 14.8356 25.8077 14.7525C25.9444 14.6017 26.4262 14.5936 26.635 14.5681C32.198 14.5044 37.858 14.558 43.4285 14.5586C43.8852 14.6107 45.4801 14.5906 45.9281 14.5502C45.6813 14.4757 45.3345 14.4027 45.076 14.4254C44.8416 14.4136 44.6074 14.3974 44.3737 14.3768Z" fill="#FFD900" fill-opacity="0.203922"/>
<path d="M13.8055 27.3316C13.7597 26.5955 13.8652 26.9534 14.1777 26.7979C14.1726 26.9855 14.1681 27.0933 14.1923 27.279L14.1952 44.771L14.1908 48.7623C14.1879 49.1619 14.1131 50.1247 14.188 50.4434L14.1477 50.3964C13.8719 50.0738 13.77 50.0381 13.8021 49.6292C13.8345 49.6868 13.869 49.7198 13.9131 49.7681L13.9752 49.7253C14.0317 49.4899 14.0045 47.9419 14.0045 47.5989L14.006 42.3174L14.016 31.2359L14.0151 28.5174C14.0151 28.2726 14.0852 27.3477 13.9183 27.2375L13.8055 27.3316Z" fill="#FFD900" fill-opacity="0.129412"/>
<path d="M44.3737 14.3767C44.6074 14.3973 44.8416 14.4136 45.076 14.4254C44.8239 14.6271 43.8341 14.4963 43.4285 14.5586C37.858 14.558 32.198 14.5044 26.635 14.568C26.4772 14.5621 26.1493 14.5689 26.0245 14.4931C26.2005 14.4157 26.5913 14.3976 26.8051 14.3771L38.5372 14.3794C40.3337 14.3793 42.6104 14.4468 44.3737 14.3767Z" fill="#FFD900" fill-opacity="0.823529"/>
<path d="M42.9778 37.9217C43.2086 37.8281 43.034 37.6054 43.0777 37.554C43.3094 37.2813 43.4437 37.3776 43.7149 37.0107C43.6055 37.3593 43.4975 37.3982 43.1932 37.6045C44.7834 37.9074 45.9038 37.9792 47.5346 37.9347C48.1905 37.9168 49.1383 37.8326 49.764 37.9024C49.9575 37.9377 50.1506 37.9746 50.3434 38.0133C51.0673 38.2293 51.6118 38.5709 51.8507 39.326C51.5702 39.1037 51.3345 38.6883 50.9405 38.414C50.2782 37.9531 45.9233 38.0835 44.878 38.1212C44.1854 38.1461 43.3787 38.3195 42.7065 38.1159C42.937 38.0818 43.2057 38.1636 43.3828 38.0707C43.2358 37.9526 43.1378 38.044 42.9778 37.9217Z" fill="#FFD900" fill-opacity="0.85098"/>
<path d="M16.115 15.757C16.1545 15.574 16.278 15.2933 16.3552 15.1169C16.9623 13.7316 17.7552 12.8658 19.1879 12.3234C20.3327 11.89 21.9351 11.9171 23.0535 12.4224C21.9692 12.4614 20.9181 12.2286 19.8363 12.419C19.7526 12.4381 19.3739 12.4615 19.3249 12.4971C18.676 12.9675 17.876 13.2572 17.3281 13.861C16.9626 14.2639 16.7149 14.8892 16.4312 15.3581C16.2816 15.6053 16.3778 15.6061 16.115 15.757Z" fill="#FFD900" fill-opacity="0.933333"/>
<path d="M49.6179 19.4438C49.682 23.6941 49.6274 28.0741 49.6305 32.3353L49.6374 35.5635C49.6379 35.9011 49.6532 37.1707 49.5794 37.4467C49.4233 37.2022 49.4856 36.5631 49.4947 36.2428C49.5836 35.6172 49.4798 34.2893 49.526 33.7927C49.6759 32.1791 49.2938 19.9797 49.6179 19.4438Z" fill="#FFD900" fill-opacity="0.698039"/>
<path d="M14.5549 18.1382C14.4409 20.0778 14.6619 23.2319 14.4779 25.2562C14.4507 25.2848 14.4275 25.3093 14.4082 25.3295L14.3555 25.3397C14.2959 24.6967 14.3219 18.4552 14.4396 18.1697L14.5549 18.1382Z" fill="#FFD900" fill-opacity="0.588235"/>
<path d="M25.9169 42.643C25.9705 42.5943 26.006 42.449 26.0311 42.3723C26.0855 42.5545 26.1554 42.7903 26.1616 42.9798C26.223 44.8706 26.1778 46.7678 26.1901 48.66C26.1926 49.0401 26.2287 49.5994 26.0378 49.9266C25.9342 49.6225 26.0291 49.1695 25.9998 48.8997C25.9024 48.0029 26.1882 43.1481 25.9169 42.643Z" fill="#FFD900" fill-opacity="0.960784"/>
<path d="M25.9169 42.6428C26.1882 43.1479 25.9024 48.0027 25.9998 48.8995C26.0291 49.1693 25.9342 49.6223 26.0378 49.9264L25.9673 50.1039C25.9215 49.9485 25.8491 49.6546 25.8515 49.5054C25.8685 48.4328 25.7194 43.2748 25.9169 42.6428Z" fill="#FFD900" fill-opacity="0.0666667"/>
<path d="M33.8152 23.938C34.9118 23.8629 36.3202 23.7125 37.3393 24.3829C37.4066 24.4272 37.481 24.5621 37.5001 24.6441C37.6055 24.6064 37.6704 24.5761 37.7834 24.5697C37.9056 24.6964 37.8802 24.9123 37.9137 25.0571C37.9277 25.1177 38.2549 25.3913 38.3206 25.4483L38.3506 25.3418C38.5908 25.5011 38.3015 26.4111 38.1945 26.6384L38.1461 26.6553L38.0791 26.564C37.9427 26.6262 37.9877 26.6879 37.858 26.7798C37.862 26.7496 37.8657 26.7193 37.869 26.689C38.2156 23.5436 35.8604 24.1338 33.8623 23.9427L33.8152 23.938Z" fill="#FFD900" fill-opacity="0.529412"/>
<path d="M36.9789 38.1233L36.8575 38.0167L36.8626 37.9339C37.0183 37.8618 37.12 37.8898 37.291 37.911L37.3473 37.9905C37.3559 37.9857 37.3645 37.9804 37.3734 37.9759C37.6579 37.8328 42.3764 37.8772 42.9778 37.9216C43.1378 38.0439 43.2358 37.9525 43.3828 38.0706C43.2057 38.1636 42.937 38.0817 42.7065 38.1158C42.2444 38.0186 37.5094 38.0155 36.9789 38.1233Z" fill="#FFD900" fill-opacity="0.67451"/>
<path d="M26.1956 36.5842C26.172 36.686 26.1448 36.7868 26.114 36.8866L26.0653 36.8315C26.0049 36.3443 26.0187 31.2495 26.1135 31.1013L26.1997 31.1906C26.2024 32.9226 26.2503 34.8696 26.1956 36.5842Z" fill="#FFD900" fill-opacity="0.901961"/>
<path d="M49.4947 36.2426C49.4506 35.7254 49.4826 34.7431 49.483 34.1802L49.4834 30.1728C49.4833 29.2886 49.4407 18.7062 49.5492 18.5391L49.6227 18.5696L49.6285 18.6415C49.6264 18.7673 49.6301 19.3628 49.6179 19.4437C49.2938 19.9795 49.6759 32.1789 49.526 33.7925C49.4798 34.2891 49.5836 35.617 49.4947 36.2426Z" fill="#FFD900" fill-opacity="0.494118"/>
<path d="M46.8142 14.8455C47.4463 14.9715 47.6671 15.6267 48.19 15.7988C47.964 15.7968 47.3813 15.7621 47.2141 15.6197L47.2301 15.553L47.4342 15.4395C46.9634 15.0712 45.9791 15.2994 45.7606 15.0107C45.8514 14.8968 46.4818 14.9938 46.7711 14.9514L46.8142 14.8455Z" fill="#FFD900" fill-opacity="0.321569"/>
<path d="M25.7422 15.5327C25.9503 15.8623 25.8538 16.1457 25.9783 16.2685L26.069 16.2696C26.2575 16.5842 26.2539 16.8755 26.1775 17.2267C26.0989 17.588 25.9513 17.5381 25.835 17.8315C25.8221 17.7764 25.8275 17.185 25.8287 17.1036C25.8373 16.5212 25.8294 16.1054 25.7422 15.5327Z" fill="#FFD900" fill-opacity="0.686275"/>
<path d="M48.8006 16.6367C49.161 16.9933 49.3152 17.5729 49.3195 18.0616L49.3855 18.1205L49.222 18.1452C49.0318 18.0391 49.2349 18.0627 49.1247 17.8572L49.0763 18.0368L49.0341 18.0283C48.8622 17.4801 48.7743 17.2116 48.8006 16.6367Z" fill="#FFD900" fill-opacity="0.403922"/>
<path d="M15.7887 15.8809L15.7702 15.7754C15.8898 15.6869 15.9238 15.73 16.115 15.7569C16.0642 16.2982 16.0719 16.894 16.067 17.4413C15.9054 17.2511 15.9578 17.0921 15.9292 16.8242C15.9154 16.5984 15.9696 15.981 15.7887 15.8809Z" fill="#FFD900" fill-opacity="0.0901961"/>
<path d="M25.4426 19.1637L25.5815 19.1123C25.7789 19.2765 25.5643 19.7523 25.3834 19.8621L25.3197 19.8461C25.2518 19.6996 25.2649 19.6646 25.2936 19.5121L25.4426 19.1637Z" fill="#FFD900" fill-opacity="0.317647"/>
<path d="M45.076 14.4254C45.3345 14.4026 45.6814 14.4756 45.9282 14.5501C45.4801 14.5905 43.8852 14.6106 43.4285 14.5586C43.8341 14.4963 44.8239 14.6271 45.076 14.4254Z" fill="#FFD900" fill-opacity="0.505882"/>
<path d="M15.7887 15.8809C15.9696 15.981 15.9154 16.5984 15.9292 16.8242L15.8813 16.8719C15.8756 16.7102 15.8814 16.4989 15.8217 16.3542C15.7323 16.5499 15.7628 17.2939 15.7406 17.5492L15.6762 17.4849C15.7422 16.91 15.6237 16.5169 15.7887 15.8809Z" fill="#FFD900" fill-opacity="0.776471"/>
<path d="M15.7406 17.5493C15.7628 17.294 15.7324 16.55 15.8217 16.3542C15.8814 16.499 15.8756 16.7103 15.8813 16.872C15.8853 17.0774 15.9229 17.5377 15.7976 17.6788C15.784 17.6492 15.7478 17.5763 15.7406 17.5493Z" fill="#FFD900" fill-opacity="0.976471"/>
</svg>
