<svg width="64" height="64" viewBox="0 0 64 64" fill="none" xmlns="http://www.w3.org/2000/svg">
<rect width="64" height="64" rx="16" fill="black"/>
<rect width="64" height="64" rx="16" fill="#97144D" fill-opacity="0.3"/>
<g clip-path="url(#clip0_1305_20016)">
<path d="M25.9307 15.5747L25.9779 15.2598C25.977 15.4443 25.9567 15.662 26.04 15.8208C26.2882 16.0684 29.4725 16.002 30.0476 16.0025L35.9612 16.0039C36.6291 16.0031 37.3329 15.9628 37.9833 15.9707C38.0838 15.8501 38.0618 15.7487 38.0626 15.5637L38.1384 15.9243C38.1577 15.9929 38.1542 16.0396 38.2192 16.0771C38.547 16.2664 44.2272 16.1635 45.0688 16.1639C45.8293 16.1643 46.7578 16.0585 47.4845 16.2837C49.0026 16.7543 49.3425 17.2145 50.4327 18.2849C50.5977 18.4469 50.7638 18.6899 50.967 18.7913C51.262 19.2646 51.5752 19.6499 51.6558 20.1933C51.7209 21.011 51.9147 21.7365 51.995 22.5222C52.0678 23.2365 51.9513 24.1056 51.9996 24.8355C52.0384 27.5899 51.8969 30.4818 52.1305 33.2229C52.1441 33.3802 52.1668 33.5775 52.1617 33.7314C52.0998 33.5653 52.1067 33.4916 51.9832 33.406C51.8474 33.4426 51.7722 33.5042 51.6579 33.5825C50.0353 33.6215 49.968 33.4268 48.6078 32.6288C47.2235 31.8167 45.1219 31.7885 43.6761 32.4617C43.0725 32.7427 42.4371 33.206 41.8505 33.5533C39.8756 33.515 38.4209 33.6989 36.9327 35.1136C36.2682 35.7453 35.9081 36.3389 35.5419 37.1725C35.4579 37.3637 35.2367 37.8629 35.1295 38.0205C34.2451 38.0772 33.0236 38.0346 32.1025 38.0332L26.6425 38.0334L21.1452 38.0334C18.4071 38.0329 16.1606 38.2959 13.9371 36.3305C13.3896 35.8422 12.9312 35.2624 12.5822 34.6171C12.4776 34.4262 12.1732 33.7329 11.9805 33.7361C11.8568 33.9633 11.8888 34.2699 11.8918 34.5345C11.6887 33.7464 11.9731 31.8253 12.0705 30.9406C12.2781 29.0552 11.5799 20.4129 12.7025 19.1545C12.8682 19.0862 12.8751 19.0756 12.9603 18.9285C13.1841 18.5308 13.6603 18.3664 13.9619 17.987C15.5441 15.9972 17.0537 16.1587 19.3894 16.162L23.6961 16.1703C24.3275 16.1717 25.3745 16.2404 25.9174 15.9623C25.9735 15.8592 25.9412 15.7016 25.9307 15.5747Z" fill="#97144D" fill-opacity="0.8"/>
<path d="M19.6239 30.0575C20.3176 29.9192 21.032 30.1644 21.4947 30.6994C21.9574 31.2344 22.0969 31.9768 21.86 32.6432C21.6232 33.3097 21.0465 33.7975 20.35 33.9206C19.2893 34.108 18.2753 33.4068 18.0763 32.3482C17.8773 31.2895 18.5675 30.2679 19.6239 30.0575Z" fill="white"/>
<path d="M19.6239 30.0575C20.3176 29.9192 21.032 30.1644 21.4947 30.6994C21.9574 31.2344 22.0969 31.9768 21.86 32.6432C21.6232 33.3097 21.0465 33.7975 20.35 33.9206C19.2893 34.108 18.2753 33.4068 18.0763 32.3482C17.8773 31.2895 18.5675 30.2679 19.6239 30.0575Z" fill="#97144D" fill-opacity="0.6"/>
<path d="M41.8505 33.5538C42.4371 33.2065 43.0725 32.7432 43.6761 32.4621C45.1218 31.789 47.2235 31.8171 48.6078 32.6293C49.968 33.4273 50.0352 33.622 51.6578 33.5829C51.7722 33.5047 51.8474 33.443 51.9832 33.4064C52.1066 33.492 52.0997 33.5658 52.1617 33.7319C52.149 35.0006 52.1398 36.4622 52.1701 37.7273C51.6483 37.7752 51.0149 37.6726 50.4666 37.7125C49.9693 37.7486 49.3633 37.7471 48.8887 37.605C47.9702 37.2891 47.1493 36.1947 46.1715 36.0819C45.1764 35.9672 44.3617 36.9887 43.5475 37.4027C42.2653 38.0913 40.6754 37.0907 39.6891 38.1963C39.0719 38.8882 39.0456 39.9699 38.6077 40.6632C38.0375 41.5659 35.9301 42.1151 36.0299 43.3934C36.0864 44.1163 36.829 45.5443 36.7062 46.2016C36.6124 46.529 36.5189 46.8768 36.4158 47.1996C36.0069 48.5146 35.831 48.5834 36.4941 49.8622C36.5359 49.9415 36.5797 50.0198 36.6253 50.097C35.2978 50.1372 33.763 50.0902 32.4146 50.0895L23.5864 50.0884C22.2833 50.0885 20.3288 50.0302 19.085 50.103C16.8445 50.103 15.5195 49.8349 13.6949 48.3162C12.8944 47.6499 12.3397 46.392 12.1148 45.3898C11.8313 44.1263 11.9398 42.6031 11.9228 41.2884C11.8939 39.0556 11.9816 36.7653 11.8918 34.535C11.8888 34.2704 11.8568 33.9638 11.9805 33.7365C12.1732 33.7333 12.4775 34.4267 12.5822 34.6176C12.9311 35.2629 13.3896 35.8426 13.9371 36.3309C16.1605 38.2964 18.4071 38.0333 21.1452 38.0339L26.6424 38.0338L32.1025 38.0337C33.0236 38.0351 34.245 38.0777 35.1294 38.021C35.2366 37.8634 35.4578 37.3641 35.5418 37.173C35.9081 36.3394 36.2682 35.7458 36.9326 35.1141C38.4209 33.6994 39.8756 33.5155 41.8505 33.5538Z" fill="white"/>
<path d="M41.8505 33.5538C42.4371 33.2065 43.0725 32.7432 43.6761 32.4621C45.1218 31.789 47.2235 31.8171 48.6078 32.6293C49.968 33.4273 50.0352 33.622 51.6578 33.5829C51.7722 33.5047 51.8474 33.443 51.9832 33.4064C52.1066 33.492 52.0997 33.5658 52.1617 33.7319C52.149 35.0006 52.1398 36.4622 52.1701 37.7273C51.6483 37.7752 51.0149 37.6726 50.4666 37.7125C49.9693 37.7486 49.3633 37.7471 48.8887 37.605C47.9702 37.2891 47.1493 36.1947 46.1715 36.0819C45.1764 35.9672 44.3617 36.9887 43.5475 37.4027C42.2653 38.0913 40.6754 37.0907 39.6891 38.1963C39.0719 38.8882 39.0456 39.9699 38.6077 40.6632C38.0375 41.5659 35.9301 42.1151 36.0299 43.3934C36.0864 44.1163 36.829 45.5443 36.7062 46.2016C36.6124 46.529 36.5189 46.8768 36.4158 47.1996C36.0069 48.5146 35.831 48.5834 36.4941 49.8622C36.5359 49.9415 36.5797 50.0198 36.6253 50.097C35.2978 50.1372 33.763 50.0902 32.4146 50.0895L23.5864 50.0884C22.2833 50.0885 20.3288 50.0302 19.085 50.103C16.8445 50.103 15.5195 49.8349 13.6949 48.3162C12.8944 47.6499 12.3397 46.392 12.1148 45.3898C11.8313 44.1263 11.9398 42.6031 11.9228 41.2884C11.8939 39.0556 11.9816 36.7653 11.8918 34.535C11.8888 34.2704 11.8568 33.9638 11.9805 33.7365C12.1732 33.7333 12.4775 34.4267 12.5822 34.6176C12.9311 35.2629 13.3896 35.8426 13.9371 36.3309C16.1605 38.2964 18.4071 38.0333 21.1452 38.0339L26.6424 38.0338L32.1025 38.0337C33.0236 38.0351 34.245 38.0777 35.1294 38.021C35.2366 37.8634 35.4578 37.3641 35.5418 37.173C35.9081 36.3394 36.2682 35.7458 36.9326 35.1141C38.4209 33.6994 39.8756 33.5155 41.8505 33.5538Z" fill="#97144D" fill-opacity="0.6"/>
<path d="M36.7062 46.2008C36.829 45.5435 36.0864 44.1155 36.0299 43.3927C35.9301 42.1143 38.0375 41.5651 38.6076 40.6624C39.0456 39.9692 39.0719 38.8875 39.6891 38.1956C40.6754 37.0899 42.2653 38.0906 43.5475 37.4019C44.3617 36.988 45.1764 35.9665 46.1715 36.0812C47.1493 36.1939 47.9702 37.2884 48.8887 37.6043C49.3633 37.7464 49.9693 37.7479 50.4666 37.7117C51.0149 37.6719 51.6483 37.7745 52.1701 37.7266C52.2409 38.0968 52.2381 38.1613 52.5281 38.384C52.668 38.9453 53.132 40.4485 53.5111 40.9466C53.7069 41.2039 54.5998 41.583 54.8728 41.8034C55.1516 42.0285 55.6574 42.7624 56 42.7748V44.0273C55.835 44.0625 55.7586 44.0663 55.6391 44.1847C55.4628 44.8144 55.2828 45.4437 55.0742 46.0645C55.0095 46.2576 55.3845 46.6492 55.4389 46.8143C55.5458 47.149 55.4717 47.8685 56 47.871V49.1793C55.6124 49.2244 55.5374 49.435 55.3358 49.7436C55.1722 49.7872 55.0058 50.0035 54.8844 50.1323C54.307 50.7443 53.7522 50.54 53.3167 51.3781C52.882 52.215 52.7236 53.3215 52.1058 54.027C50.8357 54.5569 50.5271 54.1268 49.2977 54.2475C48.792 54.2971 46.9811 55.4619 46.7448 55.8889L46.7323 56H45.2128C45.1731 55.5969 43.9307 54.8743 43.5889 54.6036C43.1884 54.4663 42.9224 54.2529 42.4514 54.2079C41.5104 54.1179 41.0855 54.378 40.1378 54.1062C40.0821 54.0613 39.9291 54.032 39.852 54.0124C39.2808 53.1019 39.2139 52.665 38.8224 51.7511C38.7706 50.9704 38.1012 50.7125 37.4719 50.4606C37.4109 50.4442 37.1561 50.2552 37.0862 50.2061C32.9299 50.0831 28.8009 50.1268 24.6411 50.1285L21.0828 50.1325C20.5336 50.1331 19.598 50.1594 19.085 50.1023C20.3288 50.0295 22.2833 50.0878 23.5864 50.0876L32.4146 50.0888C33.763 50.0895 35.2978 50.1365 36.6253 50.0963C36.5796 50.0191 36.5359 49.9408 36.4941 49.8615C35.831 48.5827 36.0069 48.5138 36.4158 47.1989C36.5834 47.4261 36.5039 47.4296 36.5002 47.7401L36.5015 47.6678L36.578 47.6318C36.7156 47.3385 36.8694 46.481 36.7062 46.2008Z" fill="#97144D" fill-opacity="0.8"/>
<path d="M25.9779 15.2605C26.6601 13.7924 26.8358 12.8351 28.582 12.1937C28.8819 12.0817 29.1946 12.0074 29.5129 11.9723C30.159 11.9028 31.325 11.9324 32.0205 11.9317C32.7185 11.931 33.9582 11.9006 34.5955 11.9847C34.9964 12.0383 35.3866 12.1539 35.752 12.3275C37.1095 12.9641 37.6641 14.2067 38.0626 15.5644C38.0618 15.7494 38.0838 15.8508 37.9833 15.9714C37.3329 15.9636 36.6291 16.0038 35.9612 16.0046L30.0476 16.0032C29.4725 16.0027 26.2882 16.0691 26.04 15.8215C25.9567 15.6628 25.977 15.445 25.9779 15.2605Z" fill="white"/>
<path d="M25.9779 15.2605C26.6601 13.7924 26.8358 12.8351 28.582 12.1937C28.8819 12.0817 29.1946 12.0074 29.5129 11.9723C30.159 11.9028 31.325 11.9324 32.0205 11.9317C32.7185 11.931 33.9582 11.9006 34.5955 11.9847C34.9964 12.0383 35.3866 12.1539 35.752 12.3275C37.1095 12.9641 37.6641 14.2067 38.0626 15.5644C38.0618 15.7494 38.0838 15.8508 37.9833 15.9714C37.3329 15.9636 36.6291 16.0038 35.9612 16.0046L30.0476 16.0032C29.4725 16.0027 26.2882 16.0691 26.04 15.8215C25.9567 15.6628 25.977 15.445 25.9779 15.2605Z" fill="#97144D" fill-opacity="0.6"/>
<path d="M12.7025 19.154C13.2206 17.8963 14.0688 17.616 15.01 16.7123C15.1883 16.5411 15.9585 16.3537 16.2082 16.1764C16.2642 16.1367 16.5171 16.2027 16.675 16.141C16.7183 16.0828 16.7213 16.0236 16.735 15.9513C16.9396 15.8051 17.0631 15.8984 17.3812 15.7867L17.4015 15.6487C17.7775 15.537 19.0356 15.6099 19.5374 15.6144C21.0374 15.6278 22.6445 15.581 24.1431 15.6625C24.9554 15.7067 25.2529 15.9684 25.9307 15.5742C25.9412 15.7011 25.9735 15.8587 25.9174 15.9618C25.3745 16.2399 24.3276 16.1712 23.6962 16.1698L19.3894 16.1615C17.0537 16.1582 15.5441 15.9967 13.962 17.9865C13.6604 18.3659 13.1841 18.5303 12.9603 18.928C12.8751 19.0751 12.8682 19.0857 12.7025 19.154Z" fill="#07304E" fill-opacity="0.0313725"/>
<path d="M38.1383 15.9242C38.8523 15.5122 40.3061 15.63 41.1521 15.6414C42.8964 15.6652 44.6792 15.5332 46.4141 15.6719C46.6583 15.6914 47.5015 16.0805 47.7934 16.1429C48.3771 16.3919 48.3393 16.6139 49.0716 16.6743C49.9079 17.457 50.4459 17.7547 50.967 18.7912C50.7638 18.6899 50.5976 18.4469 50.4326 18.2849C49.3425 17.2144 49.0026 16.7543 47.4844 16.2836C46.7577 16.0584 45.8293 16.1642 45.0687 16.1638C44.2271 16.1634 38.547 16.2663 38.2191 16.077C38.1541 16.0395 38.1576 15.9929 38.1383 15.9242Z" fill="#07304E" fill-opacity="0.0352941"/>
<path d="M51.6558 20.1934C51.8525 20.1566 51.85 20.1217 51.9896 20.1968C52.0576 20.3676 52.2372 21.0188 52.2402 21.1873C52.2712 22.9493 52.259 24.7344 52.2589 26.4956L52.2616 30.8864C52.2641 31.3742 52.3933 32.9248 52.1305 33.223C51.8969 30.4819 52.0384 27.59 51.9996 24.8356C51.9513 24.1057 52.0678 23.2366 51.9949 22.5223C51.9147 21.7366 51.7209 21.0111 51.6558 20.1934Z" fill="#052E4E" fill-opacity="0.0156863"/>
<path d="M56 47.8711C55.4717 47.8686 55.5458 47.149 55.4389 46.8143C55.3846 46.6493 55.0096 46.2577 55.0742 46.0646C55.2828 45.4437 55.4628 44.8145 55.6391 44.1848C55.7586 44.0663 55.835 44.0625 56 44.0273V47.8711Z" fill="#052E4E" fill-opacity="0.01"/>
<path d="M40.1378 54.1055C41.0855 54.3773 41.5104 54.1172 42.4514 54.2072C42.9223 54.2522 43.1883 54.4656 43.5889 54.6029C42.8519 54.644 40.4354 54.8384 40.1378 54.1055Z" fill="#052E4E" fill-opacity="0.0235294"/>
<path d="M37.4718 50.4609C38.1011 50.7128 38.7706 50.9708 38.8223 51.7515C38.4141 51.5718 37.5771 50.8863 37.4718 50.4609Z" fill="#052E4E" fill-opacity="0.0156863"/>
<path d="M36.7061 46.2012C36.8694 46.4813 36.7155 47.3388 36.5779 47.6321L36.5014 47.6682L36.5002 47.7405C36.5039 47.43 36.5833 47.4264 36.4158 47.1992C36.5188 46.8764 36.6124 46.5286 36.7061 46.2012Z" fill="#052E4E" fill-opacity="0.384314"/>
<path d="M56 49.1797V49.7673C55.8739 49.6367 55.5336 49.7302 55.3358 49.744C55.5374 49.4354 55.6124 49.2248 56 49.1797Z" fill="#052E4E" fill-opacity="0.0156863"/>
</g>
<defs>
<clipPath id="clip0_1305_20016">
<rect width="48" height="48" fill="white" transform="translate(8 8)"/>
</clipPath>
</defs>
</svg>
