<svg width="64" height="64" viewBox="0 0 64 64" fill="none" xmlns="http://www.w3.org/2000/svg">
<rect width="64" height="64" rx="16" fill="#0A3152" fill-opacity="0.1"/>
<path d="M17.7397 18.2515C17.9285 18.0067 19.1373 17.3461 19.4512 17.1132C20.0637 16.6586 20.7216 16.21 21.3444 15.7633C21.5831 15.592 21.9434 15.45 22.197 15.288C22.6668 14.9781 23.078 14.7204 23.5666 14.4331C23.9429 14.2118 24.5003 13.5432 24.9172 13.3557C25.6557 13.0235 26.5156 12.6709 27.2846 12.3896C27.3635 12.3607 27.7074 12.3696 27.8031 12.3724C28.2221 12.6623 28.9648 12.4786 29.5908 12.5643L29.4886 12.5779C29.6031 12.6112 29.8511 12.6606 29.9242 12.7103C29.7052 12.7344 29.6361 12.7343 29.4878 12.8798C29.4739 13.0234 29.4582 12.9652 29.5648 13.097C29.6989 13.1628 29.796 13.1483 29.9431 13.1433C29.2102 13.4544 28.0591 13.845 27.4804 14.4062C26.0706 15.7733 25.2031 17.8144 24.418 19.613C23.6459 21.3819 21.6008 24.3087 23.9943 25.7272C25.053 26.3547 26.8592 26.2243 27.9332 25.7026C28.8979 25.2733 29.501 24.7853 30.3254 24.1341C31.7398 23.0296 32.9567 21.5616 34.4596 20.6034C35.2607 20.0926 36.0279 20.544 36.6144 21.1173C38.2733 22.739 39.936 24.4331 41.5238 26.1146L45.6199 30.3878L49.3918 34.2974C50.3254 35.2658 51.253 35.9721 51.7601 37.2595C51.8503 37.4886 51.8766 37.5531 52.1303 37.5007C51.9794 37.7108 51.8217 37.9012 51.7554 38.1495L51.7452 38.187C51.6215 38.6495 51.6919 39.0919 51.6015 39.5452C51.4097 40.5078 50.3854 41.5731 49.5941 42.0711C48.6204 42.6839 47.5859 42.5424 46.5133 42.6641C46.3661 42.6809 46.3867 43.6436 46.3749 43.7744C45.8367 44.2375 46.0644 44.1419 45.7431 44.645C45.3818 45.2086 44.9094 45.6927 44.3547 46.0676C43.894 46.3734 43.1848 46.6041 42.648 46.7767C42.3463 46.8736 41.619 46.7139 41.3049 46.9668C41.0937 47.1369 41.0955 47.3693 40.9099 47.6499C39.702 49.4754 38.9067 49.8263 36.8237 49.6711C36.6854 49.6608 36.5472 49.6495 36.4091 49.6373C36.2245 49.462 35.9557 49.2585 35.6898 49.2551C35.3126 49.392 35.3473 49.7003 35.2535 50.0524C35.1747 50.3482 35.0789 50.6311 34.9513 50.9097C34.6023 51.1569 34.5281 51.2038 34.303 51.5799C33.6891 51.6323 32.8679 51.978 32.5659 51.9725L32.5383 51.9722C32.3443 51.9683 31.0341 51.536 30.8129 51.4463C30.6536 51.2386 30.4955 51.055 30.4139 50.8028C30.3846 50.7979 30.3162 50.7837 30.291 50.7866C30.5712 50.4916 30.8366 50.1831 31.0864 49.862C31.6611 49.1165 31.9567 48.5301 32.0049 47.5728C32.1186 45.314 30.1541 43.6939 27.9475 43.9884C27.6537 42.8841 27.3444 41.7923 26.3372 41.1135C25.4462 40.5129 23.9222 40.4101 22.9184 40.7283C22.8902 40.5916 22.8598 40.4555 22.8273 40.3198C22.2241 37.8378 20.4161 36.7174 17.9214 37.3211C17.8516 36.296 17.7699 35.6983 17.1752 34.8266C16.0528 33.1812 13.6554 32.9835 12.0871 34.127C12.2382 33.8373 11.7338 33.2322 11.9577 32.6248C12.1801 32.0212 12.4059 31.1379 12.3501 30.4979C12.6893 30.2117 12.771 29.2781 12.877 28.8492C12.9843 28.4149 13.187 28.0014 13.2975 27.5812C13.3443 27.2948 13.2248 26.6608 13.3265 26.408C13.5693 25.8049 13.6512 25.2014 13.8207 24.5908C13.9954 23.9612 14.2731 23.6229 14.2841 22.9177C14.2895 22.4578 14.6663 21.6312 14.8068 21.2265C15.0165 20.6225 16.4708 18.9764 17.0071 18.7864C17.2535 18.6895 17.5609 18.4475 17.7397 18.2515Z" fill="#083052" fill-opacity="0.423529"/>
<path d="M31.3628 12.6916C32.7126 12.5158 33.935 11.8886 35.3218 11.9414C36.2189 11.9755 37.0485 12.1891 37.9122 12.4009C40.1516 12.9501 42.36 13.5629 44.5068 14.4071C45.719 14.8212 47.0113 15.0264 48.0406 15.8502C48.4965 16.2295 49.0903 16.8467 49.326 17.3962C50.729 20.6654 51.3749 24.2034 52.3982 27.6012C52.8271 29.0257 53.2732 30.4587 53.7323 31.8736C54.3974 33.9232 53.9739 36.2077 52.1303 37.5006C51.8767 37.553 51.8504 37.4885 51.7602 37.2595C51.253 35.972 50.3255 35.2657 49.3918 34.2973L45.62 30.3878L41.5239 26.1146C39.936 24.4331 38.2734 22.7389 36.6144 21.1173C36.028 20.544 35.2607 20.0926 34.4596 20.6034C32.9568 21.5616 31.7399 23.0296 30.3255 24.134C29.501 24.7853 28.8979 25.2732 27.9333 25.7026C26.8593 26.2242 25.0531 26.3546 23.9944 25.7272C21.6009 24.3087 23.6459 21.3819 24.4181 19.613C25.2032 17.8143 26.0706 15.7732 27.4805 14.4062C28.0592 13.845 29.2102 13.4544 29.9431 13.1433L30.0617 13.0821C30.6595 12.8991 30.6294 12.7695 31.3628 12.6916Z" fill="#0D3E68"/>
<path d="M12.0872 34.127C13.6555 32.9835 16.0529 33.1811 17.1753 34.8265C17.7699 35.6982 17.8517 36.296 17.9215 37.3211C20.4162 36.7173 22.2241 37.8377 22.8274 40.3198C22.8599 40.4554 22.8903 40.5916 22.9185 40.7282C23.9222 40.41 25.4462 40.5128 26.3373 41.1135C27.3444 41.7923 27.6537 42.884 27.9475 43.9883C30.1542 43.6939 32.1187 45.3139 32.005 47.5727C31.9568 48.53 31.6612 49.1164 31.0865 49.862C30.8367 50.183 30.5712 50.4916 30.291 50.7865C28.5014 52.5225 25.6936 52.5404 24.3406 50.2361C24.121 49.8622 24.0454 49.4848 23.9431 49.0668C22.4993 49.121 21.1966 49.3751 20.0953 48.2162C19.2293 47.3049 19.1224 46.4189 19.1406 45.2085C18.8502 45.2254 18.5594 45.2333 18.2686 45.232C17.1221 45.2207 16.4225 44.9498 15.6042 44.1231C14.7913 43.3018 14.7301 42.3573 14.7467 41.2586C14.188 41.3756 12.9303 41.4693 12.4132 41.3565C10.6389 40.9692 9.52345 39.174 9.86931 37.4014C10.1029 36.204 10.4927 35.8884 11.2785 34.9952C11.5525 34.6837 11.7734 34.3541 12.0872 34.127Z" fill="#0D3E68"/>
<path d="M12.3501 30.4976C12.3444 29.7066 13.068 27.9676 13.2091 27.1466C13.3062 26.5818 13.2666 25.5568 13.4879 25.0472C13.8417 24.2321 13.6629 23.9885 13.6642 23.1621C13.8051 22.8778 13.9931 22.8338 14.2841 22.9174C14.2731 23.6227 13.9954 23.961 13.8207 24.5906C13.6512 25.2012 13.5693 25.8047 13.3265 26.4078C13.2248 26.6606 13.3443 27.2946 13.2975 27.5809C13.187 28.0012 12.9843 28.4147 12.877 28.849C12.771 29.2779 12.6893 30.2115 12.3501 30.4976Z" fill="#083052" fill-opacity="0.0117647"/>
<path d="M27.8031 12.3724C28.6989 12.3728 30.0706 12.217 30.8465 12.6885C30.889 12.7144 31.2785 12.6859 31.3627 12.6916C30.6293 12.7695 30.6594 12.8991 30.0616 13.0821C30.1551 13.009 30.2062 12.9642 30.2903 12.8805L30.2811 12.8147C30.1419 12.7612 30.0678 12.7437 29.9242 12.7103C29.8511 12.6606 29.6031 12.6112 29.4886 12.5779L29.5908 12.5643C28.9649 12.4785 28.2221 12.6623 27.8031 12.3724Z" fill="#083052" fill-opacity="0.396078"/>
<path d="M29.943 13.1432C29.7959 13.1482 29.6988 13.1626 29.5647 13.0969C29.4581 12.965 29.4738 13.0233 29.4877 12.8797C29.6361 12.7342 29.7052 12.7343 29.9241 12.7102C30.0677 12.7436 30.1419 12.7611 30.281 12.8146L30.2902 12.8804C30.2062 12.9641 30.155 13.0089 30.0616 13.082L29.943 13.1432Z" fill="#083052" fill-opacity="0.247059"/>
<path d="M17.0071 18.7863C17.0203 18.6156 17.021 18.3684 17.1414 18.2583C17.3285 18.1769 17.5137 18.2353 17.7396 18.2514C17.5609 18.4474 17.2535 18.6894 17.0071 18.7863Z" fill="#083052" fill-opacity="0.0156863"/>
</svg>
