<svg width="64" height="64" viewBox="0 0 64 64" fill="none" xmlns="http://www.w3.org/2000/svg">
<rect width="64" height="64" rx="16" fill="#FAFAFA" fill-opacity="0.08"/>
<g opacity="0.5">
<path d="M14.4406 22.8961C14.5128 22.793 14.6639 22.5816 14.7013 22.4748C15.1165 21.2899 15.8997 20.5533 16.6862 19.6237C16.7249 19.578 17.1729 19.4337 17.2724 19.3925C17.4451 18.8419 18.0248 18.8869 18.3208 18.3711C18.3693 18.2864 18.617 18.3333 18.7625 18.2215C19.1915 17.8919 19.605 17.5554 19.9951 17.1802C20.0415 17.1355 20.571 17.0712 20.6269 17.0038C20.7596 16.8437 20.9718 16.5479 21.132 16.4173C21.1722 16.3845 21.3314 16.4676 21.5107 16.3367C21.3923 16.3138 21.3835 16.3339 21.3224 16.2633C21.462 16.1155 21.7609 16.1567 21.8603 16.0835C22.1832 15.8458 22.4593 15.6239 22.8072 15.4101L22.7866 15.3439C22.833 15.258 23.0867 15.1957 23.189 15.1745C23.6118 15.0869 23.8185 14.6182 24.1417 14.4771C24.5947 14.2794 24.8948 14.0408 25.2987 13.7757C25.3445 13.7457 25.8409 13.5648 25.9498 13.5187C26.018 13.397 26.0309 13.3594 26.1563 13.2936C26.1895 13.3026 26.2228 13.3111 26.2563 13.319C26.6179 13.4014 26.6972 13.1192 26.9969 12.9771C27.377 12.7971 27.7557 12.8271 28.1655 12.6456C28.3323 12.5716 29.0859 12.7617 29.2097 12.9657L29.1902 13.0159L28.9558 13.0806L28.9543 13.1485C29.2069 13.3945 29.3053 13.0919 29.6517 13.0604C29.0712 13.4462 28.088 13.9224 27.5689 14.315C26.5361 15.0961 25.4324 17.3153 24.9412 18.4889C24.8451 18.3549 24.8406 18.3184 24.846 18.1576L24.8933 18.1504L24.8389 18.1126L24.8217 18.1208C24.9606 18.308 24.4759 18.7917 24.4006 19.036C23.8158 20.9347 21.8402 23.2056 23.1562 25.203C23.9906 26.4696 25.8787 26.2902 27.181 26.2337L27.2007 26.2138L27.2193 26.2189C26.8249 26.1817 26.3834 26.1688 25.9768 26.1371C26.3706 26.1032 26.8363 26.0687 27.2212 25.9449C29.2621 25.2838 30.8012 23.6969 32.3578 22.2985C33.1541 21.5831 34.399 20.1158 35.5704 20.4242L35.4759 20.5528C35.6384 20.6901 35.8155 20.7831 36.0155 20.8622C36.5574 21.0765 37.028 21.9485 37.3537 22.2465C37.9295 22.7737 38.5773 23.3466 39.1281 23.8993C39.9958 24.7699 40.8274 25.6466 41.6874 26.5296C42.506 27.3699 43.349 28.1323 44.1512 29.0207C44.494 29.4003 45.0745 30.2052 45.4702 30.6147C45.501 30.6055 45.5318 30.5963 45.5625 30.5871C45.8837 30.9329 46.5548 31.5877 46.8581 31.9011C47.6572 32.7269 48.3227 33.5524 49.0967 34.3836C49.5394 34.8589 50.114 35.2667 50.576 35.7332C50.9222 36.0827 50.9995 36.4096 51.3302 36.7166L51.4425 36.9362L51.5196 36.938L51.583 36.8385C51.6418 37.0293 51.7039 37.3278 51.8481 37.4457C51.968 37.5001 52.0386 37.474 52.1658 37.4497C51.9068 37.6536 51.7634 37.927 51.5887 38.2085C51.5887 38.4985 51.6092 39.1168 51.5813 39.3779C51.5094 40.0511 50.7932 40.9867 50.3375 41.4647C50.0765 41.7383 50.0281 41.5471 49.6706 42.0136C49.5471 42.0566 49.3233 42.1425 49.2053 42.1728C49.1618 42.1733 48.6115 42.1817 48.6211 42.1918C48.2484 41.8019 47.9232 42.4714 47.474 42.4125C47.2974 42.3894 46.8755 42.3811 46.7418 42.4641C46.4477 42.7604 46.3343 43.1892 46.2563 43.5901C45.7799 44.0019 45.944 44.14 45.7069 44.5989C45.5134 44.9732 44.7617 45.7758 44.3723 45.9756C44.3011 46.0122 44.1932 46.0504 44.1311 46.1032L44.0619 45.9293C43.8309 45.838 43.621 46.0034 43.487 46.1774C43.4592 46.3288 43.4423 46.2891 43.5035 46.3939L43.5713 46.4272C43.0684 46.5343 42.4259 46.678 41.9183 46.6766C41.1178 46.6744 40.8082 47.7471 40.3521 48.3972L40.3448 48.1459L40.2808 48.0941L40.1128 48.1206C40.1028 48.2543 40.0757 48.2902 40.1377 48.3847L40.3521 48.3972C40.0425 48.7229 39.6859 48.9936 39.3794 49.3175C39.0923 49.3544 38.8715 49.4571 38.6159 49.5903C38.1182 49.4896 37.5928 49.4818 37.0874 49.3786C36.8218 49.3244 35.6151 48.9668 35.4495 49.0043C35.3565 49.1721 35.3629 49.1107 35.3666 49.2925C35.3357 49.5334 35.2975 49.7603 35.2565 49.9991C34.787 50.4271 34.6576 51.3854 34.1428 51.5319C33.9583 51.0706 33.4475 51.2942 33.3324 51.5909C33.3546 51.653 33.3511 51.6779 33.3947 51.7123C33.0074 51.9118 31.6622 51.6414 31.1904 51.5862C30.9496 51.558 30.6238 50.9047 30.2952 50.8037C30.4088 50.6699 30.555 50.5615 30.6474 50.4439C31.181 49.7464 31.7459 49.0092 31.9155 48.1251C32.2915 46.1653 31.107 44.4628 29.1877 44.0664C29.334 44.047 29.3526 44.0696 29.4483 43.9823C29.2884 43.7642 28.2613 43.8191 28.0002 43.7594C27.8892 43.537 27.8779 42.7077 27.715 42.5975L27.6186 42.666L27.5768 42.6011L27.5147 42.6772C27.4583 42.5578 27.4003 42.4391 27.3406 42.3212C26.8666 41.4014 26.2583 41.0094 25.3075 40.7047L25.4492 40.6684L25.4791 40.6004L25.4076 40.5332C25.0016 40.4264 23.545 40.2131 23.2663 40.5169C23.423 40.5899 23.625 40.5779 23.8014 40.581C23.5339 40.6315 23.1833 40.6637 22.8852 40.7164C22.663 39.6755 22.3678 38.999 21.6739 38.2064L21.7452 38.0191C21.6661 37.6612 21.4319 37.7436 21.2991 37.588C20.8879 37.1067 20.4865 37.18 19.9081 37.0808C19.6176 37.031 18.4245 36.9582 18.2507 37.1223L18.2799 37.1848L18.4506 37.2215C18.3689 37.2365 18.2702 37.2559 18.1897 37.2578C18.1403 37.2693 17.9609 37.2436 17.9497 37.1782C17.7592 36.0696 17.584 35.2276 16.739 34.3823C15.9526 33.5955 15.1077 33.3937 13.978 33.3997C14.1285 33.3501 14.6275 33.3359 14.822 33.3242L14.8216 33.2913C14.5581 33.2255 13.6105 33.0714 13.468 33.3346C13.6176 33.4351 13.66 33.401 13.8725 33.4085C13.2062 33.5298 12.5921 33.6137 12.0861 34.1073C12.41 33.5009 11.9316 33.4543 12.0732 32.9063C12.2675 32.1543 12.3315 31.2728 12.4892 30.5142C12.6175 30.3794 12.7262 30.2767 12.759 30.0846C12.794 29.8797 12.7871 29.676 12.7998 29.4704C12.8051 29.3845 12.8055 29.1134 12.8308 29.0451C13.1353 28.2268 13.2733 27.5965 13.3296 26.7283C13.4353 26.6121 13.402 26.6468 13.5965 26.6264C13.961 26.0567 13.6536 25.1363 14.1886 24.5085C14.3133 24.3622 14.4628 23.1753 14.4406 22.8961ZM40.7184 47.6142C40.8617 47.4793 40.9953 47.3259 40.867 47.1172C40.756 47.2174 40.7077 47.247 40.6713 47.3962C40.683 47.4741 40.6883 47.5414 40.7184 47.6142ZM35.1968 49.7899C35.2225 49.6017 35.2531 49.6152 35.1725 49.4888L35.0615 49.4482C35.0481 49.6207 35.0066 49.7056 35.1968 49.7899Z" fill="#FAF9F8" fill-opacity="0.498039"/>
<path d="M40.867 47.1172C40.9952 47.3258 40.8617 47.4792 40.7184 47.6142C40.6883 47.5413 40.683 47.474 40.6713 47.3962C40.7076 47.2469 40.7559 47.2174 40.867 47.1172Z" fill="#FAF9F8" fill-opacity="0.580392"/>
<path d="M35.0615 49.4482L35.1724 49.4888C35.2531 49.6152 35.2225 49.6017 35.1968 49.7899C35.0066 49.7056 35.0481 49.6207 35.0615 49.4482Z" fill="#FAF9F8" fill-opacity="0.54902"/>
<path d="M30.3262 12.9191C30.7568 12.86 31.3531 12.8016 31.7511 12.696C33.4247 12.2519 35.0473 11.7419 36.7795 12.2015C37.1566 12.3016 37.6399 12.3166 38.0242 12.4155C40.0646 12.9957 42.0669 13.4487 44.0224 14.2844C45.264 14.815 46.7624 14.8351 47.8717 15.7473C49.5438 16.9657 49.9701 19.1699 50.6062 21.0218C50.7127 21.4004 50.7604 21.7976 50.872 22.1746C51.5236 24.3748 52.071 26.583 52.726 28.7857C52.9745 29.6213 53.3579 30.6388 53.5557 31.4898C53.7 32.1114 53.9808 32.3015 54.0819 32.8783C54.1231 33.4517 54.1625 34.1517 54.0882 34.7174C53.4023 35.5796 53.258 36.8057 52.1658 37.4496C52.0385 37.4738 51.968 37.5 51.8481 37.4456C51.7039 37.3277 51.6418 37.0291 51.583 36.8384L51.4886 36.6363C50.6799 35.5158 50.2736 35.2173 49.369 34.2669L45.6653 30.4238C45.169 29.9063 44.693 29.3492 44.1957 28.8236C42.3155 26.8201 40.3975 24.8525 38.4426 22.9218C37.6538 22.1459 36.5531 20.8612 35.5704 20.4241C34.399 20.1157 33.1541 21.5829 32.3577 22.2984C30.8012 23.6968 29.2621 25.2836 27.2212 25.9448C26.8363 26.0686 26.3706 26.1031 25.9768 26.137C24.7311 26.1114 23.4946 25.8784 23.0019 24.5232C22.8583 24.1243 22.8198 23.6952 22.8899 23.2771C23.043 22.3418 24.4492 19.5209 24.9412 18.4888C25.4324 17.3152 26.5361 15.096 27.5689 14.3148C28.088 13.9223 29.0712 13.4461 29.6517 13.0603C29.8868 13.0281 30.0966 12.9743 30.3262 12.9191Z" fill="#FAF9F8"/>
<path d="M13.978 33.3998C15.1077 33.3937 15.9526 33.5956 16.739 34.3823C17.584 35.2276 17.7592 36.0696 17.9497 37.1782C17.9609 37.2437 18.1403 37.2693 18.1897 37.2579C18.2702 37.2559 18.3689 37.2365 18.4506 37.2216C19.7113 37.1451 20.4663 37.1316 21.4573 38.0054C21.5311 38.0707 21.6033 38.1377 21.6739 38.2065C22.3678 38.999 22.663 39.6756 22.8852 40.7164C23.1833 40.6637 23.5339 40.6315 23.8014 40.581C24.4204 40.5726 24.7052 40.5474 25.3075 40.7048C26.2583 41.0095 26.8666 41.4014 27.3406 42.3212C27.4003 42.4391 27.4583 42.5578 27.5147 42.6773C27.6808 43.1499 27.7665 43.4497 27.8056 43.9519C28.2243 43.9571 28.7785 43.9611 29.1877 44.0664C31.107 44.4628 32.2915 46.1653 31.9155 48.1251C31.7459 49.0093 31.181 49.7464 30.6474 50.444C30.555 50.5616 30.4088 50.6699 30.2952 50.8038C30.1136 50.9758 29.8649 51.1192 29.6574 51.2585C27.4663 52.7285 24.573 51.8819 24.0571 49.0906C22.4233 49.0803 21.1131 49.3518 19.9143 47.8709C19.3054 47.1188 19.0747 46.0838 19.1826 45.1292L19.123 45.1315C17.8273 45.1785 16.8195 45.1729 15.8372 44.2344C14.869 43.3094 14.7721 42.464 14.729 41.1965C13.4354 41.598 12.0926 41.4849 11.056 40.5544C9.94084 39.6146 9.44753 37.9626 10.1403 36.627C10.5066 35.9208 11.5292 34.7334 12.0861 34.1073C12.5921 33.6138 13.2062 33.5299 13.8725 33.4085L13.978 33.3998Z" fill="#FAF9F8"/>
<path d="M22.9006 14.7951C23.353 14.5869 23.8105 14.2479 24.2405 13.9872C25.4802 13.2546 26.8878 12.3728 28.3621 12.3516C29.4721 12.3356 29.3064 12.9836 30.3262 12.9192C30.0966 12.9744 29.8868 13.0281 29.6517 13.0603C29.3053 13.0919 29.2069 13.3944 28.9543 13.1484L28.9558 13.0805L29.1902 13.0158L29.2097 12.9656C29.0859 12.7616 28.3323 12.5715 28.1655 12.6455C27.7557 12.8271 27.3769 12.797 26.9969 12.9771C26.6972 13.1191 26.6179 13.4013 26.2563 13.3189C26.2228 13.311 26.1895 13.3025 26.1563 13.2935C26.0309 13.3593 26.0179 13.3969 25.9498 13.5187C25.8409 13.5647 25.3444 13.7456 25.2987 13.7756C24.8948 14.0407 24.5947 14.2793 24.1417 14.4771C23.8185 14.6182 23.6118 15.0868 23.189 15.1744C23.0867 15.1956 22.833 15.2579 22.7866 15.3438L22.8072 15.41C22.4593 15.6238 22.1832 15.8457 21.8603 16.0834C21.7609 16.1566 21.462 16.1154 21.3224 16.2632C21.3835 16.3338 21.3923 16.3137 21.5107 16.3366C21.3314 16.4675 21.1722 16.3844 21.132 16.4172C20.9718 16.5479 20.7596 16.8436 20.6269 17.0037C20.571 17.0711 20.0415 17.1354 19.9951 17.1801C19.605 17.5553 19.1915 17.8919 18.7624 18.2214C18.6169 18.3332 18.3693 18.2863 18.3207 18.371C18.0248 18.8868 17.4451 18.8418 17.2724 19.3924C17.1729 19.4336 16.7249 19.5779 16.6862 19.6237C15.8997 20.5532 15.1165 21.2898 14.7013 22.4747C14.6639 22.5815 14.5128 22.7929 14.4406 22.896C14.4627 23.1752 14.3133 24.3622 14.1886 24.5084C13.6536 25.1362 13.961 26.0566 13.5965 26.6264C13.402 26.6467 13.4353 26.6121 13.3296 26.7282C13.3315 26.6796 13.336 26.6316 13.3392 26.5831C13.3597 26.2732 13.6171 26.0768 13.6774 25.7579C13.7505 25.3702 13.7093 24.9631 13.7815 24.5747C13.8305 24.3112 14.0501 24.1022 14.1244 23.8297C14.6029 22.0758 14.619 21.2437 15.9793 19.8214C16.2282 19.5612 16.4846 19.2631 16.7648 19.0376C17.2494 18.6477 18.3129 18.2218 18.5887 17.7015C18.6694 17.5493 18.8687 17.5248 19.0274 17.4744C19.5208 17.3177 19.7249 16.8964 20.1296 16.622C20.4603 16.3978 20.8632 16.2951 21.1828 16.0394C21.2982 15.9471 21.3325 15.7915 21.4407 15.7081C21.7303 15.4852 22.1869 15.4251 22.5122 15.1965C22.679 15.0793 22.805 14.9804 22.9006 14.7951Z" fill="#FAF9F8" fill-opacity="0.337255"/>
<path d="M35.5705 20.4243C36.5531 20.8614 37.6538 22.1461 38.4427 22.9221C40.3975 24.8528 42.3156 26.8204 44.1958 28.8239C44.693 29.3495 45.169 29.9065 45.6653 30.4241L49.369 34.2672C50.2736 35.2176 50.6799 35.516 51.4886 36.6366L51.3302 36.7168C50.9995 36.4097 50.9222 36.0829 50.5761 35.7334C50.114 35.2669 49.5394 34.859 49.0967 34.3837C48.3227 33.5525 47.6573 32.7271 46.8581 31.9012C46.5549 31.5879 45.8837 30.933 45.5626 30.5872C45.5318 30.5964 45.501 30.6056 45.4703 30.6148C45.0745 30.2053 44.494 29.4005 44.1512 29.0208C43.349 28.1324 42.506 27.3701 41.6875 26.5297C40.8274 25.6468 39.9958 24.77 39.1281 23.8994C38.5773 23.3467 37.9296 22.7738 37.3537 22.2467C37.0281 21.9486 36.5575 21.0767 36.0156 20.8624C35.8156 20.7833 35.6385 20.6903 35.476 20.553L35.5705 20.4243Z" fill="#FAF9F8" fill-opacity="0.360784"/>
<path d="M25.9768 26.137C26.3834 26.1687 26.8249 26.1816 27.2193 26.2188L27.2007 26.2137L27.181 26.2336C25.8787 26.2901 23.9906 26.4695 23.1563 25.203C21.8402 23.2055 23.8158 20.9346 24.4006 19.0359C24.4759 18.7916 24.9606 18.3079 24.8217 18.1208L24.8389 18.1125L24.8933 18.1503L24.846 18.1575C24.8407 18.3183 24.8451 18.3548 24.9412 18.4889C24.4492 19.521 23.043 22.3418 22.8899 23.2772C22.8198 23.6953 22.8584 24.1244 23.0019 24.5233C23.4946 25.8784 24.7312 26.1114 25.9768 26.137Z" fill="#FAF9F8" fill-opacity="0.415686"/>
<path d="M18.4507 37.2216L18.28 37.1848L18.2507 37.1224C18.4246 36.9583 19.6177 37.0311 19.9081 37.0809C20.4865 37.1801 20.8879 37.1068 21.2991 37.5881C21.432 37.7436 21.6662 37.6613 21.7453 38.0192L21.674 38.2065C21.6034 38.1378 21.5312 38.0707 21.4573 38.0055C20.4663 37.1316 19.7114 37.1452 18.4507 37.2216Z" fill="#FAF9F8" fill-opacity="0.447059"/>
<path d="M35.3666 49.2924C35.3629 49.1106 35.3565 49.1719 35.4495 49.0042C35.6151 48.9667 36.8218 49.3243 37.0874 49.3785C37.5928 49.4817 38.1182 49.4895 38.6159 49.5902C38.3608 49.649 37.0022 49.6684 36.7422 49.5815C36.1842 49.395 36.084 49.101 35.3666 49.2924Z" fill="#FAF9F8" fill-opacity="0.458824"/>
<path d="M27.5148 42.6772L27.5769 42.6011L27.6186 42.6659L27.715 42.5974C27.878 42.7077 27.8892 43.537 28.0003 43.7593C28.2613 43.819 29.2885 43.7642 29.4483 43.9822C29.3526 44.0696 29.3341 44.047 29.1878 44.0663C28.7785 43.961 28.2244 43.957 27.8056 43.9518C27.7666 43.4496 27.6808 43.1498 27.5148 42.6772Z" fill="#FAF9F8" fill-opacity="0.439216"/>
<path d="M46.7418 42.4641C46.8755 42.381 47.2974 42.3893 47.474 42.4125C47.9232 42.4714 48.2484 41.8019 48.6211 42.1918C48.6115 42.1817 49.1618 42.1733 49.2053 42.1728L49.1665 42.1827C48.8979 42.2531 48.8645 42.3507 48.5295 42.4509C47.9761 42.6165 47.1513 42.4193 46.7418 42.4641Z" fill="#FAF9F8" fill-opacity="0.509804"/>
<path d="M23.8014 40.581C23.625 40.5779 23.423 40.5899 23.2664 40.5169C23.545 40.2131 25.0017 40.4264 25.4077 40.5332L25.4791 40.6004L25.4492 40.6684L25.3075 40.7047C24.7052 40.5473 24.4204 40.5725 23.8014 40.581Z" fill="#FAF9F8" fill-opacity="0.458824"/>
<path d="M13.8725 33.4084C13.66 33.401 13.6177 33.4351 13.468 33.3346C13.6106 33.0714 14.5582 33.2254 14.8216 33.2913L14.8221 33.3241C14.6276 33.3359 14.1285 33.3501 13.978 33.3997L13.8725 33.4084Z" fill="#FAF9F8" fill-opacity="0.407843"/>
<path d="M43.5714 46.4272L43.5035 46.3938C43.4424 46.289 43.4592 46.3287 43.4871 46.1774C43.6211 46.0034 43.8309 45.838 44.062 45.9293L44.1311 46.1032C43.9379 46.3455 43.8781 46.3614 43.5714 46.4272Z" fill="#FAF9F8" fill-opacity="0.509804"/>
<path d="M33.3946 51.7124C33.3511 51.678 33.3546 51.6531 33.3324 51.591C33.4475 51.2943 33.9583 51.0707 34.1428 51.532C33.8735 51.5754 33.6044 51.6837 33.3946 51.7124Z" fill="#FAF9F8" fill-opacity="0.517647"/>
<path d="M40.1129 48.1204L40.2808 48.094L40.3449 48.1457L40.3521 48.397L40.1378 48.3846C40.0757 48.2901 40.1028 48.2542 40.1129 48.1204Z" fill="#FAF9F8" fill-opacity="0.568627"/>
<path d="M51.4885 36.6365L51.583 36.8386L51.5196 36.938L51.4425 36.9362L51.3302 36.7166L51.4885 36.6365Z" fill="#FAF9F8" fill-opacity="0.482353"/>
</g>
</svg>
