<svg width="56" height="56" viewBox="0 0 56 56" fill="none" xmlns="http://www.w3.org/2000/svg">
<rect width="56" height="56" rx="8" fill="white" fill-opacity="0.05"/>
<path d="M18.6667 33.3333V26.6666C18.6667 26.2888 18.7944 25.9722 19.05 25.7166C19.3056 25.4611 19.6222 25.3333 20 25.3333C20.3778 25.3333 20.6944 25.4611 20.95 25.7166C21.2056 25.9722 21.3333 26.2888 21.3333 26.6666V33.3333C21.3333 33.7111 21.2056 34.0277 20.95 34.2833C20.6944 34.5388 20.3778 34.6666 20 34.6666C19.6222 34.6666 19.3056 34.5388 19.05 34.2833C18.7944 34.0277 18.6667 33.7111 18.6667 33.3333ZM26.6667 33.3333V26.6666C26.6667 26.2888 26.7944 25.9722 27.05 25.7166C27.3056 25.4611 27.6222 25.3333 28 25.3333C28.3778 25.3333 28.6944 25.4611 28.95 25.7166C29.2056 25.9722 29.3333 26.2888 29.3333 26.6666V33.3333C29.3333 33.7111 29.2056 34.0277 28.95 34.2833C28.6944 34.5388 28.3778 34.6666 28 34.6666C27.6222 34.6666 27.3056 34.5388 27.05 34.2833C26.7944 34.0277 26.6667 33.7111 26.6667 33.3333ZM16 40C15.6222 40 15.3056 39.8722 15.05 39.6166C14.7944 39.3611 14.6667 39.0444 14.6667 38.6666C14.6667 38.2888 14.7944 37.9722 15.05 37.7166C15.3056 37.4611 15.6222 37.3333 16 37.3333H40C40.3778 37.3333 40.6944 37.4611 40.95 37.7166C41.2056 37.9722 41.3333 38.2888 41.3333 38.6666C41.3333 39.0444 41.2056 39.3611 40.95 39.6166C40.6944 39.8722 40.3778 40 40 40H16ZM34.6667 33.3333V26.6666C34.6667 26.2888 34.7944 25.9722 35.05 25.7166C35.3056 25.4611 35.6222 25.3333 36 25.3333C36.3778 25.3333 36.6944 25.4611 36.95 25.7166C37.2056 25.9722 37.3333 26.2888 37.3333 26.6666V33.3333C37.3333 33.7111 37.2056 34.0277 36.95 34.2833C36.6944 34.5388 36.3778 34.6666 36 34.6666C35.6222 34.6666 35.3056 34.5388 35.05 34.2833C34.7944 34.0277 34.6667 33.7111 34.6667 33.3333ZM40 22.6666H15.8667C15.5333 22.6666 15.25 22.55 15.0167 22.3166C14.7833 22.0833 14.6667 21.8 14.6667 21.4666V20.7333C14.6667 20.4888 14.7278 20.2777 14.85 20.1C14.9722 19.9222 15.1333 19.7777 15.3333 19.6666L26.8 13.9333C27.1778 13.7555 27.5778 13.6666 28 13.6666C28.4222 13.6666 28.8222 13.7555 29.2 13.9333L40.6 19.6333C40.8444 19.7444 41.0278 19.9111 41.15 20.1333C41.2722 20.3555 41.3333 20.5888 41.3333 20.8333V21.3333C41.3333 21.7111 41.2056 22.0277 40.95 22.2833C40.6944 22.5388 40.3778 22.6666 40 22.6666ZM20.6 20H35.4L28 16.3333L20.6 20Z" fill="#FAFAFA"/>
</svg>
