<svg width="64" height="64" viewBox="0 0 64 64" fill="none" xmlns="http://www.w3.org/2000/svg">
<rect width="64" height="64" rx="16" fill="#FAFAFA" fill-opacity="0.15"/>
<path d="M24.2742 13.2114C24.5597 13.3588 25.098 13.9646 25.3125 14.2331C25.9529 14.3732 26.156 14.3651 26.8053 14.3773C26.5915 14.3977 26.2007 14.4158 26.0247 14.4933C26.1495 14.569 26.4774 14.5623 26.6352 14.5682C26.4264 14.5937 25.9446 14.6018 25.8079 14.7526C26.0334 14.8357 29.2208 14.7732 29.7581 14.7733L40.311 14.7742C42.374 14.7741 44.4584 14.738 46.5147 14.8005L46.8144 14.8456L46.7713 14.9516C46.482 14.9939 45.8516 14.8969 45.7608 15.0108C45.9793 15.2996 46.9636 15.0713 47.4344 15.4396L47.2303 15.5531L47.2143 15.6199C47.3815 15.7623 47.9642 15.797 48.1902 15.799C48.2674 15.9161 48.7232 16.5888 48.8008 16.6369C48.7745 17.2118 48.8624 17.4803 49.0343 18.0285L49.0765 18.037L49.1249 17.8574C49.2351 18.0628 49.032 18.0393 49.2222 18.1454L49.3857 18.1207C49.5736 18.1692 49.5199 18.1276 49.6115 18.2613L49.6228 18.5698L49.5493 18.5392C49.4409 18.7064 49.4835 29.2888 49.4836 30.173L49.4832 34.1804C49.4828 34.7433 49.4508 35.7255 49.4949 36.2428C49.4858 36.5631 49.4235 37.2022 49.5796 37.4467L49.47 37.4325C49.3876 37.2821 49.457 35.2088 49.4558 34.8754L49.4482 23.5543L49.4461 20.0141C49.4442 19.5202 49.4458 19.0029 49.4436 18.5073C49.443 18.3653 49.4115 18.3611 49.3301 18.31C49.1856 18.4365 49.2863 19.2889 49.2843 19.5563C49.2694 20.7816 49.2629 22.0069 49.2649 23.2322L49.2608 34.6309C49.2587 34.9688 49.3047 37.2168 49.194 37.3921C49.1437 37.4719 49.1019 37.4997 49.1718 37.5817C49.304 37.7368 49.5842 37.8168 49.7642 37.9025C49.1384 37.8327 48.1907 37.9169 47.5347 37.9348C45.904 37.9792 44.7836 37.9074 43.1933 37.6045C43.4976 37.3982 43.6056 37.3594 43.7151 37.0108C43.7233 36.9792 43.8254 36.7744 43.85 36.7302C44.069 36.3283 44.0412 35.6871 43.8839 35.2701C43.5412 34.324 42.4538 33.8149 41.4831 33.875C40.3397 33.9458 39.0446 33.7917 37.9109 33.8835C37.7188 33.8985 37.5298 33.941 37.3498 34.0097C36.8098 34.2169 36.3778 34.6356 36.1536 35.1688C35.9567 35.6338 35.8651 36.0104 36.0615 36.4861C36.1507 37.0755 36.4058 37.2275 36.4904 37.6103C35.6033 38.2176 27.9595 37.8908 26.4846 37.8189C26.0136 37.796 26.2214 36.9703 26.1957 36.5842C26.2505 34.8696 26.2025 32.9227 26.1999 31.1906C26.1963 30.8068 26.081 30.5623 26.239 30.1842L26.5737 29.779C27.0375 29.5979 27.8422 29.5658 28.3628 29.4722C29.8109 29.1867 31.307 29.0811 32.7561 28.8129C34.5689 28.4774 37.0303 28.837 37.8582 26.7798C37.9879 26.6879 37.9429 26.6262 38.0793 26.564L38.1463 26.6553L38.1947 26.6384C38.3017 26.4111 38.591 25.5012 38.3508 25.3418L38.3208 25.4483C38.255 25.3913 37.9279 25.1177 37.9138 25.0572C37.8803 24.9123 37.9057 24.6965 37.7835 24.5697C37.6706 24.5761 37.6057 24.6065 37.5003 24.6441C37.4812 24.5621 37.4068 24.4272 37.3395 24.3829C36.3204 23.7125 34.912 23.8629 33.8154 23.938L23.2137 23.9357L20.0832 23.9324C18.1619 23.9331 16.3639 23.7761 14.948 25.2356C14.3899 25.811 14.2456 26.5242 14.1925 27.2791C14.1683 27.0935 14.1727 26.9857 14.1779 26.798C14.2445 26.345 14.5111 25.7092 14.3557 25.3397L14.4084 25.3295C14.4277 25.3093 14.4509 25.2849 14.4781 25.2562C14.6621 23.2319 14.4411 20.0778 14.555 18.1382C14.9294 18.0798 14.665 17.4231 14.8941 17.0783C15.0966 17.0951 14.9719 17.6772 15.1158 17.8106C15.3324 17.5387 15.2382 16.4587 15.3836 16.2969C15.6212 16.4041 15.3661 17.4338 15.5985 17.8093C15.6212 17.6797 15.64 17.6089 15.6764 17.4851L15.7408 17.5493C15.748 17.5763 15.7842 17.6492 15.7978 17.6788C15.9231 17.5378 15.8855 17.0775 15.8815 16.872L15.9294 16.8244C15.958 17.0923 15.9056 17.2512 16.0672 17.4414C16.3685 21.8752 21.9961 23.5312 24.7334 20.2813C24.9117 20.0696 25.1725 19.7568 25.2938 19.5122C25.265 19.6647 25.252 19.6997 25.3199 19.8461L25.3836 19.8621C25.5645 19.7523 25.7791 19.2765 25.5817 19.1123L25.4428 19.1637C25.6708 18.6628 25.7662 18.3762 25.8351 17.8317C25.9515 17.5382 26.099 17.5881 26.1777 17.2268C26.2541 16.8756 26.2577 16.5844 26.0691 16.2698L25.9785 16.2686C25.854 16.1458 25.9505 15.8625 25.7424 15.5329C25.3633 14.1919 25.0909 14.1737 24.2742 13.2114ZM15.4038 17.8195C15.4209 17.6109 15.5471 16.7552 15.3557 16.6476C15.3163 16.9138 15.2555 17.6015 15.4038 17.8195Z" fill="#FAFAFA" fill-opacity="0.411765"/>
<path d="M15.356 16.6475C15.5474 16.755 15.4212 17.6107 15.4041 17.8193C15.2558 17.6013 15.3166 16.9136 15.356 16.6475Z" fill="#FAFAFA" fill-opacity="0.690196"/>
<path d="M14.1928 27.2791C14.2459 26.5241 14.3902 25.8109 14.9483 25.2355C16.3642 23.776 18.1622 23.933 20.0834 23.9324L23.214 23.9356L33.8157 23.9379L33.8628 23.9427C35.8609 24.1337 38.2161 23.5435 37.8695 26.6889C37.8661 26.7192 37.8624 26.7495 37.8584 26.7797C37.0306 28.8369 34.5692 28.4773 32.7564 28.8129C31.3073 29.081 29.8112 29.1866 28.3631 29.4721C27.8425 29.5657 27.0378 29.5978 26.5739 29.7789L26.2393 30.1841L26.1091 30.1106C25.8133 30.3241 25.7607 31.9712 25.8029 32.3518C25.9185 33.3964 25.5795 37.0541 25.9738 37.8347C26.4164 38.2306 27.4975 38.0362 27.9415 38.1368L27.3642 38.1377C29.7349 38.322 32.3559 38.0257 34.7381 38.0948C35.4431 38.1152 36.19 38.1931 36.878 38.1247C36.9291 38.1181 36.9223 38.1155 36.9794 38.1234C37.5098 38.0155 42.2449 38.0187 42.707 38.1159C43.3791 38.3195 44.1859 38.1461 44.8784 38.1211C45.9238 38.0835 50.2787 37.9531 50.941 38.414C51.335 38.6882 51.5706 39.1036 51.8511 39.326C52.0149 40.0064 51.9972 40.4666 51.6354 41.0918C50.8971 42.3675 49.0899 42.1126 47.8226 42.1126L44.6393 42.1125L31.9352 42.1108L27.7621 42.1113C27.4027 42.1116 26.3366 42.0155 26.1014 42.1927L26.0316 42.3722C26.0065 42.4489 25.9709 42.5942 25.9174 42.6429C25.7199 43.2749 25.8689 48.4329 25.852 49.5055C25.8496 49.6547 25.922 49.9486 25.9678 50.104C25.8067 50.7179 25.5134 51.394 24.94 51.7271C24.4664 52.0021 23.8196 52.0149 23.3033 51.8664C22.7339 51.7026 22.2253 51.2858 21.9459 50.7635C21.5673 50.0554 21.4094 46.6619 21.305 45.6772C21.198 44.6677 21.0245 43.6644 20.9205 42.6516C20.853 41.9938 20.8536 41.0636 20.6528 40.4473C20.6131 40.3257 20.5634 40.226 20.4351 40.1884C20.1943 40.118 19.7178 40.1408 19.501 40.2523C19.1167 40.6726 19.1005 42.6469 19.0072 43.2576C18.6856 45.3634 18.5686 47.4985 18.2771 49.6098C18.2119 50.0819 18.204 50.4181 17.9843 50.8611C17.191 52.4608 14.5239 52.3024 14.1885 50.4435C14.1136 50.1248 14.1884 49.162 14.1913 48.7624L14.1957 44.7711L14.1928 27.2791Z" fill="#FAFAFA"/>
<path d="M16.1154 15.7569C16.3782 15.6059 16.282 15.6052 16.4316 15.3579C16.7153 14.8891 16.963 14.2637 17.3285 13.8609C17.8763 13.257 18.6764 12.9673 19.3252 12.4969C19.3743 12.4614 19.753 12.438 19.8366 12.4189C20.9185 12.2285 21.9696 12.4613 23.0539 12.4223C23.5536 12.6645 23.8444 12.8607 24.2744 13.2112C25.0911 14.1735 25.3635 14.1917 25.7426 15.5327C25.8298 16.1053 25.8377 16.5212 25.8291 17.1036C25.8278 17.1849 25.8225 17.7763 25.8353 17.8314C25.7664 18.376 25.671 18.6626 25.443 19.1635L25.294 19.512C25.1727 19.7566 24.9119 20.0694 24.7336 20.2811C21.9963 23.531 16.3687 21.875 16.0674 17.4412C16.0723 16.8939 16.0646 16.2981 16.1154 15.7569Z" fill="#FAFAFA"/>
<path d="M36.0614 36.486C35.8649 36.0103 35.9566 35.6337 36.1535 35.1687C36.3776 34.6355 36.8097 34.2168 37.3497 34.0096C37.5297 33.9409 37.7187 33.8984 37.9108 33.8834C39.0444 33.7916 40.3396 33.9457 41.483 33.8749C42.4537 33.8148 43.5411 34.3239 43.8837 35.2701C44.0411 35.687 44.0689 36.3282 43.8499 36.7301C43.8253 36.7743 43.7232 36.9791 43.715 37.0107C43.4438 37.3776 43.3095 37.2813 43.0778 37.5539C43.034 37.6054 43.2086 37.8281 42.9778 37.9217C42.3765 37.8773 37.6579 37.8329 37.3734 37.976C37.3645 37.9804 37.356 37.9857 37.3473 37.9906L37.2911 37.911C37.233 37.8716 37.1906 37.8666 37.1298 37.8382C36.497 37.5433 36.3815 36.9809 36.0614 36.486Z" fill="#FAFAFA"/>
<path d="M49.7641 37.9023C49.5841 37.8166 49.3039 37.7366 49.1717 37.5816C49.1018 37.4995 49.1436 37.4717 49.1939 37.392C49.3046 37.2167 49.2586 34.9686 49.2607 34.6308L49.2648 23.2321C49.2628 22.0068 49.2693 20.7814 49.2842 19.5562C49.2862 19.2888 49.1855 18.4363 49.33 18.3098C49.4114 18.3609 49.4429 18.3651 49.4435 18.5071C49.4457 19.0027 49.4441 19.52 49.446 20.0139L49.4481 23.5541L49.4557 34.8752C49.4569 35.2087 49.3875 37.282 49.4699 37.4323L49.5795 37.4465C49.6533 37.1705 49.638 35.9009 49.6375 35.5633L49.6306 32.3351C49.6275 28.074 49.6821 23.6939 49.618 19.4437C49.6302 19.3628 49.6265 18.7674 49.6286 18.6415C49.709 19.1697 49.6897 20.0605 49.6899 20.6131L49.6888 23.6465L49.6865 34.0007C49.6885 34.7148 49.6867 35.4288 49.681 36.1428C49.6748 36.5178 49.6288 37.4236 49.6886 37.7325C49.9308 37.8936 50.1196 37.8578 50.3435 38.0132C50.1507 37.9745 49.9575 37.9376 49.7641 37.9023Z" fill="#FAFAFA" fill-opacity="0.666667"/>
<path d="M36.9792 38.1234C36.9221 38.1155 36.9289 38.1181 36.8777 38.1247C36.1898 38.1931 35.4429 38.1152 34.7379 38.0948C32.3556 38.0257 29.7346 38.322 27.3639 38.1377L27.9413 38.1368C27.4973 38.0362 26.4161 38.2306 25.9736 37.8347C25.5793 37.0541 25.9183 33.3964 25.8026 32.3518C25.7604 31.9713 25.8131 30.3241 26.1089 30.1106L26.239 30.1841C26.081 30.5623 26.1964 30.8068 26.1999 31.1905L26.1138 31.1013C26.0189 31.2495 26.0052 36.3443 26.0656 36.8315L26.1143 36.8866C26.1451 36.7868 26.1723 36.6859 26.1958 36.5842C26.2214 36.9703 26.0137 37.7959 26.4846 37.8189C27.9595 37.8907 35.6033 38.2175 36.4905 37.6102C36.4059 37.2274 36.1508 37.0755 36.0616 36.4861C36.3817 36.981 36.4971 37.5433 37.13 37.8383C37.1908 37.8666 37.2332 37.8716 37.2913 37.911C37.1202 37.8898 37.0186 37.8619 36.8628 37.9339L36.8577 38.0168L36.9792 38.1234ZM25.8838 36.9455C25.9866 36.5689 26.0466 31.4784 25.9239 31.1866L25.8781 31.1437C25.8136 31.7918 25.8376 32.6757 25.8382 33.3446C25.8287 34.5451 25.8439 35.7456 25.8838 36.9455Z" fill="#FAFAFA" fill-opacity="0.835294"/>
<path d="M25.8778 31.1438L25.9236 31.1867C26.0463 31.4784 25.9863 36.569 25.8835 36.9456C25.8435 35.7457 25.8283 34.5451 25.8379 33.3447C25.8372 32.6758 25.8133 31.7918 25.8778 31.1438Z" fill="#FAFAFA" fill-opacity="0.560784"/>
<path d="M13.8052 27.3317L13.918 27.2375C14.0849 27.3478 14.0148 28.2727 14.0148 28.5174L14.0156 31.2359L14.0057 42.3175L14.0042 47.5989C14.0042 47.942 14.0314 49.49 13.9748 49.7254L13.9128 49.7681C13.8687 49.7198 13.8342 49.6869 13.8018 49.6293C13.8472 49.362 13.8129 47.3085 13.8119 46.9427L13.8109 40.7579L13.8021 31.6141L13.8112 28.9389C13.8147 28.4682 13.8402 27.7888 13.8052 27.3317Z" fill="#FAFAFA" fill-opacity="0.952941"/>
<path d="M44.3736 14.3768C44.7716 14.3298 45.688 14.3389 46.0496 14.4938C46.2469 14.7498 46.1261 14.6765 46.5145 14.8004C44.4582 14.7378 42.3737 14.774 40.3107 14.7741L29.7578 14.7732C29.2205 14.773 26.0332 14.8356 25.8076 14.7525C25.9444 14.6017 26.4262 14.5936 26.6349 14.5681C32.1979 14.5044 37.858 14.558 43.4284 14.5586C43.8851 14.6107 45.48 14.5906 45.9281 14.5502C45.6813 14.4757 45.3344 14.4027 45.0759 14.4254C44.8415 14.4136 44.6074 14.3974 44.3736 14.3768Z" fill="#FAFAFA" fill-opacity="0.203922"/>
<path d="M13.8051 27.3316C13.7593 26.5955 13.8649 26.9534 14.1773 26.7979C14.1722 26.9855 14.1677 27.0933 14.1919 27.279L14.1948 44.771L14.1904 48.7623C14.1875 49.1619 14.1127 50.1247 14.1876 50.4434L14.1473 50.3964C13.8715 50.0738 13.7696 50.0381 13.8017 49.6292C13.8341 49.6868 13.8686 49.7198 13.9127 49.7681L13.9748 49.7253C14.0314 49.4899 14.0041 47.9419 14.0041 47.5989L14.0056 42.3174L14.0156 31.2359L14.0147 28.5174C14.0147 28.2726 14.0848 27.3477 13.9179 27.2375L13.8051 27.3316Z" fill="#FAFAFA" fill-opacity="0.129412"/>
<path d="M44.3736 14.3767C44.6074 14.3973 44.8415 14.4136 45.0759 14.4254C44.8239 14.6271 43.834 14.4963 43.4284 14.5586C37.858 14.558 32.1979 14.5044 26.6349 14.568C26.4771 14.5621 26.1492 14.5689 26.0244 14.4931C26.2004 14.4157 26.5913 14.3976 26.805 14.3771L38.5372 14.3794C40.3336 14.3793 42.6104 14.4468 44.3736 14.3767Z" fill="#FAFAFA" fill-opacity="0.823529"/>
<path d="M42.9773 37.9217C43.2081 37.8281 43.0336 37.6054 43.0773 37.554C43.309 37.2813 43.4433 37.3776 43.7145 37.0107C43.605 37.3593 43.497 37.3982 43.1927 37.6045C44.7829 37.9074 45.9034 37.9792 47.5341 37.9347C48.1901 37.9168 49.1378 37.8326 49.7636 37.9024C49.957 37.9377 50.1502 37.9746 50.343 38.0133C51.0668 38.2293 51.6114 38.5709 51.8502 39.326C51.5697 39.1037 51.3341 38.6883 50.9401 38.414C50.2778 37.9531 45.9228 38.0835 44.8775 38.1212C44.185 38.1461 43.3782 38.3195 42.7061 38.1159C42.9365 38.0818 43.2053 38.1636 43.3824 38.0707C43.2353 37.9526 43.1374 38.044 42.9773 37.9217Z" fill="#FAFAFA" fill-opacity="0.85098"/>
<path d="M16.1152 15.757C16.1547 15.574 16.2782 15.2933 16.3555 15.1169C16.9625 13.7316 17.7554 12.8658 19.1882 12.3234C20.333 11.89 21.9353 11.9171 23.0537 12.4224C21.9694 12.4614 20.9184 12.2286 19.8365 12.419C19.7529 12.4381 19.3742 12.4615 19.3251 12.4971C18.6762 12.9675 17.8762 13.2572 17.3283 13.861C16.9628 14.2639 16.7151 14.8892 16.4315 15.3581C16.2819 15.6053 16.3781 15.6061 16.1152 15.757Z" fill="#FAFAFA" fill-opacity="0.933333"/>
<path d="M49.6177 19.4438C49.6818 23.6941 49.6272 28.0741 49.6303 32.3353L49.6372 35.5635C49.6377 35.9011 49.653 37.1707 49.5792 37.4467C49.4231 37.2022 49.4854 36.5631 49.4945 36.2428C49.5834 35.6172 49.4796 34.2893 49.5258 33.7927C49.6757 32.1791 49.2936 19.9797 49.6177 19.4438Z" fill="#FAFAFA" fill-opacity="0.698039"/>
<path d="M14.5544 18.1382C14.4405 20.0778 14.6615 23.2319 14.4775 25.2562C14.4503 25.2848 14.4271 25.3093 14.4078 25.3295L14.3551 25.3397C14.2955 24.6967 14.3215 18.4552 14.4391 18.1697L14.5544 18.1382Z" fill="#FAFAFA" fill-opacity="0.588235"/>
<path d="M25.917 42.643C25.9706 42.5943 26.0061 42.449 26.0312 42.3723C26.0856 42.5545 26.1555 42.7903 26.1617 42.9798C26.2231 44.8706 26.1779 46.7678 26.1902 48.66C26.1927 49.0401 26.2289 49.5994 26.0379 49.9266C25.9343 49.6225 26.0292 49.1695 25.9999 48.8997C25.9026 48.0029 26.1884 43.1481 25.917 42.643Z" fill="#FAFAFA" fill-opacity="0.960784"/>
<path d="M25.9169 42.6428C26.1883 43.1479 25.9025 48.0027 25.9999 48.8995C26.0292 49.1693 25.9342 49.6223 26.0379 49.9264L25.9673 50.1039C25.9216 49.9485 25.8492 49.6546 25.8516 49.5054C25.8685 48.4328 25.7195 43.2748 25.9169 42.6428Z" fill="#FAFAFA" fill-opacity="0.0666667"/>
<path d="M33.8154 23.938C34.912 23.8629 36.3204 23.7125 37.3395 24.3829C37.4068 24.4272 37.4812 24.5621 37.5003 24.6441C37.6057 24.6064 37.6706 24.5761 37.7835 24.5697C37.9057 24.6964 37.8803 24.9123 37.9139 25.0571C37.9279 25.1177 38.2551 25.3913 38.3208 25.4483L38.3508 25.3418C38.591 25.5011 38.3017 26.4111 38.1947 26.6384L38.1463 26.6553L38.0793 26.564C37.9429 26.6262 37.9879 26.6879 37.8582 26.7798C37.8621 26.7496 37.8659 26.7193 37.8692 26.689C38.2158 23.5436 35.8606 24.1338 33.8625 23.9427L33.8154 23.938Z" fill="#FAFAFA" fill-opacity="0.529412"/>
<path d="M36.9789 38.1233L36.8574 38.0167L36.8625 37.9339C37.0183 37.8618 37.12 37.8898 37.291 37.911L37.3472 37.9905C37.3559 37.9857 37.3644 37.9804 37.3733 37.9759C37.6578 37.8328 42.3764 37.8772 42.9777 37.9216C43.1378 38.0439 43.2357 37.9525 43.3828 38.0706C43.2057 38.1636 42.9369 38.0817 42.7064 38.1158C42.2444 38.0186 37.5093 38.0155 36.9789 38.1233Z" fill="#FAFAFA" fill-opacity="0.67451"/>
<path d="M26.196 36.5842C26.1724 36.686 26.1452 36.7868 26.1145 36.8866L26.0657 36.8315C26.0053 36.3443 26.0191 31.2495 26.1139 31.1013L26.2001 31.1906C26.2028 32.9226 26.2507 34.8696 26.196 36.5842Z" fill="#FAFAFA" fill-opacity="0.901961"/>
<path d="M49.495 36.2426C49.4508 35.7254 49.4829 34.7431 49.4832 34.1802L49.4837 30.1728C49.4836 29.2886 49.441 18.7062 49.5494 18.5391L49.6229 18.5696L49.6288 18.6415C49.6267 18.7673 49.6304 19.3628 49.6181 19.4437C49.294 19.9795 49.6762 32.1789 49.5262 33.7925C49.48 34.2891 49.5839 35.617 49.495 36.2426Z" fill="#FAFAFA" fill-opacity="0.494118"/>
<path d="M46.8144 14.8455C47.4465 14.9715 47.6672 15.6267 48.1901 15.7988C47.9641 15.7968 47.3814 15.7621 47.2142 15.6197L47.2302 15.553L47.4344 15.4395C46.9636 15.0712 45.9792 15.2994 45.7607 15.0107C45.8515 14.8968 46.4819 14.9938 46.7712 14.9514L46.8144 14.8455Z" fill="#FAFAFA" fill-opacity="0.321569"/>
<path d="M25.7422 15.5327C25.9503 15.8623 25.8538 16.1457 25.9783 16.2685L26.069 16.2696C26.2575 16.5842 26.2539 16.8755 26.1775 17.2267C26.0989 17.588 25.9513 17.5381 25.835 17.8315C25.8221 17.7764 25.8275 17.185 25.8287 17.1036C25.8373 16.5212 25.8294 16.1054 25.7422 15.5327Z" fill="#FAFAFA" fill-opacity="0.686275"/>
<path d="M48.8005 16.6367C49.1609 16.9933 49.3151 17.5729 49.3193 18.0616L49.3853 18.1205L49.2218 18.1452C49.0317 18.0391 49.2348 18.0627 49.1245 17.8572L49.0762 18.0368L49.034 18.0283C48.8621 17.4801 48.7742 17.2116 48.8005 16.6367Z" fill="#FAFAFA" fill-opacity="0.403922"/>
<path d="M15.789 15.8809L15.7705 15.7754C15.89 15.6869 15.9241 15.73 16.1153 15.7569C16.0645 16.2982 16.0721 16.894 16.0673 17.4413C15.9056 17.2511 15.9581 17.0921 15.9295 16.8242C15.9157 16.5984 15.9699 15.981 15.789 15.8809Z" fill="#FAFAFA" fill-opacity="0.0901961"/>
<path d="M25.4429 19.1637L25.5818 19.1123C25.7792 19.2765 25.5646 19.7523 25.3837 19.8621L25.32 19.8461C25.252 19.6996 25.2651 19.6646 25.2939 19.5121L25.4429 19.1637Z" fill="#FAFAFA" fill-opacity="0.317647"/>
<path d="M45.0762 14.4254C45.3347 14.4026 45.6816 14.4756 45.9284 14.5501C45.4803 14.5905 43.8854 14.6106 43.4287 14.5586C43.8343 14.4963 44.8241 14.6271 45.0762 14.4254Z" fill="#FAFAFA" fill-opacity="0.505882"/>
<path d="M15.7882 15.8809C15.9692 15.981 15.9149 16.5984 15.9287 16.8242L15.8809 16.8719C15.8752 16.7102 15.8809 16.4989 15.8213 16.3542C15.7319 16.5499 15.7623 17.2939 15.7401 17.5492L15.6758 17.4849C15.7418 16.91 15.6232 16.5169 15.7882 15.8809Z" fill="#FAFAFA" fill-opacity="0.776471"/>
<path d="M15.7402 17.5493C15.7624 17.294 15.732 16.55 15.8214 16.3542C15.881 16.499 15.8753 16.7103 15.881 16.872C15.8849 17.0774 15.9226 17.5377 15.7973 17.6788C15.7836 17.6492 15.7475 17.5763 15.7402 17.5493Z" fill="#FAFAFA" fill-opacity="0.976471"/>
</svg>
