<svg width="56" height="56" viewBox="0 0 56 56" fill="none" xmlns="http://www.w3.org/2000/svg">
<rect width="56" height="56" rx="8" fill="white" fill-opacity="0.05"/>
<path d="M20.0787 35.5027H27.646V35.171C27.646 34.8184 27.5549 34.5003 27.3727 34.2167C27.1902 33.9332 26.948 33.7276 26.646 33.6C26.078 33.3847 25.5833 33.2352 25.162 33.1514C24.7407 33.0676 24.3203 33.0257 23.901 33.0257C23.4632 33.0257 23.0149 33.0736 22.556 33.1694C22.0971 33.2649 21.6121 33.4085 21.101 33.6C20.7841 33.7276 20.5344 33.9332 20.352 34.2167C20.1698 34.5003 20.0787 34.8184 20.0787 35.171V35.5027ZM31.511 33.364H35.5797C35.7863 33.364 35.9562 33.2972 36.0893 33.1634C36.2224 33.0296 36.289 32.8587 36.289 32.6507C36.289 32.4425 36.2224 32.2715 36.0893 32.1377C35.9562 32.0037 35.7863 31.9367 35.5797 31.9367H31.511C31.3059 31.9367 31.135 32.0037 30.9983 32.1377C30.8614 32.2715 30.793 32.4424 30.793 32.6504C30.793 32.8584 30.8614 33.0294 30.9983 33.1634C31.135 33.2972 31.3059 33.364 31.511 33.364ZM25.1067 31.4427C25.4333 31.1134 25.5967 30.7114 25.5967 30.2367C25.5967 29.762 25.4333 29.36 25.1067 29.0307C24.78 28.7014 24.3794 28.5367 23.905 28.5367C23.4306 28.5367 23.0286 28.7014 22.699 29.0307C22.3697 29.36 22.205 29.762 22.205 30.2367C22.205 30.7114 22.3697 31.1134 22.699 31.4427C23.0286 31.772 23.4306 31.9367 23.905 31.9367C24.3794 31.9367 24.78 31.772 25.1067 31.4427ZM31.511 29.8874H35.5797C35.7863 29.8874 35.9562 29.8204 36.0893 29.6864C36.2224 29.5526 36.289 29.3817 36.289 29.1737C36.289 28.9657 36.2224 28.7947 36.0893 28.6607C35.9562 28.5269 35.7863 28.46 35.5797 28.46H31.511C31.3059 28.46 31.135 28.5269 30.9983 28.6607C30.8614 28.7945 30.793 28.9654 30.793 29.1734C30.793 29.3814 30.8614 29.5524 30.9983 29.6864C31.135 29.8204 31.3059 29.8874 31.511 29.8874ZM17.419 40.6667C16.8459 40.6667 16.355 40.4624 15.9463 40.0537C15.5377 39.645 15.3333 39.1542 15.3333 38.581V24.0857C15.3333 23.5126 15.5377 23.0217 15.9463 22.613C16.355 22.2044 16.8459 22 17.419 22H25.154V17.0087C25.154 16.5552 25.3199 16.1626 25.6517 15.831C25.9834 15.4993 26.3762 15.3334 26.83 15.3334H29.1727C29.6262 15.3334 30.0186 15.4993 30.3497 15.831C30.6806 16.1626 30.846 16.5552 30.846 17.0087V22H38.581C39.1541 22 39.645 22.2044 40.0537 22.613C40.4623 23.0217 40.6667 23.5126 40.6667 24.0857V38.581C40.6667 39.1542 40.4623 39.645 40.0537 40.0537C39.645 40.4624 39.1541 40.6667 38.581 40.6667H17.419ZM17.419 38.9914H38.581C38.7008 38.9914 38.7991 38.9529 38.876 38.876C38.9529 38.7992 38.9913 38.7008 38.9913 38.581V24.0857C38.9913 23.9659 38.9529 23.8676 38.876 23.7907C38.7991 23.7138 38.7008 23.6754 38.581 23.6754H30.846V24.6754C30.846 25.1694 30.6798 25.572 30.3473 25.8834C30.0149 26.1947 29.6228 26.3504 29.171 26.3504H26.829C26.3772 26.3504 25.9851 26.1947 25.6527 25.8834C25.3202 25.572 25.154 25.1694 25.154 24.6754V23.6754H17.419C17.2992 23.6754 17.2009 23.7138 17.124 23.7907C17.0471 23.8676 17.0087 23.9659 17.0087 24.0857V38.581C17.0087 38.7008 17.0471 38.7992 17.124 38.876C17.2009 38.9529 17.2992 38.9914 17.419 38.9914ZM26.829 24.6754H29.171V17.0087H26.829V24.6754Z" fill="#FAFAFA"/>
</svg>
