<svg width="24" height="24" viewBox="0 0 24 24" fill="none" xmlns="http://www.w3.org/2000/svg">
<g clip-path="url(#clip0_235_6411)">
<path d="M1.00854 14.8308C1.11413 14.3602 1.67877 13.9118 2.02411 13.5688L3.38181 12.2082C3.70368 11.8865 4.02553 11.5639 4.34599 11.241C4.7726 10.8111 5.17949 10.3075 5.719 10.0128C6.35324 9.66634 7.03537 9.40171 7.66333 9.04712C7.87959 8.92487 8.08675 8.79174 8.31013 8.68206L10.4706 7.64331C10.6158 7.57351 11.2772 7.28075 11.357 7.20329C11.8294 6.7756 12.2585 6.25508 12.73 5.83049C13.6314 5.02245 14.3766 4.08278 15.309 3.30517C15.7447 2.94188 16.1854 2.8551 16.65 3.26324C16.8471 3.43974 16.9644 3.68839 16.9754 3.9527C16.9819 4.09705 16.9317 4.37338 16.8413 4.48944C16.107 5.43221 15.1592 6.19735 14.3381 7.06084C14.1454 7.26348 13.9562 7.47348 13.768 7.68163C13.7172 7.73281 13.6027 7.84217 13.5644 7.89519C12.9218 8.50168 12.4799 8.93417 11.673 9.35101C11.4002 9.49192 10.7567 9.72585 10.5687 9.85653C10.4429 9.90041 8.92687 10.643 8.83886 10.717C8.49149 10.8648 8.07855 11.1667 7.70803 11.3275C7.33427 11.4897 6.93159 11.6955 6.57567 11.8921C6.44338 11.981 5.8214 12.538 5.74427 12.6496C5.56214 12.8448 5.31918 13.1287 5.1341 13.3049C4.63778 13.7776 4.23281 14.1223 3.8107 14.672C3.77622 14.7056 3.67139 14.8021 3.65357 14.8371C3.52221 14.958 3.43263 15.0493 3.31251 15.1816C2.72641 15.6853 2.20769 16.3895 1.38786 15.8263C1.35944 15.7928 1.2019 15.6597 1.14695 15.6003C1.09446 15.5103 1.06658 15.4385 1.02784 15.343C1.0312 15.1347 0.962959 15.1335 1.00854 14.8308Z" fill="black"/>
<path d="M13.5643 7.89514C13.6061 7.98899 13.5789 7.98594 13.5899 8.06241C13.7607 9.25431 13.6873 10.4503 13.6762 11.6539L13.6754 14.9581L13.6597 19.4282C13.6593 19.6779 13.7046 19.8762 13.6966 20.18C13.6283 20.6267 13.228 20.5144 13.1617 20.7923C13.1002 20.8233 13.0373 20.8125 12.9685 20.808C13.0174 20.7572 13.0272 20.8032 13.0976 20.76C12.8886 20.7239 12.1409 20.7333 11.9259 20.748C12.2289 20.8161 12.4253 20.8044 12.7329 20.8148C12.5026 20.8547 12.1037 20.8222 11.8728 20.7975C11.7497 20.6777 11.7284 20.6565 11.565 20.5951C11.4911 20.4853 11.2253 20.1412 11.1351 20.0575C11.0593 19.703 11.085 18.3675 11.085 17.9475L11.0873 12.2694L11.088 10.7349C11.088 10.463 11.1014 9.97297 11.0517 9.71977C10.9455 9.67937 10.7316 9.81645 10.5873 9.85206L10.5687 9.85649C10.7567 9.7258 11.4002 9.49187 11.673 9.35096C12.4799 8.93413 12.9218 8.50163 13.5643 7.89514ZM11.1562 19.8363C11.1908 19.6172 11.1762 19.064 11.1758 18.8164L11.1752 16.9672L11.1705 10.6267C11.1695 10.5377 11.175 10.3589 11.1439 10.2861C11.0757 11.8801 11.1198 13.7663 11.1196 15.3814L11.1197 18.1853C11.1198 18.457 11.0932 19.681 11.1562 19.8363Z" fill="black" fill-opacity="0.411765"/>
<path d="M11.144 10.2861C11.1751 10.359 11.1696 10.5378 11.1705 10.6268L11.1752 16.9673L11.1759 18.8165C11.1762 19.064 11.1909 19.6172 11.1563 19.8364C11.0933 19.6811 11.1198 18.457 11.1198 18.1853L11.1197 15.3814C11.1199 13.7663 11.0758 11.8801 11.144 10.2861Z" fill="black" fill-opacity="0.466667"/>
<path d="M5.74426 12.6496C5.8214 12.5379 6.44338 11.981 6.57566 11.892C6.93158 11.6954 7.33426 11.4897 7.70802 11.3275C8.07854 11.1667 8.49149 10.8647 8.83886 10.7169C8.78226 10.7747 8.67011 10.8575 8.64707 10.9097C8.75101 10.9174 8.7134 10.9018 8.79114 10.9644C8.82292 11.0382 8.81657 11.0942 8.81591 11.1746L8.77307 11.0864L8.75071 11.1009C8.73585 11.3147 8.74989 11.6299 8.75083 11.8555L8.75375 13.3228L8.75392 18.1204C8.75387 18.2706 8.73885 19.9138 8.76172 19.9644C8.79226 19.9114 8.79704 19.896 8.81467 19.8371C8.81474 19.9109 8.8243 20.0142 8.77883 20.0784C8.68569 20.2101 8.5378 20.5469 8.39523 20.6075C8.34022 20.6309 8.2277 20.6007 8.15593 20.6785C8.13934 20.7215 8.12406 20.759 8.10508 20.801C8.03518 20.8296 7.95936 20.8171 7.88272 20.8123C7.94643 20.7842 8.00293 20.782 8.07208 20.7734C8.00188 20.7126 7.19823 20.7486 7.05695 20.7586C7.30539 20.8169 7.52987 20.8096 7.78391 20.8153C7.57295 20.8559 7.06926 20.8178 6.85154 20.7931C6.70682 20.665 6.68985 20.6541 6.51411 20.5787C6.39714 20.3685 6.0999 20.1113 6.06236 19.8354C5.99748 19.3587 6.02828 18.7461 6.02847 18.2596L6.02732 14.8527C6.0276 14.5225 6.06418 12.671 5.96289 12.5195C5.89354 12.5202 5.80506 12.6029 5.74426 12.6496ZM8.63293 20.0341L8.66286 20.0616C8.74942 19.9953 8.7231 19.0448 8.72308 18.8813L8.72221 16.8622L8.72251 13.3271C8.72254 12.6639 8.72755 12.0002 8.71543 11.3372C8.71372 11.2433 8.71872 11.107 8.65522 11.0341C8.57312 11.0909 8.55386 11.1018 8.5382 11.2093C8.5262 11.2918 8.62161 11.3561 8.62382 11.4603C8.62956 11.7308 8.63514 12.0011 8.63718 12.2715L8.6405 13.9193L8.63884 18.0585C8.63802 18.709 8.61859 19.3885 8.63293 20.0341Z" fill="black" fill-opacity="0.411765"/>
<path d="M8.6553 11.0341C8.71879 11.1069 8.7138 11.2433 8.71551 11.3372C8.72763 12.0002 8.72261 12.6639 8.72259 13.327L8.72228 16.8621L8.72315 18.8812C8.72317 19.0447 8.74949 19.9952 8.66294 20.0616L8.63301 20.0341C8.61867 19.3884 8.6381 18.709 8.63892 18.0585L8.64058 13.9192L8.63725 12.2714C8.63521 12.001 8.62963 11.7308 8.62389 11.4603C8.62169 11.356 8.52627 11.2918 8.53827 11.2093C8.55393 11.1018 8.5732 11.0908 8.6553 11.0341Z" fill="black" fill-opacity="0.282353"/>
<path d="M19.8574 4.00964C21.2254 3.93359 22.3975 4.97752 22.4797 6.34507C22.5619 7.71263 21.5232 8.8894 20.156 8.97774C18.7801 9.06661 17.5942 8.01992 17.5115 6.64364C17.4288 5.26737 18.4808 4.08617 19.8574 4.00964Z" fill="black"/>
<path d="M3.31255 15.1815C3.4205 15.2193 3.50406 15.1706 3.55178 15.233C3.53012 15.2787 3.51353 15.2845 3.47057 15.3149L3.47591 15.3396L3.54339 15.3198C3.7266 15.5386 3.59922 19.4446 3.673 20.0896C3.60433 20.1928 3.54168 20.1334 3.53666 20.2092C3.59924 20.2712 3.60074 20.2528 3.6081 20.3238L3.58893 20.3677C3.48327 20.7066 3.40084 20.5382 3.1284 20.6722L3.16689 20.7648L3.1435 20.8027C3.06988 20.816 3.05701 20.8142 2.98328 20.8064L2.99975 20.7915C3.05235 20.7904 3.05462 20.7904 3.10281 20.7705L3.09477 20.7584C2.88552 20.725 2.18765 20.7314 1.98553 20.7593C2.22045 20.8072 2.43997 20.806 2.67918 20.8151C2.35698 20.8603 1.55195 20.8209 1.45089 20.4376L1.43818 20.3336L1.42577 20.3216C1.34019 20.2378 1.24396 20.0651 1.23963 19.9482C1.19523 18.7502 1.24012 17.5343 1.22176 16.3361C1.21675 16.2376 1.21647 16.1346 1.21472 16.0356L1.241 16.0013C1.24209 16.3938 1.25218 19.7595 1.28766 19.8402C1.34698 19.7711 1.29984 16.325 1.31184 16.0339C1.31328 15.9991 1.30492 15.9167 1.31747 15.8597L1.3879 15.8262C2.20773 16.3894 2.72645 15.6853 3.31255 15.1815Z" fill="black" fill-opacity="0.411765"/>
<path d="M13.7679 7.68152C13.6983 7.91407 13.813 7.80567 13.8276 7.97254L13.7422 7.93464L13.7114 7.95653C13.7199 8.08828 13.7646 8.17108 13.7815 8.30156C13.7963 8.41586 13.7742 8.81151 13.8049 8.89774L13.8089 17.0572L13.808 19.1321C13.8074 19.2724 13.7848 19.7905 13.8008 19.8747L13.8331 19.8874L13.8734 19.8438C13.8739 19.9335 13.8875 20.0461 13.8352 20.1135C13.78 20.1467 13.7567 20.1566 13.6965 20.1799C13.7046 19.8761 13.6593 19.6778 13.6597 19.4282L13.6754 14.9581L13.6762 11.6538C13.6873 10.4503 13.7607 9.25424 13.5899 8.06235C13.5789 7.98588 13.6061 7.98892 13.5643 7.89508C13.6027 7.84207 13.7172 7.73271 13.7679 7.68152Z" fill="black" fill-opacity="0.294118"/>
<path d="M13.805 8.89774C13.8381 8.73014 13.7829 8.42888 13.8226 8.28181L13.8659 8.27466C13.8972 8.7484 13.884 9.31158 13.884 9.79287L13.8835 12.2169L13.8734 19.8438L13.8331 19.8874L13.8009 19.8747C13.7849 19.7905 13.8074 19.2724 13.808 19.1321L13.8089 17.0572L13.805 8.89774Z" fill="black" fill-opacity="0.666667"/>
<path d="M1.26951 20.3237C1.242 20.1761 1.22844 19.9395 1.04817 19.9085C1.02129 19.9039 1.01303 19.8822 0.995544 19.8604C0.950201 19.6191 0.960964 19.173 0.960526 18.9108L0.959715 17.5022C0.95809 16.8464 0.961344 16.1906 0.969472 15.5348C0.971405 15.3396 0.914626 14.9756 1.0086 14.8307C0.963024 15.1334 1.03127 15.1346 1.0279 15.3429C1.01013 15.5764 0.988419 15.8154 0.986443 16.0491L0.983426 18.3869C0.983708 18.7003 0.96894 19.3867 1.01574 19.66C1.0886 19.5802 1.05425 16.5985 1.05082 16.2775C1.05976 16.1341 1.0071 15.728 1.09345 15.651L1.17909 15.7042C1.22253 15.7686 1.2531 15.9221 1.24102 16.0013L1.21475 16.0356C1.15616 15.908 1.13656 15.8247 1.10071 15.6902C1.08863 15.8808 1.0517 16.239 1.12128 16.4036L1.1624 16.4216C1.20358 16.3897 1.20335 16.3866 1.22178 16.3361C1.24014 17.5343 1.19525 18.7502 1.23965 19.9482C1.24398 20.0651 1.34021 20.2377 1.42579 20.3216L1.4382 20.3336L1.45091 20.4376C1.40799 20.4053 1.31887 20.3539 1.26951 20.3237Z" fill="black" fill-opacity="0.266667"/>
<path d="M3.3125 15.1815C3.43262 15.0492 3.52219 14.958 3.65356 14.837C3.59274 14.9607 3.5652 14.9643 3.62523 15.1027L3.68361 15.1156L3.74584 15.0368C3.71614 15.348 3.74759 16.0374 3.74973 16.377L3.75059 18.8574C3.75085 18.9963 3.73773 20.0706 3.77246 20.1249L3.81896 20.0985C3.83077 20.1828 3.6699 20.3409 3.58887 20.3677L3.60805 20.3238C3.60069 20.2528 3.59919 20.2713 3.53661 20.2093C3.54162 20.1334 3.60427 20.1928 3.67295 20.0896C3.59916 19.4446 3.72655 15.5387 3.54334 15.3198L3.47586 15.3396L3.47052 15.3149C3.51348 15.2846 3.53007 15.2787 3.55173 15.2331C3.50401 15.1706 3.42045 15.2194 3.3125 15.1815Z" fill="black" fill-opacity="0.286275"/>
<path d="M8.81477 19.8371C8.79714 19.896 8.79236 19.9114 8.76182 19.9644C8.73894 19.9139 8.75397 18.2706 8.75402 18.1204L8.75385 13.3228L8.75092 11.8555C8.74998 11.6299 8.73594 11.3147 8.7508 11.1009L8.77316 11.0864L8.81601 11.1746C8.83223 14.0621 8.8318 16.9496 8.81477 19.8371Z" fill="black" fill-opacity="0.705882"/>
<path d="M3.74584 15.0368L3.78034 14.9674L3.81761 14.9562L3.8545 14.9962C3.79391 15.3384 3.83277 16.206 3.83359 16.6052C3.84236 17.7697 3.83748 18.9342 3.81897 20.0985L3.77247 20.1249C3.73773 20.0706 3.75086 18.9963 3.7506 18.8574L3.74973 16.377C3.7476 16.0374 3.71615 15.348 3.74584 15.0368Z" fill="black" fill-opacity="0.635294"/>
<path d="M3.97292 15.2295C4.06428 15.3489 4.03296 19.2604 4.00114 19.6485L3.97414 19.6412C3.92916 19.1326 3.95182 18.3892 3.95032 17.8625C3.94786 16.9956 3.93872 16.0939 3.97292 15.2295Z" fill="black" fill-opacity="0.247059"/>
<path d="M0.986457 16.0492L1.02294 16.0402C1.04871 16.1148 1.0472 16.1979 1.05083 16.2776C1.05427 16.5986 1.08861 19.5802 1.01575 19.6601C0.968954 19.3867 0.983722 18.7004 0.98344 18.387L0.986457 16.0492Z" fill="black" fill-opacity="0.454902"/>
<path d="M1.14697 15.6002C1.20193 15.6596 1.35947 15.7927 1.38789 15.8262L1.31746 15.8597C1.3049 15.9166 1.31326 15.9991 1.31183 16.0339C1.29983 16.325 1.34696 19.7711 1.28765 19.8402C1.25217 19.7595 1.24208 16.3938 1.24098 16.0013C1.25306 15.9221 1.22249 15.7686 1.17905 15.7041L1.14697 15.6002Z" fill="black" fill-opacity="0.52549"/>
<path d="M3.65363 14.8371C3.67144 14.8021 3.77627 14.7056 3.81075 14.672C3.81347 14.8248 3.92897 14.8801 3.85456 14.9962L3.81766 14.9562L3.7804 14.9675L3.7459 15.0369L3.68367 15.1156L3.62529 15.1028C3.56527 14.9644 3.59281 14.9608 3.65363 14.8371Z" fill="black" fill-opacity="0.152941"/>
<path d="M1.1007 15.6902C1.13656 15.8247 1.15615 15.9081 1.21474 16.0356C1.21649 16.1346 1.21677 16.2376 1.22178 16.3361C1.20334 16.3866 1.20358 16.3897 1.16239 16.4216L1.12127 16.4036C1.0517 16.239 1.08863 15.8808 1.1007 15.6902Z" fill="black" fill-opacity="0.0901961"/>
<path d="M11.9259 20.7481C12.141 20.7333 12.8886 20.724 13.0977 20.7601C13.0272 20.8032 13.0175 20.7573 12.9686 20.808L12.7329 20.8148C12.4253 20.8044 12.2289 20.8162 11.9259 20.7481Z" fill="black" fill-opacity="0.537255"/>
<path d="M1.98547 20.7594C2.18758 20.7315 2.88546 20.725 3.09471 20.7585L3.10275 20.7706C3.05456 20.7904 3.05229 20.7905 2.99969 20.7916L2.98322 20.8064C2.88626 20.8134 2.77725 20.8132 2.67912 20.8152C2.43991 20.806 2.22039 20.8073 1.98547 20.7594Z" fill="black" fill-opacity="0.54902"/>
<path d="M7.05701 20.7585C7.19829 20.7486 8.00194 20.7126 8.07213 20.7734C8.00299 20.782 7.94648 20.7842 7.88278 20.8123L7.78397 20.8153C7.52993 20.8096 7.30544 20.8169 7.05701 20.7585Z" fill="black" fill-opacity="0.580392"/>
<path d="M1.02791 15.343C1.06665 15.4385 1.09453 15.5103 1.14702 15.6003L1.17909 15.7043L1.09346 15.6511C1.00711 15.7281 1.05977 16.1342 1.05083 16.2776C1.04719 16.198 1.0487 16.1149 1.02294 16.0402L0.98645 16.0492C0.988426 15.8155 1.01013 15.5765 1.02791 15.343Z" fill="black" fill-opacity="0.352941"/>
<path d="M13.805 8.89779C13.7743 8.81156 13.7964 8.41591 13.7816 8.30161C13.7647 8.17113 13.72 8.08832 13.7115 7.95658L13.7423 7.93469L13.8277 7.97259C13.8356 8.09236 13.8418 8.15756 13.8659 8.2747L13.8226 8.28185C13.7829 8.42892 13.8381 8.73018 13.805 8.89779Z" fill="black" fill-opacity="0.545098"/>
<path d="M16.0491 12.7763C16.08 11.869 16.5222 11.1079 17.2304 10.5549C18.0448 9.91907 18.9563 10.0483 19.8908 10.0194C21.3192 9.97527 22.6497 9.99161 23.4943 11.3515C23.6546 11.6094 23.8156 11.9912 23.9883 12.2194L24.0001 12.2347V18.0107C23.8423 18.1362 23.7078 18.3636 23.5587 18.514C23.3877 18.6865 23.0658 18.8348 23.0512 19.0845C23.0243 19.5427 23.0595 19.8858 22.9153 20.3333C22.7503 20.414 22.8377 20.3234 22.7326 20.3647C22.7172 20.4195 22.707 20.4683 22.6952 20.5236C22.5965 20.6167 22.3184 20.8401 22.1823 20.8426C20.4471 20.8734 21.5874 19.0305 20.8186 18.2266C20.5008 17.8944 19.998 17.959 19.5705 17.9859L19.6118 18.0036C19.5804 18.0465 19.5875 18.0337 19.5277 18.0553L19.4937 18.0342L19.4204 18.0576C19.4031 18.1192 19.3991 18.1578 19.3473 18.1968L19.3282 18.1402C19.2642 18.1451 18.9492 18.4982 18.9492 18.5711C18.9491 19.0633 18.9003 19.6334 18.9394 20.1191C18.9363 20.2488 18.9105 20.3404 18.8566 20.4597C18.8084 20.4264 18.8202 20.4228 18.7755 20.4271C18.7438 20.4867 18.7147 20.534 18.6791 20.5909C18.4228 20.7254 18.179 20.8687 17.8847 20.8191C17.4766 20.7503 17.4731 20.6507 17.2737 20.3956C17.2592 20.4133 17.2473 20.4274 17.2316 20.4441C17.1881 20.3459 17.103 20.1833 17.0395 20.098C17.0069 19.9862 16.9977 19.1829 16.951 18.8906C16.3391 18.6245 16.0967 18.1793 16.0278 17.5465C16.0552 17.4337 16.0433 16.33 16.043 16.1553L16.0491 12.7763Z" fill="black"/>
<path d="M18.9394 20.1191C18.9003 19.6334 18.949 19.0633 18.9492 18.5711C18.9492 18.4982 19.2642 18.1451 19.3282 18.1402L19.3473 18.1968C19.3991 18.1578 19.4031 18.1192 19.4203 18.0576L19.4937 18.0342L19.5277 18.0553C19.5874 18.0337 19.5804 18.0465 19.6118 18.0036L19.5705 17.9859C19.998 17.959 20.5008 17.8944 20.8185 18.2266C21.5874 19.0305 20.4471 20.8734 22.1822 20.8426C22.3184 20.8401 22.5965 20.6167 22.6952 20.5236C22.7069 20.4683 22.7171 20.4195 22.7325 20.3647C22.8377 20.3234 22.7503 20.414 22.9153 20.3333C22.7542 20.7997 22.1623 21.1618 21.6744 20.9484C21.2701 20.7715 21.1955 20.5916 21.0281 20.2244C21.025 20.02 21.0759 19.9969 21.0956 19.8223C21.0668 19.4518 21.156 19.3458 20.9905 18.9652C21.0005 19.1836 21.0236 19.5779 20.9842 19.777C20.9231 19.8406 21.0117 19.7962 20.9252 19.9025C20.8988 19.6389 20.908 19.3649 20.949 19.1042C21.1031 18.1241 19.8006 17.6685 19.2241 18.397C18.8439 18.8774 19.0172 19.555 18.9394 20.1191Z" fill="black" fill-opacity="0.886275"/>
<path d="M15.9258 12.7669L15.9776 12.755L16.0166 12.7881L16.049 12.7764L16.043 16.1553C16.0433 16.3301 16.0551 17.4338 16.0278 17.5466C15.983 17.507 15.9326 17.3459 15.9309 17.2776L15.9367 17.2459C16.0409 16.8584 15.9547 13.3133 15.9258 12.7669Z" fill="black" fill-opacity="0.0666667"/>
<path d="M17.0394 20.098C17.103 20.1832 17.188 20.3459 17.2315 20.444C17.2473 20.4273 17.2591 20.4133 17.2737 20.3956C17.473 20.6507 17.4766 20.7503 17.8846 20.8191C18.1789 20.8687 18.4227 20.7254 18.679 20.5909C18.7147 20.5339 18.7437 20.4867 18.7754 20.4271C18.8202 20.4228 18.8083 20.4264 18.8565 20.4597C18.7897 20.5768 18.6928 20.657 18.5992 20.7497C18.1484 21.1965 17.4762 21.0236 17.1602 20.5127C17.0556 20.3435 17.0609 20.2911 17.0394 20.098Z" fill="black" fill-opacity="0.917647"/>
<path d="M15.8972 17.2723L15.8861 17.2795C15.8659 17.2211 15.8706 17.157 15.8705 17.095C15.8701 15.7676 15.8598 14.4395 15.8726 13.1121C15.8735 13.0238 15.888 12.8436 15.9257 12.7668C15.9546 13.3132 16.0408 16.8584 15.9366 17.2459C15.9203 16.9173 15.9348 16.4881 15.9361 16.1531L15.938 14.2631C15.938 13.9651 15.9504 13.5129 15.9267 13.2263L15.9135 13.2167L15.9128 13.1679C15.9155 13.1934 15.9223 13.2134 15.9114 13.2361C15.8345 13.3952 15.9279 16.7996 15.8972 17.2723Z" fill="black" fill-opacity="0.282353"/>
<path d="M15.8973 17.2723C15.9279 16.7996 15.8346 13.3952 15.9114 13.2361C15.9224 13.2134 15.9155 13.1934 15.9128 13.1678L15.9135 13.2167L15.9268 13.2263C15.9505 13.5129 15.938 13.9651 15.938 14.2631L15.9361 16.1531C15.9348 16.4881 15.9203 16.9173 15.9366 17.2459L15.9309 17.2776L15.8973 17.2723Z" fill="black" fill-opacity="0.439216"/>
<path d="M20.9905 18.9652C21.156 19.3458 21.0668 19.4518 21.0957 19.8223C21.0705 19.8551 21.0732 19.8538 21.0346 19.868L20.9843 19.777C21.0236 19.578 21.0006 19.1836 20.9905 18.9652Z" fill="black" fill-opacity="0.184314"/>
<path d="M20.9843 19.777L21.0346 19.8679C21.0732 19.8538 21.0705 19.855 21.0957 19.8223C21.076 19.9969 21.0251 20.0199 21.0282 20.2244C20.9875 20.1776 20.9198 19.967 20.9252 19.9025C21.0117 19.7961 20.9231 19.8406 20.9843 19.777Z" fill="black" fill-opacity="0.568627"/>
</g>
<defs>
<clipPath id="clip0_235_6411">
<rect width="24" height="24" fill="white"/>
</clipPath>
</defs>
</svg>
