<svg width="24" height="24" viewBox="0 0 24 24" fill="none" xmlns="http://www.w3.org/2000/svg">
<path d="M7.51173 12.5397C7.64019 12.4708 7.71015 12.1114 8.03293 12.0424L8.06635 12.0608L8.06303 12.0906L7.99743 12.1295C8.06139 12.4674 8.11616 12.5631 8.39696 12.7743C8.66486 12.9757 9.00275 12.9833 9.29464 12.9336C9.7329 12.8591 9.95277 12.3396 10.1755 12.0826C10.3274 11.9074 10.7558 12.7411 10.8134 12.9135C10.8968 13.0901 11.0385 13.309 11.0958 13.4376C11.0997 13.4441 11.1035 13.4507 11.1073 13.4572C11.2702 13.7254 11.5321 13.9187 11.8364 13.9953C12.0583 14.0496 12.2739 13.995 12.4646 13.8754C12.5885 13.7971 12.6975 13.6974 12.7865 13.5809C12.9359 13.3887 13.4442 12.4154 13.4925 12.2003C13.5852 12.1645 13.6565 12.1291 13.7455 12.0847C14.0402 12.3401 14.2507 12.8141 14.6643 12.9175C15.0543 13.0151 15.4768 12.9734 15.7407 12.6418C15.8841 12.4617 15.8486 12.4516 15.9096 12.2486C15.9753 12.2505 15.9876 12.2528 16.0442 12.221C16.0918 12.1528 16.0872 12.1235 16.0905 12.0405C16.1831 12.1331 16.2538 12.2434 16.3324 12.3221C16.5343 12.5946 16.723 12.9128 16.9261 13.1708C17.5369 13.947 18.028 14.8089 18.5927 15.6089L20.1171 17.7821C20.5308 18.3729 21.1224 19.0675 21.1783 19.7904C21.2358 20.5345 20.8817 21.2171 20.288 21.6564C19.7327 22.0673 18.793 21.991 18.1211 21.9911L16.5071 21.9909L11.2374 21.9903L6.7776 22.0191C6.00116 22.0189 5.18242 22.0434 4.43321 21.9507C3.36446 21.8254 2.61955 20.5934 2.84471 19.5732C2.96741 19.0174 3.53624 18.3458 3.84934 17.8687C4.36487 17.0833 4.89835 16.3189 5.45528 15.5631C5.87823 14.9891 6.22199 14.331 6.66259 13.7608C6.92814 13.3787 7.27928 12.936 7.51173 12.5397Z" fill="black"/>
<path d="M10.5871 8.6814C10.7368 8.65691 10.9746 8.66495 10.9848 8.4864C11.0108 8.03174 11.0037 7.57089 11.0049 7.11472L11.0041 4.1027C11.0035 3.84929 10.9814 2.95628 11.0516 2.77234C11.0655 2.872 11.0312 3.59539 11.0335 3.77218C11.0429 4.79804 11.0444 5.82397 11.0381 6.84985C11.0359 7.31024 11.004 8.05119 11.0446 8.486C11.3481 8.41072 11.8895 8.36495 12.1991 8.38405C12.4381 8.39877 12.6869 8.44009 12.9337 8.44663C12.9312 8.52144 12.9202 8.67871 12.9727 8.73013C13.1207 8.87509 13.5644 8.93284 13.7594 8.94458C13.8967 8.9923 13.8363 9.01159 13.9298 9.10293C14.1224 9.29085 14.294 9.47232 14.4464 9.69533L14.4462 9.73543L14.3865 9.78634L14.3983 9.81969C14.478 9.84299 14.6134 9.86483 14.6237 9.96322C14.6453 10.1689 14.9272 10.2916 15.0329 10.46C15.0719 10.5222 15.099 10.6957 15.137 10.7664C15.2405 10.8275 15.3467 10.7882 15.3284 10.9492L15.2943 10.9682C15.2932 11.0566 15.3056 11.2343 15.3581 11.3067C15.421 11.3554 15.4394 11.359 15.5123 11.3814L15.5244 11.4146L15.4294 11.4331L15.4165 11.4623C15.4875 11.571 15.5389 11.5098 15.6047 11.6012L15.5813 11.6676C15.649 11.7535 15.8047 11.9892 15.9104 11.987C15.9687 11.9858 16.0486 11.9901 16.0905 12.0405C16.0871 12.1235 16.0918 12.1528 16.0442 12.221C15.9876 12.2528 15.9753 12.2505 15.9096 12.2486C15.8486 12.4516 15.8841 12.4616 15.7407 12.6418C15.4768 12.9734 15.0543 13.0151 14.6643 12.9175C14.2507 12.8141 14.0402 12.34 13.7455 12.0847C13.6564 12.1291 13.5851 12.1645 13.4925 12.2003C13.4441 12.4154 12.9359 13.3887 12.7864 13.5809C12.6975 13.6974 12.5885 13.7971 12.4646 13.8754C12.2738 13.9949 12.0583 14.0496 11.8364 13.9953C11.5321 13.9187 11.2702 13.7254 11.1073 13.4572C11.1035 13.4507 11.0996 13.4441 11.0958 13.4376C11.0994 13.2795 11.1339 13.0419 11.0014 12.9433C10.9284 12.9386 10.8845 12.9285 10.8134 12.9135C10.7558 12.7411 10.3274 11.9073 10.1755 12.0826C9.95276 12.3395 9.73289 12.8591 9.29463 12.9336C9.00274 12.9833 8.66484 12.9756 8.39695 12.7742C8.11615 12.5631 8.06137 12.4674 7.99741 12.1295L8.06301 12.0906L8.06634 12.0608L8.03292 12.0424C7.71014 12.1114 7.64018 12.4708 7.51172 12.5397C7.51481 12.5157 7.71703 12.1594 7.74663 12.103C7.75605 12.0977 7.76545 12.0924 7.7748 12.0869C8.07591 11.912 8.60819 11.163 8.69316 10.8399C8.84834 10.7706 8.86071 10.7599 8.90894 10.5975C8.95308 10.6013 9.12668 10.63 9.14466 10.5879C9.20529 10.4479 9.28099 10.3317 9.3922 10.2272C9.46207 10.1616 9.43134 9.95417 9.42698 9.85714C9.56843 9.79187 9.71923 9.50075 9.82167 9.35807C10.0313 9.06608 10.0482 9.33303 10.1672 8.95677L10.4466 8.86363L10.5871 8.6814Z" fill="black" fill-opacity="0.411765"/>
<path d="M11.0516 2.77231C11.18 2.66921 11.3446 2.3384 11.5088 2.26824C12.0264 2.04714 12.6708 2.22534 13.2326 2.18112C13.6212 2.27616 14.0975 2.51171 14.4568 2.69858C15.2006 3.08537 15.9397 3.47521 16.6967 3.83673C16.8754 3.92204 17.0938 4.07919 17.2153 4.23256C17.3839 4.4454 17.4043 4.88174 17.3366 5.13924C17.1716 5.7676 16.2765 5.93443 15.7636 6.10009L14.2242 6.59717C13.8594 6.71539 13.3603 6.93132 12.9907 6.99751C12.9605 7.37746 12.956 7.71561 12.9604 8.09809C12.9502 8.21417 12.9391 8.33021 12.9337 8.4466C12.6869 8.44006 12.4382 8.39874 12.1992 8.38403C11.8895 8.36492 11.3482 8.4107 11.0446 8.48598C11.0041 8.05117 11.036 7.31021 11.0382 6.84983C11.0445 5.82395 11.0429 4.79802 11.0335 3.77216C11.0313 3.59537 11.0655 2.87197 11.0516 2.77231Z" fill="black"/>
<path d="M11.0516 2.77233C11.0592 2.71978 11.0718 2.6681 11.0893 2.61797C11.3816 1.79095 12.5826 1.9555 13.2326 2.18113C12.6709 2.22535 12.0264 2.04715 11.5088 2.26825C11.3446 2.33841 11.18 2.66923 11.0516 2.77233Z" fill="black" fill-opacity="0.921569"/>
<path d="M16.0905 12.0405C16.0486 11.9901 15.9687 11.9858 15.9104 11.987C15.8047 11.9892 15.649 11.7535 15.5813 11.6676L15.6047 11.6012C15.5389 11.5098 15.4874 11.5709 15.4165 11.4623L15.4294 11.433L15.5244 11.4145L15.5123 11.3814C15.4394 11.359 15.421 11.3554 15.358 11.3067C15.3056 11.2342 15.2932 11.0566 15.2943 10.9682L15.3284 10.9492C15.3695 11.0383 15.6004 11.3125 15.6184 11.3892C15.6555 11.5475 15.5292 11.4251 15.7165 11.5528C15.8881 11.6698 16.2698 12.1411 16.3324 12.322C16.2538 12.2434 16.1831 12.133 16.0905 12.0405Z" fill="black" fill-opacity="0.34902"/>
<path d="M12.9338 8.44654C12.9392 8.33015 12.9503 8.21411 12.9605 8.09802C12.9676 8.19447 12.96 8.48582 12.9817 8.53691C13.0381 8.55864 13.0662 8.54891 13.1262 8.54043C13.2501 8.61219 13.3729 8.68546 13.5008 8.74975C13.6047 8.80197 13.6587 8.88046 13.7595 8.94449C13.5645 8.93275 13.1208 8.875 12.9729 8.73004C12.9204 8.67862 12.9313 8.52135 12.9338 8.44654Z" fill="black" fill-opacity="0.337255"/>
<path d="M8.90894 10.5974C9.01326 10.4111 9.35291 10.1185 9.42697 9.85706C9.43133 9.95409 9.46206 10.1615 9.39219 10.2271C9.28098 10.3316 9.20528 10.4478 9.14465 10.5878C9.12667 10.63 8.95307 10.6012 8.90894 10.5974Z" fill="black" fill-opacity="0.364706"/>
<path d="M10.8135 12.9135C10.8846 12.9285 10.9285 12.9386 11.0015 12.9433C11.134 13.0419 11.0995 13.2795 11.0959 13.4375C11.0385 13.309 10.8968 13.09 10.8135 12.9135Z" fill="black" fill-opacity="0.486275"/>
</svg>
