<svg width="24" height="24" viewBox="0 0 24 24" fill="none" xmlns="http://www.w3.org/2000/svg">
<g clip-path="url(#clip0_710_12594)">
<path d="M20.8728 1.00254C21.4137 0.935542 21.9084 1.31479 21.9842 1.85459C22.06 2.39439 21.6888 2.8952 21.1503 2.97972C20.7941 3.03564 20.4355 2.89518 20.212 2.61222C19.9885 2.32925 19.935 1.94778 20.0719 1.61423C20.2088 1.28068 20.5149 1.04687 20.8728 1.00254Z" fill="black"/>
<path d="M20.9207 15.0111C21.4665 14.9701 21.9429 15.3778 21.9868 15.9234C22.0306 16.469 21.6254 16.9475 21.0801 16.9942C20.5307 17.0412 20.0479 16.6324 20.0037 16.0828C19.9596 15.5331 20.3709 15.0525 20.9207 15.0111Z" fill="black"/>
<path d="M2.9207 15.0111C3.46651 14.9701 3.94293 15.3778 3.98678 15.9234C4.03063 16.469 3.62544 16.9475 3.0801 16.9941C2.53072 17.0412 2.04792 16.6324 2.00374 16.0828C1.95956 15.5331 2.37086 15.0525 2.9207 15.0111Z" fill="black"/>
<path d="M11.2541 0.986131C11.7129 0.981779 12.1718 0.981838 12.6306 0.986305C12.7266 1.00218 12.8093 1.01785 12.9073 1.02026C12.7755 1.07874 11.2773 1.06581 11.0659 1.03668C11.1102 0.999976 11.1884 0.997831 11.2541 0.986131Z" fill="black" fill-opacity="0.607843"/>
<path d="M12.5336 1.08318C12.2615 1.08315 10.9819 1.09842 10.7832 1.04613L10.7964 1.03186C10.9798 0.969763 11.0637 0.978967 11.2539 0.985985C11.1882 0.997685 11.11 0.999829 11.0657 1.03653C11.277 1.06566 12.7753 1.07859 12.907 1.02011L12.964 1.02801L12.9559 1.05806C12.8113 1.08631 12.6804 1.0789 12.5336 1.08318Z" fill="black" fill-opacity="0.270588"/>
<path d="M12.6305 0.986335C12.7747 0.979491 13.009 0.979044 13.1458 1.02252L13.1741 1.05356C13.0881 1.12871 12.8412 1.10757 12.7264 1.10013C12.6621 1.09575 12.5978 1.09016 12.5337 1.08336C12.6806 1.07908 12.8114 1.08648 12.956 1.05824L12.9641 1.02819L12.9071 1.02029C12.8092 1.01788 12.7265 1.00221 12.6305 0.986335Z" fill="black" fill-opacity="0.164706"/>
<path d="M9.67073 1.49779C9.78656 1.48375 9.8913 1.48095 9.96809 1.3946C9.9574 1.3634 9.94606 1.33244 9.93406 1.30172C10.1353 1.22114 10.6575 1.23261 10.8873 1.24356C10.7531 1.25713 10.4726 1.26508 10.371 1.28244C10.4432 1.32656 13.3206 1.32301 13.577 1.28894C13.4361 1.27171 13.1381 1.26366 13.0423 1.24458C13.2336 1.23764 13.9069 1.21484 14.0742 1.33751C14.0887 1.34815 14.1274 1.42317 14.1383 1.44494C14.2741 1.51126 14.5887 1.4967 14.7738 1.56167L14.7779 1.58926L14.7197 1.64721C14.8135 1.70268 15.0981 1.71848 15.2206 1.7309L15.2256 1.77767C15.1608 1.81405 14.6835 1.79235 14.5315 1.81069C14.7503 1.91121 14.8994 1.88429 15.1304 1.90853C15.3313 1.92961 15.4577 1.98468 15.6658 1.97793C15.7636 1.98528 16.1814 2.24799 16.2983 2.31863C16.3592 2.35539 16.304 2.39092 16.4682 2.44802L16.5079 2.50192C16.4841 2.54176 16.4798 2.54753 16.4492 2.58241C16.5666 2.72371 16.6684 2.60732 16.7868 2.69453C16.7891 2.73796 16.7867 2.73824 16.7729 2.77757C16.8952 2.92183 17.0123 2.86684 17.0919 2.95476L17.0865 2.96364C17.0641 3.00184 17.0626 3.00618 17.0508 3.04839C17.1114 3.14664 17.2381 3.14664 17.3088 3.24902C17.2856 3.29971 17.2858 3.28068 17.2952 3.32931C17.4392 3.42667 17.4933 3.3682 17.5133 3.54684L17.5718 3.60369L17.6522 3.59345C17.771 3.74462 17.6484 3.84517 17.9271 3.90004C17.9356 3.90173 17.9821 4.06148 17.9829 4.08166C18.0326 4.17212 18.1366 4.10472 18.1708 4.1833L18.0931 4.23948L18.0872 4.27656C18.1718 4.3679 18.3124 4.35046 18.4264 4.33511C18.4435 4.37322 18.495 4.51715 18.4993 4.52315C18.5592 4.60869 18.7583 4.79031 18.7931 4.8748C18.7556 4.92681 18.7405 4.94577 18.7157 5.0065C18.7781 5.10859 18.8758 5.04245 18.9021 5.11314C18.9525 5.24816 18.8907 5.27709 19.0114 5.40259L18.962 5.47276C19.0199 5.59769 19.1482 5.47844 19.1773 5.56216C19.2288 5.71028 19.1714 5.75012 19.3004 5.87474L19.2508 5.94257C19.3003 6.02383 19.3612 5.99528 19.3708 6.01623C19.4232 6.13115 19.4582 6.32936 19.5047 6.44692C19.5627 6.48309 19.6133 6.51203 19.6255 6.58279C19.6614 6.79209 19.6716 7.02679 19.686 7.23906C19.6714 7.59081 19.6954 8.0013 19.6979 8.35959C19.7066 9.09705 19.7043 9.8346 19.691 10.572C19.6825 10.751 19.6701 11.1429 19.6399 11.3008C19.6249 11.2843 19.6068 11.2644 19.5855 11.2411C19.5643 11.0113 19.5276 10.6589 19.5209 10.4401C19.5145 10.4519 19.4551 11.4992 19.4443 11.6144C19.4395 11.9767 19.3249 11.9678 19.2356 12.1586L19.2004 12.1006L19.1672 12.1066C19.1319 12.187 19.1112 12.3227 19.1486 12.4033L19.1858 12.3958C19.1623 12.5564 19.1406 12.4745 19.0041 12.5699L18.9281 12.7202L18.8981 12.6844L18.863 12.6991C18.8307 12.7889 18.8293 12.8006 18.84 12.8955L18.8855 12.9102C18.862 12.926 18.7994 12.9571 18.7849 12.9777C18.7184 13.0721 18.6791 13.215 18.6185 13.3198C18.5175 13.4941 17.9588 14.2992 17.8354 14.3489C17.6596 14.4195 17.6034 14.6768 17.4579 14.7824C17.3898 14.8318 17.2881 14.8096 17.2511 14.9023C17.2501 14.9047 17.2414 14.9415 17.2411 14.9428C17.2139 15.0409 17.0561 15.153 16.9814 15.2255L16.9697 15.2105C16.953 15.1894 16.9399 15.1763 16.921 15.1572C16.8091 15.2079 16.5822 15.4881 16.5524 15.6229C16.5 15.8602 16.4175 16.0872 16.3389 16.3164C16.2909 16.4524 16.2903 16.6781 16.2774 16.824C16.1529 16.7313 16.1882 16.2607 16.1222 16.1316C16.089 16.196 16.127 16.2141 16.1282 16.2835C16.1346 16.6803 16.1121 17.1372 16.0345 17.5229C16.0189 17.4602 16.0306 17.4597 15.9911 17.4353C15.952 17.5186 15.957 17.5713 15.9552 17.6631L15.9767 17.7076C16.0077 17.6887 16.0033 17.6966 16.0236 17.6695L16.0338 17.7078L16.0318 17.7268C16.0033 17.7898 15.9856 17.8259 15.9682 17.8944C15.87 17.894 15.6683 17.8672 15.6004 17.9324C15.6536 17.9737 15.7222 17.9827 15.7885 17.9974C13.2823 17.9674 10.7681 17.9983 8.26132 17.9944C8.20198 17.9943 8.13019 17.9985 8.07309 18.0138C8.03791 18.0805 8.06538 18.229 8.07049 18.3184C7.91777 17.9912 8.00205 17.8162 7.91709 17.4737C7.87315 17.2966 7.7682 17.2 7.73135 17.0229C7.7033 16.8879 7.70529 16.4846 7.66877 16.3817C7.5829 16.1397 7.48399 16.1004 7.48758 15.79C7.49156 15.4446 7.08309 15.295 6.85697 15.093C6.71313 14.9645 6.5727 14.8029 6.42959 14.6641C5.61052 13.8692 4.94904 12.7978 4.54242 11.7332C4.45549 11.5056 4.37597 11.4896 4.35673 11.2482L4.38738 11.2402C4.44935 11.1437 4.41841 10.5078 4.4104 10.3588C4.42359 10.2749 4.43166 10.3019 4.39296 10.2478L4.35253 10.2661L4.32708 10.3413C4.30835 10.3053 4.30083 10.3038 4.26881 10.2796L4.18284 10.3329L4.12289 10.3174C4.13398 10.2221 4.13252 10.0919 4.13433 9.99337C4.08412 9.96677 4.03526 9.93768 3.98794 9.90623C3.67383 9.70009 3.53238 9.31087 3.45996 8.95391C3.73512 9.36766 3.63492 9.88579 4.35455 10.0041C4.90521 10.0946 5.67933 10.0689 6.17491 9.80568C6.2742 9.62059 6.38662 9.40736 6.4515 9.20636C6.46493 9.30201 6.44803 9.28574 6.50538 9.34509C6.65632 9.33913 6.72145 9.03062 6.62362 8.89792L6.55247 8.90941C6.61629 8.78491 6.66143 8.73616 6.77081 8.65267C6.74414 8.7029 6.73976 8.71 6.72637 8.7647C6.84766 8.82405 7.06484 8.68152 7.12252 8.57889L7.10243 8.52388L7.02187 8.49358C7.66929 8.18694 7.99969 8.53173 8.60018 8.37452C8.63337 8.36582 8.76326 8.23007 8.82954 8.18336L8.84496 8.17262L8.8478 8.23359C8.90726 8.26881 8.88 8.26131 8.95303 8.25805C9.06715 8.17506 9.07598 8.13604 9.10924 8.00045L9.04188 7.94987C9.13144 7.85282 9.33469 7.53231 9.39722 7.41444C9.38123 7.49774 9.35906 7.55425 9.43559 7.60825C9.54183 7.55741 9.58284 7.38913 9.56723 7.27923C9.51696 7.22828 9.54277 7.24054 9.46973 7.23435C10.0974 5.78952 9.18033 6.22246 9.03377 4.96077C9.00495 4.71257 9.39553 4.04666 9.59168 3.86448C9.61092 3.94609 9.59405 3.92123 9.64852 3.96984C9.68456 3.96259 9.68264 3.9602 9.71623 3.94333C9.75633 3.84205 9.80084 3.62205 9.72185 3.54273C9.6634 2.94604 9.17672 1.90264 8.59416 1.6535C8.68123 1.66418 8.81264 1.70103 8.90114 1.72294C9.19045 1.64777 9.29892 1.51388 9.56857 1.49644L9.46221 1.53676L9.44763 1.57049C9.54663 1.61114 9.89283 1.59514 9.9844 1.54021C9.88762 1.49547 9.77817 1.50456 9.67073 1.49779ZM13.5409 1.39469C13.635 1.39289 13.7331 1.39254 13.8266 1.38839C13.645 1.30142 10.8935 1.32674 10.511 1.34711C10.4514 1.35736 10.2113 1.38167 10.1895 1.38925C11.3177 1.39269 12.3907 1.46881 13.5409 1.39469Z" fill="black" fill-opacity="0.407843"/>
<path d="M10.511 1.34723C10.8935 1.32686 13.645 1.30155 13.8266 1.38851C13.733 1.39266 13.6349 1.39302 13.5409 1.39481C12.3906 1.46893 11.3177 1.39281 10.1895 1.38938C10.2112 1.38179 10.4514 1.35749 10.511 1.34723Z" fill="black" fill-opacity="0.156863"/>
<path d="M4.0718 0H5.92381C6.0255 0.165685 6.20417 0.220748 6.26984 0.366792C6.55573 1.00242 6.49306 1.39167 7.28398 1.63435C7.70035 1.76211 8.30796 1.51847 8.59388 1.65358C9.17644 1.90272 9.66312 2.94612 9.72157 3.54281C9.69033 3.6349 9.6458 3.79092 9.5914 3.86456C9.39525 4.04674 9.00467 4.71265 9.03349 4.96085C9.18005 6.22254 10.0971 5.7896 9.46945 7.23443L9.39694 7.41452C9.33441 7.53239 9.13116 7.8529 9.0416 7.94995L8.84468 8.1727L8.82926 8.18344C8.76298 8.23015 8.63309 8.3659 8.5999 8.37459C7.99941 8.53181 7.66901 8.18702 7.0216 8.49366C6.93136 8.54548 6.85322 8.58802 6.77053 8.65275C6.66115 8.73623 6.61601 8.78498 6.55219 8.90948L6.45122 9.20644C6.38635 9.40744 6.27392 9.62067 6.17463 9.80576C5.67905 10.0689 4.90493 10.0946 4.35427 10.0042C3.63464 9.88587 3.73484 9.36773 3.45968 8.95399C3.40017 8.80533 3.30185 8.67539 3.17496 8.57773C2.80191 8.29467 2.3174 8.35038 1.89266 8.4203C1.0809 8.55394 0.406204 7.22726 0.312658 6.5838C0.2259 5.98706 0.854277 5.86355 0.935669 5.20275C1.04736 4.29595 0.508181 4.28623 0.3052 3.55498C0.209727 3.15326 0.804531 2.22562 1.04836 1.9368C1.61328 1.206 2.38003 2.00265 3.09108 1.4803C3.52953 1.1582 3.48572 0.861155 3.70634 0.41362C3.78281 0.258466 3.96835 0.133691 4.0718 0ZM3.10456 4.56881C2.74402 5.08655 2.97106 5.36149 3.21026 5.87088C3.2516 5.95891 3.31388 6.03033 3.39124 6.08798C3.9079 6.85003 4.88853 7.14471 5.73966 6.79371C6.59079 6.44269 7.07862 5.54241 6.90788 4.6377C6.73716 3.73301 5.95477 3.07242 5.03424 3.05573C4.11373 3.03907 3.30795 3.6709 3.10456 4.56881Z" fill="black"/>
<path d="M3.10464 4.56882C3.30803 3.67091 4.11381 3.03908 5.03432 3.05574C5.95485 3.07243 6.73724 3.73302 6.90796 4.6377C7.0787 5.54241 6.59087 6.44269 5.73974 6.79372C4.88861 7.14472 3.90798 6.85004 3.39132 6.08799C3.08968 5.64308 2.9859 5.09307 3.10464 4.56882Z" fill="black" fill-opacity="0.415686"/>
<path d="M3.39126 6.08802C3.31389 6.03036 3.25162 5.95895 3.21027 5.87092C2.97107 5.36153 2.74403 5.08658 3.10457 4.56885C2.98584 5.0931 3.08962 5.64311 3.39126 6.08802Z" fill="black" fill-opacity="0.831373"/>
<path d="M8.0702 18.3187C8.0651 18.2293 8.03763 18.0807 8.07281 18.0141C8.1299 17.9987 8.20169 17.9946 8.26103 17.9947C10.7679 17.9985 13.282 17.9676 15.7882 17.9976C15.8817 18.0135 15.9082 18.0027 15.9733 18.054C15.9878 18.1523 15.9509 18.1785 15.9403 18.2608C15.6575 19.5555 15.4673 20.7713 14.2503 21.551C13.2542 22.1892 11.6954 22.0496 10.5673 21.8975C9.89111 21.8064 9.10617 21.1232 8.75915 20.5661C8.42981 20.0314 8.18971 18.9564 8.0702 18.3187Z" fill="black"/>
<path d="M24 9.43915C23.611 9.7132 23.7141 9.89449 23.1234 9.97978C21.7639 10.1761 21.6273 8.07935 22.9001 8.01082C23.4532 7.98106 23.6286 8.21824 24 8.544V9.43915Z" fill="black"/>
<path d="M16.4682 2.44824C16.5505 2.46238 16.5387 2.44824 16.5943 2.4972C16.6383 2.73022 16.8457 2.6064 16.9693 2.7088C17.1135 2.82819 17.0157 2.85779 17.2354 2.95074C17.315 3.11626 17.5423 3.3729 17.7158 3.4351C17.8209 3.62602 17.9957 3.75648 18.1328 3.92434C18.203 4.0103 18.2511 4.09709 18.3244 4.18278L18.2612 4.2643C18.2991 4.31204 18.3632 4.31872 18.4264 4.33534C18.3124 4.35069 18.1718 4.36812 18.0872 4.27679L18.0931 4.23971L18.1708 4.18353C18.1366 4.10495 18.0326 4.17235 17.9829 4.08188C17.9821 4.0617 17.9356 3.90195 17.9271 3.90027C17.6484 3.8454 17.771 3.74485 17.6522 3.59368L17.5718 3.60392L17.5133 3.54706C17.4933 3.36842 17.4392 3.4269 17.2951 3.32954C17.2858 3.28091 17.2856 3.29994 17.3088 3.24924C17.2381 3.14687 17.1114 3.14687 17.0508 3.04862C17.0626 3.00641 17.0641 3.00207 17.0865 2.96387L17.0919 2.95498C17.0123 2.86707 16.8952 2.92205 16.7729 2.7778C16.7867 2.73847 16.7891 2.73819 16.7868 2.69476C16.6684 2.60755 16.5665 2.72394 16.4492 2.58263C16.4798 2.54776 16.484 2.54199 16.5078 2.50215L16.4682 2.44824Z" fill="black" fill-opacity="0.32549"/>
<path d="M19.6858 7.23901C19.7115 7.3933 19.7089 7.35025 19.7926 7.45806C19.8912 7.58493 19.8823 7.86618 19.8813 8.01196L19.8368 7.89344C19.784 7.95151 19.7817 9.91004 19.8069 10.0853L19.8257 10.0976C19.8622 10.0307 19.8644 10.0085 19.8786 9.93651C19.8901 10.4314 19.7895 10.2287 19.6908 10.5719C19.7042 9.83455 19.7065 9.097 19.6977 8.35954C19.6953 8.00125 19.6712 7.59076 19.6858 7.23901Z" fill="black" fill-opacity="0.329412"/>
<path d="M10.8873 1.2437C11.5974 1.23636 12.3323 1.22597 13.0424 1.24472C13.1382 1.26381 13.4362 1.27185 13.5771 1.28908C13.3206 1.32315 10.4433 1.32671 10.3711 1.28259C10.4727 1.26522 10.7531 1.25727 10.8873 1.2437Z" fill="black" fill-opacity="0.772549"/>
<path d="M19.8788 9.93663C19.8646 10.0086 19.8624 10.0308 19.8259 10.0977L19.8071 10.0855C19.7819 9.91016 19.7842 7.95163 19.8369 7.89355L19.8815 8.01208C19.8881 8.65359 19.8872 9.29514 19.8788 9.93663Z" fill="black" fill-opacity="0.513725"/>
<path d="M16.0344 17.523C16.112 17.1372 16.1345 16.6803 16.128 16.2835C16.1269 16.2141 16.0889 16.196 16.1221 16.1316C16.1881 16.2607 16.1527 16.7313 16.2773 16.8241C16.285 17.1299 16.2011 17.1183 16.0969 17.3991C16.076 17.4555 16.0455 17.6393 16.0337 17.7078L16.0234 17.6696L16.0344 17.523Z" fill="black" fill-opacity="0.337255"/>
<path d="M15.2203 1.73096C15.4316 1.74816 15.4982 1.91814 15.6655 1.97799C15.4574 1.98474 15.331 1.92967 15.1301 1.90858C14.8991 1.88434 14.75 1.91127 14.5312 1.81074C14.6833 1.79241 15.1605 1.8141 15.2253 1.77772L15.2203 1.73096Z" fill="black" fill-opacity="0.309804"/>
<path d="M4.12304 10.3176L4.18299 10.3332L4.26896 10.2798C4.30097 10.304 4.3085 10.3055 4.32722 10.3416L4.33306 10.3805C4.28548 10.5915 4.33646 10.884 4.33465 11.1013C4.30397 11.0292 4.27983 10.8349 4.24967 10.7278L4.19944 10.7667L4.16712 10.7568C4.10944 10.6328 4.11521 10.4529 4.12304 10.3176Z" fill="black" fill-opacity="0.0470588"/>
<path d="M19.4443 11.6145C19.4551 11.4993 19.5146 10.452 19.521 10.4402C19.5276 10.659 19.5643 11.0114 19.5855 11.2412C19.6068 11.2645 19.6249 11.2844 19.6399 11.3009C19.6105 11.546 19.5408 11.4351 19.4443 11.6145Z" fill="black" fill-opacity="0.321569"/>
<path d="M6.55263 8.90943L6.62379 8.89795C6.72161 9.03065 6.65648 9.33916 6.50554 9.34511C6.44819 9.28577 6.46509 9.30204 6.45166 9.20639L6.55263 8.90943Z" fill="black" fill-opacity="0.305882"/>
<path d="M15.7887 17.9976C15.7224 17.9829 15.6538 17.974 15.6006 17.9326C15.6685 17.8674 15.8702 17.8943 15.9684 17.8946C15.9858 17.8262 16.0035 17.79 16.032 17.7271C16.0316 17.9154 16.0615 18.1185 15.9407 18.2608C15.9514 18.1785 15.9883 18.1523 15.9738 18.054C15.9087 18.0027 15.8822 18.0135 15.7887 17.9976Z" fill="black" fill-opacity="0.345098"/>
<path d="M7.02206 8.49365L7.10262 8.52396L7.1227 8.57897C7.06502 8.6816 6.84785 8.82412 6.72656 8.76478C6.73995 8.71007 6.74433 8.70297 6.771 8.65275C6.85369 8.58801 6.93183 8.54547 7.02206 8.49365Z" fill="black" fill-opacity="0.329412"/>
<path d="M4.41034 10.3589C4.41836 10.5079 4.4493 11.1438 4.38733 11.2403L4.35667 11.2483L4.33445 11.1012C4.33626 10.8838 4.28528 10.5913 4.33286 10.3803C4.3525 10.5275 4.36487 10.6896 4.37889 10.8384C4.40622 10.7051 4.40612 10.5006 4.41034 10.3589Z" fill="black" fill-opacity="0.447059"/>
<path d="M9.46965 7.23438C9.54268 7.24056 9.51687 7.2283 9.56715 7.27926C9.58275 7.38916 9.54174 7.55744 9.4355 7.60827C9.35897 7.55427 9.38115 7.49777 9.39713 7.41447L9.46965 7.23438Z" fill="black" fill-opacity="0.298039"/>
<path d="M9.72197 3.54272C9.80095 3.62204 9.75645 3.84204 9.71634 3.94332C9.68276 3.96019 9.68468 3.96258 9.64863 3.96983C9.59416 3.92122 9.61104 3.94608 9.5918 3.86447C9.6462 3.79083 9.69073 3.63481 9.72197 3.54272Z" fill="black" fill-opacity="0.392157"/>
<path d="M9.04165 7.94995L9.10901 8.00053C9.07575 8.13611 9.06691 8.17514 8.9528 8.25813C8.87977 8.26139 8.90702 8.26889 8.84756 8.23366L8.84473 8.1727L9.04165 7.94995Z" fill="black" fill-opacity="0.337255"/>
<path d="M9.56869 1.49658L9.67086 1.49793C9.77829 1.5047 9.88775 1.49561 9.98452 1.54035C9.89295 1.59528 9.54675 1.61128 9.44775 1.57063L9.46233 1.5369L9.56869 1.49658Z" fill="black" fill-opacity="0.603922"/>
<path d="M4.32715 10.3413L4.3526 10.2661L4.39303 10.2478C4.43173 10.3019 4.42366 10.2749 4.41047 10.3588C4.40625 10.5005 4.40634 10.705 4.37902 10.8384C4.365 10.6895 4.35263 10.5274 4.33298 10.3802L4.32715 10.3413Z" fill="black" fill-opacity="0.572549"/>
<path d="M19.1859 12.3958L19.1488 12.4033C19.1114 12.3227 19.1321 12.187 19.1673 12.1066L19.2006 12.1006L19.2357 12.1586C19.218 12.2327 19.1939 12.3216 19.1859 12.3958Z" fill="black" fill-opacity="0.490196"/>
<path d="M16.0235 17.6695C16.0032 17.6966 16.0076 17.6887 15.9766 17.7076L15.9551 17.6631C15.9569 17.5713 15.9519 17.5186 15.991 17.4353C16.0305 17.4597 16.0188 17.4602 16.0344 17.5229L16.0235 17.6695Z" fill="black" fill-opacity="0.458824"/>
<path d="M18.8855 12.9104L18.8399 12.8957C18.8293 12.8008 18.8307 12.7891 18.863 12.6993L18.8981 12.6846L18.9281 12.7204C18.9194 12.7691 18.9053 12.8702 18.8855 12.9104Z" fill="black" fill-opacity="0.427451"/>
</g>
<defs>
<clipPath id="clip0_710_12594">
<rect width="24" height="24" fill="white"/>
</clipPath>
</defs>
</svg>
