<svg width="24" height="24" viewBox="0 0 24 24" fill="none" xmlns="http://www.w3.org/2000/svg">
<path d="M6.19572 2.18075C6.82429 2.32861 7.30453 2.44794 7.90612 2.69172C9.39968 3.29516 10.6629 4.35756 11.5134 5.72561C11.9395 6.41469 12.2502 7.23372 12.4724 8.01393C12.5939 8.44054 12.6525 8.92773 12.8063 9.34797C12.921 9.17249 12.9442 9.0674 13.0415 8.88864C13.21 8.5832 13.3926 8.28569 13.5886 7.9971C13.869 7.58936 14.2408 7.14915 14.5991 6.80183C14.7923 6.62282 15.0308 6.49665 15.2462 6.35099C16.213 5.69751 17.2933 5.34217 18.4279 5.11286C19.648 4.86629 20.4713 5.23454 20.9153 6.41024C20.9188 6.63402 20.9404 7.08805 20.9257 7.29716C20.6676 8.47459 20.4896 9.23509 19.908 10.2989C18.5491 12.7847 15.7233 13.8531 12.9942 14.0007C12.9453 14.5642 12.9583 15.1067 12.9608 15.6717C12.9365 15.8489 12.9716 16.1578 12.9216 16.248C12.8767 16.2787 12.8232 16.3076 12.7669 16.2899C12.2092 16.1146 11.6582 16.0682 11.0823 15.9827C10.9646 15.8244 11.0818 13.2336 11.0187 12.7686L11.0154 12.7455C11.0156 12.4931 10.9902 12.1777 10.9756 11.9203C10.5765 11.8716 10.1609 11.7472 9.76493 11.6754C8.5489 11.4549 7.39896 10.9729 6.36886 10.2744C5.33283 9.55733 4.50112 8.58311 3.9555 7.4474C3.84907 7.22673 3.77615 6.98153 3.67708 6.75937C3.36504 6.05961 3.24475 5.37355 3.10097 4.62554C3.09539 4.49781 3.0949 4.40849 3.09911 4.28073C3.12117 4.2234 3.14062 3.99683 3.14592 3.92879C3.17151 3.59884 3.22136 3.43379 3.35894 3.13337C3.37465 3.16933 3.37671 3.18006 3.40608 3.20765C3.42593 3.12515 3.42743 3.0658 3.43251 2.98159C4.68356 1.78711 4.69847 2.32103 6.19572 2.18075Z" fill="black"/>
<path d="M11.0154 12.7456L11.0187 12.7688C11.0818 13.2338 10.9646 15.8245 11.0823 15.9828C11.6582 16.0683 12.2092 16.1147 12.7669 16.29C12.8232 16.3078 12.8767 16.2789 12.9216 16.2481C12.9716 16.1579 12.9365 15.8491 12.9608 15.6718C12.9839 15.8811 12.9179 16.3123 13.0016 16.4189C13.0558 16.4151 13.0656 16.4053 13.1146 16.3782C13.2423 16.4304 13.2247 16.534 13.2498 16.5411C13.3978 16.5829 14.0595 16.8215 14.1278 16.9245L14.1161 17.0076C14.1838 17.0941 14.7301 17.338 14.7666 17.4311L14.6909 17.4954C14.8231 17.5819 15.1182 17.5732 15.2752 17.5588C15.5178 17.5631 16.0309 17.5443 16.2658 17.5265L16.2748 17.5128C16.1237 17.5101 16.0455 17.5025 15.896 17.4801C15.9159 17.4611 16.2266 17.4597 16.2789 17.4582C16.2231 17.4366 16.1582 17.4383 16.0972 17.4351C16.17 17.4293 16.3391 17.4253 16.3871 17.3761C16.2803 17.3403 16.1437 17.3447 16.0289 17.3418C16.1532 17.323 16.1946 17.3215 16.3203 17.3278C16.5464 17.3402 16.7181 17.2378 16.9717 17.2536C17.363 17.278 17.7958 17.2194 18.1801 17.2994C18.3882 17.3428 18.4868 17.3466 18.7039 17.3408L18.8941 17.35C18.6756 17.4078 18.6586 17.4217 18.4124 17.4186C18.4437 17.4496 18.8949 17.445 18.9664 17.3956L18.9495 17.3744C19.32 17.3994 19.0625 17.4859 19.4758 17.5632L19.4981 17.5672C19.3746 17.703 19.2785 17.5868 19.1441 17.6576C19.2103 17.7724 19.4623 17.6919 19.5548 17.7428C19.6808 17.8121 19.9193 17.818 20.0236 17.8764C20.003 17.9083 20.0025 17.8999 19.9575 17.9164C20.0815 17.9894 20.1911 18.0614 20.3402 18.0652C20.4568 18.1804 20.4783 18.2471 20.6198 18.3257C20.551 18.3886 20.473 18.3551 20.3311 18.384C20.3444 18.52 20.517 18.5072 20.523 18.5317C20.6017 18.8501 20.8874 18.7479 21.12 18.7832C21.0018 18.9367 20.9793 18.7751 20.8434 18.8435C20.8774 18.9908 21.0283 18.9318 21.1143 19.0076L21.0728 19.0783C21.0896 19.1371 21.1319 19.162 21.1806 19.2028L21.2096 19.2027C21.2376 19.1555 21.2186 19.1672 21.2587 19.1526L21.1664 19.0886L21.1803 19.0691L21.2956 19.0603C21.3187 19.1021 21.3045 19.0968 21.3033 19.1308C21.2981 19.287 21.3562 19.5203 21.3904 19.6723C21.5176 19.7675 21.6265 19.6785 21.7603 19.7702L21.7649 19.8365L21.7401 19.8444L21.7297 19.7813C21.6768 19.7581 21.6612 19.7675 21.6012 19.7803L21.5596 19.8137C21.5582 19.919 21.6298 19.9573 21.63 19.9852C21.6332 20.3237 21.6571 20.7725 21.6363 21.0989C21.57 21.2072 21.5378 21.2056 21.6112 21.3186L21.6026 21.3545L21.5516 21.3706C21.5055 21.3396 21.4709 21.3165 21.4218 21.2895C21.2411 21.48 21.2413 21.3212 21.1022 21.4295C21.255 21.4686 21.3285 21.4451 21.4992 21.5132C21.4831 21.5461 21.493 21.5367 21.4653 21.5568C21.412 21.5649 21.3368 21.579 21.2851 21.5816C21.1422 21.5231 10.6288 21.5662 9.64486 21.5662L6.06255 21.5659C5.36672 21.5658 4.04599 21.498 3.42201 21.6404C3.45977 21.6675 16.67 21.6566 17.8928 21.6566L19.9163 21.6565C20.2735 21.6546 20.6409 21.6346 20.9974 21.6576C21.0618 21.6618 21.0906 21.6885 21.1368 21.7304L21.1728 21.7673C21.086 21.834 20.9451 21.8076 20.8229 21.8392C19.5173 21.8619 18.1684 21.8453 16.8603 21.8453L9.63213 21.8453L5.3036 21.8461C4.62846 21.8462 3.61469 21.876 2.96323 21.8301C2.88288 21.7331 2.90552 21.7695 2.89725 21.6221C2.83561 21.5572 2.68758 21.5873 2.62973 21.5387C2.40743 21.3518 2.45791 21.266 2.18435 21.1162L2.16992 21.0454L2.19144 20.9452C2.20161 21.0005 2.20391 21.0042 2.23028 21.0545L2.25221 21.0356C2.27701 20.8659 2.28351 20.0675 2.24075 19.9135L2.22487 19.9257C2.22177 19.9491 2.21785 19.9524 2.20375 19.9708L2.18956 19.989L2.17576 19.9056L2.22027 19.7769C2.3405 19.695 2.69571 19.2523 2.84965 19.1328C2.86762 19.1188 2.90487 19.0099 2.91279 18.9804C2.92127 18.9787 2.92973 18.977 2.93819 18.9753C3.29435 18.899 3.37371 18.5456 3.69058 18.4977L3.69736 18.5483C3.77906 18.5755 4.10046 18.5578 4.20822 18.556C4.0683 18.5026 3.89646 18.5004 3.74625 18.4946C4.09669 18.425 3.87872 18.2748 4.39495 18.2828C4.30223 18.2977 4.22934 18.2968 4.15441 18.3463C4.24181 18.392 4.80844 18.3696 4.88198 18.3104C4.73756 18.2772 4.60005 18.2884 4.45073 18.2795C4.58573 18.2613 4.63734 18.2576 4.77309 18.2637C5.02931 18.2743 5.40002 18.1607 5.70497 18.1833C5.97265 18.2032 6.16017 18.2982 6.41831 18.2774C6.54675 18.267 6.48968 18.1901 6.62201 18.1407C6.56826 18.0627 6.60302 18.1766 6.48806 18.0583C6.56721 18.047 6.65843 18.041 6.7256 18.0015C6.76786 17.9193 6.75492 17.9424 6.73671 17.8345C6.94228 17.7554 6.86979 17.714 7.00024 17.5987C7.11293 17.4992 7.18279 17.637 7.24683 17.3934C7.33626 17.3084 7.40097 17.35 7.44722 17.306C7.68244 17.0822 7.57338 17.1134 7.89588 17.0418C7.91953 16.9724 7.94414 16.9033 7.96973 16.8346C8.10499 16.8083 8.31797 16.7913 8.36093 16.6501L8.42285 16.6205C8.42681 16.6549 8.42892 16.6465 8.46051 16.6769C8.61429 16.7004 8.74645 16.6808 8.89378 16.6366C8.80856 16.6075 8.75915 16.6027 8.66969 16.5906C8.73637 16.5768 8.7544 16.571 8.81688 16.5439C8.83633 16.475 8.84451 16.4606 8.88049 16.3983C8.99444 16.3283 9.41224 16.3225 9.56704 16.3148C9.67153 16.3242 10.4886 16.3142 10.584 16.3011C10.4185 16.2862 10.0978 16.2563 9.93504 16.2263L9.92072 16.2236C10.0003 16.2193 10.0708 16.2169 10.1504 16.2168C10.3541 16.216 10.4954 16.2191 10.695 16.1845L10.6995 16.1696C10.493 16.1372 10.3299 16.1464 10.1229 16.1517L10.1168 16.127C10.2628 16.1215 10.8283 16.1641 10.9257 16.0794C11.07 15.9539 10.9745 13.2082 11.0154 12.7456ZM21.0987 21.7854C20.9158 21.6879 4.81751 21.7549 3.0818 21.7618C3.25087 21.8452 5.15913 21.8175 5.51037 21.8176L9.0855 21.8177L19.6511 21.8174C20.0615 21.8172 20.472 21.8237 20.8815 21.7925C20.954 21.787 21.026 21.7833 21.0987 21.7854Z" fill="black" fill-opacity="0.411765"/>
<path d="M3.08179 21.7617C4.8175 21.7548 20.9158 21.6879 21.0987 21.7854C21.026 21.7832 20.954 21.7869 20.8815 21.7924C20.472 21.8237 20.0615 21.8171 19.6511 21.8173L9.08549 21.8176L5.51036 21.8175C5.15912 21.8175 3.25087 21.8452 3.08179 21.7617Z" fill="black" fill-opacity="0.670588"/>
<path d="M21.1368 21.7304C21.0906 21.6885 21.0617 21.6618 20.9974 21.6576C20.6409 21.6346 20.2735 21.6546 19.9163 21.6565L17.8928 21.6566C16.67 21.6566 3.45975 21.6675 3.422 21.6404C4.04597 21.498 5.3667 21.5658 6.06254 21.5659L9.64484 21.5662C10.6288 21.5662 21.1422 21.523 21.2851 21.5816C21.2146 21.5943 21.1744 21.5945 21.1246 21.6474C21.1164 21.7068 21.1109 21.6803 21.1368 21.7304Z" fill="black" fill-opacity="0.392157"/>
<path d="M3.23267 21.9729C4.62408 21.918 6.23117 21.9588 7.64824 21.9588L15.8284 21.9591H19.0707C19.3478 21.9584 20.4563 21.9401 20.6372 21.9817L20.6506 22.0141C20.4149 22.045 19.9442 22.0339 19.6953 22.0332L18.1996 22.0315L12.8485 22.0316L6.31751 22.0319L4.48355 22.0328C4.10923 22.0327 3.60281 22.0488 3.24581 21.9945L3.23267 21.9729Z" fill="black" fill-opacity="0.294118"/>
<path d="M3.0918 3.65688C3.0966 3.63035 3.1022 3.60398 3.1086 3.5778C3.29029 2.83788 3.80566 2.25195 4.56051 2.07801C5.12343 1.94828 5.64484 2.04073 6.19577 2.18078C4.69851 2.32106 4.6836 1.78714 3.43255 2.98162C3.42747 3.06583 3.42597 3.12518 3.40612 3.20768C3.37675 3.18009 3.37469 3.16936 3.35898 3.1334C3.22141 3.43382 3.17155 3.59887 3.14596 3.92882C3.14066 3.99686 3.12121 4.22343 3.09916 4.28076C3.08866 4.07962 3.10368 3.86962 3.0918 3.65688Z" fill="black" fill-opacity="0.941176"/>
<path d="M21.1201 18.7832C21.1463 18.8215 21.1531 18.836 21.1595 18.8821C21.2816 18.9613 21.5504 19.3093 21.5775 19.454C21.6179 19.6693 21.5554 19.6691 21.8013 19.719C21.8122 19.8364 21.8312 19.9848 21.823 20.0998C21.808 20.0452 21.7934 19.9888 21.7767 19.9349C21.7463 20.115 21.7285 20.8925 21.7577 21.069L21.7786 21.0824C21.8072 21.0145 21.8108 20.9708 21.8215 20.8994C21.8308 21.0683 21.8165 21.1444 21.7907 21.3118C21.6563 21.3645 21.5823 21.3995 21.5421 21.5466C21.5035 21.5624 21.5056 21.565 21.4653 21.5568C21.493 21.5367 21.4832 21.5461 21.4992 21.5132C21.3286 21.4451 21.255 21.4686 21.1022 21.4295C21.2413 21.3212 21.2411 21.48 21.4218 21.2895C21.4709 21.3165 21.5055 21.3396 21.5517 21.3706L21.6026 21.3545L21.6112 21.3186C21.5378 21.2056 21.57 21.2072 21.6363 21.0989C21.6572 20.7725 21.6332 20.3238 21.63 19.9852C21.6298 19.9573 21.5582 19.919 21.5596 19.8137L21.6013 19.7803C21.6612 19.7675 21.6768 19.7581 21.7297 19.7813L21.7401 19.8444L21.7649 19.8365L21.7603 19.7702C21.6265 19.6785 21.5176 19.7675 21.3904 19.6724C21.3562 19.5203 21.2981 19.287 21.3033 19.1309C21.3045 19.0968 21.3187 19.1021 21.2957 19.0603L21.1803 19.0691L21.1664 19.0886L21.2587 19.1526C21.2186 19.1673 21.2376 19.1555 21.2096 19.2027L21.1806 19.2028C21.1319 19.162 21.0896 19.1371 21.0728 19.0783L21.1143 19.0076C21.0284 18.9318 20.8774 18.9908 20.8434 18.8435C20.9793 18.7751 21.0018 18.9367 21.1201 18.7832Z" fill="black" fill-opacity="0.309804"/>
<path d="M16.3203 17.3278L16.418 17.257C16.402 17.1546 16.2916 17.1873 16.3268 17.1187C16.5681 17.07 18.0801 17.045 18.3929 17.1655C18.4188 17.1755 18.4764 17.2649 18.4963 17.2965C18.5565 17.3332 18.6328 17.3339 18.7039 17.3408C18.4868 17.3466 18.3882 17.3427 18.1801 17.2994C17.7958 17.2194 17.363 17.278 16.9717 17.2536C16.7181 17.2378 16.5464 17.3402 16.3203 17.3278ZM17.8393 17.1425L17.825 17.1159C17.4218 17.1092 16.9908 17.101 16.5875 17.1218C16.757 17.1753 17.6757 17.1847 17.8393 17.1425Z" fill="black" fill-opacity="0.333333"/>
<path d="M16.5875 17.1217C16.9908 17.1009 17.4218 17.1091 17.825 17.1158L17.8393 17.1424C17.6757 17.1846 16.757 17.1752 16.5875 17.1217Z" fill="black" fill-opacity="0.564706"/>
<path d="M4.60962 18.0648C4.94051 18.0197 5.59915 18.0089 5.93407 18.0446L5.77657 18.0537C5.65913 18.0519 5.13225 18.0307 5.06356 18.073L5.07774 18.0934C5.31731 18.1476 5.86765 18.1204 6.11707 18.0796L6.19062 18.0801C6.12429 18.0956 6.1009 18.1038 6.08067 18.1644L6.11911 18.2042C6.23096 18.2392 6.29681 18.2698 6.40242 18.2287C6.45481 18.1499 6.43367 18.1042 6.48804 18.0583C6.603 18.1766 6.56824 18.0626 6.62199 18.1407C6.48966 18.1901 6.54673 18.2669 6.41829 18.2773C6.16015 18.2982 5.97263 18.2032 5.70495 18.1833C5.4 18.1607 5.02929 18.2743 4.77307 18.2637C4.84643 18.2256 4.87104 18.2305 4.89614 18.1689C4.8431 18.1133 4.69238 18.0866 4.60962 18.0648Z" fill="black" fill-opacity="0.301961"/>
<path d="M20.6198 18.3257C20.6539 18.4227 21.0275 18.7418 21.12 18.7831C20.8874 18.7478 20.6016 18.85 20.523 18.5316C20.517 18.5071 20.3444 18.52 20.3311 18.3839C20.4729 18.3551 20.551 18.3885 20.6198 18.3257Z" fill="black" fill-opacity="0.372549"/>
<path d="M2.16986 21.0453C2.16318 21.0048 2.13835 20.8346 2.1048 20.826C1.96599 20.7905 1.94702 20.3628 1.99332 20.2266C2.04396 20.184 2.01849 20.1949 2.10636 20.2011C2.1463 20.1449 2.13623 20.0218 2.17569 19.9055L2.1895 19.9889C2.16884 20.2279 2.13658 20.7123 2.19138 20.9451L2.16986 21.0453Z" fill="black" fill-opacity="0.109804"/>
<path d="M2.18433 21.1161C2.45789 21.2659 2.40741 21.3517 2.62971 21.5386C2.68756 21.5872 2.83559 21.5572 2.89723 21.622C2.9055 21.7695 2.88286 21.733 2.9632 21.83C2.6884 21.7863 2.22084 21.3905 2.18433 21.1161Z" fill="black" fill-opacity="0.368627"/>
<path d="M19.4982 17.5671C19.7177 17.5814 20.1512 17.9872 20.3402 18.0651C20.1911 18.0613 20.0816 17.9893 19.9575 17.9163C20.0025 17.8999 20.0031 17.9082 20.0236 17.8764C19.9194 17.8179 19.6809 17.8121 19.5548 17.7427C19.4624 17.6918 19.2104 17.7724 19.1442 17.6576C19.2786 17.5868 19.3746 17.703 19.4982 17.5671Z" fill="black" fill-opacity="0.32549"/>
<path d="M3.00313 3.81834C3.03121 3.82552 3.02467 3.82247 3.05544 3.81825C3.06006 3.72145 3.04536 3.72734 3.09172 3.65686C3.1036 3.8696 3.08858 4.0796 3.09908 4.28074C3.09486 4.4085 3.09535 4.49782 3.10093 4.62556C3.08532 4.59197 3.06732 4.55738 3.05063 4.52409C2.79043 4.45409 2.86738 4.20743 2.9026 3.99256C2.90785 4.09259 2.89921 4.20708 2.95096 4.28691L2.97964 4.26905C3.0186 4.12174 3.01651 3.96938 3.00313 3.81834Z" fill="black" fill-opacity="0.0980392"/>
<path d="M2.18955 19.9889L2.20374 19.9707C2.21784 19.9523 2.22176 19.949 2.22485 19.9256L2.24074 19.9135C2.2835 20.0675 2.277 20.8659 2.25219 21.0355L2.23026 21.0545C2.20389 21.0042 2.2016 21.0005 2.19143 20.9451C2.13664 20.7124 2.16889 20.2279 2.18955 19.9889ZM2.23696 20.9024C2.24531 20.7286 2.27606 20.2473 2.22943 20.1019C2.19064 20.3083 2.18119 20.7017 2.23696 20.9024Z" fill="black" fill-opacity="0.454902"/>
<path d="M2.22945 20.1019C2.27608 20.2474 2.24533 20.7286 2.23699 20.9024C2.18121 20.7017 2.19067 20.3083 2.22945 20.1019Z" fill="black" fill-opacity="0.556863"/>
<path d="M5.96765 18.0457C6.1401 18.0265 6.55617 18.0642 6.68421 17.9627C6.69281 17.9035 6.6956 17.879 6.73668 17.8345C6.75489 17.9424 6.76783 17.9192 6.72557 18.0015C6.6584 18.0409 6.56718 18.047 6.48803 18.0583C6.43366 18.1042 6.4548 18.1499 6.40242 18.2287C6.29681 18.2698 6.23095 18.2392 6.1191 18.2042L6.08067 18.1644C6.10089 18.1038 6.12428 18.0956 6.19061 18.0801L6.11707 18.0796C6.0711 18.0731 6.01373 18.0571 5.96765 18.0457Z" fill="black" fill-opacity="0.223529"/>
<path d="M21.8215 20.8993C21.8108 20.9708 21.8072 21.0144 21.7786 21.0823L21.7577 21.069C21.7285 20.8924 21.7463 20.115 21.7767 19.9348C21.7934 19.9888 21.808 20.0452 21.823 20.0997C21.8367 20.3621 21.8445 20.6372 21.8215 20.8993Z" fill="black" fill-opacity="0.564706"/>
<path d="M20.9153 6.41028C21.0403 6.59597 20.9256 6.59478 20.996 6.64967L21.0334 6.6364C21.1656 6.79318 21.0002 7.13452 20.9257 7.2972C20.9404 7.08809 20.9188 6.63406 20.9153 6.41028Z" fill="black" fill-opacity="0.321569"/>
<path d="M15.2751 17.5588C15.3468 17.5439 15.4656 17.5335 15.4875 17.4501C15.6712 17.3115 15.6898 17.3377 15.9257 17.344L15.8054 17.3721C15.7418 17.3704 15.7066 17.3625 15.6535 17.3956C15.7085 17.4653 15.8468 17.4448 15.9242 17.4397L16.0972 17.4351C16.1582 17.4383 16.2231 17.4366 16.2789 17.4582C16.2265 17.4597 15.9159 17.4611 15.896 17.4801C16.0454 17.5024 16.1237 17.5101 16.2748 17.5128L16.2658 17.5265C16.0309 17.5443 15.5177 17.5631 15.2751 17.5588Z" fill="black" fill-opacity="0.227451"/>
<path d="M9.56702 16.3147C9.61884 16.2909 9.60574 16.3049 9.63712 16.262L9.619 16.2219L9.65697 16.173C9.79155 16.1103 9.96372 16.1268 10.1168 16.1269L10.1228 16.1517L10.0986 16.1498C10.0325 16.1482 9.78325 16.1506 9.73687 16.1947C9.8084 16.2167 9.84777 16.2177 9.92069 16.2235L9.93501 16.2263C10.0978 16.2562 10.4185 16.2862 10.584 16.3011C10.4886 16.3141 9.6715 16.3241 9.56702 16.3147Z" fill="black" fill-opacity="0.211765"/>
<path d="M21.285 21.5816C21.3368 21.579 21.412 21.5649 21.4652 21.5568C21.1656 21.7016 21.5749 21.8444 20.8229 21.8392C20.9451 21.8075 21.086 21.834 21.1727 21.7673L21.1368 21.7303C21.1109 21.6803 21.1164 21.7068 21.1246 21.6474C21.1744 21.5945 21.2146 21.5943 21.285 21.5816Z" fill="black" fill-opacity="0.223529"/>
<path d="M4.39496 18.2827L4.45074 18.2794C4.60006 18.2883 4.73757 18.2771 4.88199 18.3103C4.80844 18.3695 4.24182 18.3919 4.15442 18.3462C4.22935 18.2967 4.30224 18.2977 4.39496 18.2827Z" fill="black" fill-opacity="0.72549"/>
<path d="M15.9257 17.344L16.0288 17.3418C16.1436 17.3447 16.2803 17.3403 16.3871 17.3761C16.3391 17.4253 16.1699 17.4293 16.0972 17.4351L15.9242 17.4397L15.8198 17.405L15.8054 17.3721L15.9257 17.344Z" fill="black" fill-opacity="0.701961"/>
<path d="M3.00311 3.81836C3.01649 3.96939 3.01858 4.12176 2.97963 4.26906L2.95094 4.28692C2.89919 4.20709 2.90784 4.0926 2.90259 3.99257C2.91192 3.87906 2.92045 3.87838 3.00311 3.81836Z" fill="black" fill-opacity="0.631373"/>
<path d="M5.93409 18.0446L5.96768 18.0456C6.01376 18.057 6.07113 18.073 6.11709 18.0795C5.86767 18.1203 5.31734 18.1475 5.07776 18.0933C5.2969 18.0645 5.52014 18.1214 5.77659 18.0536L5.93409 18.0446Z" fill="black" fill-opacity="0.411765"/>
<path d="M10.1229 16.1516C10.3299 16.1463 10.4931 16.1372 10.6995 16.1695L10.6951 16.1844C10.4955 16.219 10.3541 16.216 10.1505 16.2167L10.1042 16.1965L10.0986 16.1498L10.1229 16.1516Z" fill="black" fill-opacity="0.694118"/>
<path d="M8.42285 16.6204C8.48962 16.6005 8.5969 16.596 8.6697 16.5905C8.75916 16.6025 8.80856 16.6074 8.89378 16.6365C8.74645 16.6806 8.61429 16.7003 8.46052 16.6768C8.42892 16.6464 8.42681 16.6548 8.42285 16.6204Z" fill="black" fill-opacity="0.533333"/>
<path d="M21.9671 20.1748L22.0124 20.2262C22.0363 20.3511 22.0396 20.5375 22.0107 20.6621C21.8956 20.5788 21.9547 20.305 21.9671 20.1748Z" fill="black" fill-opacity="0.113725"/>
<path d="M5.07778 18.0933L5.0636 18.0729C5.13229 18.0307 5.65917 18.0518 5.77661 18.0537C5.52016 18.1214 5.29692 18.0645 5.07778 18.0933Z" fill="black" fill-opacity="0.517647"/>
<path d="M3.69055 18.4977L3.74622 18.4946C3.89643 18.5003 4.06827 18.5026 4.20819 18.556C4.10043 18.5577 3.77903 18.5755 3.69733 18.5483L3.69055 18.4977Z" fill="black" fill-opacity="0.478431"/>
<path d="M9.92076 16.2235C9.84784 16.2177 9.80847 16.2167 9.73694 16.1947C9.78332 16.1506 10.0326 16.1481 10.0986 16.1498L10.1042 16.1965L10.1505 16.2167C10.0708 16.2168 10.0003 16.2192 9.92076 16.2235Z" fill="black" fill-opacity="0.439216"/>
<path d="M18.8941 17.35L18.9495 17.3743L18.9664 17.3955C18.8949 17.4449 18.4437 17.4495 18.4124 17.4185C18.6586 17.4216 18.6756 17.4077 18.8941 17.35Z" fill="black" fill-opacity="0.517647"/>
<path d="M15.9242 17.4396C15.8468 17.4447 15.7085 17.4653 15.6534 17.3956C15.7066 17.3624 15.7418 17.3704 15.8054 17.372L15.8198 17.405L15.9242 17.4396Z" fill="black" fill-opacity="0.513725"/>
</svg>
