<svg width="64" height="64" viewBox="0 0 64 64" fill="none" xmlns="http://www.w3.org/2000/svg">
<rect width="64" height="64" rx="8" fill="#003244" fill-opacity="0.25"/>
<path d="M24.17 31.75C24.623 30.8442 25.1059 29.9713 25.6187 29.1313C26.1315 28.2916 26.6966 27.4625 27.3141 26.6442L24.8687 26.1538C24.7832 26.1324 24.7004 26.135 24.6204 26.1617C24.5401 26.1886 24.4679 26.2341 24.4037 26.2979L20.6312 30.0704C20.5993 30.1027 20.5886 30.1402 20.5991 30.1829C20.61 30.2254 20.6368 30.2574 20.6795 30.2788L24.17 31.75ZM43.7562 19.795C41.502 19.9148 39.3348 20.4816 37.2545 21.4954C35.1745 22.5093 33.2532 23.8977 31.4904 25.6604C30.2915 26.8591 29.2337 28.125 28.317 29.4584C27.4004 30.7917 26.6825 32.0791 26.1633 33.3204L30.8975 38.0288C32.1388 37.5096 33.4288 36.7917 34.7675 35.875C36.1061 34.9584 37.3748 33.9007 38.5737 32.7021C40.3365 30.9393 41.7248 29.0248 42.7387 26.9584C43.7526 24.8923 44.3194 22.732 44.4391 20.4775C44.4391 20.3878 44.4262 20.3007 44.4004 20.2163C44.3748 20.1318 44.3258 20.0534 44.2533 19.9809C44.1805 19.9081 44.1019 19.8589 44.0175 19.8334C43.933 19.8078 43.8459 19.795 43.7562 19.795ZM33.8716 27.4329C33.8716 26.6252 34.1537 25.9392 34.7179 25.375C35.282 24.8109 35.9722 24.5288 36.7883 24.5288C37.6047 24.5288 38.2948 24.8109 38.8587 25.375C39.4229 25.9392 39.705 26.6252 39.705 27.4329C39.705 28.2404 39.4229 28.9263 38.8587 29.4904C38.2948 30.0546 37.6047 30.3367 36.7883 30.3367C35.9722 30.3367 35.282 30.0546 34.7179 29.4904C34.1537 28.9263 33.8716 28.2404 33.8716 27.4329ZM32.4679 40.0384L33.9391 43.5546C33.9605 43.5974 33.9925 43.6214 34.035 43.6267C34.0777 43.632 34.1152 43.6186 34.1475 43.5867L37.92 39.83C37.9838 39.7659 38.0293 39.6938 38.0562 39.6138C38.0829 39.5335 38.0855 39.4507 38.0641 39.3654L37.5737 36.92C36.7554 37.5375 35.9263 38.0984 35.0866 38.6025C34.2466 39.1067 33.3737 39.5853 32.4679 40.0384ZM46.8204 19.0067C46.9251 21.9234 46.4118 24.6941 45.2804 27.3188C44.149 29.9438 42.408 32.4316 40.0575 34.7821C40.0041 34.8354 39.9534 34.8835 39.9054 34.9263C39.8573 34.9691 39.8066 35.0171 39.7533 35.0704L40.5225 38.8588C40.6227 39.361 40.5976 39.8493 40.447 40.3238C40.2965 40.7979 40.0427 41.2135 39.6858 41.5704L34.7404 46.5159C34.3665 46.8898 33.9145 47.0309 33.3845 46.9392C32.8545 46.8472 32.4891 46.5502 32.2883 46.0479L30.0191 40.7146L23.5033 34.1825L18.17 31.9134C17.6677 31.7125 17.3691 31.3472 17.2741 30.8175C17.1791 30.2875 17.3186 29.8356 17.6925 29.4617L22.6379 24.5163C22.9948 24.1593 23.4147 23.9082 23.8975 23.7629C24.3802 23.6177 24.8727 23.5952 25.375 23.6954L29.1633 24.465C29.2169 24.4114 29.2623 24.3632 29.2995 24.3204C29.337 24.2779 29.3825 24.2299 29.4358 24.1763C31.7863 21.826 34.2741 20.0824 36.8991 18.9454C39.5241 17.8088 42.295 17.2928 45.2116 17.3975C45.4125 17.4148 45.6105 17.4639 45.8058 17.545C46.0013 17.6261 46.1772 17.7448 46.3333 17.9009C46.4891 18.0567 46.605 18.2298 46.6808 18.42C46.7566 18.61 46.8032 18.8056 46.8204 19.0067ZM19.5354 38.7854C20.3473 37.9735 21.3372 37.5659 22.505 37.5625C23.6725 37.5595 24.6622 37.9639 25.4741 38.7759C26.2861 39.5878 26.6879 40.5775 26.6795 41.745C26.6709 42.9128 26.2607 43.9027 25.4487 44.7146C24.3184 45.8449 22.9851 46.5324 21.4487 46.7771C19.9123 47.0218 18.3663 47.2371 16.8108 47.4229C16.9969 45.8568 17.215 44.3082 17.465 42.7771C17.715 41.2463 18.4051 39.9157 19.5354 38.7854ZM21.3175 40.5575C20.8344 41.0406 20.5 41.6154 20.3141 42.2821C20.1283 42.9488 19.9851 43.6346 19.8845 44.3396C20.5898 44.2393 21.2758 44.0978 21.9425 43.915C22.6091 43.7323 23.1838 43.3995 23.6666 42.9167C24 42.5834 24.1752 42.1832 24.1925 41.7163C24.2094 41.2493 24.0512 40.8492 23.7179 40.5159C23.3845 40.1825 22.9844 40.0228 22.5175 40.0367C22.0508 40.0506 21.6508 40.2242 21.3175 40.5575Z" fill="#E3B909"/>
</svg>
