<svg width="56" height="56" viewBox="0 0 56 56" fill="none" xmlns="http://www.w3.org/2000/svg">
<rect width="56" height="56" rx="8" fill="white" fill-opacity="0.05"/>
<path d="M15.6 35.5C15.3333 35.2334 15.2056 34.9167 15.2167 34.55C15.2278 34.1834 15.3556 33.8778 15.6 33.6334L22.6333 26.5C23.1444 25.9889 23.7778 25.7333 24.5333 25.7333C25.2889 25.7333 25.9222 25.9889 26.4333 26.5L29.8667 29.9667L36.8 23.1H34.6667C34.2889 23.1 33.9722 22.9722 33.7167 22.7167C33.4611 22.4611 33.3333 22.1445 33.3333 21.7667C33.3333 21.3889 33.4611 21.0722 33.7167 20.8167C33.9722 20.5611 34.2889 20.4333 34.6667 20.4333H40C40.3778 20.4333 40.6945 20.5611 40.95 20.8167C41.2056 21.0722 41.3333 21.3889 41.3333 21.7667V27.1C41.3333 27.4778 41.2056 27.7945 40.95 28.05C40.6945 28.3056 40.3778 28.4333 40 28.4333C39.6222 28.4333 39.3056 28.3056 39.05 28.05C38.7944 27.7945 38.6667 27.4778 38.6667 27.1V24.9667L31.7667 31.8667C31.2556 32.3778 30.6222 32.6334 29.8667 32.6334C29.1111 32.6334 28.4778 32.3778 27.9667 31.8667L24.5333 28.4333L17.4667 35.5C17.2222 35.7445 16.9111 35.8667 16.5333 35.8667C16.1556 35.8667 15.8444 35.7445 15.6 35.5Z" fill="#FAFAFA"/>
</svg>
