<svg width="64" height="64" viewBox="0 0 64 64" fill="none" xmlns="http://www.w3.org/2000/svg">
<rect width="64" height="64" rx="16" fill="#1E1E1E" fill-opacity="0.5"/>
<path d="M47 42C46.74 42 46.48 42 46.22 42.08L43 35.58C43.9 34.68 44.5 33.42 44.5 32C44.5 29.24 42.26 27 39.5 27C39.24 27 39 27 38.72 27.08L35.46 20.58C36.42 19.68 37 18.42 37 17C37 14.24 34.76 12 32 12C29.24 12 27 14.24 27 17C27 18.42 27.58 19.68 28.52 20.58L25.28 27.08C25 27 24.76 27 24.5 27C21.74 27 19.5 29.24 19.5 32C19.5 33.42 20.1 34.68 21 35.58L17.78 42.08C17.52 42 17.26 42 17 42C14.24 42 12 44.24 12 47C12 49.76 14.24 52 17 52C19.76 52 22 49.76 22 47C22 45.6 21.42 44.32 20.48 43.42L23.72 36.92C24 37 24.24 37 24.5 37C24.76 37 25 37 25.28 36.92L28.54 43.42C27.6 44.32 27 45.6 27 47C27 49.76 29.24 52 32 52C34.76 52 37 49.76 37 47C37 44.24 34.76 42 32 42C31.74 42 31.48 42 31.22 42.08L28 35.58C28.92 34.68 29.5 33.42 29.5 32C29.5 30.58 28.92 29.32 28 28.42L31.22 21.92C31.48 22 31.74 22 32 22C32.26 22 32.52 22 32.78 21.92L36 28.42C35.1 29.32 34.5 30.6 34.5 32C34.5 34.76 36.74 37 39.5 37C39.76 37 40 37 40.28 36.92L43.54 43.42C42.6 44.32 42 45.6 42 47C42 49.76 44.24 52 47 52C49.76 52 52 49.76 52 47C52 44.24 49.76 42 47 42Z" fill="#FAFAFA"/>
</svg>
