<svg width="178" height="20" viewBox="0 0 178 20" fill="none" xmlns="http://www.w3.org/2000/svg">
<path fill-rule="evenodd" clip-rule="evenodd" d="M22.4892 13.4969L21.4364 18.7374H16.8347C17.1844 17.0027 17.5351 15.1426 17.9326 13.3679C18.0137 12.9827 18.1039 12.5886 18.1895 12.1589C18.1895 11.8547 18.2319 11.5522 18.2796 11.2489C18.4536 9.12898 16.9203 8.73756 15.4348 9.38785C14.5505 9.7339 14.1566 10.3379 13.7248 11.1199C13.3255 11.8129 13.2002 12.4596 13.019 13.3252L11.8787 18.7374H7.31853L9.9912 5.8384C11.3956 5.79481 12.7955 5.75122 14.2026 5.71119C14.0295 6.53139 13.8096 7.31155 13.678 8.13353C15.3906 6.09905 17.5738 5.06179 20.123 5.79481C22.665 6.4878 23.195 9.00177 22.7939 11.4206C22.7443 12.1589 22.665 12.8056 22.4892 13.4969Z" fill="#98272A"/>
<path fill-rule="evenodd" clip-rule="evenodd" d="M105.657 2.47955e-05H110.13L106.141 18.7783H102.023C102.195 18.0853 102.368 17.3959 102.592 16.6976C101.755 17.4804 101.058 18.1271 100.136 18.563V15.7484C100.486 15.6648 100.841 15.5313 101.144 15.3614C102.465 14.5377 102.982 13.0663 102.982 11.594L102.897 10.8592C102.812 10.1698 102.507 9.55953 101.713 9.21704C101.28 8.95461 100.662 8.95461 100.136 9.04357V5.7094C100.396 5.7094 100.616 5.7948 100.841 5.7948C102.111 6.09815 103.202 6.92368 103.824 8.17622L105.657 2.47955e-05ZM100.136 18.563C99.8309 18.7365 99.4838 18.8219 99.0809 18.9055C97.8613 19.208 97.151 19.2961 95.8818 18.8219C94.3945 18.3006 93.6517 17.3069 93.0811 15.9654C91.766 12.6784 93.2073 8.00453 96.4524 6.40238C97.5034 5.88109 98.8609 5.58219 100.136 5.7094V9.04357C99.7867 9.08716 99.3964 9.21704 99.1287 9.38784C98.3823 9.86555 97.8982 10.5568 97.6377 11.377C97.3349 12.1972 97.151 13.3679 97.4187 14.2316C97.5034 14.6658 97.6828 14.9736 97.9415 15.2289C98.5545 15.7484 99.3964 15.8774 100.136 15.7484" fill="#98272A"/>
<path fill-rule="evenodd" clip-rule="evenodd" d="M68.479 6.01543L67.5596 8.78293C66.2904 8.43955 65.3647 8.26164 64.0531 8.17712C63.6547 8.17712 63.3554 8.13353 63.0499 8.21716C62.1232 8.43955 61.7275 9.25797 62.4315 9.86556C63.305 10.7294 64.8419 10.9429 65.9371 11.6376C66.2048 11.8138 66.5086 12.0726 66.8132 12.3315C67.6831 13.6721 67.5596 15.1008 66.6411 16.4885C65.1907 18.6049 62.4315 18.8219 59.9319 18.6485C58.5726 18.5586 57.4314 18.3015 56.0703 18.0426L56.9086 14.9255C58.5726 15.3614 59.6272 15.752 61.1957 15.5732C61.9033 15.5313 62.9173 15.5732 62.9173 14.6249C62.738 13.931 62.0826 13.4969 61.3768 13.1962C60.3294 12.7202 59.1882 12.4178 58.3562 11.594C57.8668 10.9028 57.7325 10.3833 57.7325 9.51862C57.7325 8.65305 58.002 8.04991 58.3959 7.48503C60.6359 4.32966 65.2412 5.23704 68.479 6.01543Z" fill="#98272A"/>
<path fill-rule="evenodd" clip-rule="evenodd" d="M42.4824 5.70941L47.1283 5.62401C46.7785 7.22615 46.4243 8.82652 46.0736 10.5114C45.8609 11.594 45.421 12.9827 45.7293 14.0617C45.9069 14.6658 46.116 14.8837 46.692 15.0554C47.35 15.2742 48.1883 15.1426 48.713 14.7529C50.2868 13.6303 50.7258 11.7666 51.1197 9.94918L52.0842 5.62401H56.6021L53.7924 18.7374C52.479 18.7783 51.1621 18.6938 49.8028 18.7374C49.9335 17.9982 50.1128 16.9164 50.2868 16.1807C49.8028 16.6157 49.4115 17.0935 48.8842 17.4804C48.2289 17.9982 47.4366 18.346 46.6055 18.5631C45.6392 18.7783 44.324 18.7783 43.4028 18.3878C42.3923 17.9982 41.6495 17.0935 41.2538 16.0944C40.7292 14.7529 40.9455 13.8473 41.1673 12.4596C41.5161 10.2116 42.002 7.91736 42.4824 5.70941Z" fill="#98272A"/>
<path fill-rule="evenodd" clip-rule="evenodd" d="M37.3065 2.47955e-05H41.7802L37.7482 18.7783H33.6252C33.801 18.0853 34.02 17.3959 34.1922 16.6976C33.4089 17.4804 32.6643 18.1271 31.7854 18.563V15.7484C32.1379 15.6648 32.484 15.5313 32.7959 15.3614C34.0615 14.5377 34.5933 13.0663 34.5933 11.594L34.5428 10.8592C34.4581 10.1698 34.1074 9.55953 33.3259 9.21704C32.877 8.95461 32.2659 8.95461 31.7854 9.04357V5.7094C32.0054 5.7094 32.2181 5.7948 32.484 5.7948C33.7135 6.09815 34.8087 6.92368 35.4668 8.17622L37.3065 2.47955e-05ZM31.7854 18.563C31.4366 18.7365 31.0832 18.8219 30.7272 18.9055C29.5076 19.208 28.7657 19.2961 27.4929 18.8219C26.0389 18.3006 25.2502 17.3069 24.6778 15.9654C23.4032 12.6784 24.8644 8.00453 28.0599 6.40238C29.1109 5.88109 30.5126 5.58219 31.7854 5.7094V9.04357C31.3915 9.08716 31.0427 9.21704 30.7272 9.38784C30.0322 9.86555 29.5076 10.5568 29.2398 11.377C28.937 12.1972 28.7657 13.3679 29.0199 14.2316C29.1109 14.6658 29.2858 14.9736 29.5869 15.2289C30.208 15.7484 30.9913 15.8774 31.7854 15.7484" fill="#98272A"/>
<path fill-rule="evenodd" clip-rule="evenodd" d="M3.94366 7.05719e-05H8.63368L4.73419 18.7366H0" fill="#98272A"/>
<path fill-rule="evenodd" clip-rule="evenodd" d="M90.9313 13.4969L89.8306 18.7374H85.1848C85.5778 17.0027 85.9717 15.1426 86.326 13.3679C86.4134 12.9827 86.5054 12.5886 86.6352 12.2043C86.6352 11.8547 86.6352 11.5522 86.6739 11.2489C86.8993 9.12898 85.2659 8.73756 83.8237 9.38785C82.9908 9.7766 82.5969 10.3379 82.1606 11.1199C81.7252 11.8129 81.59 12.505 81.4593 13.3252L80.2712 18.7374H75.8011L78.3891 5.8384C79.7872 5.79481 81.2006 5.79481 82.5969 5.71119C82.4238 6.53139 82.2444 7.31155 82.0668 8.13353C83.7777 6.09905 85.9717 5.06179 88.5137 5.79481C91.0602 6.4878 91.5884 9.00177 91.2377 11.4659C91.1476 12.1589 91.0602 12.8056 90.9313 13.4969Z" fill="#98272A"/>
<path fill-rule="evenodd" clip-rule="evenodd" d="M72.0738 7.05719e-05H76.8098L72.9103 18.7366H68.1689" fill="#98272A"/>
<path fill-rule="evenodd" clip-rule="evenodd" d="M159.847 13.6303L158.753 18.9056H154.105C154.456 17.1335 154.896 15.2289 155.251 13.4969C155.329 13.0654 155.421 12.6785 155.512 12.2434C155.512 11.9401 155.549 11.6376 155.596 11.3298C155.776 9.20995 154.195 8.82654 152.7 9.4706C151.867 9.82199 151.477 10.426 151 11.2062C150.6 11.8983 150.47 12.5495 150.295 13.4115L149.148 18.8655H144.589L147.225 5.88112C148.62 5.83753 150.072 5.79394 151.477 5.75124C151.299 6.57233 151.121 7.39786 150.949 8.17625C152.617 6.14177 154.896 5.10273 157.397 5.79394C160.024 6.53141 160.506 9.08719 160.157 11.5104C160.109 12.2434 159.978 12.892 159.847 13.6303Z" fill="#98272A"/>
<path fill-rule="evenodd" clip-rule="evenodd" d="M165.111 6.10352e-05H169.712L167.344 11.1635L171.995 5.79483H177.165L171.734 11.7248L175.148 18.8219H170.236L167.216 11.9401L165.768 18.8219H161.254" fill="#98272A"/>
<path fill-rule="evenodd" clip-rule="evenodd" d="M143.761 11.9401C143.366 13.8011 142.972 15.6185 142.615 17.4377L142.444 18.9056H138.629L138.898 16.9164C138.24 17.5641 137.534 18.1272 136.791 18.5186V16.2679C136.831 16.2243 136.917 16.2243 137.002 16.1781C137.492 15.921 137.844 15.7484 138.103 15.486C138.718 14.8401 139.029 13.8483 139.283 13.0227H138.629C138.066 13.0227 137.402 12.9827 136.791 13.0227V10.8592C137.708 10.7738 138.762 10.8139 139.81 10.8139C139.81 9.68676 139.374 8.82653 138.19 8.56944C137.666 8.48048 137.187 8.48048 136.791 8.48048V5.79482C139.642 5.45233 142.667 5.92648 143.719 8.48048C144.241 9.77661 143.94 10.5986 143.761 11.9401ZM136.791 18.5186C136.088 18.8655 135.296 19.0844 134.553 19.1662C132.84 19.3379 131.046 18.5631 130.301 17.0027C129.771 16.1363 129.909 15.1871 130.121 14.1934C130.346 13.2416 130.787 12.7203 131.917 11.9401C133.543 11.1635 135.129 10.901 136.791 10.8592V13.0227C136.131 13.0663 135.474 13.2416 135.036 13.5458C134.161 14.1934 133.814 15.405 134.771 16.1363C135.342 16.525 136.131 16.4885 136.791 16.2679V18.5186ZM136.791 8.48048C136.173 8.48048 135.645 8.52229 134.95 8.69754C134.161 8.86834 133.59 9.12899 132.84 9.47148L133.367 6.446C134.425 6.1889 135.555 5.92648 136.791 5.79482" fill="#98272A"/>
<path fill-rule="evenodd" clip-rule="evenodd" d="M121.269 1.51502H123.679C125.789 1.51502 129.031 1.81748 129.637 4.24071C129.771 4.63035 129.813 5.01643 129.813 5.40518V5.45233C129.813 6.87478 129.118 8.13266 127.802 9.00178C126.878 9.43056 126.095 9.64851 125.174 9.90738C127.537 10.2961 129.077 11.8983 128.591 14.4523C127.884 17.9982 124.512 18.5577 121.269 18.7783V15.6648C121.443 15.6648 121.623 15.6185 121.753 15.5732C124.468 15.1417 125.079 12.0264 122.499 11.4659C122.098 11.377 121.711 11.3298 121.269 11.377V8.60592C121.795 8.60592 122.366 8.56233 122.845 8.48048C124.295 8.13266 126.22 6.66306 124.64 5.01643C123.982 4.32967 122.408 4.41329 121.269 4.49869V1.51502ZM116.885 1.51502H121.269V4.49869H120.873L119.95 8.56233C120.347 8.56233 120.835 8.60592 121.269 8.60592V11.377C120.654 11.377 119.996 11.4659 119.383 11.5104L118.463 15.8338C119.248 15.7902 120.306 15.7902 121.269 15.6648V18.7783C121.003 18.8219 120.706 18.8219 120.431 18.8655H113.332" fill="#98272A"/>
</svg>
