<svg width="147" height="40" viewBox="0 0 147 40" fill="none" xmlns="http://www.w3.org/2000/svg">
<path d="M3.13232 20C3.13232 10.2483 12.282 2.34485 23.5749 2.34485C34.8678 2.34485 44.0176 10.2483 44.0176 20C44.0176 29.7517 34.8678 37.6552 23.5749 37.6552C12.282 37.6552 3.13232 29.7517 3.13232 20Z" fill="#003974"/>
<path d="M21.0883 8.04141L25.8418 6.46899L25.8693 32.2483L21.0746 33.8621L21.0883 8.04141Z" fill="#EC1C24"/>
<path d="M23.9047 24.0965C21.8439 26.5931 19.8519 29.1448 16.1151 29.1448C10.8395 29.1448 8.33917 24.0276 8.33917 19.7379C8.33917 15.4483 10.29 10.7586 15.4419 10.7586C17.6675 10.7586 19.8244 12.1241 21.1021 13.5724V17.0621C20.0305 16.3448 17.64 15.6276 16.0738 15.6C12.8179 15.5448 9.93282 16.9655 9.98777 20.1931C10.029 22.4138 12.2134 23.931 14.3978 23.931C17.7499 23.931 19.7695 20.8689 21.4593 18.5379C21.9264 17.931 23.259 16.1379 23.4788 15.8483C25.3609 13.2138 27.5316 10.8 31.2684 10.8C35.6647 10.8 38.1376 14.3586 38.8382 18.0276H36.8599C36.0631 16.8414 34.5244 16.1103 33.0132 16.1103C29.5511 16.1103 27.4904 19.3103 25.7594 21.6552C25.7594 21.6552 24.413 23.4896 23.9322 24.0827L23.9047 24.0965ZM38.9481 21.7793C38.5085 25.4621 36.4478 29.1862 31.9416 29.2C29.3176 29.2 27.2706 27.3931 25.8418 25.1862V22.6345C27.614 23.5172 29.2764 24.469 31.2959 24.4965C33.7825 24.5379 36.0219 23.5724 36.9561 21.7793H38.9481Z" fill="white"/>
<path d="M47.4933 33.7241H48.2215V30.0138L51.8209 33.7241H52.8238L48.9221 29.7931L52.5216 26.2896H51.5599L48.2215 29.6275V26.2896H47.4933V33.7241Z" fill="#003974"/>
<path fill-rule="evenodd" clip-rule="evenodd" d="M54.129 31.0069C54.129 29.7517 54.7609 28.731 55.9287 28.731C57.0964 28.731 57.7284 29.7379 57.7284 31.0069C57.7284 32.2759 57.0964 33.2828 55.9287 33.2828C54.7609 33.2828 54.129 32.2759 54.129 31.0069ZM53.4008 31.0069C53.4008 32.4966 54.1702 33.8483 55.9287 33.8483C57.6872 33.8483 58.4565 32.4828 58.4565 31.0069C58.4565 29.531 57.6872 28.1655 55.9287 28.1655C54.1702 28.1655 53.4008 29.531 53.4008 31.0069Z" fill="#003974"/>
<path d="M62.056 28.2896H60.8195V26.7448L60.1464 26.9793V28.2896H59.0885V28.869H60.1464V32.0414C60.1464 33.0345 60.1876 33.8483 61.3828 33.8483C61.7125 33.8483 62.0422 33.7655 62.2071 33.6965L62.1659 33.1448C61.9735 33.2138 61.8087 33.269 61.5477 33.269C61.0119 33.269 60.8195 32.8689 60.8195 32.3724V28.8552H62.056V28.2758V28.2896Z" fill="#003974"/>
<path fill-rule="evenodd" clip-rule="evenodd" d="M66.3011 31.3241C66.3011 31.9172 66.2736 33.2828 64.6937 33.2828C64.0755 33.2828 63.5672 33.0207 63.5672 32.3035C63.5672 31.1173 64.9547 30.9931 66.1088 30.9931H66.3011V31.3241ZM66.3698 33.7241H67.0292C66.9743 33.3517 66.9743 33.0207 66.9743 32.5793V30.1793C66.9743 28.7586 66.411 28.1517 65.0784 28.1517C64.5975 28.1517 63.8969 28.3173 63.4847 28.5241V29.1724C63.9793 28.8552 64.5151 28.7173 65.0784 28.7173C65.9851 28.7173 66.3148 29.1862 66.3148 30.1104V30.3862H66.1912C64.7899 30.3862 62.8528 30.469 62.8528 32.2897C62.8528 32.7862 63.1001 33.8207 64.6388 33.8207C65.3119 33.8207 66.0675 33.4621 66.3561 32.8138H66.3835V33.6828L66.3698 33.7241Z" fill="#003974"/>
<path d="M68.5679 33.7241H69.2274V30.9379L71.9063 33.7241H72.8268L69.8731 30.7034L72.5108 28.2896H71.6453L69.2274 30.5241V25.7379H68.5679V33.7241Z" fill="#003974"/>
<path d="M76.8933 33.7241H77.6352V27.0206H77.6489L80.4378 33.7241H81.056L83.7625 27.0206H83.7762V33.7241H84.5181V26.2896H83.4603L80.7401 32.8275L78.0336 26.2896H76.8933V33.7241Z" fill="#003974"/>
<path fill-rule="evenodd" clip-rule="evenodd" d="M89.3128 31.3241C89.3128 31.9172 89.2853 33.2828 87.7054 33.2828C87.0872 33.2828 86.5789 33.0207 86.5789 32.3035C86.5789 31.1173 87.9664 30.9931 89.1205 30.9931H89.3128V31.3241ZM89.3815 33.7241H90.0409C89.986 33.3517 89.986 33.0207 89.986 32.5793V30.1793C89.986 28.7586 89.4227 28.1517 88.0901 28.1517C87.6092 28.1517 86.9086 28.3173 86.4964 28.5241V29.1724C86.991 28.8552 87.5268 28.7173 88.0901 28.7173C88.9968 28.7173 89.3265 29.1862 89.3265 30.1104V30.3862H89.2029C87.8016 30.3862 85.8645 30.469 85.8645 32.2897C85.8645 32.7862 86.1118 33.8207 87.6505 33.8207C88.3236 33.8207 89.0792 33.4621 89.3677 32.8138H89.3952V33.6828L89.3815 33.7241Z" fill="#003974"/>
<path d="M91.5796 33.7241H92.2528V30.8138C92.2528 29.8621 92.6649 28.731 93.8602 28.731C94.9592 28.731 95.1378 29.5448 95.1378 30.4827V33.7241H95.811V30.4689C95.811 29.131 95.4126 28.1517 93.9701 28.1517C93.1733 28.1517 92.5688 28.6069 92.2803 29.2H92.2528V25.7241H91.5796V33.7241Z" fill="#003974"/>
<path fill-rule="evenodd" clip-rule="evenodd" d="M98.1465 25.9448H97.4733V26.8414H98.1465V25.9448ZM97.4871 33.7241H98.1602V28.2897H97.4871V33.7241Z" fill="#003974"/>
<path d="M99.8363 33.7241H100.51V30.7173C100.51 29.8069 100.894 28.731 102.117 28.731C103.037 28.731 103.395 29.3931 103.395 30.4138V33.7241H104.068V30.2483C104.068 29.0483 103.559 28.1517 102.227 28.1517C101.1 28.1517 100.702 28.7586 100.468 29.2552H100.441V28.2897H99.7951C99.8363 28.731 99.8363 29.1586 99.8363 29.5724V33.7241Z" fill="#003974"/>
<path fill-rule="evenodd" clip-rule="evenodd" d="M106.156 31.0069C106.156 29.9586 106.486 28.731 107.763 28.731C108.959 28.731 109.371 30.0138 109.371 31.0069C109.371 32 108.959 33.2827 107.763 33.2827C106.486 33.2827 106.156 32.0689 106.156 31.0069ZM110.03 25.7379H109.357V29.2138H109.33C109.233 28.9517 108.698 28.1655 107.64 28.1655C106.046 28.1655 105.414 29.3655 105.414 31.0069C105.414 32.6483 106.156 33.8483 107.64 33.8483C108.409 33.8483 108.972 33.5448 109.33 32.8552H109.357V33.7241H110.03V25.7241V25.7379Z" fill="#003974"/>
<path d="M111.651 33.7241H112.325V31.0345C112.325 30.0552 112.613 28.8552 113.671 28.8552C113.836 28.8552 114.028 28.8828 114.165 28.9241V28.2207C114.042 28.1931 113.863 28.1517 113.698 28.1517C113.011 28.1517 112.558 28.7173 112.311 29.3241H112.283V28.2759H111.61C111.651 28.6759 111.651 28.8966 111.651 29.4897V33.7104V33.7241Z" fill="#003974"/>
<path fill-rule="evenodd" clip-rule="evenodd" d="M118.232 31.3241C118.232 31.9172 118.204 33.2828 116.625 33.2828C116.006 33.2828 115.498 33.0207 115.498 32.3035C115.498 31.1173 116.886 30.9931 118.04 30.9931H118.232V31.3241ZM118.287 33.7241H118.946C118.891 33.3517 118.891 33.0207 118.891 32.5793V30.1793C118.891 28.7586 118.328 28.1517 116.996 28.1517C116.515 28.1517 115.814 28.3173 115.402 28.5241V29.1724C115.896 28.8552 116.432 28.7173 116.996 28.7173C117.902 28.7173 118.232 29.1862 118.232 30.1104V30.3862H118.108C116.707 30.3862 114.77 30.469 114.77 32.2897C114.77 32.7862 115.017 33.8207 116.556 33.8207C117.229 33.8207 117.971 33.4621 118.273 32.8138H118.301V33.6828L118.287 33.7241Z" fill="#003974"/>
<path fill-rule="evenodd" clip-rule="evenodd" d="M124.208 26.9241H125.211C125.843 26.9241 126.818 27.0758 126.818 28.1517C126.818 29.3379 125.788 29.531 125.019 29.531H124.208V26.9241ZM124.181 30.1793H124.826C125.912 30.1793 127.052 30.3172 127.052 31.6413C127.052 32.8275 125.939 33.0896 124.95 33.0896H124.181V30.1793ZM123.453 33.7241H124.923C126.461 33.7241 127.78 33.2275 127.78 31.6C127.78 30.6206 127.148 30 126.214 29.8344V29.8069C127.121 29.6275 127.56 29.062 127.56 28.1103C127.56 26.6758 126.42 26.2758 125.211 26.2758H123.453V33.7241Z" fill="#003974"/>
<path fill-rule="evenodd" clip-rule="evenodd" d="M132.396 31.3241C132.396 31.9172 132.369 33.2828 130.789 33.2828C130.171 33.2828 129.662 33.0207 129.662 32.3035C129.662 31.1173 131.036 30.9931 132.204 30.9931H132.396V31.3241ZM132.451 33.7241H133.111C133.056 33.3517 133.056 33.0207 133.056 32.5793V30.1793C133.056 28.7586 132.492 28.1517 131.16 28.1517C130.679 28.1517 129.978 28.3173 129.566 28.5241V29.1724C130.061 28.8552 130.596 28.7173 131.16 28.7173C132.066 28.7173 132.396 29.1862 132.396 30.1104V30.3862H132.272C130.871 30.3862 128.934 30.469 128.934 32.2897C128.934 32.7862 129.181 33.8207 130.72 33.8207C131.393 33.8207 132.149 33.4621 132.437 32.8138H132.451V33.6828V33.7241Z" fill="#003974"/>
<path d="M134.663 33.7241H135.336V30.7173C135.336 29.8069 135.721 28.731 136.944 28.731C137.864 28.731 138.221 29.3931 138.221 30.4138V33.7241H138.894V30.2483C138.894 29.0483 138.386 28.1517 137.053 28.1517C135.927 28.1517 135.528 28.7586 135.295 29.2552H135.281V28.2897H134.635C134.677 28.731 134.677 29.1586 134.677 29.5724V33.7241H134.663Z" fill="#003974"/>
<path d="M140.557 33.7241H141.23V30.9379L143.909 33.7241H144.829L141.862 30.7034L144.513 28.2896H143.648L141.23 30.5241V25.7379H140.557V33.7241Z" fill="#003974"/>
<path fill-rule="evenodd" clip-rule="evenodd" d="M66.0126 20.1104C64.0755 20.1104 63.2924 18.4966 63.2924 16.7035C63.2924 14.9104 64.0893 13.269 66.0126 13.269C67.936 13.269 68.7328 14.8828 68.7328 16.7035C68.7328 18.5242 67.936 20.1104 66.0126 20.1104ZM66.0126 23.0483C70.0105 23.0483 73.0604 20.7173 73.0604 16.6897C73.0604 12.6621 70.0105 10.3173 66.0126 10.3173C62.0148 10.3173 58.9649 12.6483 58.9649 16.6897C58.9649 20.7311 62.0148 23.0483 66.0126 23.0483Z" fill="#EC1C24"/>
<path d="M72.6757 13.5449H75.0662V18.4966C75.0662 21.3931 75.9729 23.0483 79.7235 23.0483C80.7676 23.0483 81.5644 22.9104 82.3475 22.8138L82.2101 20.0828C81.798 20.1517 81.3446 20.2483 80.9325 20.2483C79.5998 20.2483 79.2564 19.5035 79.2564 18.0276V13.5449H82.1826V10.6069H79.2564V6.40002L75.1349 7.87589V10.6069H72.662V13.5449H72.6757Z" fill="#EC1C24"/>
<path d="M96.8414 22.7724H101.032V16.7449H101.087L104.425 22.7724H109.508L104.947 16.1793L109.151 10.6069H104.576L101.087 15.7104H101.032V6.41382L96.8414 7.86209V22.7724Z" fill="#EC1C24"/>
<path d="M47.8094 22.7724H51.9995V16.7449H52.0408L55.3929 22.7724H60.4623L55.9012 16.1793L60.1189 10.6069H55.5303L52.0408 15.7104H51.9995V6.41382L47.8094 7.79313V22.7724Z" fill="#EC1C24"/>
<path fill-rule="evenodd" clip-rule="evenodd" d="M86.8124 18.9242C86.8124 17.7379 87.939 17.2966 89.3815 17.2966C90.0135 17.2966 90.6317 17.3379 91.1675 17.3655C91.1675 18.8 90.1508 20.2759 88.5572 20.2759C87.568 20.2759 86.8124 19.7793 86.8124 18.9242ZM95.3577 22.8276C95.1653 21.8621 95.1241 20.8966 95.1241 19.9173V15.3379C95.1241 11.5724 92.4177 10.2345 89.2853 10.2345C87.4719 10.2345 85.892 10.4966 84.3945 11.1035L84.4632 13.9862C85.6447 13.3242 87.0048 13.0621 88.3786 13.0621C89.9036 13.0621 91.1537 13.5173 91.1812 15.1862C90.6454 15.0897 89.8898 15.0207 89.2029 15.0207C86.9361 15.0207 82.8695 15.4759 82.8695 19.2276C82.8695 21.9035 85.0402 23.1035 87.4581 23.1035C89.2029 23.1035 90.3844 22.4138 91.3461 20.8828H91.3873C91.3873 21.5173 91.456 22.1655 91.4835 22.8138H95.3714L95.3577 22.8276Z" fill="#EC1C24"/>
</svg>
