<svg width="64" height="64" viewBox="0 0 64 64" fill="none" xmlns="http://www.w3.org/2000/svg">
<rect width="64" height="64" rx="16" fill="#FAFAFA" fill-opacity="0.08"/>
<g clip-path="url(#clip0_267_2194)">
<path d="M37.8451 15.2087C37.92 15.4402 38.2536 15.9546 38.4645 16.067C38.9103 16.3047 44.9351 16.1867 45.9149 16.188C46.3257 16.1885 46.7819 16.1372 47.1855 16.1875C47.4287 16.2179 47.5387 16.4237 47.7579 16.4968C48.0771 16.6033 48.4986 16.6111 48.7882 16.7641C49.4441 17.1109 49.9658 18.0561 50.5852 18.2622C50.9413 18.8009 51.4064 19.5366 51.6117 20.1556C51.6614 20.3056 51.6171 20.8366 51.6421 21.0451C51.671 21.286 51.8473 21.5992 51.8542 21.8126C51.8862 22.8038 51.8729 23.8295 51.8715 24.8204C51.8683 27.1317 51.8653 29.4401 51.8619 31.751C51.8609 32.4612 52.1858 33.0968 52.1718 33.6639C52.1111 33.5026 52.061 33.3359 51.9108 33.2592C51.7435 33.3404 51.7756 33.3511 51.6582 33.5313C51.0718 33.5716 50.4088 33.6153 49.8532 33.4081C49.9368 33.3999 49.9778 33.3656 50.0493 33.3219L50.0455 33.2442C49.7272 33.0033 49.4439 32.9632 49.214 32.8126C48.2362 32.1415 47.2068 31.7696 46.0117 31.8107C45.6917 31.8218 44.7846 31.7259 44.5993 31.9419C44.6787 32.0613 44.6357 32.0217 44.806 32.0768C44.2715 32.238 43.8552 32.3652 43.3582 32.6231C43.0297 32.7936 42.2191 33.4291 41.9226 33.4809C41.0744 33.6293 40.1621 33.6252 39.2915 33.7861C39.4101 33.7419 39.5138 33.7211 39.5832 33.6224C39.4074 33.5119 38.7367 33.6152 38.6285 33.7989C38.7074 33.9089 38.6743 33.8737 38.8471 33.9095C37.4518 34.5318 36.5889 35.2032 35.8272 36.5801C35.5569 37.0687 35.3283 37.6292 35.0608 38.1114C34.0444 38.1669 32.7718 38.1338 31.7346 38.1341L25.8486 38.1338L21.1314 38.134C19.5058 38.1344 17.8741 38.254 16.3215 37.7078C16.4418 37.6747 16.4914 37.682 16.5701 37.6015C16.2349 37.2952 15.3142 37.2069 14.6511 36.6511C13.7107 35.8629 13.425 35.7025 12.744 34.6385L12.6748 34.6434L12.6113 34.806C12.5315 34.6519 12.4779 34.5353 12.4085 34.3793C12.3087 34.1549 12.2804 33.5737 12.0787 33.4883C11.9153 33.6751 11.9457 34.1229 11.9678 34.373C12.07 35.5279 12.0125 36.6835 12.0098 37.8464C11.9863 39.9933 11.9957 42.1405 12.0381 44.2872C11.8784 43.8176 11.9327 42.1495 11.9332 41.5955L11.9413 36.6201C11.9385 35.6202 11.8444 34.4887 11.8739 33.5161C11.8827 33.2234 12.1539 32.1895 12.1817 31.6798C12.2688 30.0866 11.9298 20.621 12.5222 19.6047C12.9073 19.4238 12.9369 18.9442 13.1844 18.688C13.6024 18.2542 14.0555 17.8561 14.5006 17.4514C14.7691 17.2073 15.0965 17.0706 15.2323 16.7421C15.4236 16.6181 15.5641 16.7223 15.817 16.6524C16.1093 16.5715 16.6193 16.2503 16.8893 16.2305C17.6169 16.1774 18.4866 16.1915 19.2188 16.1901L23.0475 16.1907C23.8453 16.1947 24.7511 16.2231 25.5411 16.1878L26.0244 15.8614C26.0159 15.6108 26.0276 15.5465 26.0839 15.3011C26.0739 15.5842 26.0354 15.7152 26.2109 15.9151C26.7383 16.0336 28.6468 15.9956 29.2509 15.9938L34.4401 15.9913C35.5169 15.9946 36.5989 16.0281 37.6738 16.0007C38.0172 15.992 37.8786 15.3944 37.8451 15.2087ZM21.4393 30.7012C21.8399 30.0249 19.4962 29.7117 19.1531 29.9482C19.1647 29.9401 19.124 30.0413 19.0617 30.0977L19.1489 30.151C20.067 29.9408 20.737 30.0377 21.4393 30.7012ZM18.0746 32.4184L17.9858 32.4761C17.9273 33.0538 19.0562 34.2804 19.7112 33.9569C18.909 33.8431 18.3696 33.112 18.0746 32.4184Z" fill="#FAFAFA" fill-opacity="0.501961"/>
<path d="M19.1488 30.1511C20.0669 29.9408 20.7368 30.0378 21.4392 30.7012C21.8142 31.1751 21.9853 31.6019 21.9083 32.2326C21.8393 32.7728 21.5574 33.2631 21.1252 33.5946C20.6181 33.9885 20.3239 33.9374 19.7111 33.9569C18.9089 33.8431 18.3694 33.112 18.0744 32.4185C17.8821 31.3312 18.3323 30.7792 19.1488 30.1511Z" fill="#FAFAFA"/>
<path d="M19.1488 30.151L19.0615 30.0977C19.1238 30.0413 19.1646 29.9401 19.1529 29.9481C19.4961 29.7117 21.8398 30.0249 21.4391 30.7011C20.7368 30.0377 20.0669 29.9407 19.1488 30.151Z" fill="#FAFAFA" fill-opacity="0.45098"/>
<path d="M19.711 33.9569C19.0559 34.2805 17.927 33.0538 17.9856 32.4762L18.0743 32.4185C18.3693 33.112 18.9088 33.8431 19.711 33.9569Z" fill="#FAFAFA" fill-opacity="0.411765"/>
<path d="M44.8061 32.0768C46.0792 31.8037 47.4808 32.0273 48.6043 32.666C49.0276 32.9067 49.4376 33.1797 49.8533 33.4081C50.4089 33.6154 51.072 33.5716 51.6583 33.5314C51.7757 33.3511 51.7436 33.3405 51.9109 33.2592C52.0611 33.336 52.1112 33.5026 52.1719 33.6639C52.1981 34.8338 52.2188 36.7071 52.161 37.8493C52.0192 37.8867 51.8766 37.8176 51.746 37.7643C51.2554 37.6685 49.9003 37.7311 49.2789 37.6979C47.7621 37.4207 46.7799 35.3609 45.1636 36.3186C44.6139 36.6096 44.0583 37.0584 43.5221 37.402C42.7715 37.8361 41.3966 37.6164 40.4436 37.6848C39.4124 37.8341 38.9191 39.7828 38.6337 40.6134L38.6219 40.6291C37.9391 41.526 35.9445 42.1199 35.9873 43.4316C35.9929 43.6052 36.112 43.8954 36.1424 44.0856C36.333 44.6559 36.6022 45.4072 36.755 45.9764C36.5489 46.6551 36.327 47.3569 36.1371 48.0395C35.9285 48.7945 35.9796 48.8395 36.3427 49.5568C36.3957 49.6617 36.4824 49.8237 36.5074 49.9392C36.1079 50.0446 33.1363 49.994 32.4695 49.9935L23.2758 49.9917C21.9446 49.9917 19.8494 49.9288 18.5869 50.0062C16.9341 50.0137 15.7023 49.689 14.3426 48.7143C13.4057 48.0427 12.6808 47.1069 12.3222 45.9988C12.2282 45.7083 12.0922 44.6498 12.0383 44.2873C11.9958 42.1406 11.9864 39.9934 12.01 37.8464C12.0126 36.6835 12.0701 35.528 11.9679 34.3731C11.9458 34.123 11.9154 33.6751 12.0788 33.4883C12.2806 33.5737 12.3088 34.155 12.4087 34.3794C12.478 34.5353 12.5316 34.652 12.6114 34.806C13.6744 36.3793 14.5267 37.0419 16.3216 37.7078C17.8743 38.254 19.5059 38.1344 21.1315 38.1341L25.8487 38.1338L31.7347 38.1342C32.7719 38.1339 34.0445 38.1669 35.0609 38.1115C35.3284 37.6293 35.557 37.0687 35.8273 36.5801C36.5891 35.2033 37.4519 34.5318 38.8472 33.9096L39.2916 33.7861C40.1622 33.6252 41.0746 33.6293 41.9227 33.481C42.2193 33.4291 43.0298 32.7936 43.3583 32.6231C43.8553 32.3652 44.2716 32.238 44.8061 32.0768Z" fill="#FAFAFA"/>
<path d="M45.1636 36.3185C46.7799 35.3608 47.7622 37.4207 49.2789 37.6978L49.0937 37.7435L49.0766 37.8014C49.2752 37.8693 51.4822 37.9461 51.6509 37.8924L51.746 37.7642C51.8766 37.8175 52.0192 37.8867 52.161 37.8492C52.1596 37.897 52.1564 38.0555 52.1784 38.0927C52.615 38.8326 52.885 39.6697 53.2312 40.4552C53.3391 40.6998 53.463 40.8292 53.5323 41.0976C53.9978 41.4979 54.1965 41.4365 54.6851 41.7395C54.7723 41.7936 54.76 41.9259 54.7886 41.9588C54.8692 42.0515 55.3033 42.2056 55.3642 42.2582C55.6821 42.5339 55.5199 42.7158 56.0003 42.8913V44.012C55.57 44.1488 55.5616 44.4297 55.45 44.8474C55.3478 45.2305 54.956 45.9317 55.1603 46.2999C55.3792 46.6948 55.503 47.6469 55.8471 47.8639L56.0003 47.8817V49.1061C55.9525 49.1135 55.8925 49.1228 55.8208 49.134C55.1692 49.644 54.9822 50.1942 54.2163 50.5533L54.1482 50.3847C53.9843 50.3471 53.8626 50.3763 53.7449 50.5066L53.7496 50.607C53.8881 50.6756 53.9155 50.6453 54.0937 50.6341C53.5282 50.9136 53.4431 51.1038 53.1511 51.6573C52.8731 52.1843 52.6166 53.2953 52.327 53.7547C52.3216 53.5318 52.3561 53.5231 52.2538 53.3604C52.0803 53.383 52.0683 53.5285 52.0505 53.6798L52.0907 53.7727L52.2119 53.8205L51.9307 54.1034C49.283 54.634 49.8275 53.3627 47.1671 55.4886C46.2146 55.2815 46.5569 55.633 45.9816 55.8955C45.4639 56.1318 45.2931 54.7097 44.4939 54.9697C44.4137 54.996 44.334 55.0241 44.2547 55.0532C42.9739 53.8114 42.7302 54.2807 40.9872 54.1736C40.7047 54.1563 40.1084 54.1347 39.8512 54.0262C39.7641 54.0017 39.7769 53.8109 39.7292 53.7551C39.0812 52.9968 39.1498 51.9254 38.5718 51.1124C38.502 51.0142 38.3583 50.8618 38.2761 50.7652C38.0409 50.6949 37.9102 50.658 37.7296 50.4834C37.2391 50.0093 36.9674 50.0941 36.3455 50.0725C35.2822 50.0436 34.2185 50.0321 33.1548 50.038L23.2971 50.034L20.3474 50.0391C19.8574 50.0399 19.051 50.0615 18.5869 50.0061C19.8494 49.9288 21.9446 49.9916 23.2758 49.9916L32.4695 49.9934C33.1363 49.994 36.1079 50.0445 36.5074 49.9392C36.4824 49.8237 36.3958 49.6616 36.3427 49.5568C35.9796 48.8394 35.9285 48.7945 36.1371 48.0394C36.1842 48.167 36.1523 48.1401 36.2485 48.1915L36.334 48.1384C36.6275 47.5866 36.5963 47.3775 36.723 46.7822C36.856 46.4001 37.1094 46.0543 36.9146 45.6235C36.7887 45.3452 36.4522 43.859 36.2857 43.7622C36.196 43.8597 36.1806 43.957 36.1424 44.0855C36.112 43.8953 35.993 43.6052 35.9873 43.4315C35.9445 42.1198 37.9391 41.5259 38.6219 40.6291L38.6338 40.6134C39.3397 40.3991 39.3026 38.2978 40.4185 37.882L40.4512 37.7825L40.5368 37.7483L40.4437 37.6847C41.3966 37.6164 42.7715 37.8361 43.5222 37.402L43.5682 37.5329C43.9618 37.5995 44.9174 36.7764 45.3277 36.4931C45.28 36.365 45.3083 36.411 45.1636 36.3185Z" fill="#FAFAFA" fill-opacity="0.498039"/>
<path d="M26.0838 15.301C26.6574 13.6943 27.1652 12.4933 29.0496 12.1321C30.6214 11.8308 32.2157 11.9949 33.8079 11.9728C35.9825 11.9427 37.4101 13.074 37.8451 15.2086C37.8786 15.3943 38.0171 15.9919 37.6737 16.0006C36.5988 16.028 35.5168 15.9945 34.4401 15.9912L29.2509 15.9937C28.6467 15.9955 26.7383 16.0335 26.2108 15.9151C26.0353 15.7151 26.0738 15.5841 26.0838 15.301Z" fill="#FAFAFA"/>
<path d="M36.1421 44.0856C36.1802 43.9571 36.1956 43.8597 36.2853 43.7622C36.4519 43.8591 36.7883 45.3452 36.9142 45.6236C37.109 46.0543 36.8556 46.4001 36.7226 46.7823C36.596 47.3776 36.6271 47.5866 36.3336 48.1385L36.2481 48.1915C36.152 48.1401 36.1838 48.167 36.1367 48.0395C36.3266 47.3569 36.5486 46.6551 36.7547 45.9764C36.6018 45.4072 36.3327 44.6559 36.1421 44.0856Z" fill="#FAFAFA" fill-opacity="0.392157"/>
<path d="M44.8054 32.0767C44.6351 32.0217 44.6781 32.0613 44.5986 31.9419C44.784 31.7259 45.6911 31.8217 46.0111 31.8107C47.2061 31.7696 48.2356 32.1415 49.2133 32.8125C49.4433 32.9632 49.7266 33.0033 50.0449 33.2442L50.0487 33.3219C49.9772 33.3656 49.9362 33.3998 49.8526 33.4081C49.4369 33.1796 49.0269 32.9067 48.6035 32.666C47.4801 32.0272 46.0784 31.8036 44.8054 32.0767Z" fill="#FAFAFA" fill-opacity="0.419608"/>
<path d="M12.6113 34.8059L12.6748 34.6433L12.744 34.6384C13.4251 35.7024 13.7107 35.8629 14.6511 36.6511C15.3142 37.2069 16.2349 37.2952 16.5701 37.6015C16.4914 37.682 16.4418 37.6747 16.3215 37.7078C14.5266 37.0418 13.6743 36.3792 12.6113 34.8059Z" fill="#FAFAFA" fill-opacity="0.411765"/>
<path d="M44.2539 55.0531C44.3332 55.024 44.4129 54.9959 44.4931 54.9696C45.2923 54.7096 45.463 56.1317 45.9808 55.8954C46.5561 55.6329 46.2137 55.2814 47.1663 55.4885C46.8601 55.6915 46.728 55.6728 46.5428 56H45.3381C45.2245 55.7285 44.5322 55.1075 44.2539 55.0531Z" fill="#FAFAFA" fill-opacity="0.407843"/>
<path d="M38.6338 40.6132C38.9191 39.7826 39.4125 37.8339 40.4437 37.6846L40.5368 37.7482L40.4512 37.7823L40.4186 37.8818C39.3026 38.2976 39.3397 40.399 38.6338 40.6132Z" fill="#FAFAFA" fill-opacity="0.415686"/>
<path d="M43.5215 37.4018C44.0576 37.0582 44.6132 36.6094 45.1629 36.3184C45.3077 36.4108 45.2793 36.3649 45.3271 36.4929C44.9168 36.7762 43.9611 37.5994 43.5675 37.5327L43.5215 37.4018Z" fill="#FAFAFA" fill-opacity="0.411765"/>
<path d="M49.2785 37.6978C49.8999 37.731 51.2551 37.6684 51.7456 37.7641L51.6505 37.8923C51.4818 37.946 49.2748 37.8692 49.0762 37.8013L49.0933 37.7434L49.2785 37.6978Z" fill="#FAFAFA" fill-opacity="0.462745"/>
<path d="M38.8465 33.9095C38.6737 33.8737 38.7069 33.9088 38.6279 33.7989C38.7362 33.6152 39.4069 33.5119 39.5826 33.6223C39.5132 33.7211 39.4095 33.7419 39.2909 33.786L38.8465 33.9095Z" fill="#FAFAFA" fill-opacity="0.411765"/>
<path d="M54.0928 50.634C53.9147 50.6452 53.8873 50.6754 53.7488 50.6069L53.7441 50.5065C53.8618 50.3762 53.9835 50.347 54.1474 50.3845L54.2155 50.5532L54.0928 50.634Z" fill="#FAF9F8" fill-opacity="0.533333"/>
<path d="M52.2112 53.8204L52.09 53.7727L52.0498 53.6798C52.0676 53.5284 52.0796 53.3829 52.2531 53.3604C52.3554 53.523 52.3209 53.5317 52.3263 53.7546L52.2112 53.8204Z" fill="#FAFAFA" fill-opacity="0.52549"/>
</g>
<defs>
<clipPath id="clip0_267_2194">
<rect width="48" height="48" fill="white" transform="translate(8 8)"/>
</clipPath>
</defs>
</svg>
