<svg width="64" height="64" viewBox="0 0 64 64" fill="none" xmlns="http://www.w3.org/2000/svg">
<rect width="64" height="64" rx="16" fill="#003244" fill-opacity="0.25"/>
<g clip-path="url(#clip0_5075_6147)">
<path d="M9.08179 36.8005C9.51654 36.7518 10.1117 36.7821 10.5565 36.7796C11.4215 36.7749 12.2891 36.7827 13.1544 36.7829L21.1897 36.7816L46.5309 36.7807C47.4903 36.7807 55.3137 36.726 55.4946 36.8716C55.5856 37.215 54.0943 39.6561 53.8649 40.072C53.6046 40.5441 53.026 41.2558 52.8076 41.7423C52.4156 42.6155 52.3814 42.8191 51.6894 43.4634C51.2501 43.5208 50.5957 43.5267 50.1523 43.5297C49.7183 43.5315 49.2844 43.5252 48.8507 43.5107C49.0314 41.9601 48.6827 40.4732 47.3458 39.5197C46.1412 38.6605 45.0718 38.7596 43.6676 38.7586L40.8805 38.7587H31.9373L23.3077 38.7588C21.8205 38.759 20.3507 38.7347 18.8642 38.8146C16.2993 38.9524 14.7684 41.0207 15.2463 43.5178C14.5531 43.5546 13.0882 43.5918 12.4091 43.4326C12.2536 43.3761 11.883 43.0896 11.8169 42.9517C10.8596 40.9528 9.3248 38.9949 8.47388 36.9775L8.5119 36.8971C8.65854 36.7983 8.8976 36.8096 9.08179 36.8005Z" fill="#E3B909" fill-opacity="0.8"/>
<path d="M17.1381 41.4175C17.4698 41.1018 17.9842 40.7193 18.4399 40.6744C19.4944 40.5706 20.6645 40.6134 21.7282 40.616L27.461 40.6179L39.0903 40.6178C41.0247 40.6176 42.9641 40.6092 44.8984 40.617C45.5531 40.6259 46.1414 40.6866 46.6205 41.1847C47.0872 41.6415 47.112 42.1242 47.0934 42.7328C47.0767 43.278 46.98 43.759 46.9015 44.2907C46.6433 46.0403 46.3485 47.7398 45.9889 49.4708C45.6142 51.2743 45.4553 53.1495 45.0932 54.958C45.0292 55.3002 44.7832 55.6695 44.685 56H19.3414C18.4748 54.1725 18.449 51.3481 18.0615 49.3334C17.9497 48.7522 17.8175 48.1882 17.6838 47.612C17.5 46.0997 17.1691 44.5995 17.0211 43.0879C16.9641 42.5066 16.9937 41.9759 17.1381 41.4175Z" fill="#FAFAFA"/>
<path d="M17.1381 41.4175C17.4698 41.1018 17.9842 40.7193 18.4399 40.6744C19.4944 40.5706 20.6645 40.6134 21.7282 40.616L27.461 40.6179L39.0903 40.6178C41.0247 40.6176 42.9641 40.6092 44.8984 40.617C45.5531 40.6259 46.1414 40.6866 46.6205 41.1847C47.0872 41.6415 47.112 42.1242 47.0934 42.7328C47.0767 43.278 46.98 43.759 46.9015 44.2907C46.6433 46.0403 46.3485 47.7398 45.9889 49.4708C45.6142 51.2743 45.4553 53.1495 45.0932 54.958C45.0292 55.3002 44.7832 55.6695 44.685 56H19.3414C18.4748 54.1725 18.449 51.3481 18.0615 49.3334C17.9497 48.7522 17.8175 48.1882 17.6838 47.612C17.5 46.0997 17.1691 44.5995 17.0211 43.0879C16.9641 42.5066 16.9937 41.9759 17.1381 41.4175Z" fill="#E3B909" fill-opacity="0.6"/>
<path d="M29.1094 8H32.9599C33.026 8.07986 34.8467 9.19895 35.0835 9.26922C35.3561 9.35011 36.2717 9.42941 36.6417 9.58741C37.4459 9.93081 38.5887 11.1719 38.9395 11.9508C39.4023 12.9782 39.5095 14.5784 39.5006 15.7027C39.4968 16.1841 39.344 16.9667 39.3712 17.4116C39.4439 18.6048 39.719 19.958 39.1813 21.0984C38.8773 21.743 38.1544 22.6332 37.7751 23.2799C37.4597 23.8176 37.2089 24.3913 36.8995 24.9307C36.6888 25.2982 36.3441 25.6654 36.1928 26.0761C36.2281 26.2073 36.3617 26.2785 36.48 26.3344C36.9703 26.5663 38.1077 26.7047 38.5218 26.84C39.3441 27.1088 42.2966 28.3716 42.8863 28.8265L42.879 28.9151C41.9315 29.2082 38.232 29.0909 37.063 29.0913L29.7572 29.092C26.9619 29.0917 24.0904 29.15 21.2975 29.0095C21.0931 28.9993 21.0301 28.9867 20.9558 28.8012C21.046 28.6744 21.3521 28.5869 21.5059 28.503C23.2496 27.5504 25.0832 26.7717 27.051 26.4343C27.5243 26.3553 27.9745 25.9667 27.678 25.4628C27.2274 24.6969 26.8018 23.9238 26.3906 23.1381C26.2515 22.8723 25.8467 22.452 25.6635 22.187C24.9562 21.1638 24.5356 20.1088 24.6439 18.8517C24.6313 18.4661 24.7818 17.8115 24.7214 17.4476C24.5107 16.1773 24.4077 15.2137 24.6301 13.9042C24.864 12.226 25.4325 11.2748 26.4252 10.0027C27.414 8.73571 27.9538 8.85274 29.0799 8.02206L29.1094 8Z" fill="#FAFAFA"/>
<path d="M29.1094 8H32.9599C33.026 8.07986 34.8467 9.19895 35.0835 9.26922C35.3561 9.35011 36.2717 9.42941 36.6417 9.58741C37.4459 9.93081 38.5887 11.1719 38.9395 11.9508C39.4023 12.9782 39.5095 14.5784 39.5006 15.7027C39.4968 16.1841 39.344 16.9667 39.3712 17.4116C39.4439 18.6048 39.719 19.958 39.1813 21.0984C38.8773 21.743 38.1544 22.6332 37.7751 23.2799C37.4597 23.8176 37.2089 24.3913 36.8995 24.9307C36.6888 25.2982 36.3441 25.6654 36.1928 26.0761C36.2281 26.2073 36.3617 26.2785 36.48 26.3344C36.9703 26.5663 38.1077 26.7047 38.5218 26.84C39.3441 27.1088 42.2966 28.3716 42.8863 28.8265L42.879 28.9151C41.9315 29.2082 38.232 29.0909 37.063 29.0913L29.7572 29.092C26.9619 29.0917 24.0904 29.15 21.2975 29.0095C21.0931 28.9993 21.0301 28.9867 20.9558 28.8012C21.046 28.6744 21.3521 28.5869 21.5059 28.503C23.2496 27.5504 25.0832 26.7717 27.051 26.4343C27.5243 26.3553 27.9745 25.9667 27.678 25.4628C27.2274 24.6969 26.8018 23.9238 26.3906 23.1381C26.2515 22.8723 25.8467 22.452 25.6635 22.187C24.9562 21.1638 24.5356 20.1088 24.6439 18.8517C24.6313 18.4661 24.7818 17.8115 24.7214 17.4476C24.5107 16.1773 24.4077 15.2137 24.6301 13.9042C24.864 12.226 25.4325 11.2748 26.4252 10.0027C27.414 8.73571 27.9538 8.85274 29.0799 8.02206L29.1094 8Z" fill="#E3B909" fill-opacity="0.6"/>
<path d="M51.3469 30.9862C51.182 30.0886 50.9384 28.875 50.1237 28.3124C49.5462 27.9135 48.7549 28.0996 48.0731 28.1085C46.9865 28.1468 45.7205 27.1972 45.4806 26.1235C44.828 23.2032 47.8658 21.4451 50.1951 23.0485C51.3689 23.8566 51.0835 25.0569 51.2364 26.2193C51.2659 26.4438 51.6776 26.8737 51.8256 27.0554C52.5174 27.772 52.9408 28.617 53.1058 29.5943C53.1536 29.878 53.2288 30.8671 53.4184 30.9592C54.2135 31.3454 55.0972 31.5362 55.6067 32.3524C55.685 32.4779 55.8894 32.7901 56 32.9124V34.9132C54.142 34.8579 52.0648 34.9006 50.1887 34.9005L39.3297 34.9002L8 34.9059V32.8916C8.61458 32.0812 9.20792 31.2336 10.2924 31.122C11.3508 31.0132 12.5306 31.051 13.5993 31.0515L19.2864 31.0544L40.9009 31.0537L47.5058 31.0529C48.6111 31.0526 50.3024 31.1015 51.3469 30.9862ZM48.4506 26.2252C48.7049 26.1211 48.767 26.0773 48.9885 25.9121C49.1307 25.5551 49.2536 25.1883 49.0863 24.803C49.0154 24.6403 48.8834 24.5121 48.7188 24.446C48.5954 24.3969 48.3549 24.414 48.2167 24.4192C47.9691 24.4706 47.7153 24.4968 47.595 24.7365C47.2238 25.4766 47.6297 26.2155 48.4506 26.2252Z" fill="#E3B909" fill-opacity="0.8"/>
</g>
<defs>
<clipPath id="clip0_5075_6147">
<rect width="48" height="48" fill="white" transform="translate(8 8)"/>
</clipPath>
</defs>
</svg>
