<svg width="64" height="64" viewBox="0 0 64 64" fill="none" xmlns="http://www.w3.org/2000/svg">
<rect width="64" height="64" rx="16" fill="#FAFAFA" fill-opacity="0.08"/>
<path d="M14.4402 22.8961C14.5124 22.793 14.6635 22.5816 14.7009 22.4748C15.1162 21.2899 15.8993 20.5533 16.6859 19.6237C16.7245 19.578 17.1726 19.4337 17.272 19.3925C17.4447 18.8419 18.0245 18.8869 18.3204 18.3711C18.3689 18.2864 18.6166 18.3333 18.7621 18.2215C19.1912 17.8919 19.6047 17.5554 19.9947 17.1802C20.0412 17.1355 20.5706 17.0712 20.6265 17.0038C20.7592 16.8437 20.9714 16.5479 21.1317 16.4173C21.1718 16.3845 21.3311 16.4676 21.5103 16.3367C21.392 16.3138 21.3831 16.3339 21.322 16.2633C21.4617 16.1155 21.7605 16.1567 21.8599 16.0835C22.1828 15.8458 22.4589 15.6239 22.8068 15.4101L22.7863 15.3439C22.8327 15.258 23.0863 15.1957 23.1887 15.1745C23.6114 15.0869 23.8182 14.6182 24.1414 14.4771C24.5944 14.2794 24.8944 14.0408 25.2983 13.7757C25.3441 13.7457 25.8405 13.5648 25.9494 13.5187C26.0176 13.397 26.0306 13.3594 26.1559 13.2936C26.1891 13.3026 26.2224 13.3111 26.2559 13.319C26.6175 13.4014 26.6969 13.1192 26.9966 12.9771C27.3766 12.7971 27.7553 12.8271 28.1651 12.6456C28.3319 12.5716 29.0856 12.7617 29.2093 12.9657L29.1899 13.0159L28.9555 13.0806L28.954 13.1485C29.2065 13.3945 29.3049 13.0919 29.6513 13.0604C29.0708 13.4462 28.0876 13.9224 27.5685 14.315C26.5357 15.0961 25.432 17.3153 24.9408 18.4889C24.8447 18.3549 24.8403 18.3184 24.8456 18.1576L24.893 18.1504L24.8385 18.1126L24.8213 18.1208C24.9602 18.308 24.4755 18.7917 24.4003 19.036C23.8154 20.9347 21.8399 23.2056 23.1559 25.203C23.9902 26.4696 25.8783 26.2902 27.1807 26.2337L27.2003 26.2138L27.2189 26.2189C26.8245 26.1817 26.383 26.1688 25.9764 26.1371C26.3703 26.1032 26.8359 26.0687 27.2208 25.9449C29.2618 25.2838 30.8008 23.6969 32.3574 22.2985C33.1537 21.5831 34.3987 20.1158 35.5701 20.4242L35.4756 20.5528C35.6381 20.6901 35.8152 20.7831 36.0152 20.8622C36.5571 21.0765 37.0277 21.9485 37.3533 22.2465C37.9292 22.7737 38.5769 23.3466 39.1277 23.8993C39.9954 24.7699 40.827 25.6466 41.6871 26.5296C42.5056 27.3699 43.3486 28.1323 44.1508 29.0207C44.4937 29.4003 45.0742 30.2052 45.4699 30.6147C45.5006 30.6055 45.5314 30.5963 45.5622 30.5871C45.8833 30.9329 46.5545 31.5877 46.8577 31.9011C47.6569 32.7269 48.3224 33.5524 49.0964 34.3836C49.539 34.8589 50.1136 35.2667 50.5757 35.7332C50.9219 36.0827 50.9991 36.4096 51.3299 36.7166L51.4422 36.9362L51.5192 36.938L51.5826 36.8385C51.6414 37.0293 51.7035 37.3278 51.8478 37.4457C51.9676 37.5001 52.0382 37.474 52.1654 37.4497C51.9065 37.6536 51.763 37.927 51.5884 38.2085C51.5883 38.4985 51.6089 39.1168 51.581 39.3779C51.509 40.0511 50.7929 40.9867 50.3371 41.4647C50.0762 41.7383 50.0277 41.5471 49.6702 42.0136C49.5467 42.0566 49.3229 42.1425 49.205 42.1728C49.1615 42.1733 48.6111 42.1817 48.6208 42.1918C48.2481 41.8019 47.9228 42.4714 47.4736 42.4125C47.297 42.3894 46.8751 42.3811 46.7414 42.4641C46.4473 42.7604 46.334 43.1892 46.2559 43.5901C45.7795 44.0019 45.9437 44.14 45.7065 44.5989C45.513 44.9732 44.7614 45.7758 44.372 45.9756C44.3008 46.0122 44.1929 46.0504 44.1307 46.1032L44.0616 45.9293C43.8305 45.838 43.6207 46.0034 43.4867 46.1774C43.4588 46.3288 43.442 46.2891 43.5031 46.3939L43.571 46.4272C43.068 46.5343 42.4255 46.678 41.9179 46.6766C41.1174 46.6744 40.8079 47.7471 40.3517 48.3972L40.3445 48.1459L40.2804 48.0941L40.1125 48.1206C40.1024 48.2543 40.0753 48.2902 40.1374 48.3847L40.3517 48.3972C40.0421 48.7229 39.6855 48.9936 39.379 49.3175C39.0919 49.3544 38.8712 49.4571 38.6155 49.5903C38.1179 49.4896 37.5924 49.4818 37.087 49.3786C36.8214 49.3244 35.6147 48.9668 35.4492 49.0043C35.3562 49.1721 35.3625 49.1107 35.3662 49.2925C35.3354 49.5334 35.2971 49.7603 35.2561 49.9991C34.7866 50.4271 34.6573 51.3854 34.1425 51.5319C33.9579 51.0706 33.4472 51.2942 33.3321 51.5909C33.3543 51.653 33.3508 51.6779 33.3943 51.7123C33.007 51.9118 31.6619 51.6414 31.1901 51.5862C30.9493 51.558 30.6234 50.9047 30.2948 50.8037C30.4084 50.6699 30.5546 50.5615 30.6471 50.4439C31.1807 49.7464 31.7456 49.0092 31.9152 48.1251C32.2911 46.1653 31.1066 44.4628 29.1874 44.0664C29.3337 44.047 29.3522 44.0696 29.4479 43.9823C29.2881 43.7642 28.2609 43.8191 27.9998 43.7594C27.8888 43.537 27.8775 42.7077 27.7146 42.5975L27.6182 42.666L27.5765 42.6011L27.5144 42.6772C27.4579 42.5578 27.3999 42.4391 27.3403 42.3212C26.8663 41.4014 26.2579 41.0094 25.3071 40.7047L25.4488 40.6684L25.4787 40.6004L25.4073 40.5332C25.0012 40.4264 23.5446 40.2131 23.2659 40.5169C23.4226 40.5899 23.6246 40.5779 23.801 40.581C23.5335 40.6315 23.183 40.6637 22.8848 40.7164C22.6626 39.6755 22.3674 38.999 21.6735 38.2064L21.7448 38.0191C21.6658 37.6612 21.4315 37.7436 21.2987 37.588C20.8875 37.1067 20.4861 37.18 19.9077 37.0808C19.6172 37.031 18.4242 36.9582 18.2503 37.1223L18.2796 37.1848L18.4503 37.2215C18.3685 37.2365 18.2698 37.2559 18.1894 37.2578C18.1399 37.2693 17.9606 37.2436 17.9493 37.1782C17.7588 36.0696 17.5836 35.2276 16.7386 34.3823C15.9522 33.5955 15.1073 33.3937 13.9776 33.3997C14.1281 33.3501 14.6272 33.3359 14.8217 33.3242L14.8212 33.2913C14.5578 33.2255 13.6102 33.0714 13.4676 33.3346C13.6173 33.4351 13.6596 33.401 13.8721 33.4085C13.2059 33.5298 12.5917 33.6137 12.0857 34.1073C12.4096 33.5009 11.9313 33.4543 12.0728 32.9063C12.2671 32.1543 12.3312 31.2728 12.4888 30.5142C12.6171 30.3794 12.7259 30.2767 12.7587 30.0846C12.7937 29.8797 12.7867 29.676 12.7994 29.4704C12.8047 29.3845 12.8051 29.1134 12.8305 29.0451C13.1349 28.2268 13.2729 27.5965 13.3292 26.7283C13.435 26.6121 13.4016 26.6468 13.5961 26.6264C13.9606 26.0567 13.6532 25.1363 14.1883 24.5085C14.3129 24.3622 14.4624 23.1753 14.4402 22.8961ZM40.7181 47.6142C40.8614 47.4793 40.9949 47.3259 40.8667 47.1172C40.7556 47.2174 40.7073 47.247 40.6709 47.3962C40.6827 47.4741 40.688 47.5414 40.7181 47.6142ZM35.1964 49.7899C35.2222 49.6017 35.2528 49.6152 35.1721 49.4888L35.0611 49.4482C35.0478 49.6207 35.0062 49.7056 35.1964 49.7899Z" fill="#FAF9F8" fill-opacity="0.498039"/>
<path d="M40.8666 47.1172C40.9949 47.3258 40.8613 47.4792 40.718 47.6142C40.6879 47.5413 40.6826 47.474 40.6709 47.3962C40.7073 47.2469 40.7556 47.2174 40.8666 47.1172Z" fill="#FAF9F8" fill-opacity="0.580392"/>
<path d="M35.0611 49.4482L35.1721 49.4888C35.2527 49.6152 35.2221 49.6017 35.1964 49.7899C35.0062 49.7056 35.0477 49.6207 35.0611 49.4482Z" fill="#FAF9F8" fill-opacity="0.54902"/>
<path d="M30.3259 12.9191C30.7565 12.86 31.3527 12.8016 31.7507 12.696C33.4243 12.2519 35.0469 11.7419 36.7791 12.2015C37.1563 12.3016 37.6395 12.3166 38.0239 12.4155C40.0642 12.9957 42.0666 13.4487 44.022 14.2844C45.2637 14.815 46.762 14.8351 47.8714 15.7473C49.5434 16.9657 49.9697 19.1699 50.6059 21.0218C50.7123 21.4004 50.76 21.7976 50.8716 22.1746C51.5232 24.3748 52.0706 26.583 52.7256 28.7857C52.9741 29.6213 53.3576 30.6388 53.5553 31.4898C53.6997 32.1114 53.9804 32.3015 54.0816 32.8783C54.1227 33.4517 54.1622 34.1517 54.0879 34.7174C53.402 35.5796 53.2576 36.8057 52.1654 37.4496C52.0382 37.4738 51.9676 37.5 51.8478 37.4456C51.7035 37.3277 51.6414 37.0291 51.5826 36.8384L51.4882 36.6363C50.6795 35.5158 50.2732 35.2173 49.3686 34.2669L45.6649 30.4238C45.1686 29.9063 44.6926 29.3492 44.1954 28.8236C42.3152 26.8201 40.3971 24.8525 38.4423 22.9218C37.6534 22.1459 36.5527 20.8612 35.5701 20.4241C34.3986 20.1157 33.1537 21.5829 32.3574 22.2984C30.8008 23.6968 29.2618 25.2836 27.2208 25.9448C26.8359 26.0686 26.3703 26.1031 25.9764 26.137C24.7308 26.1114 23.4942 25.8784 23.0016 24.5232C22.858 24.1243 22.8194 23.6952 22.8895 23.2771C23.0427 22.3418 24.4488 19.5209 24.9408 18.4888C25.432 17.3152 26.5357 15.096 27.5685 14.3148C28.0876 13.9223 29.0708 13.4461 29.6513 13.0603C29.8864 13.0281 30.0963 12.9743 30.3259 12.9191Z" fill="#FAF9F8"/>
<path d="M13.9782 33.3998C15.108 33.3937 15.9528 33.5956 16.7392 34.3823C17.5842 35.2276 17.7594 36.0696 17.9499 37.1782C17.9612 37.2437 18.1405 37.2693 18.19 37.2579C18.2704 37.2559 18.3691 37.2365 18.4509 37.2216C19.7116 37.1451 20.4665 37.1316 21.4575 38.0054C21.5314 38.0707 21.6036 38.1377 21.6742 38.2065C22.368 38.999 22.6632 39.6756 22.8854 40.7164C23.1836 40.6637 23.5342 40.6315 23.8016 40.581C24.4206 40.5726 24.7054 40.5474 25.3077 40.7048C26.2585 41.0095 26.8669 41.4014 27.3409 42.3212C27.4005 42.4391 27.4585 42.5578 27.515 42.6773C27.681 43.1499 27.7668 43.4497 27.8058 43.9519C28.2246 43.9571 28.7787 43.9611 29.188 44.0664C31.1072 44.4628 32.2917 46.1653 31.9158 48.1251C31.7462 49.0093 31.1813 49.7464 30.6477 50.444C30.5552 50.5616 30.409 50.6699 30.2954 50.8038C30.1139 50.9758 29.8652 51.1192 29.6577 51.2585C27.4665 52.7285 24.5733 51.8819 24.0574 49.0906C22.4235 49.0803 21.1134 49.3518 19.9146 47.8709C19.3057 47.1188 19.0749 46.0838 19.1829 45.1292L19.1233 45.1315C17.8275 45.1785 16.8197 45.1729 15.8374 44.2344C14.8693 43.3094 14.7724 42.464 14.7292 41.1965C13.4356 41.598 12.0928 41.4849 11.0562 40.5544C9.94108 39.6146 9.44777 37.9626 10.1405 36.627C10.5068 35.9208 11.5295 34.7334 12.0863 34.1073C12.5923 33.6138 13.2065 33.5299 13.8727 33.4085L13.9782 33.3998Z" fill="#FAF9F8"/>
<path d="M22.9011 14.7951C23.3535 14.5869 23.811 14.2479 24.241 13.9872C25.4807 13.2546 26.8883 12.3728 28.3626 12.3516C29.4726 12.3356 29.3069 12.9836 30.3267 12.9192C30.0971 12.9744 29.8873 13.0281 29.6522 13.0603C29.3058 13.0919 29.2074 13.3944 28.9548 13.1484L28.9563 13.0805L29.1907 13.0158L29.2102 12.9656C29.0864 12.7616 28.3328 12.5715 28.166 12.6455C27.7562 12.8271 27.3774 12.797 26.9974 12.9771C26.6977 13.1191 26.6184 13.4013 26.2568 13.3189C26.2233 13.311 26.19 13.3025 26.1568 13.2935C26.0314 13.3593 26.0184 13.3969 25.9503 13.5187C25.8413 13.5647 25.3449 13.7456 25.2992 13.7756C24.8953 14.0407 24.5952 14.2793 24.1422 14.4771C23.819 14.6182 23.6123 15.0868 23.1895 15.1744C23.0872 15.1956 22.8335 15.2579 22.7871 15.3438L22.8077 15.41C22.4598 15.6238 22.1836 15.8457 21.8608 16.0834C21.7613 16.1566 21.4625 16.1154 21.3229 16.2632C21.384 16.3338 21.3928 16.3137 21.5112 16.3366C21.3319 16.4675 21.1726 16.3844 21.1325 16.4172C20.9722 16.5479 20.76 16.8436 20.6273 17.0037C20.5715 17.0711 20.042 17.1354 19.9956 17.1801C19.6055 17.5553 19.192 17.8919 18.7629 18.2214C18.6174 18.3332 18.3698 18.2863 18.3212 18.371C18.0253 18.8868 17.4456 18.8418 17.2729 19.3924C17.1734 19.4336 16.7254 19.5779 16.6867 19.6237C15.9002 20.5532 15.117 21.2898 14.7018 22.4747C14.6644 22.5815 14.5133 22.7929 14.4411 22.896C14.4632 23.1752 14.3138 24.3622 14.1891 24.5084C13.6541 25.1362 13.9615 26.0566 13.597 26.6264C13.4025 26.6467 13.4358 26.6121 13.3301 26.7282C13.332 26.6796 13.3365 26.6316 13.3397 26.5831C13.3602 26.2732 13.6176 26.0768 13.6778 25.7579C13.751 25.3702 13.7098 24.9631 13.782 24.5747C13.831 24.3112 14.0505 24.1022 14.1249 23.8297C14.6034 22.0758 14.6195 21.2437 15.9798 19.8214C16.2287 19.5612 16.4851 19.2631 16.7653 19.0376C17.2499 18.6477 18.3134 18.2218 18.5892 17.7015C18.6698 17.5493 18.8692 17.5248 19.0279 17.4744C19.5213 17.3177 19.7254 16.8964 20.13 16.622C20.4608 16.3978 20.8637 16.2951 21.1833 16.0394C21.2986 15.9471 21.333 15.7915 21.4412 15.7081C21.7308 15.4852 22.1873 15.4251 22.5127 15.1965C22.6795 15.0793 22.8055 14.9804 22.9011 14.7951Z" fill="#FAF9F8" fill-opacity="0.337255"/>
<path d="M35.5701 20.4243C36.5527 20.8614 37.6534 22.1461 38.4423 22.9221C40.3972 24.8528 42.3152 26.8204 44.1954 28.8239C44.6926 29.3495 45.1687 29.9065 45.6649 30.4241L49.3687 34.2672C50.2732 35.2176 50.6795 35.516 51.4882 36.6366L51.3299 36.7168C50.9991 36.4097 50.9219 36.0829 50.5757 35.7334C50.1137 35.2669 49.5391 34.859 49.0964 34.3837C48.3224 33.5525 47.6569 32.7271 46.8577 31.9012C46.5545 31.5879 45.8833 30.933 45.5622 30.5872C45.5314 30.5964 45.5006 30.6056 45.4699 30.6148C45.0742 30.2053 44.4937 29.4005 44.1508 29.0208C43.3486 28.1324 42.5057 27.3701 41.6871 26.5297C40.827 25.6468 39.9954 24.77 39.1278 23.8994C38.5769 23.3467 37.9292 22.7738 37.3533 22.2467C37.0277 21.9486 36.5571 21.0767 36.0152 20.8624C35.8152 20.7833 35.6381 20.6903 35.4756 20.553L35.5701 20.4243Z" fill="#FAF9F8" fill-opacity="0.360784"/>
<path d="M25.9769 26.137C26.3835 26.1687 26.825 26.1816 27.2194 26.2188L27.2008 26.2137L27.1812 26.2336C25.8788 26.2901 23.9907 26.4695 23.1564 25.203C21.8404 23.2055 23.816 20.9346 24.4008 19.0359C24.476 18.7916 24.9607 18.3079 24.8218 18.1208L24.839 18.1125L24.8935 18.1503L24.8461 18.1575C24.8408 18.3183 24.8452 18.3548 24.9413 18.4889C24.4493 19.521 23.0432 22.3418 22.89 23.2772C22.8199 23.6953 22.8585 24.1244 23.0021 24.5233C23.4947 25.8784 24.7313 26.1114 25.9769 26.137Z" fill="#FAF9F8" fill-opacity="0.415686"/>
<path d="M18.4509 37.2216L18.2802 37.1848L18.251 37.1224C18.4248 36.9583 19.6179 37.0311 19.9084 37.0809C20.4868 37.1801 20.8882 37.1068 21.2994 37.5881C21.4322 37.7436 21.6664 37.6613 21.7455 38.0192L21.6742 38.2065C21.6036 38.1378 21.5314 38.0707 21.4576 38.0055C20.4666 37.1316 19.7116 37.1452 18.4509 37.2216Z" fill="#FAF9F8" fill-opacity="0.447059"/>
<path d="M35.367 49.2924C35.3633 49.1106 35.3569 49.1719 35.4499 49.0042C35.6155 48.9667 36.8222 49.3243 37.0878 49.3785C37.5931 49.4817 38.1186 49.4895 38.6163 49.5902C38.3612 49.649 37.0025 49.6684 36.7425 49.5815C36.1845 49.395 36.0844 49.101 35.367 49.2924Z" fill="#FAF9F8" fill-opacity="0.458824"/>
<path d="M27.5146 42.6772L27.5768 42.6011L27.6185 42.6659L27.7149 42.5974C27.8778 42.7077 27.8891 43.537 28.0001 43.7593C28.2612 43.819 29.2884 43.7642 29.4482 43.9822C29.3525 44.0696 29.334 44.047 29.1877 44.0663C28.7784 43.961 28.2242 43.957 27.8055 43.9518C27.7665 43.4496 27.6807 43.1498 27.5146 42.6772Z" fill="#FAF9F8" fill-opacity="0.439216"/>
<path d="M46.7422 42.4641C46.8759 42.381 47.2977 42.3893 47.4744 42.4125C47.9235 42.4714 48.2488 41.8019 48.6215 42.1918C48.6118 42.1817 49.1622 42.1733 49.2057 42.1728L49.1668 42.1827C48.8983 42.2531 48.8649 42.3507 48.5299 42.4509C47.9765 42.6165 47.1516 42.4193 46.7422 42.4641Z" fill="#FAF9F8" fill-opacity="0.509804"/>
<path d="M23.8017 40.581C23.6253 40.5779 23.4233 40.5899 23.2666 40.5169C23.5453 40.2131 25.0019 40.4264 25.4079 40.5332L25.4794 40.6004L25.4495 40.6684L25.3078 40.7047C24.7055 40.5473 24.4207 40.5725 23.8017 40.581Z" fill="#FAF9F8" fill-opacity="0.458824"/>
<path d="M13.8723 33.4084C13.6598 33.401 13.6174 33.4351 13.4678 33.3346C13.6103 33.0714 14.5579 33.2254 14.8214 33.2913L14.8219 33.3241C14.6273 33.3359 14.1283 33.3501 13.9778 33.3997L13.8723 33.4084Z" fill="#FAF9F8" fill-opacity="0.407843"/>
<path d="M43.5714 46.4272L43.5035 46.3938C43.4424 46.289 43.4592 46.3287 43.4871 46.1774C43.6211 46.0034 43.8309 45.838 44.062 45.9293L44.1311 46.1032C43.9379 46.3455 43.8781 46.3614 43.5714 46.4272Z" fill="#FAF9F8" fill-opacity="0.509804"/>
<path d="M33.3943 51.7124C33.3507 51.678 33.3543 51.6531 33.332 51.591C33.4472 51.2943 33.9579 51.0707 34.1425 51.532C33.8731 51.5754 33.604 51.6837 33.3943 51.7124Z" fill="#FAF9F8" fill-opacity="0.517647"/>
<path d="M40.1132 48.1204L40.2812 48.094L40.3452 48.1457L40.3525 48.397L40.1381 48.3846C40.0761 48.2901 40.1032 48.2542 40.1132 48.1204Z" fill="#FAF9F8" fill-opacity="0.568627"/>
<path d="M51.4884 36.6365L51.5828 36.8386L51.5195 36.938L51.4424 36.9362L51.3301 36.7166L51.4884 36.6365Z" fill="#FAF9F8" fill-opacity="0.482353"/>
</svg>
