<svg width="64" height="64" viewBox="0 0 64 64" fill="none" xmlns="http://www.w3.org/2000/svg">
<rect width="64" height="64" rx="16" fill="#1E1E1E" fill-opacity="0.5"/>
<path d="M35.9858 12.416C36.2612 12.4899 36.2553 12.4429 36.3446 12.7293C36.5616 12.9135 37.7193 12.9001 38.1724 12.998C37.737 13.1543 37.019 13.0166 36.6046 13.1034C36.7325 13.1023 36.9455 13.0846 37.0496 13.1393L37.0331 13.1893C36.9405 13.1952 36.4329 13.2037 36.3996 13.2217C36.8072 13.2721 38.1375 13.315 38.5781 13.293C39.2486 13.3542 39.2054 13.3281 39.7103 13.7382C39.9495 13.8517 40.3686 13.8097 40.5634 13.9886C40.6436 14.0623 40.6234 14.3297 40.8164 14.3423C41.4292 14.382 41.5038 14.7366 42.065 14.8533C42.0365 14.9555 42.0257 14.9973 42.0126 15.1022C41.8428 15.1112 41.6652 15.0533 41.5526 15.1035C41.6872 15.2276 42.3096 15.2661 42.5196 15.3958L42.5187 15.466L42.365 15.5489L42.3935 15.6172C42.8119 15.7808 43.1434 15.7999 43.582 15.7999C43.822 15.898 45.0379 17.0209 45.3295 17.281C45.3556 17.379 45.3598 17.4047 45.368 17.5058C45.7651 17.7699 45.8266 17.4459 45.9219 18.0824C45.7564 18.017 45.4942 17.8913 45.3282 17.9034C45.4267 18.1612 46.2495 18.6012 46.5232 18.7228C46.6243 18.7678 46.7426 18.7508 46.8515 18.7375L46.8738 19.0143C46.7584 18.9088 46.6464 18.8723 46.5027 18.8118L46.4103 18.8454L46.3329 18.804L46.3105 18.8529C46.3963 19.0469 47.0971 19.4636 47.3063 19.5815C47.3395 19.6002 47.3937 19.8388 47.4038 19.8918C47.5818 20.0679 47.7286 19.9618 47.8999 20.1807C48.0049 20.3146 48.158 20.5059 48.2741 20.6278C48.302 20.7128 48.3202 20.8347 48.375 20.8728C48.5653 21.0054 48.8576 21.4185 48.9624 21.6227C48.9251 21.711 48.9165 21.7135 48.8415 21.7774C48.9476 21.8954 49.057 21.8586 49.1344 21.9264C49.2414 22.0203 49.2134 22.2657 49.2647 22.382C49.3114 22.4882 49.5456 22.5928 49.5779 22.7161C49.6222 22.8852 49.6212 23.1327 49.6561 23.3019C49.7247 23.4642 49.9876 23.3893 50.0802 23.512C50.2039 23.6758 50.1741 24.07 50.255 24.2285C50.4034 24.5193 50.6029 24.5531 50.6598 24.9274C50.7371 25.437 50.9612 25.9269 51.102 26.4187C51.128 26.5084 51.1573 26.9037 51.1654 27.0114C51.1365 27.464 51.2179 27.8884 51.2402 28.3361C51.3528 30.598 51.2291 32.8769 51.3067 35.1446C51.3228 35.6162 51.147 36.2988 51.2126 36.7275L51.1485 37.1004L51.1026 36.9466L51.0469 36.9333C50.9341 37.1079 50.9513 37.3527 50.9769 37.5489L51.0318 37.5895L51.115 37.5382C51.0782 37.7085 51.0741 37.7618 50.9635 37.8678C50.7543 38.0683 50.697 38.8154 50.6568 39.1353L50.5561 39.0858C50.544 39.0265 50.3526 37.9883 50.3994 38.0494C50.3733 38.3631 50.2453 39.5164 50.2723 39.7365C50.1444 39.9652 50.1988 40.2427 50.081 40.476C50.0322 40.5726 49.7577 40.6172 49.7527 40.6479C49.7102 40.9107 49.2754 41.5338 49.2356 41.6929L49.1772 41.5778L49.1088 41.5896C49.0377 41.7872 49.0391 41.819 49.0456 42.0303L49.1193 42.114C48.7646 42.349 48.0783 43.9628 47.3797 44.4475C47.0875 44.4002 47.2243 44.2487 47.0451 44.2998C46.9236 44.4674 46.7879 44.8225 46.7433 45.0244C46.6092 44.9676 46.7 44.8462 46.5626 44.8164C46.4545 44.9228 46.4436 44.9391 46.3817 45.0777L46.4201 45.1787C46.635 45.201 46.5851 45.0594 46.7696 45.1425L46.8049 45.2833C46.7114 45.314 46.6068 45.359 46.5115 45.3509L46.4375 45.2905C45.8708 45.3621 45.9266 45.9128 45.6861 46.2917C45.6666 46.3225 45.3192 46.3871 45.296 46.5022C45.2403 46.7778 45.3783 46.726 45.0716 46.7873C44.7185 46.8578 44.3808 46.7642 44.4382 47.2646C44.2437 47.3069 44.0042 47.3168 43.8651 47.4264C43.9038 47.4954 43.9443 47.5633 43.9867 47.6301C43.7885 47.8738 43.3513 47.63 43.3975 48.1465C43.1328 48.3499 42.4549 48.1421 42.2221 48.3924C42.2189 48.4303 42.2092 48.4519 42.2234 48.4737C42.4821 48.5933 42.7511 48.4439 42.9084 48.5644C42.8809 48.6326 42.8532 48.6402 42.7901 48.678C42.6033 48.7108 42.3932 48.7628 42.2097 48.729C42.0726 48.7157 42.0012 48.7384 41.8696 48.7674C41.6925 48.9473 41.7593 49.0509 41.7161 49.0979C41.5876 49.2382 41.2697 49.1807 41.1014 49.3481C41.1206 49.425 41.1332 49.4544 41.163 49.525C41.1137 49.6047 41.1153 49.6 41.0328 49.6471L40.8993 49.6214C40.7102 49.6242 39.3127 49.8344 39.1696 49.8859L39.1488 49.9297C39.4226 50.0128 39.993 49.9413 40.1652 50.0538C40.1191 50.1309 40.1513 50.1002 40.0548 50.1355C39.8848 49.9524 39.3504 50.0306 39.1199 50.095L39.0876 50.1388C39.3129 50.1948 39.5642 50.1889 39.7981 50.1941C39.6098 50.2173 39.3475 50.2145 39.265 50.3982C39.0963 50.7741 38.721 50.7235 38.3393 50.7492C37.2613 50.6833 36.6548 50.8003 35.6514 50.8255C36.3925 51.0207 37.1239 50.851 37.6464 50.9878C36.853 51.0197 36.4111 50.9089 35.5884 51.0793C36.1013 51.131 36.4166 51.1101 36.8977 51.1328C36.5608 51.1644 36.2237 51.1929 35.8863 51.2183C35.7209 51.193 35.4773 51.1718 35.3301 51.2665C35.3335 51.3236 35.333 51.342 35.347 51.3973C34.4203 51.4304 33.4901 51.3978 32.563 51.4048C32.431 51.4058 32.3122 51.4055 32.1815 51.4302C32.4955 51.4844 33.6049 51.401 33.7713 51.4839C32.8603 51.4834 31.974 51.4743 31.0652 51.5427C32.0741 51.6865 33.0402 51.6385 34.0572 51.6274L34.0457 51.6783C33.2156 51.6897 32.3804 51.7096 31.5506 51.6987C30.2695 51.682 29.2188 50.7011 29.1743 49.4071C29.2044 49.5051 29.216 49.5874 29.2898 49.6535C29.3576 49.5692 29.3576 48.1585 29.3407 48.119C29.2755 48.2602 29.2312 48.3861 29.1787 48.532C29.1768 47.607 29.5257 47.9303 29.6024 47.3138C30.3725 47.3106 29.9506 47.0398 30.6806 46.8515C31.0063 46.7675 32.2948 46.9307 32.5595 46.7508C32.2243 46.4846 30.6323 46.8409 30.5261 46.5687L30.6529 46.5529C30.8978 46.6981 32.3949 46.6126 32.7188 46.546L32.6977 46.5151C32.2265 46.4535 31.6519 46.5 31.1523 46.4809C31.5909 46.4098 32.388 46.5372 32.6782 46.26L32.6783 46.2018C32.5325 46.1359 32.3651 46.1473 32.2027 46.1439L32.2818 46.0485C33.3454 46.0475 34.564 46.1007 35.6067 46.0481L35.6309 45.9891L35.7224 46.0314L35.7257 46.0013L35.6701 46.0344L35.6291 45.9785L35.0316 45.9142C35.2898 45.8739 36.0656 45.9048 36.208 45.7858C36.1266 45.7309 35.7386 45.7313 35.5547 45.6925L35.5098 45.6828C35.6528 45.678 35.7785 45.6689 35.921 45.6866C36.0829 45.6822 36.8847 45.6866 36.9677 45.5925C36.9243 45.5598 36.6956 45.5281 36.625 45.5152C36.8349 45.5097 36.9507 45.4665 37.1478 45.3905C37.572 45.227 37.8616 45.5235 38.2937 45.2884L38.2937 45.2289C37.9621 45.1283 37.4147 45.2088 37.2378 45.095L37.3413 45.0459C37.4952 45.2003 38.1274 45.1076 38.3501 45.0893C38.1891 44.962 37.5517 45.0297 37.3413 45.0459L37.3612 44.9899C37.6309 44.9624 37.9874 44.9416 38.2386 44.8587L38.0484 44.7456L38.0368 44.6808C38.2187 44.555 38.7086 44.5589 38.7588 44.4992C39.1143 44.0757 39.0366 44.0412 39.688 44.0017C39.9496 43.8372 40.0399 43.8734 40.3366 43.8153L40.3819 43.8635C40.2537 43.6588 40.2758 43.7482 40.3222 43.487C40.3564 43.0732 40.7918 43.1644 40.9829 43.0074C41.3908 42.6722 41.5454 42.2689 42.0726 42.0834C42.0792 42.0621 42.1285 41.9206 42.1259 41.9226C42.5028 41.6327 43.7135 39.7363 43.9381 39.6185C44.0956 39.152 44.093 39.0365 44.4799 38.7326C44.5763 38.3059 44.7731 38.0072 44.8906 37.6195C45.0489 37.097 45.0078 36.9415 45.3829 36.5536C45.4545 36.4797 45.4807 35.6807 45.5302 35.5235C45.5934 35.3228 45.5806 35.3813 45.7691 35.2717C46.0296 34.5865 45.9534 30.0002 45.8407 28.9985C45.8221 28.833 45.6269 28.6699 45.572 28.5013C45.4885 28.3012 45.5071 27.9227 45.4265 27.7424C45.0273 26.8495 44.7969 25.9371 44.2867 25.0957C43.9204 24.4183 43.4354 23.8347 42.9999 23.212C42.7553 22.8622 42.1784 22.3228 42.0518 21.9864C41.8247 21.8692 41.7795 21.8151 41.5876 21.658C40.3835 20.6718 39.0854 19.6309 37.5963 19.1216C37.147 18.9679 36.9301 18.9442 36.5933 18.5982C36.2249 18.5341 35.6795 18.5455 35.359 18.3892C35.3295 18.3748 35.327 18.3018 35.3183 18.2561C35.1659 18.1037 33.7368 18.0807 33.4035 18.0634C33.678 17.9987 34.2993 17.964 34.6358 17.9098L34.6307 17.8933C34.318 17.9007 33.9524 17.9104 33.6428 17.8836C33.1977 17.845 32.568 17.7399 32.1242 17.7589C31.8554 17.7612 31.7478 17.7691 31.4821 17.6973C31.6424 17.6159 32.3579 17.6822 32.5965 17.6793L32.5436 17.6784L32.5336 17.6546C31.9483 17.5829 31.2282 17.6083 30.6726 17.4803C30.1959 17.0129 29.6788 16.7513 29.4125 16.1346C29.3494 15.9887 29.2686 16.0708 29.2387 15.7318L29.2927 15.7512C29.3967 15.5964 29.3946 14.1265 29.293 13.9715C29.2753 13.9486 29.2814 13.9238 29.2786 13.8839C29.8405 13.7321 29.459 13.5355 29.6805 13.2991C29.7061 13.2718 30.0527 13.3327 30.203 13.1716L30.1345 13.0609C30.2288 12.5251 31.6833 12.7369 31.9877 12.7277C32.4636 12.7132 35.6033 12.7362 35.7515 12.6308L35.9858 12.416ZM46.0495 35.2908C46.0643 35.0473 46.0368 32.6275 45.9915 32.4548C45.9883 32.8677 45.9283 35.018 46.0069 35.2509L46.0495 35.2908ZM38.5323 50.6764L38.6544 50.6219C38.5073 50.5365 37.9089 50.525 37.7097 50.5166L37.627 50.625C37.81 50.7206 38.3016 50.6821 38.5323 50.6764Z" fill="#FAFAFA" fill-opacity="0.15"/>
<path d="M45.9915 32.4546C46.0368 32.6273 46.0643 35.0472 46.0495 35.2906L46.0069 35.2507C45.9283 35.0178 45.9884 32.8675 45.9915 32.4546Z" fill="#FAFAFA" fill-opacity="0.15"/>
<path d="M37.7097 50.5166C37.9089 50.5251 38.5073 50.5365 38.6544 50.622L38.5323 50.6764C38.3016 50.6821 37.81 50.7206 37.627 50.6251L37.7097 50.5166Z" fill="#FAFAFA" fill-opacity="0.15"/>
<path d="M39.9008 26.0176C40.4725 26.0447 40.9008 26.1794 41.3405 26.5807C41.721 26.9284 41.9455 27.4146 41.9635 27.9297C42.0012 29.0763 40.8384 29.9129 40.1441 30.7002C39.8952 30.9391 39.6593 31.203 39.4077 31.438C37.3102 33.3972 35.4138 35.5341 33.294 37.471C32.829 37.8958 32.4048 38.4913 31.9269 38.9354C31.3552 39.5022 30.999 39.9065 30.1469 39.9588C28.564 40.078 27.7644 38.4548 26.7448 37.5326C25.8673 36.739 25.0403 35.8731 24.1787 35.061C23.4291 34.2302 22.2401 33.2955 22.0316 32.2159C21.7418 30.7152 23.6161 29.5195 24.8708 30.2873C26.3201 31.1863 27.4598 32.6255 28.6853 33.797C29.4694 34.5108 29.7287 35.6298 30.7623 34.4291C32.0188 32.9695 33.4917 31.6873 34.8495 30.3396C36.2143 28.9848 37.4413 27.4835 38.9801 26.304C39.2401 26.1047 39.5896 26.0625 39.9008 26.0176Z" fill="#FAFAFA"/>
<path d="M21.465 15.3339C22.0302 15.1916 21.6385 14.9031 22.3362 14.8032L22.3214 14.8969C22.6136 15.0161 24.1389 14.8622 24.6457 14.9425C24.475 14.9655 24.379 14.9448 24.2785 15.0451C24.3916 15.1364 25.4577 15.3235 25.6054 15.2975L25.7674 15.3802L25.7883 15.462C25.7259 15.5027 25.6399 15.5478 25.6071 15.6098C25.8172 15.7906 25.9963 15.6594 26.1868 15.776L26.179 15.8416C25.9145 15.9781 25.5624 15.8017 25.4653 15.9556C25.6157 16.1198 25.5041 16.0713 25.7388 16.2133C25.958 16.6051 25.8986 18.3249 25.6118 18.7453L25.6336 18.8289C25.7461 18.8936 25.7772 18.9246 25.9074 18.9188C26.1842 18.6851 25.9391 17.1113 26.1327 16.7174C26.1786 16.6239 26.2468 16.6508 26.2685 16.4855C26.3393 16.9906 26.2987 17.4868 26.2677 17.9936C26.257 18.1675 26.2102 18.3469 26.2231 18.5061C26.199 18.6825 26.1745 18.8247 26.1808 19.0035C25.9176 18.9271 24.852 18.9198 24.7161 19.1849C24.9484 19.2462 25.589 19.2241 25.6313 19.3737L25.5958 19.431C25.3485 19.4156 24.8999 19.4776 24.6783 19.5925L24.6339 19.6674C24.6773 19.7413 24.7174 19.8108 24.7653 19.8819L24.7486 19.911L24.7481 19.858C24.6145 19.9781 24.2788 19.943 24.0515 19.9517C24.2032 19.906 24.3131 19.9216 24.4714 19.865C24.3106 19.7741 23.2636 19.7751 23.059 19.8499C23.114 19.9349 23.2121 19.9279 23.3407 19.9569C23.1677 19.9617 22.88 19.9606 22.7068 19.9339C22.6296 19.922 22.4893 19.7188 22.4206 19.6844C21.8602 19.404 21.4655 19.2154 21.129 18.6459C20.9246 18.3001 20.9166 16.6438 21.0286 16.3148C21.0577 16.4524 21.0212 17.149 21.0199 17.332C21.0171 17.7196 21.0403 17.9529 21.0898 18.3416L21.1329 18.3658C21.1742 18.1805 21.1468 16.3969 21.1432 16.1277L21.052 16.0846L21.0726 15.89C21.1862 15.7494 21.2793 15.7842 21.4895 15.6782C21.5514 15.5063 21.5269 15.5441 21.465 15.3339Z" fill="#FAFAFA" fill-opacity="0.15"/>
<path d="M21.5438 44.5849C21.8934 44.5587 21.8766 44.5991 22.0315 44.2596C22.183 44.2461 22.5108 44.4032 22.8095 44.417C23.5268 44.4503 24.2265 44.3776 24.9324 44.3928C25.2151 44.3989 25.1746 44.5974 25.6296 44.5875C25.7894 44.8419 25.531 44.7755 25.7519 44.9473C25.898 44.9714 26.0444 44.9938 26.191 45.0144C26.188 45.1437 26.1742 45.2896 26.2085 45.4111L26.128 45.4396C26.0706 45.9424 26.1722 47.2439 26.0381 47.6107C26.0452 47.148 26.0906 45.5347 26.0271 45.1865L25.9529 45.1403C25.7773 45.1235 25.7448 45.1155 25.5814 45.19L25.5632 45.2633C25.6306 45.3202 25.699 45.3759 25.7684 45.4303L25.7765 45.5351C25.8754 45.9898 25.8829 46.4603 25.8881 46.9248C25.8908 47.1771 25.6854 47.9151 25.7373 48.0817C25.8721 48.1454 25.8128 48.1374 25.9615 48.1099C26.0721 47.8971 25.9522 47.8274 26.0381 47.6107C26.109 47.7806 26.064 47.727 26.2001 47.8297C26.1592 48.6269 25.3577 48.3345 25.1681 49.1577C24.4475 49.2918 23.2919 49.2739 22.5337 49.2523C22.3156 48.9733 22.5701 48.9622 22.3902 48.741C22.2554 48.7395 22.1207 48.7404 21.9859 48.7436C21.7439 48.5894 21.4146 48.2849 21.2405 48.0577L21.3349 47.9983L21.2716 47.9333C21.2056 47.931 21.1005 47.9478 21.1042 47.8686C21.1232 47.465 21.2457 45.7223 21.1063 45.4487L21.0055 45.4773L20.9882 45.3586C21.0092 45.3099 21.0461 45.1347 21.0597 45.1003C21.0926 45.0176 21.4636 44.9506 21.4784 44.8388C21.5019 44.6619 21.423 44.7589 21.5438 44.5849ZM22.473 49.1003C22.9222 49.1701 23.1888 49.2071 23.6445 49.1982C24.0367 49.1952 24.3757 49.2014 24.765 49.1353L24.7803 49.1055C24.4003 49.0458 24.1852 49.0417 23.7977 49.037C23.3742 49.0559 22.8909 49.0659 22.473 49.1003Z" fill="#FAFAFA" fill-opacity="0.15"/>
<path d="M23.7977 49.0371C24.1852 49.0418 24.4003 49.0459 24.7804 49.1055L24.765 49.1354C24.3757 49.2015 24.0367 49.1953 23.6445 49.1983C23.1888 49.2072 22.9222 49.1702 22.473 49.1004C22.8909 49.066 23.3742 49.056 23.7977 49.0371Z" fill="#FAFAFA" fill-opacity="0.15"/>
<path d="M15.2976 38.3986C15.8475 38.4295 15.879 38.2757 16.3054 38.2418C17.0349 38.1838 17.9034 38.1984 18.6399 38.2042C18.753 38.205 19.2867 38.4224 19.3929 38.4739C19.4158 38.6932 19.3639 38.6601 19.4818 38.7801C19.6362 38.8227 19.7519 38.8496 19.9092 38.8793L19.9669 39.3068L19.8373 39.255C19.79 39.0675 19.7413 39.0053 19.5493 38.9356L19.4502 38.9639C19.4134 39.1339 19.6101 39.5145 19.6368 39.7408C19.6822 40.1248 19.5323 41.599 19.6725 41.858C19.8242 41.7613 19.7628 41.4924 19.797 41.3253L19.8347 41.667L19.8912 41.7102L19.9673 41.6198C19.95 41.7156 19.9279 41.8377 19.9011 41.9861C19.6925 42.2435 19.373 42.4301 19.1236 42.6406C19.0682 42.6874 19.0291 42.9196 18.9849 42.9547C18.9055 43.0178 18.8373 43.013 18.7443 43.0141L18.7122 42.9188C18.2955 42.746 16.8206 42.8919 16.2543 42.8974L16.2324 42.9334C16.7409 43.0514 18.102 42.9672 18.7443 43.0141C18.5083 43.0619 18.4348 43.0672 18.1937 43.0639C17.6962 43.0027 17.151 43.1186 16.647 43.0588C16.4755 43.0385 16.3157 43.0455 16.1444 43.0578C15.7623 43.0379 15.1273 42.2557 14.8624 41.9819C14.8624 41.9819 14.858 41.8401 14.8575 41.8243L14.9436 41.7642C14.9798 41.4862 15.0068 39.4421 14.9142 39.3055L14.8214 39.3369L14.7984 39.2181C14.8342 39.1123 14.856 39.0354 14.8821 38.9268C15.0122 38.8042 15.0782 38.7877 15.2444 38.7244C15.3285 38.5881 15.2988 38.5865 15.2976 38.3986Z" fill="#FAFAFA" fill-opacity="0.15"/>
<path d="M12.7552 30.5525C12.8648 30.3815 13.392 29.9003 13.5419 29.8672C13.788 29.8898 13.9825 29.9899 14.1719 29.9909C14.9052 29.9952 15.6642 29.9161 16.394 29.9509C16.5209 29.957 16.6184 30.1877 17.0333 30.2055L17.0584 30.2064L16.9924 30.3267C16.7819 30.3428 16.6938 30.2895 16.514 30.2956L16.5006 30.3341L16.5719 30.2852L16.5019 30.3119C16.5576 30.7007 17.0234 30.3912 17.0419 30.859C17.0442 30.9153 17.1413 31.1689 17.1696 31.2284C17.0472 31.5875 17.2875 31.9391 17.2652 32.3008C17.2387 32.7311 17.1382 33.1603 17.0864 33.5931C17.1346 33.6603 17.1657 33.7006 17.2203 33.7628C17.0983 34.0353 16.7149 33.7447 16.6058 34.3316C16.4154 34.4248 16.2509 34.3175 16.0035 34.4221C15.5181 34.3299 14.1679 34.5639 13.8286 34.5001L13.8568 34.5607C14.3809 34.731 16.3909 34.4808 16.5535 34.7323L16.5377 34.816L16.1194 34.8247C16.1702 34.7977 16.2536 34.7657 16.3094 34.7423C16.0829 34.6336 14.0448 34.638 13.9318 34.7305L14.0328 34.8243C13.3087 34.8089 12.4509 33.8656 12.3742 33.1654L12.4714 33.2351L12.5227 33.1885C12.5245 32.8621 12.5583 31.4393 12.4896 31.199L12.4396 31.198L12.3602 31.4199C12.3579 31.3096 12.3686 31.1127 12.3878 31.0084C12.4101 30.8878 12.4805 30.7815 12.5828 30.714C12.674 30.6528 12.6856 30.6397 12.7552 30.5525Z" fill="#FAFAFA" fill-opacity="0.15"/>
<path d="M18.7507 25.6483C18.4181 25.753 16.2428 25.8598 15.8302 25.6605C15.803 25.6595 15.5167 25.539 15.5155 25.5316C15.487 25.3561 14.9008 24.9278 14.8953 24.9093C14.6214 23.9956 14.7849 22.9042 14.8706 21.9657C14.8764 21.9033 15.1651 21.8705 15.2176 21.8446C15.4112 21.6042 15.5229 21.387 15.8488 21.2988C16.6112 21.5206 17.8987 21.188 18.7166 21.3848C19.1037 21.478 19.0013 21.5739 19.441 21.4995C19.4919 21.6345 19.4822 21.6844 19.4552 21.8204C19.5525 21.919 19.5714 21.8999 19.7169 21.9389L19.8161 22.0086L19.8096 22.0547C19.6614 22.0823 19.5128 22.1087 19.3641 22.1337C19.406 22.2264 19.6172 22.5041 19.6113 22.5355C19.466 23.3202 19.8542 24.1627 19.4642 24.9075C19.4307 24.9713 19.6357 25.0298 19.4517 25.2379C19.3275 25.2707 19.2864 25.2545 19.1623 25.233C19.0536 25.3028 19.0727 25.268 19.0362 25.3699L19.1308 25.5145C19.104 25.5598 19.1022 25.5779 19.0645 25.6049C19.0439 25.5142 19.0646 25.5551 18.9882 25.4856C18.793 25.4736 18.4934 25.4417 18.3362 25.5742C18.4203 25.6833 18.6891 25.5783 18.9984 25.6319C18.8859 25.6509 18.8629 25.6575 18.7507 25.6483Z" fill="#FAFAFA" fill-opacity="0.15"/>
<path d="M17.5322 20.6006C18.1453 20.6015 17.9585 20.6644 18.4863 20.9379C18.5265 20.9588 18.9271 21.0243 18.9989 21.0364C19.1393 21.3073 19.1338 21.415 19.4411 21.4992C19.0013 21.5736 19.1037 21.4777 18.7166 21.3845C17.8987 21.1876 16.6112 21.5203 15.8488 21.2985C15.5229 21.3867 15.4113 21.6039 15.2176 21.8443C15.1651 21.8702 14.8764 21.903 14.8706 21.9654C14.7849 22.9039 14.6214 23.9953 14.8953 24.909C14.9008 24.9275 15.487 25.3558 15.5156 25.5313C15.5167 25.5386 15.803 25.6592 15.8302 25.6602C16.2428 25.8594 18.4181 25.7527 18.7507 25.6479L18.7172 25.6771C18.6763 25.7121 18.5635 25.7999 18.5163 25.8026C17.8012 25.8429 17.2386 25.8026 16.5198 25.9141C16.8682 25.9474 18.5702 25.9765 18.665 26.0966L18.6429 26.1893C18.5155 26.1967 18.349 26.1927 18.218 26.1933C18.347 26.1776 18.3637 26.1735 18.4781 26.1122C18.3095 25.9956 16.607 26.0174 16.347 26.0561L16.3384 26.1056L16.5255 26.2027C16.3284 26.2158 16.081 26.1633 15.8816 26.1301C15.5343 25.7827 15.25 25.4483 14.8398 25.1456C14.534 23.9608 14.2919 24.3615 14.4164 22.8228C14.8816 22.2902 14.6255 22.2617 14.8933 21.8321C15.0457 21.5875 15.338 21.4763 15.6358 21.0127C15.8471 20.9832 16.3176 20.9364 16.4842 20.8477C16.506 20.6121 16.5956 20.6515 16.801 20.6146L16.7647 20.6812C16.9448 20.7756 17.5645 20.8022 17.7327 20.6955C17.6869 20.6323 17.6118 20.6239 17.5322 20.6006ZM18.4178 21.1252C18.5857 21.1187 18.6083 21.1478 18.7165 21.0585C18.5872 20.9953 16.5754 20.9558 16.3318 20.9606C16.1846 20.9832 15.9852 20.9935 15.883 21.0859C16.1204 21.1948 18.0498 21.1425 18.4178 21.1252Z" fill="#FAFAFA" fill-opacity="0.15"/>
<path d="M16.3318 20.9609C16.5754 20.956 18.5872 20.9955 18.7165 21.0587C18.6083 21.148 18.5857 21.1189 18.4178 21.1254C18.0498 21.1427 16.1204 21.195 15.883 21.0861C15.9852 20.9938 16.1847 20.9834 16.3318 20.9609Z" fill="#FAFAFA" fill-opacity="0.15"/>
<path d="M51.1654 27.0112C51.2512 27.3615 51.2468 27.5067 51.5251 27.7373C51.6838 28.1764 51.6683 29.4205 51.6399 29.9155C51.6169 29.7598 51.5788 28.6973 51.5504 28.6724C51.4602 29.0185 51.4418 34.4859 51.5194 35.0892L51.5704 35.1416L51.6359 34.9644C51.6339 35.3732 51.668 35.8618 51.524 36.2454C51.5317 36.2249 51.2028 36.7392 51.2126 36.7273C51.1471 36.2986 51.3228 35.616 51.3067 35.1444C51.2291 32.8767 51.3528 30.5978 51.2402 28.3359C51.2179 27.8882 51.1366 27.4638 51.1654 27.0112Z" fill="#FAFAFA" fill-opacity="0.15"/>
<path d="M29.4641 13.5591C29.5235 13.383 29.5833 13.155 29.6993 13.0167C30.5652 12.7958 30.013 12.3069 31.2729 12.3582C31.0838 12.3974 31.0122 12.4163 30.8202 12.4084L30.6888 12.4407L30.6586 12.5084C30.6671 12.5143 30.7499 12.5721 30.7499 12.5721C31.9878 12.5261 33.2259 12.543 34.4646 12.5481C34.9003 12.5498 35.3194 12.5717 35.7515 12.6304C35.6033 12.7359 32.4636 12.7128 31.9877 12.7273C31.6833 12.7366 30.2288 12.5247 30.1345 13.0606L30.203 13.1712C30.0527 13.3323 29.7061 13.2714 29.6805 13.2987C29.459 13.5351 29.8405 13.7317 29.2786 13.8836C29.2814 13.9234 29.2753 13.9482 29.293 13.9711C29.1841 14.4416 29.1322 15.2733 29.2387 15.7315C29.2686 16.0704 29.3494 15.9883 29.4125 16.1343C29.6788 16.7509 30.1959 17.0126 30.6726 17.4799C31.2282 17.6079 31.9483 17.5826 32.5336 17.6542L32.5436 17.678L32.5965 17.6789C32.3579 17.6818 31.6424 17.6155 31.4821 17.6969C31.7477 17.7687 31.8554 17.7608 32.1242 17.7586L32.0858 17.7707C31.8206 17.8526 31.6875 17.773 31.593 17.8847C31.777 17.9919 32.0505 17.9148 32.173 18.0204C32.0234 18.0468 31.4622 18.0499 31.3498 17.9321C31.2736 17.8522 31.1689 17.7117 31.075 17.6727C30.9122 17.6051 30.474 17.5284 30.3494 17.4336C30.0615 17.2146 30.0661 17.115 29.7158 16.9378L29.6964 16.9282C29.5865 16.6991 29.4269 16.495 29.3238 16.26C29.0005 15.5228 29.1361 14.5533 29.1967 13.7556L29.4641 13.5591Z" fill="#FAFAFA" fill-opacity="0.15"/>
<path d="M17.0584 30.2061C17.2235 30.3391 17.3162 30.4344 17.4637 30.5881C17.4877 30.7198 17.512 30.8843 17.5497 31.0099C17.5549 31.4653 17.6539 31.7669 17.6722 32.1742C17.6857 32.4762 17.5496 32.9676 17.5607 33.3242C17.5366 33.4844 17.5221 33.7182 17.425 33.8354L17.2889 33.8747C16.8815 33.9736 17.1319 34.1341 16.8341 34.3574C16.6424 34.5013 16.2255 34.4843 16.0035 34.4218C16.2509 34.3171 16.4154 34.4245 16.6058 34.3312C16.7149 33.7444 17.0983 34.0349 17.2203 33.7625C17.1657 33.7003 17.1346 33.66 17.0864 33.5928C17.1382 33.1599 17.2387 32.7307 17.2652 32.3005C17.2875 31.9387 17.0472 31.5871 17.1696 31.2281C17.1413 31.1685 17.0442 30.915 17.0419 30.8587C17.0234 30.3909 16.5576 30.7004 16.5019 30.3116L16.5719 30.2849L16.5006 30.3338L16.5139 30.2953C16.6938 30.2892 16.7818 30.3425 16.9924 30.3264L17.0584 30.2061Z" fill="#FAFAFA" fill-opacity="0.15"/>
<path d="M19.7169 21.9385L19.8364 21.9312C20.0107 22.129 19.979 22.6015 19.9574 22.8615C19.9314 22.7179 19.9367 22.5931 19.8511 22.5044C19.772 22.7026 19.7754 24.4041 19.8007 24.6617L19.8602 24.6989C19.9159 24.5496 19.929 24.4627 19.9573 24.3071C19.9749 25.3043 19.1969 25.3981 18.8756 26.0999C18.801 26.1358 18.7236 26.1805 18.6429 26.1892L18.665 26.0966C18.5702 25.9765 16.8682 25.9473 16.5198 25.914C17.2387 25.8025 17.8012 25.8428 18.5163 25.8025C18.5635 25.7998 18.6764 25.712 18.7172 25.6771L18.7507 25.6479C18.863 25.6572 18.8859 25.6505 18.9984 25.6315L19.0645 25.6045C19.1022 25.5775 19.104 25.5594 19.1308 25.5141L19.0362 25.3695C19.0727 25.2676 19.0537 25.3024 19.1624 25.2326C19.2864 25.2541 19.3275 25.2703 19.4517 25.2375C19.6357 25.0294 19.4307 24.9709 19.4642 24.9071C19.8542 24.1623 19.466 23.3198 19.6114 22.5351C19.6172 22.5037 19.406 22.226 19.3641 22.1333C19.5128 22.1083 19.6614 22.0819 19.8096 22.0543L19.8162 22.0082L19.7169 21.9385Z" fill="#FAFAFA" fill-opacity="0.15"/>
<path d="M42.7901 48.678C42.8533 48.6402 42.8809 48.6326 42.9084 48.5645C42.7512 48.4439 42.4821 48.5933 42.2234 48.4737C42.2092 48.4519 42.2189 48.4304 42.2221 48.3924C42.455 48.1421 43.1328 48.35 43.3975 48.1465C43.3513 47.63 43.7885 47.8739 43.9867 47.6301C43.9444 47.5633 43.9038 47.4954 43.8651 47.4264C44.0042 47.3168 44.2438 47.3069 44.4382 47.2646C44.3808 46.7642 44.7185 46.8578 45.0716 46.7873C45.3783 46.726 45.2403 46.7778 45.296 46.5022C45.3193 46.3872 45.6666 46.3225 45.6861 46.2917C45.9267 45.9128 45.8708 45.3621 46.4375 45.2905L46.5115 45.3509C46.4081 45.7366 46.4611 45.7629 46.0491 45.9248C45.911 45.979 45.878 46.2716 45.7737 46.3829C45.5311 46.6418 45.027 46.7588 44.9161 47.1097C44.8523 47.3117 44.5397 47.4372 44.3906 47.575C43.9878 47.8714 43.5289 48.1865 43.0896 48.4271C43.0512 48.4482 43.0992 48.5845 42.9243 48.6868L42.7901 48.678Z" fill="#FAFAFA" fill-opacity="0.15"/>
<path d="M17.8423 37.8134C18.2179 37.7738 18.6169 37.8212 18.9956 37.8534C19.0945 38.2146 19.554 38.6992 19.8841 38.8313L19.9092 38.8797C19.7519 38.8499 19.6362 38.8231 19.4818 38.7804C19.3639 38.6604 19.4158 38.6936 19.3928 38.4743C19.2867 38.4227 18.753 38.2054 18.6399 38.2045C17.9034 38.1988 17.0348 38.1842 16.3054 38.2422C15.879 38.2761 15.8475 38.4298 15.2976 38.3989C15.4397 38.3722 15.4808 38.3593 15.6146 38.3093C15.7278 38.2071 15.7244 38.0061 15.7398 37.8479C16.0225 37.824 16.2475 37.8031 16.5328 37.8102C16.3937 37.84 16.2824 37.8468 16.182 37.9414C16.2631 38.0042 16.2797 37.9963 16.3885 37.9964C16.8347 38.0417 18.5392 38.0243 18.9951 37.9983C18.7621 37.9136 18.5947 37.8552 18.3477 37.8622C18.1811 37.8498 18.009 37.8301 17.8423 37.8134Z" fill="#FAFAFA" fill-opacity="0.15"/>
<path d="M14.0782 29.6052C14.3346 29.5344 16.2311 29.506 16.5747 29.6893C16.693 29.7524 16.7731 29.9347 16.8228 30.0618C16.9012 30.111 16.978 30.16 17.0583 30.206L17.0333 30.2052C16.6184 30.1873 16.5208 29.9566 16.3939 29.9505C15.6641 29.9157 14.9051 29.9948 14.1719 29.9905C13.9825 29.9895 13.788 29.8894 13.5419 29.8668C13.392 29.8999 12.8648 30.3812 12.7552 30.5521C12.8582 29.9699 13.1428 30.3821 13.3375 29.6645C13.6056 29.6209 13.78 29.5822 14.0545 29.606L13.8434 29.6786L13.8545 29.7197C14.158 29.8074 15.8514 29.7648 16.2211 29.7351L16.2613 29.6893C15.6766 29.5578 14.693 29.6444 14.0782 29.6052Z" fill="#FAFAFA" fill-opacity="0.15"/>
<path d="M21.0434 18.8585C20.8773 18.0859 20.794 16.6324 21.0381 15.8424C21.1073 15.6185 21.2515 15.8172 21.465 15.3335C21.5269 15.5437 21.5514 15.5059 21.4895 15.6778C21.2793 15.7838 21.1862 15.749 21.0726 15.8896L21.052 16.0842L21.0286 16.3144C20.9166 16.6434 20.9246 18.2997 21.129 18.6455C21.4655 19.215 21.8602 19.4036 22.4206 19.684C22.4893 19.7184 22.6296 19.9216 22.7068 19.9335C22.88 19.9602 23.1677 19.9613 23.3407 19.9565C23.5696 19.9574 23.8249 19.9641 24.0515 19.9513C24.2788 19.9426 24.6145 19.9777 24.7481 19.8576L24.7486 19.9106L24.7653 19.8815C24.7174 19.8104 24.6773 19.7409 24.6339 19.667L24.6783 19.5921C24.8999 19.4772 25.3485 19.4152 25.5958 19.4306C25.0368 19.5556 25.335 19.7975 25.0948 19.8704C24.2605 20.1237 22.8528 20.0621 22.0587 19.8161C21.9829 19.719 21.1881 18.9893 21.0434 18.8585Z" fill="#FAFAFA" fill-opacity="0.15"/>
<path d="M26.2684 16.4853C26.2468 16.6506 26.1786 16.6237 26.1326 16.7172C25.9391 17.111 26.1842 18.6848 25.9073 18.9185C25.7772 18.9243 25.7461 18.8934 25.6336 18.8287L25.6118 18.745C25.8985 18.3247 25.9579 16.6049 25.7387 16.213C25.5041 16.071 25.6157 16.1195 25.4653 15.9553C25.5624 15.8015 25.9145 15.9779 26.179 15.8413C26.2096 16.0133 26.2706 16.3215 26.2684 16.4853Z" fill="#FAFAFA" fill-opacity="0.15"/>
<path d="M51.6359 34.9644L51.5704 35.1416L51.5194 35.0892C51.4417 34.4858 51.4602 29.0184 51.5504 28.6724C51.5788 28.6973 51.6169 29.7598 51.6399 29.9155C51.6664 30.9092 51.6733 31.9033 51.6607 32.8973C51.6521 33.4207 51.5996 34.5072 51.6359 34.9644Z" fill="#FAFAFA" fill-opacity="0.15"/>
<path d="M21.9486 44.1051C22.2475 44.059 22.4098 44.0331 22.7142 44.0322L22.4662 44.1283L22.4625 44.1699C22.7659 44.2022 24.5565 44.2522 24.7411 44.1373C24.6099 44.0709 24.4829 44.0643 24.3372 44.0454C24.6549 44.0212 24.8653 44.0496 25.1798 44.0932C25.3243 44.3405 25.3643 44.4839 25.6296 44.5876C25.1746 44.5974 25.2151 44.399 24.9324 44.3929C24.2265 44.3776 23.5268 44.4503 22.8095 44.4171C22.5109 44.4032 22.183 44.2462 22.0316 44.2597C21.8766 44.5992 21.8934 44.5587 21.5438 44.585C21.8459 44.4782 21.8395 44.403 21.9486 44.1051Z" fill="#FAFAFA" fill-opacity="0.15"/>
<path d="M21.0055 45.4774L21.1063 45.4487C21.2458 45.7223 21.1232 47.4651 21.1042 47.8687C21.1005 47.9479 21.2056 47.9311 21.2716 47.9333L21.3349 47.9984L21.2405 48.0577C21.4147 48.2849 21.7439 48.5894 21.986 48.7437C22.1207 48.7404 22.2554 48.7395 22.3902 48.741C22.5701 48.9622 22.3156 48.9734 22.5337 49.2523C22.3949 49.216 22.2076 49.1768 22.0969 49.0898C21.7653 48.8291 21.0649 48.3225 20.9918 47.9069C21.0084 47.735 20.9727 47.2238 20.9678 47.019C20.9512 46.5048 20.9638 45.9901 21.0055 45.4774Z" fill="#FAFAFA" fill-opacity="0.15"/>
<path d="M17.5497 31.0098C17.6059 31.1626 17.5991 31.2393 17.7125 31.2986C17.784 31.2495 17.8453 31.2051 17.9139 31.152C18.1218 31.3609 18.1388 32.7885 17.96 32.98C17.7721 32.9659 17.7868 32.9364 17.6553 33.0198C17.6053 33.1433 17.59 33.194 17.5607 33.3241C17.5496 32.9674 17.6857 32.476 17.6722 32.1741C17.6539 31.7667 17.5549 31.4651 17.5497 31.0098Z" fill="#FAFAFA" fill-opacity="0.15"/>
<path d="M26.1868 15.7759C26.3045 16.0361 26.3306 16.1098 26.467 16.3139C26.7408 16.7235 26.8776 17.8621 26.384 18.1553C26.2842 18.2146 26.2537 18.386 26.2231 18.5059C26.2102 18.3467 26.257 18.1674 26.2677 17.9934C26.2987 17.4867 26.3393 16.9904 26.2685 16.4854C26.2707 16.3216 26.2096 16.0134 26.179 15.8414L26.1868 15.7759Z" fill="#FAFAFA" fill-opacity="0.15"/>
<path d="M25.7765 45.5355L25.7685 45.4307C25.6991 45.3763 25.6306 45.3206 25.5632 45.2637L25.5814 45.1904C25.7448 45.1159 25.7773 45.1239 25.9529 45.1407L26.0272 45.1869C26.0907 45.5351 26.0452 47.1484 26.0382 47.6111C25.9522 47.8278 26.0721 47.8975 25.9615 48.1103C25.8128 48.1378 25.8721 48.1458 25.7373 48.0821C25.6854 47.9155 25.8908 47.1775 25.8881 46.9252C25.883 46.4607 25.8755 45.9902 25.7765 45.5355Z" fill="#FAFAFA" fill-opacity="0.15"/>
<path d="M26.1911 45.0146C26.2711 45.2923 26.3174 45.5185 26.3736 45.8008C26.4715 45.8538 26.6415 45.8944 26.6596 46.009C26.7188 46.3838 26.7 46.882 26.6075 47.2489C26.5909 47.3148 26.3518 47.3189 26.2279 47.7193C26.2242 47.6146 26.2519 47.4703 26.2596 47.3604C26.3054 46.7009 26.2733 46.0669 26.2085 45.4113C26.1742 45.2899 26.188 45.1439 26.1911 45.0146Z" fill="#FAFAFA" fill-opacity="0.15"/>
<path d="M29.6024 47.3137C29.6146 47.1801 29.6076 47.1457 29.6867 47.0401C30.1772 46.9695 30.1048 46.902 30.3018 46.5369C30.4565 46.451 30.743 46.4789 30.9315 46.4813L30.6529 46.5529L30.5261 46.5686C30.6323 46.8408 32.2243 46.4845 32.5595 46.7507C32.2948 46.9306 31.0063 46.7675 30.6806 46.8515C29.9506 47.0397 30.3725 47.3105 29.6024 47.3137Z" fill="#FAFAFA" fill-opacity="0.15"/>
<path d="M20.9918 47.9071C20.8567 47.5604 20.9737 47.6379 20.7163 47.308C20.5346 47.0749 20.4324 46.1111 20.6745 45.899L20.8441 45.9463C20.9123 45.8656 20.9095 45.5785 20.9882 45.3589L21.0055 45.4776C20.9638 45.9904 20.9512 46.5051 20.9678 47.0192C20.9727 47.224 21.0084 47.7353 20.9918 47.9071Z" fill="#FAFAFA" fill-opacity="0.15"/>
<path d="M33.7714 51.4839C33.6049 51.401 32.4955 51.4844 32.1815 51.4301C32.3123 51.4055 32.431 51.4058 32.563 51.4048C33.4902 51.3978 34.4204 51.4304 35.347 51.3973C35.3331 51.342 35.3335 51.3236 35.3302 51.2665C35.4773 51.1718 35.7209 51.193 35.8863 51.2183C35.8647 51.569 36.1789 51.3802 36.2176 51.538C35.7198 51.6583 34.5997 51.6666 34.0457 51.6783L34.0573 51.6274L34.8591 51.5426C34.5186 51.4958 34.1198 51.4941 33.7714 51.4839Z" fill="#FAFAFA" fill-opacity="0.15"/>
<path d="M14.8018 41.7141C14.6144 41.1007 14.076 40.448 14.4745 39.7649L14.5975 39.7557C14.7686 39.5484 14.7261 39.4886 14.7984 39.2183L14.8214 39.3371C14.7834 39.8777 14.7658 40.3243 14.7828 40.8673C14.7891 41.071 14.8251 41.5442 14.8018 41.7141Z" fill="#FAFAFA" fill-opacity="0.15"/>
<path d="M16.0035 34.4221C16.2255 34.4846 16.6425 34.5016 16.8341 34.3578C17.132 34.1344 16.8816 33.974 17.2889 33.875C17.1162 34.0498 17.208 34.4424 16.6849 34.5178C16.5852 34.5322 16.7335 34.6626 16.5377 34.816L16.5535 34.7323C16.3909 34.4808 14.3809 34.731 13.8568 34.5607L13.8286 34.5001C14.1679 34.5639 15.5181 34.3299 16.0035 34.4221Z" fill="#FAFAFA" fill-opacity="0.15"/>
<path d="M19.7969 41.3253C19.7628 41.4924 19.8242 41.7613 19.6724 41.858C19.5322 41.599 19.6821 40.1248 19.6368 39.7408C19.6101 39.5145 19.4134 39.1339 19.4502 38.9639L19.5493 38.9355C19.7413 39.0052 19.7899 39.0675 19.8373 39.255C19.7857 39.5445 19.7898 40.9157 19.8205 41.244L19.7969 41.3253Z" fill="#FAFAFA" fill-opacity="0.15"/>
<path d="M48.2742 20.6275C48.158 20.5056 48.0049 20.3143 47.9 20.1803C47.7287 19.9615 47.5818 20.0676 47.4038 19.8914C47.3938 19.8385 47.3395 19.5999 47.3064 19.5812C47.0971 19.4633 46.3964 19.0466 46.3105 18.8526L46.3329 18.8037L46.4104 18.8451L46.5028 18.8114C46.6465 18.872 46.7584 18.9085 46.8738 19.0139C47.2754 19.1545 48.2516 20.2086 48.2742 20.6275Z" fill="#FAFAFA" fill-opacity="0.15"/>
<path d="M42.065 14.853C42.6422 15.1124 43.0461 15.6212 43.582 15.7996C43.1434 15.7996 42.8119 15.7805 42.3935 15.6169L42.365 15.5486L42.5187 15.4657L42.5196 15.3955C42.3096 15.2659 41.6872 15.2273 41.5526 15.1032C41.6652 15.053 41.8428 15.1109 42.0126 15.1019C42.0257 14.997 42.0365 14.9552 42.065 14.853Z" fill="#FAFAFA" fill-opacity="0.15"/>
<path d="M32.8662 12.3666C33.8626 12.3237 34.9886 12.3646 35.9858 12.4158L35.7515 12.6306C35.3195 12.5718 34.9003 12.55 34.4646 12.5482C33.226 12.5431 31.9879 12.5262 30.7499 12.5722C30.7499 12.5722 30.6671 12.5145 30.6586 12.5086L30.6888 12.4408L30.8202 12.4085C31.1377 12.5548 34.67 12.5352 35.1452 12.449C34.8936 12.3868 33.3211 12.4152 32.8662 12.3666Z" fill="#FAFAFA" fill-opacity="0.15"/>
<path d="M22.3362 14.8029C22.4542 14.7357 22.6367 14.7225 22.7786 14.6899C22.7732 14.6187 22.777 14.5848 22.7829 14.5156C22.9523 14.3658 23.2399 14.4079 23.4726 14.4134C23.2509 14.4651 23.1506 14.488 22.9252 14.5012C23.2818 14.5597 23.6536 14.6428 24.0077 14.5641L24.0649 14.4893L24.0378 14.4186C24.4704 14.4248 24.3897 14.6621 24.9041 14.8017C24.1867 14.7807 23.0219 14.7362 22.3362 14.8029Z" fill="#FAFAFA" fill-opacity="0.15"/>
<path d="M32.1242 17.7586C32.568 17.7396 33.1977 17.8447 33.6428 17.8833C33.9524 17.9101 34.318 17.9003 34.6307 17.893L34.6358 17.9095C34.2993 17.9637 33.678 17.9984 33.4035 18.0631C33.1008 18.0761 32.4973 18.0333 32.173 18.0205C32.0505 17.9149 31.777 17.992 31.593 17.8847C31.6875 17.773 31.8206 17.8527 32.0858 17.7708L32.1242 17.7586Z" fill="#FAFAFA" fill-opacity="0.15"/>
<path d="M51.9457 30.1675C52.2036 30.4871 52.0044 33.3374 51.9921 33.8784C51.8058 33.6278 51.9274 30.6546 51.9457 30.1675Z" fill="#FAFAFA" fill-opacity="0.15"/>
<path d="M35.6514 50.8252C36.6548 50.8 37.2613 50.683 38.3393 50.7489C38.0473 50.8059 37.796 50.8239 37.5093 50.8682C37.7117 50.8908 37.9943 50.8978 38.153 51.0094L38.1476 51.0674C37.8926 51.1712 37.6176 51.1389 37.3427 51.1259C37.4974 51.1073 37.5787 51.1024 37.7268 51.0501L37.6464 50.9875C37.1239 50.8507 36.3925 51.0204 35.6514 50.8252Z" fill="#FAFAFA" fill-opacity="0.15"/>
<path d="M31.2729 12.3584L32.8662 12.3666C33.3211 12.4152 34.8935 12.3868 35.1452 12.4491C34.6699 12.5352 31.1377 12.5548 30.8202 12.4086C31.0122 12.4164 31.0838 12.3975 31.2729 12.3584Z" fill="#FAFAFA" fill-opacity="0.15"/>
<path d="M31.0652 51.5425C31.9741 51.474 32.8604 51.4831 33.7714 51.4836C34.1198 51.4938 34.5186 51.4955 34.8591 51.5423L34.0573 51.6271C33.0402 51.6382 32.0742 51.6862 31.0652 51.5425Z" fill="#FAFAFA" fill-opacity="0.15"/>
<path d="M16.1444 43.0583C16.3157 43.0459 16.4755 43.0389 16.647 43.0593C17.151 43.1191 17.6962 43.0031 18.1936 43.0644C17.8716 43.155 16.8721 43.129 16.7823 43.2843C16.9084 43.3876 16.9338 43.3065 17.0884 43.2662C17.351 43.1977 17.9262 43.1627 18.1259 43.3682C17.9794 43.4512 17.8216 43.4183 17.6884 43.4365C16.7651 43.5625 16.7914 43.1744 16.1444 43.0583Z" fill="#FAFAFA" fill-opacity="0.15"/>
<path d="M14.8214 39.3371L14.9142 39.3057C15.0068 39.4423 14.9798 41.4864 14.9436 41.7644L14.8575 41.8244L14.8018 41.7141C14.8251 41.5443 14.7891 41.071 14.7828 40.8674C14.7658 40.3244 14.7834 39.8777 14.8214 39.3371Z" fill="#FAFAFA" fill-opacity="0.15"/>
<path d="M34.5976 45.9149L35.0316 45.9141L35.6291 45.9783L35.6701 46.0342L35.7257 46.0012L35.7224 46.0312L35.6309 45.989L35.6068 46.0479C34.564 46.1005 33.3454 46.0473 32.2818 46.0483C32.2544 46.0357 32.0294 45.9813 31.9849 45.97C32.8559 45.9601 33.7269 45.9418 34.5976 45.9149Z" fill="#FAFAFA" fill-opacity="0.15"/>
<path d="M36.3871 45.5029C37.0934 45.3309 36.4896 45.0772 37.3612 44.9897L37.3413 45.0457L37.2378 45.0948C37.4147 45.2086 37.9621 45.1281 38.2937 45.2287L38.2936 45.2882C37.8616 45.5233 37.572 45.2268 37.1477 45.3903C36.9507 45.4663 36.8348 45.5094 36.625 45.515L36.3871 45.5029Z" fill="#FAFAFA" fill-opacity="0.15"/>
<path d="M40.0549 50.1351C40.1513 50.0998 40.1191 50.1306 40.1653 50.0534C39.993 49.9409 39.4227 50.0125 39.1489 49.9294L39.1696 49.8855C39.3127 49.834 40.7102 49.6239 40.8994 49.6211C40.3128 49.8475 40.7632 50.2024 39.9488 50.2014L40.0549 50.1351Z" fill="#FAFAFA" fill-opacity="0.15"/>
<path d="M22.3362 14.8028C23.0219 14.7362 24.1867 14.7807 24.9041 14.8017L25.211 14.8583L25.1838 14.9692C24.9727 14.9939 24.8376 14.9414 24.6457 14.9421C24.1389 14.8618 22.6136 15.0157 22.3214 14.8965L22.3362 14.8028Z" fill="#FAFAFA" fill-opacity="0.15"/>
<path d="M46.8049 45.283L46.7696 45.1422C46.5851 45.0591 46.635 45.2007 46.4201 45.1784L46.3817 45.0773C46.4436 44.9388 46.4545 44.9225 46.5626 44.816C46.7 44.8459 46.6092 44.9673 46.7432 45.0241C46.7879 44.8222 46.9236 44.4671 47.0451 44.2994C47.2243 44.2484 47.0874 44.3999 47.3797 44.4472C47.2826 45.0725 47.0146 44.7535 46.8093 45.2765C46.8079 45.2787 46.8064 45.2809 46.8049 45.283Z" fill="#FAFAFA" fill-opacity="0.15"/>
<path d="M46.8515 18.7373C46.7426 18.7506 46.6243 18.7676 46.5232 18.7226C46.2495 18.601 45.4267 18.161 45.3282 17.9032C45.4942 17.8911 45.7564 18.0168 45.9219 18.0822C46.6901 18.3006 46.2996 18.5357 46.8515 18.7373Z" fill="#FAFAFA" fill-opacity="0.15"/>
<path d="M26.0381 47.6107C26.1722 47.2439 26.0706 45.9425 26.128 45.4396L26.2085 45.4111C26.2733 46.0668 26.3054 46.7008 26.2595 47.3602C26.2518 47.4702 26.2241 47.6144 26.2278 47.7191L26.2001 47.8297C26.064 47.7271 26.109 47.7806 26.0381 47.6107Z" fill="#FAFAFA" fill-opacity="0.15"/>
<path d="M41.0328 49.6471C41.1153 49.5999 41.1137 49.6046 41.163 49.525C41.1332 49.4544 41.1207 49.425 41.1014 49.3481C41.2697 49.1806 41.5876 49.2382 41.7162 49.0979C41.7593 49.0509 41.6925 48.9473 41.8696 48.7674C42.0012 48.7383 42.0726 48.7157 42.2098 48.729C42.1964 48.879 42.2018 49.0322 42.1029 49.142C41.7591 49.2888 41.5612 49.2018 41.3799 49.5716C41.3677 49.5965 41.0877 49.6393 41.0328 49.6471Z" fill="#FAFAFA" fill-opacity="0.15"/>
<path d="M14.0328 34.824L13.9318 34.7302C14.0448 34.6377 16.0829 34.6333 16.3094 34.742C16.2536 34.7654 16.1702 34.7975 16.1194 34.8245C15.4239 34.8385 14.7283 34.8383 14.0328 34.824Z" fill="#FAFAFA" fill-opacity="0.15"/>
<path d="M19.9572 24.3071C19.929 24.4627 19.9158 24.5496 19.8602 24.6989L19.8007 24.6617C19.7754 24.4041 19.7719 22.7026 19.8511 22.5044C19.9367 22.5931 19.9314 22.7179 19.9573 22.8615C19.9724 23.3725 19.9836 23.7941 19.9572 24.3071Z" fill="#FAFAFA" fill-opacity="0.15"/>
<path d="M12.3601 31.4197L12.4395 31.1978L12.4896 31.1987C12.5582 31.4391 12.5244 32.8619 12.5227 33.1883L12.4714 33.2348L12.3742 33.1651C12.324 32.5846 12.3194 32.001 12.3601 31.4197Z" fill="#FAFAFA" fill-opacity="0.15"/>
<path d="M16.5255 26.2029L16.3384 26.1059L16.347 26.0564C16.607 26.0176 18.3095 25.9958 18.4781 26.1125C18.3637 26.1737 18.347 26.1778 18.2181 26.1936C17.654 26.2046 17.0897 26.2077 16.5255 26.2029Z" fill="#FAFAFA" fill-opacity="0.15"/>
<path d="M22.7142 44.0322C23.144 44.0451 23.9229 44.0682 24.3372 44.0454C24.483 44.0643 24.6099 44.0709 24.7411 44.1373C24.5565 44.2522 22.7659 44.2022 22.4625 44.1699L22.4662 44.1283L22.7142 44.0322Z" fill="#FAFAFA" fill-opacity="0.15"/>
<path d="M14.0782 29.6055C14.693 29.6447 15.6766 29.558 16.2613 29.6896L16.2211 29.7354C15.8514 29.765 14.158 29.8077 13.8545 29.7199L13.8434 29.6789L14.0545 29.6063L14.0782 29.6055Z" fill="#FAFAFA" fill-opacity="0.15"/>
<path d="M16.5328 37.8101L17.8422 37.8133C18.009 37.83 18.1811 37.8497 18.3476 37.8621L18.3052 37.9391C17.8215 38.0381 16.8153 37.9108 16.3885 37.9963C16.2797 37.9962 16.2631 38.0041 16.182 37.9414C16.2823 37.8467 16.3937 37.8399 16.5328 37.8101Z" fill="#FAFAFA" fill-opacity="0.15"/>
<path d="M16.2543 42.8977C16.8206 42.8922 18.2955 42.7464 18.7121 42.9191L18.7443 43.0144C18.102 42.9676 16.7409 43.0517 16.2324 42.9338L16.2543 42.8977Z" fill="#FAFAFA" fill-opacity="0.15"/>
<path d="M25.211 14.8584C25.4732 15.0217 25.4847 15.0142 25.6053 15.2972C25.4576 15.3232 24.3916 15.136 24.2785 15.0448C24.379 14.9445 24.475 14.9652 24.6457 14.9422C24.8376 14.9415 24.9727 14.994 25.1838 14.9693L25.211 14.8584Z" fill="#FAFAFA" fill-opacity="0.15"/>
<path d="M25.6313 19.3734C25.5889 19.2238 24.9483 19.2459 24.7161 19.1846C24.852 18.9195 25.9176 18.9268 26.1808 19.0032C25.9406 19.0606 25.8255 19.0349 25.6781 19.1831L25.6313 19.3734Z" fill="#FAFAFA" fill-opacity="0.15"/>
<path d="M38.1724 12.9976L38.2088 13.0537C37.9038 13.1789 37.8397 12.9974 37.6077 13.1649C37.8531 13.2344 38.2698 13.2354 38.5781 13.2926C38.1375 13.3146 36.8072 13.2717 36.3996 13.2213C36.4329 13.2033 36.9405 13.1948 37.0331 13.1889L37.0496 13.1389C36.9455 13.0842 36.7325 13.1019 36.6046 13.103C37.019 13.0162 37.737 13.1539 38.1724 12.9976Z" fill="#FAFAFA" fill-opacity="0.15"/>
<path d="M34.5976 45.9147C34.7327 45.8726 34.8976 45.8653 35.041 45.8518C35.0336 45.7219 35.0278 45.6967 35.0898 45.5842C35.2169 45.5168 35.3225 45.5335 35.4689 45.5354L35.4022 45.6367C35.4293 45.6493 35.4838 45.6773 35.5098 45.6824L35.5547 45.6921C35.7387 45.731 36.1266 45.7306 36.208 45.7855C36.0657 45.9045 35.2898 45.8736 35.0317 45.9139L34.5976 45.9147Z" fill="#FAFAFA" fill-opacity="0.15"/>
<path d="M21.052 16.0845L21.1432 16.1275C21.1468 16.3967 21.1742 18.1803 21.1329 18.3656L21.0898 18.3415C21.0404 17.9527 21.0171 17.7195 21.0199 17.3318C21.0212 17.1488 21.0577 16.4523 21.0286 16.3147L21.052 16.0845Z" fill="#FAFAFA" fill-opacity="0.15"/>
<path d="M30.9315 46.4814L31.1523 46.481C31.6519 46.5 32.2265 46.4535 32.6977 46.5151L32.7188 46.546C32.3949 46.6126 30.8978 46.6981 30.6529 46.553L30.9315 46.4814Z" fill="#FAFAFA" fill-opacity="0.15"/>
<path d="M50.2723 39.7366C50.2453 39.5165 50.3733 38.3632 50.3994 38.0495C50.3526 37.9884 50.544 39.0266 50.5561 39.0859L50.6569 39.1354C50.6124 39.3224 50.3943 39.5313 50.2723 39.7366Z" fill="#FAFAFA" fill-opacity="0.15"/>
<path d="M19.8373 39.2554L19.9669 39.3072C20.0268 39.908 20.0732 40.4031 20.0066 41.0028C19.9964 40.8811 19.9397 39.8267 19.9114 39.7966C19.8634 40.2695 19.8867 40.823 19.8205 41.2445C19.7898 40.9161 19.7857 39.5449 19.8373 39.2554Z" fill="#FAFAFA" fill-opacity="0.15"/>
<path d="M35.5884 51.0789C36.4111 50.9084 36.853 51.0193 37.6464 50.9874L37.7267 51.05C37.5787 51.1023 37.4974 51.1071 37.3426 51.1258L36.8977 51.1324C36.4166 51.1097 36.1013 51.1306 35.5884 51.0789Z" fill="#FAFAFA" fill-opacity="0.15"/>
<path d="M29.293 13.9712C29.3946 14.1262 29.3967 15.5962 29.2927 15.7509L29.2387 15.7316C29.1322 15.2734 29.1841 14.4418 29.293 13.9712Z" fill="#FAFAFA" fill-opacity="0.15"/>
<path d="M19.8205 41.2442C19.8867 40.8228 19.8634 40.2693 19.9114 39.7964C19.9397 39.8264 19.9964 40.8809 20.0066 41.0026L19.9673 41.62L19.8912 41.7104L19.8347 41.6672L19.7969 41.3255L19.8205 41.2442Z" fill="#FAFAFA" fill-opacity="0.15"/>
<path d="M29.1787 48.5316C29.2312 48.3857 29.2755 48.2598 29.3407 48.1187C29.3575 48.1581 29.3576 49.5688 29.2897 49.6532C29.216 49.5871 29.2043 49.5047 29.1743 49.4067C29.1562 49.0865 29.1646 48.8525 29.1787 48.5316Z" fill="#FAFAFA" fill-opacity="0.15"/>
<path d="M23.0353 49.458C23.3017 49.4511 24.0393 49.4177 24.271 49.5198L24.2668 49.6014C24.007 49.6237 23.2111 49.6885 23.0125 49.5439L23.0353 49.458Z" fill="#FAFAFA" fill-opacity="0.15"/>
<path d="M14.5133 29.2615C14.7543 29.2268 15.5483 29.1686 15.7182 29.33L15.6746 29.415C15.4262 29.4121 14.6144 29.4338 14.4606 29.3072L14.5133 29.2615Z" fill="#FAFAFA" fill-opacity="0.15"/>
<path d="M23.3407 19.9567C23.2121 19.9277 23.114 19.9346 23.059 19.8496C23.2636 19.7748 24.3106 19.7738 24.4714 19.8648C24.3131 19.9214 24.2032 19.9058 24.0514 19.9514C23.8249 19.9643 23.5696 19.9575 23.3407 19.9567Z" fill="#FAFAFA" fill-opacity="0.15"/>
<path d="M32.2027 46.1439C31.9013 46.1534 31.4208 46.2002 31.1633 46.0501L31.2246 46.0035L31.1986 46.0702L31.2253 46.0803L31.2784 45.9907C31.4555 45.957 31.793 45.9693 31.9849 45.9702C32.0294 45.9815 32.2544 46.0358 32.2818 46.0485L32.2027 46.1439Z" fill="#FAFAFA" fill-opacity="0.15"/>
<path d="M23.1693 43.6937C23.386 43.667 24.1496 43.6133 24.2816 43.7775L24.1835 43.8298C23.9388 43.8355 23.2921 43.869 23.0864 43.7627L23.1693 43.6937Z" fill="#FAFAFA" fill-opacity="0.15"/>
<path d="M14.5833 35.1141C14.8641 35.0685 15.2973 35.0941 15.5764 35.144L15.6164 35.2023L15.5343 35.2489C15.2697 35.2771 14.7473 35.3203 14.5187 35.1701L14.5833 35.1141Z" fill="#FAFAFA" fill-opacity="0.15"/>
<path d="M40.3222 43.4868C40.2758 43.748 40.2537 43.6587 40.3819 43.8633L40.3366 43.8151C40.0399 43.8733 39.9496 43.837 39.688 44.0015C39.7643 43.4359 39.9608 43.8067 40.3222 43.4868Z" fill="#FAFAFA" fill-opacity="0.15"/>
<path d="M35.9883 45.5067L36.3872 45.5029L36.6251 45.5151C36.6956 45.5279 36.9243 45.5596 36.9677 45.5923C36.8847 45.6864 36.0829 45.682 35.9211 45.6864L35.8845 45.5934L35.9883 45.5067Z" fill="#FAFAFA" fill-opacity="0.15"/>
<path d="M18.3477 37.8619C18.5947 37.8549 18.7621 37.9133 18.9951 37.998C18.5393 38.0239 16.8347 38.0414 16.3885 37.9961C16.8153 37.9106 17.8216 38.0378 18.3053 37.9389L18.3477 37.8619Z" fill="#FAFAFA" fill-opacity="0.15"/>
<path d="M23.4726 14.4136L24.0378 14.4188L24.0649 14.4895L24.0077 14.5643C23.6536 14.643 23.2818 14.5599 22.9252 14.5014C23.1506 14.4882 23.2509 14.4653 23.4726 14.4136Z" fill="#FAFAFA" fill-opacity="0.15"/>
<path d="M39.7981 50.1937C39.5642 50.1885 39.3129 50.1944 39.0876 50.1384L39.1199 50.0946C39.3504 50.0302 39.8848 49.952 40.0548 50.1351L39.9488 50.2013L39.7981 50.1937Z" fill="#FAFAFA" fill-opacity="0.15"/>
<path d="M16.801 20.615C16.9981 20.6081 17.3473 20.5856 17.5322 20.601C17.6118 20.6243 17.6869 20.6327 17.7327 20.6958C17.5645 20.8026 16.9448 20.776 16.7647 20.6815L16.801 20.615Z" fill="#FAFAFA" fill-opacity="0.15"/>
<path d="M20.2418 23.0186L20.3224 23.0853C20.3863 23.313 20.3831 23.5961 20.3504 23.8296L20.26 23.8226C20.1565 23.6594 20.2229 23.2309 20.2418 23.0186Z" fill="#FAFAFA" fill-opacity="0.15"/>
<path d="M51.115 37.538L51.0318 37.5893L50.9769 37.5487C50.9513 37.3525 50.9341 37.1077 51.047 36.9331L51.1026 36.9464L51.1485 37.1002L51.115 37.538Z" fill="#FAFAFA" fill-opacity="0.15"/>
<path d="M18.9984 25.6316C18.6891 25.5781 18.4204 25.683 18.3362 25.574C18.4934 25.4415 18.793 25.4733 18.9882 25.4853C19.0646 25.5549 19.0439 25.5139 19.0645 25.6046L18.9984 25.6316Z" fill="#FAFAFA" fill-opacity="0.15"/>
<path d="M37.3413 45.0457C37.5517 45.0295 38.1891 44.9617 38.3502 45.0891C38.1274 45.1073 37.4952 45.2001 37.3413 45.0457Z" fill="#FAFAFA" fill-opacity="0.15"/>
<path d="M35.4689 45.5357C35.6106 45.5409 35.8396 45.5176 35.9883 45.5068L35.8845 45.5936L35.9211 45.6865C35.7785 45.6688 35.6528 45.678 35.5098 45.6827C35.4838 45.6776 35.4293 45.6495 35.4022 45.637L35.4689 45.5357Z" fill="#FAFAFA" fill-opacity="0.15"/>
<path d="M49.1193 42.1138L49.0456 42.0301C49.0391 41.8189 49.0377 41.7871 49.1088 41.5894L49.1772 41.5776L49.2356 41.6927C49.2057 41.8374 49.1859 41.984 49.1193 42.1138Z" fill="#FAFAFA" fill-opacity="0.15"/>
</svg>
