<svg width="64" height="64" viewBox="0 0 64 64" fill="none" xmlns="http://www.w3.org/2000/svg">
<rect width="64" height="64" rx="16" fill="#1E1E1E" fill-opacity="0.5"/>
<path d="M28.9051 12.8844C29.2744 12.8697 29.6282 12.6737 29.8014 12.6792C31.2998 12.7264 32.7703 12.7552 34.271 12.6714C34.4792 12.6597 34.8074 12.8758 35.1134 12.8978L35.1547 12.9009C35.181 12.9018 35.2073 12.9026 35.2336 12.9035C35.6201 13.0039 35.4674 13.2186 36.2197 13.3696C36.3535 13.6728 36.4133 13.7331 36.6993 13.9035L36.7377 13.9963C36.4711 14.1506 36.7421 14.146 36.4841 14.1559C36.4246 14.0791 36.3931 14.034 36.3435 13.9506L36.1801 14.0248C36.344 14.234 36.3181 14.3023 36.5847 14.2458C36.8963 14.9804 37.2634 14.9218 37.7008 15.4366C37.639 15.4849 37.5947 15.5166 37.5293 15.5594C37.6136 15.7144 37.6849 15.6869 37.8492 15.8017C38.0087 15.8804 38.3443 15.8895 38.5218 15.8667L38.5564 15.8065L38.6084 15.8185C38.4003 15.7427 38.3093 15.7498 38.0851 15.7452C38.6993 15.7299 39.3463 15.6843 39.9541 15.6805C40.5379 15.6769 41.1288 15.7375 41.728 15.7285C42.1341 15.7547 42.3218 15.75 42.6796 15.9576C43.0443 16.1693 43.4009 16.3611 43.7171 16.6438C43.7521 16.675 43.9621 16.7175 44.0519 16.7753L43.9507 16.8708C43.7925 16.8478 43.4947 16.8069 43.3715 16.9408C43.495 17.0848 44.4371 17.2233 44.5714 17.2717L44.6622 17.3054L44.6722 17.355L44.4897 17.4715C44.5726 17.562 44.8423 17.5778 44.9015 17.672C45.1264 18.0298 44.8209 18.0087 45.2827 18.2111L45.2483 18.3293C45.1365 18.3575 45.0773 18.3178 44.968 18.2732L44.8894 18.3126L44.8632 18.3923C44.9589 18.5203 45.0825 18.5605 45.2433 18.5915C45.3242 18.7613 45.3503 18.8126 45.3925 18.9955L45.5118 19.1039C45.5284 19.4788 45.733 19.9067 46.0545 20.1098C46.0016 20.1679 45.9497 20.2269 45.8988 20.2867C45.9735 20.739 46.0389 21.1609 46.0839 21.6131C46.132 22.0984 45.9112 24.0084 46.1403 24.2972L46.2201 24.2935C46.2821 24.1682 46.2595 24.0138 46.2528 23.8714L46.3285 24.0497L46.4247 24.0779L46.411 24.3512L46.3245 24.3976C46.387 24.465 46.3867 24.4628 46.4676 24.5084L46.4232 24.5914C46.5245 24.7607 47.5652 24.9323 47.8075 24.9069C47.8104 25.1215 47.7743 25.1105 47.8834 25.2427C48.0007 25.2761 48.1178 25.3101 48.2348 25.3449C48.3403 25.7252 49.0035 26.3416 48.8065 26.6231L48.643 26.5719L48.5416 26.6392L48.5452 26.7086C48.6327 26.7608 48.6871 26.7919 48.7666 26.8554C48.7603 27.076 48.7294 27.0138 48.8505 27.1608L48.9629 27.1979C49.0257 27.1568 49.0547 27.1312 49.1253 27.1054C49.3444 27.949 49.2199 29.6863 49.2468 30.6216C49.2546 30.8942 49.2932 31.9005 49.2568 32.1314C49.0876 32.2692 49.0124 32.7395 49.1127 32.9265L49.1864 32.9397C49.1828 32.9597 49.1451 33.1674 49.145 33.1674C48.714 33.6268 48.3677 34.1615 48.1511 34.7503C48.1302 34.7581 47.8883 34.8486 47.8877 34.8491C47.4922 35.2852 46.9988 35.6668 46.4874 35.8843C46.4243 35.9111 46.345 36.1891 46.3752 36.239C46.3541 36.7367 47.9029 37.4479 47.9086 37.875C47.6185 37.716 47.388 37.2885 47.1068 37.1729C46.7943 37.2617 46.8674 38.5618 46.7693 38.8977C46.2224 40.772 45.1545 42.7279 43.413 43.7296C42.1813 44.438 40.6744 44.9195 39.2423 44.7617C38.8127 44.7144 38.3194 44.6541 37.8925 44.6983C37.4853 45.1568 37.2486 45.5808 36.8046 46.0077C36.6416 46.8452 36.9202 46.8356 37.3373 47.4112C36.9137 47.1985 36.4866 46.3297 35.9191 46.4915C35.7551 46.6527 35.949 46.5158 35.9456 46.7353C35.7385 46.9115 35.4819 46.7642 35.288 46.9413C35.1788 47.2571 35.182 47.2115 34.8761 47.3161C34.5698 47.3066 34.044 47.354 33.6988 47.3635L30.7809 47.4395C30.3207 47.4494 29.903 47.3449 29.4386 47.3756C29.4068 47.3745 29.3749 47.3728 29.3431 47.3703C28.9579 47.3395 28.7641 47.1938 28.5239 46.9127C28.1588 46.8121 27.8067 46.7125 27.4353 46.635C27.2875 46.8103 26.9574 47.17 26.7754 47.2955C26.8954 47.0309 27.2964 46.8543 27.2956 46.4593C27.2946 45.9464 26.4251 45.1244 26.0657 44.7727C25.494 44.5975 25.1723 44.744 24.5749 44.7827C22.8858 44.8922 20.847 44.1463 19.5966 43.016C18.5366 42.0578 17.4834 40.2991 17.2303 38.8831C17.153 38.4504 17.1229 37.6443 17.0885 37.1851L16.9831 37.1423C16.6384 37.1883 16.4692 37.5383 16.1908 37.7867L16.1622 37.812C16.3668 37.3045 16.8991 37.0197 17.3432 36.7765C17.7172 35.5349 17.1479 35.9056 16.3453 35.2093C15.289 34.2929 14.8761 33.1603 14.3978 31.9026C14.5133 31.8878 14.4838 31.9095 14.5405 31.8373C14.5405 31.4105 14.5684 28.2501 14.4947 28.1337C14.4501 28.5687 14.397 28.9938 14.3851 29.4315C14.3676 30.0828 14.4355 30.8569 14.3754 31.4941C14.2591 31.0044 14.2912 28.7128 14.41 28.1205C14.4489 27.9266 14.7111 27.2576 14.8029 27.0374C15.0652 26.4084 15.1752 26.6346 15.3708 25.8781C15.6069 25.7135 15.5327 25.7201 15.7084 25.5408C16.076 25.1657 16.4919 24.7084 16.9099 24.3958C16.9492 24.3665 17.2444 24.3487 17.3089 24.3447C17.4267 24.3383 17.4424 24.3451 17.5287 24.2741C17.63 23.5483 17.5604 22.5513 17.5728 21.7896C17.5783 21.4481 17.6421 20.2738 17.6108 20.0083L17.6575 19.906C17.7023 20.1761 17.6501 20.6444 17.6529 20.9347C17.6606 21.7271 17.5791 22.6933 17.6957 23.4682L17.7322 23.4798L17.7419 23.3164C17.7677 22.9768 17.8087 19.9207 17.7439 19.7699L17.6575 19.906L17.6544 19.7185C17.7382 19.5948 17.6971 19.6366 17.8684 19.5712C18.1746 19.2126 18.1379 19.2187 18.2598 18.7365C18.5667 18.5723 19.0178 17.9551 19.0988 17.6139C19.2866 17.4824 20.1081 16.6909 20.1255 16.6855C20.4175 16.7112 21.0601 16.6587 21.3331 16.5782C21.2208 16.4121 20.8122 16.5014 20.6127 16.403L20.6026 16.3024C20.7407 16.2637 21.0616 16.2167 21.2154 16.1894L21.4322 15.7948C21.6398 15.7605 21.8454 15.7473 22.0548 15.7307C22.4869 15.7236 26.2874 15.7347 26.3866 15.6711L26.3881 15.5722L26.2629 15.4476C26.0442 15.395 25.6238 15.4929 25.4509 15.3815C25.5841 15.3615 26.1615 15.3588 26.3235 15.355C26.4886 14.5366 27.5441 13.9484 27.8038 13.3554C28.5593 13.2093 28.4269 12.9053 28.9051 12.8844Z" fill="#2C2C2C"/>
<path d="M39.7604 23.9896C39.8077 23.9808 39.8262 23.9766 39.8749 23.9754C40.4486 23.9555 41.0051 24.1726 41.4139 24.5755C43.1628 26.3142 40.94 27.808 39.8141 28.9898C37.1808 31.7701 34.3585 34.4063 31.6786 37.1457C29.5593 39.3121 28.4969 37.2016 26.8828 35.7463C25.9864 34.9382 25.156 34.0676 24.3303 33.1828C24.1417 33.0381 23.8405 32.7148 23.683 32.5517C22.6791 31.5124 21.2023 30.4039 22.3038 28.8476C22.6209 28.3996 23.0092 28.1649 23.5386 28.0313C25.0872 27.6405 26.3911 29.5212 27.3447 30.4609C27.8169 30.9612 28.3084 31.4537 28.8002 31.9341C29.0528 32.1809 29.8217 33.0092 30.199 32.7856C30.7467 32.461 31.271 31.8189 31.73 31.361L36.3506 26.7451C37.1854 25.9023 37.8548 25.0387 38.8464 24.3116C39.0598 24.155 39.4948 24.0559 39.7604 23.9896Z" fill="#FAFAFA"/>
<path d="M37.8647 44.5556C38.2916 44.5115 38.785 44.5718 39.2145 44.6191C40.6467 44.7769 42.1536 44.2953 43.3852 43.587C45.1268 42.5853 46.1947 40.6293 46.7416 38.755C46.8396 38.4192 46.7666 37.1191 47.0791 37.0303C47.3603 37.1459 47.5907 37.5734 47.8809 37.7324C49.2459 39.2498 50.8174 40.5076 52.1612 42.0464C52.5926 42.5403 53.255 43.0541 53.5995 43.5987C53.8262 43.9495 53.9371 44.3626 53.9165 44.7798C53.743 47.9239 49.6072 46.5209 48.0959 48.5992C46.9155 50.2224 47.5633 53.8677 44.7664 53.8462C44.044 53.8406 43.5256 53.3677 43.0291 52.8976C41.634 51.5767 40.2659 50.2418 38.9721 48.8174C38.477 48.2709 37.775 47.8041 37.3096 47.2686C36.8925 46.693 36.6138 46.7026 36.7769 45.8651C37.2208 45.4382 37.4576 45.0142 37.8647 44.5556Z" fill="#373737"/>
<path d="M16.1345 37.6697L16.1631 37.6444C16.4415 37.396 16.6107 37.046 16.9554 37L17.0608 37.0428C17.0952 37.5019 17.1253 38.3081 17.2026 38.7408C17.4557 40.1568 18.5089 41.9155 19.5689 42.8737C20.8193 44.004 22.8581 44.7498 24.5472 44.6404C25.1446 44.6017 25.4663 44.4551 26.038 44.6304C26.3974 44.9821 27.2669 45.8041 27.2679 46.3169C27.2687 46.712 26.8677 46.8886 26.7477 47.1532C25.9773 47.836 25.231 48.5455 24.5102 49.2805C23.673 50.1451 22.9307 51.0254 22.0137 51.819C21.5383 52.2304 21.0769 52.7411 20.606 53.1721C19.966 53.7577 19.4857 54.021 18.588 53.7752C16.244 53.1613 17.0363 50.1305 15.8322 48.5745C14.5912 46.9576 12.2165 47.5036 10.7175 46.3394C10.0052 45.7862 9.77892 44.5291 10.2407 43.7516C10.5718 43.1439 11.1901 42.7257 11.6221 42.2116C13.0032 40.5675 14.7225 39.2725 16.1345 37.6697Z" fill="#373737"/>
<path d="M49.2568 32.1313C49.2932 31.9004 49.2546 30.8941 49.2468 30.6214C49.2199 29.6862 49.3444 27.9489 49.1253 27.1053C49.0547 27.1311 49.0257 27.1567 48.9628 27.1978L48.8504 27.1607C48.7294 27.0137 48.7602 27.0759 48.7666 26.8553C48.6871 26.7918 48.6327 26.7607 48.5451 26.7085L48.5416 26.6391L48.643 26.5718L48.8065 26.623C49.3359 26.8951 49.2761 27.4437 49.5925 27.9147C49.6225 27.9595 49.6315 28.1876 49.6263 28.2508L49.51 28.23C49.416 28.4026 49.4593 30.4009 49.4862 30.7123C49.4763 31.1266 49.4649 31.466 49.5028 31.8815C49.5418 31.7037 49.5771 31.5395 49.6279 31.3647C49.6501 31.9784 49.5717 31.9611 49.2529 32.504L49.2568 32.1313Z" fill="black" fill-opacity="0.313725"/>
<path d="M29.5298 12.392C29.9658 12.3813 30.6729 12.2846 31.0927 12.3606C30.789 12.427 30.374 12.3561 30.0933 12.4356C30.2189 12.5534 32.8596 12.5179 33.1886 12.5063C33.3411 12.5006 33.4933 12.49 33.6451 12.4745L33.6369 12.4485C33.4345 12.4194 32.541 12.3829 32.4853 12.3632C33.0027 12.2907 34.4544 12.3148 34.8459 12.6654C35.0015 12.8047 35.0032 12.8216 35.2336 12.9034C35.2073 12.9026 35.181 12.9017 35.1547 12.9009L35.1134 12.8978C34.8074 12.8757 34.4792 12.6597 34.271 12.6713C32.7703 12.7552 31.2998 12.7263 29.8014 12.6792C29.6282 12.6737 29.2744 12.8697 28.9052 12.8844C29.2122 12.8037 29.3071 12.6338 29.5298 12.392Z" fill="black" fill-opacity="0.25098"/>
<path d="M45.5118 19.1043C45.6906 19.0574 45.6537 19.0366 45.7873 19.1018L45.8946 19.3608C46.0771 19.7594 46.2047 19.4311 46.3494 19.7206C46.4057 19.8332 46.4043 20.3405 46.391 20.4852C46.3528 20.3215 46.3354 20.2136 46.3142 20.0466L46.2537 20.0941C46.2164 20.505 46.2553 21.1181 46.262 21.5465C46.2755 22.3215 46.2724 23.0967 46.2528 23.8717C46.2595 24.0141 46.2821 24.1685 46.2201 24.2938L46.1403 24.2975C45.9112 24.0087 46.132 22.0987 46.0839 21.6134C46.039 21.1612 45.9735 20.7393 45.8988 20.2871C45.9497 20.2272 46.0016 20.1682 46.0545 20.1101C45.733 19.907 45.5284 19.4791 45.5118 19.1043Z" fill="black" fill-opacity="0.341176"/>
<path d="M17.6108 20.0083C17.642 20.2738 17.5783 21.4481 17.5727 21.7896C17.5604 22.5513 17.63 23.5483 17.5287 24.2741C17.4424 24.3451 17.4267 24.3383 17.3088 24.3447C17.2989 23.9959 17.5462 23.6255 17.4438 23.4032L17.2864 23.3655C17.1406 23.1957 17.1142 21.122 17.3182 20.9428C17.4027 20.9713 17.4004 20.9715 17.4892 20.9727C17.5419 20.8553 17.5756 20.2303 17.6108 20.0083Z" fill="black" fill-opacity="0.301961"/>
<path d="M37.8491 15.8018C37.6849 15.687 37.6136 15.7144 37.5292 15.5595C37.5947 15.5166 37.639 15.485 37.7007 15.4367C37.2634 14.9219 36.8963 14.9805 36.5847 14.2459C36.3181 14.3024 36.344 14.2341 36.1801 14.0248L36.3434 13.9507C36.3931 14.0341 36.4246 14.0792 36.4841 14.1559C36.7421 14.1461 36.471 14.1507 36.7377 13.9964C36.9305 14.311 37.33 14.6783 37.5974 14.942C37.6457 14.9896 37.5718 15.1458 37.7575 15.311C38.4753 15.4774 40.1716 15.1819 41.1306 15.4216C40.836 15.5835 39.1173 15.5232 38.6658 15.4968C38.3298 15.491 38.1173 15.4712 37.7945 15.571L37.7429 15.6235C37.8242 15.7012 37.9096 15.7068 38.0322 15.7105L38.041 15.746L37.8491 15.8018Z" fill="black" fill-opacity="0.439216"/>
<path d="M29.4386 47.3756C29.9029 47.345 30.3207 47.4495 30.7809 47.4395L33.6987 47.3636C34.0439 47.354 34.5697 47.3066 34.8761 47.3162C34.7136 47.3477 34.5515 47.3816 34.3901 47.418C34.1766 47.3997 34.1146 47.3887 33.9098 47.4416L33.8671 47.4927L33.9029 47.5582C34.1008 47.6024 34.2964 47.5582 34.3636 47.6398C34.257 47.6815 34.2229 47.6873 34.1096 47.7053L34.0776 47.7404L33.8242 47.7435L33.8499 47.6558L33.7898 47.6013C33.4663 47.569 30.8266 47.5102 30.6248 47.5658L30.598 47.6745L30.6933 47.6901L31.1106 47.7515C30.055 47.8634 30.1916 47.6139 29.4386 47.3756Z" fill="black" fill-opacity="0.258824"/>
<path d="M46.3957 20.502C46.4459 20.7039 46.4557 20.8872 46.6048 21.012L46.6757 21.0067C46.9068 21.4481 46.7924 22.8099 46.7845 23.3723C46.612 23.2942 46.6501 23.2807 46.4875 23.3064C46.3457 23.5485 46.5306 23.8342 46.654 24.0569C46.6027 24.1031 46.5524 24.1505 46.5033 24.199C46.5823 24.3243 46.5756 24.2929 46.7302 24.365L46.411 24.3511L46.4247 24.0778C46.3749 23.5738 46.4382 23.0495 46.4419 22.5383C46.4468 21.8562 46.4054 21.1813 46.3957 20.502Z" fill="black" fill-opacity="0.243137"/>
<path d="M46.2528 23.8715C46.2724 23.0965 46.2755 22.3213 46.262 21.5463C46.2553 21.1179 46.2164 20.5048 46.2537 20.0939L46.3142 20.0464C46.3354 20.2134 46.3528 20.3213 46.391 20.485L46.3957 20.5022C46.4054 21.1815 46.4468 21.8564 46.4419 22.5384C46.4382 23.0497 46.3749 23.574 46.4247 24.078L46.3285 24.0498L46.2528 23.8715Z" fill="black" fill-opacity="0.486275"/>
<path d="M26.2629 15.4478L26.388 15.5724L26.3866 15.6713C26.2873 15.7349 22.4868 15.7238 22.0547 15.7309C22.1748 15.7041 22.3036 15.6989 22.427 15.6894C22.6455 15.6849 23.1561 15.6902 23.3363 15.6317L23.3268 15.5842C23.2125 15.5525 23.0979 15.5218 22.983 15.4922C23.769 15.46 24.5156 15.5433 25.4152 15.4877C25.2796 15.5321 25.1385 15.5919 24.9986 15.5756L25.0287 15.5942L25.0653 15.5615C25.286 15.7475 25.8366 15.7331 26.1076 15.6679L26.1505 15.6054C26.0586 15.5309 26.0421 15.5261 25.9282 15.4924L26.2629 15.4478Z" fill="black" fill-opacity="0.298039"/>
<path d="M14.3754 31.4942C14.4355 30.857 14.3676 30.0829 14.3851 29.4316C14.3969 28.9939 14.4501 28.5688 14.4947 28.1338C14.5684 28.2501 14.5405 31.4106 14.5405 31.8374C14.4838 31.9096 14.5133 31.8879 14.3977 31.9027L14.3754 31.4942Z" fill="black" fill-opacity="0.529412"/>
<path d="M41.1307 15.4214L41.2623 15.4294L41.2707 15.4771C41.0079 15.622 40.6031 15.5449 40.4844 15.6165C40.9021 15.6349 41.3154 15.6542 41.728 15.7284C41.1288 15.7374 40.5379 15.6768 39.9541 15.6804C39.3463 15.6842 38.6993 15.7298 38.0851 15.7451L38.041 15.7459L38.0322 15.7103C38.2794 15.7054 38.5456 15.7195 38.7774 15.6421L38.8064 15.5814L38.6658 15.4966C39.1173 15.523 40.8361 15.5833 41.1307 15.4214Z" fill="black" fill-opacity="0.270588"/>
<path d="M31.0926 12.3608L32.4852 12.3635C32.5409 12.3831 33.4345 12.4196 33.6369 12.4487L33.645 12.4747C33.4932 12.4902 33.341 12.5008 33.1886 12.5065C32.8595 12.5181 30.2188 12.5536 30.0933 12.4358C30.374 12.3563 30.7889 12.4272 31.0926 12.3608Z" fill="black" fill-opacity="0.72549"/>
<path d="M23.9499 15.3184C24.3323 15.3234 25.1001 15.3175 25.4508 15.3814C25.6238 15.4929 26.0442 15.395 26.2629 15.4475L25.9282 15.4922C25.7449 15.4736 25.5992 15.4814 25.4152 15.4874C24.5156 15.5431 23.769 15.4598 22.983 15.492L22.9474 15.437C23.2259 15.3586 23.6499 15.341 23.9499 15.3184Z" fill="black" fill-opacity="0.431373"/>
<path d="M17.6575 19.9061L17.7439 19.77C17.8087 19.9209 17.7677 22.9769 17.7419 23.3165L17.7322 23.4799L17.6957 23.4683C17.5791 22.6934 17.6606 21.7272 17.6529 20.9348C17.6501 20.6446 17.7024 20.1762 17.6575 19.9061Z" fill="black" fill-opacity="0.482353"/>
<path d="M45.2827 18.2109C45.7088 18.6017 45.8245 18.8208 45.8946 19.3603L45.7873 19.1014C45.6537 19.0361 45.6906 19.0569 45.5118 19.1038L45.3925 18.9953C45.3503 18.8124 45.3242 18.7612 45.2433 18.5914C45.0825 18.5604 44.9589 18.5202 44.8632 18.3922L44.8894 18.3124L44.968 18.2731C45.0773 18.3177 45.1365 18.3574 45.2483 18.3292L45.2827 18.2109Z" fill="black" fill-opacity="0.294118"/>
<path d="M30.6933 47.6901C31.0347 47.5224 33.1359 47.6196 33.6158 47.6432C33.405 47.684 33.193 47.719 32.9803 47.7484C32.3634 47.7642 31.7293 47.7543 31.1106 47.7515L30.6933 47.6901Z" fill="black" fill-opacity="0.713725"/>
<path d="M46.7302 24.3649C46.5755 24.2928 46.5823 24.3242 46.5032 24.1989C46.5524 24.1504 46.6027 24.103 46.6539 24.0568C46.5305 23.8342 46.3456 23.5485 46.4875 23.3063C46.6501 23.2806 46.612 23.2941 46.7845 23.3722C46.6493 23.6831 47.0272 24.0071 46.7211 24.2445C46.8736 24.3043 47.0005 24.3347 47.1585 24.3754L47.1043 24.4137L46.7302 24.3649Z" fill="black" fill-opacity="0.0196078"/>
<path d="M49.4862 30.7123C49.4594 30.4009 49.416 28.4026 49.5101 28.23L49.6263 28.2508C49.6505 28.9675 49.7133 30.1684 49.6325 30.8461C49.612 30.4969 49.6276 29.2137 49.5834 29.0205C49.4752 29.5525 49.56 30.1262 49.4922 30.667L49.4862 30.7123Z" fill="black" fill-opacity="0.501961"/>
<path d="M47.1043 24.4138L47.1585 24.3755C47.5338 24.5351 47.262 24.7944 47.8075 24.9068C47.5652 24.9322 46.5245 24.7607 46.4232 24.5913L46.4675 24.5083C46.7045 24.5175 46.8559 24.5311 47.0921 24.4859L47.1043 24.4138Z" fill="black" fill-opacity="0.298039"/>
<path d="M49.4862 30.7124L49.4921 30.667C49.5599 30.1262 49.4752 29.5525 49.5834 29.0205C49.6276 29.2138 49.6119 30.4969 49.6325 30.8461L49.6279 31.3647C49.5771 31.5396 49.5418 31.7037 49.5028 31.8815C49.4649 31.4661 49.4762 31.1266 49.4862 30.7124Z" fill="black" fill-opacity="0.623529"/>
<path d="M44.0519 16.7754C44.423 16.968 44.2557 17.1197 44.5714 17.2718C44.4371 17.2233 43.495 17.0849 43.3715 16.9408C43.4946 16.807 43.7924 16.8479 43.9506 16.8709L44.0519 16.7754Z" fill="black" fill-opacity="0.309804"/>
<path d="M30.6933 47.6903L30.598 47.6746L30.6248 47.5659C30.8266 47.5103 33.4664 47.5691 33.7898 47.6015L33.8499 47.6559L33.8242 47.7436C33.5264 47.7561 33.2782 47.7557 32.9803 47.7485C33.193 47.7192 33.405 47.6841 33.6158 47.6434C33.1359 47.6197 31.0347 47.5225 30.6933 47.6903Z" fill="black" fill-opacity="0.411765"/>
<path d="M31.2381 12.0144C31.5331 11.9776 32.6489 11.9343 32.896 12.0545L32.8715 12.1172C32.5981 12.1382 31.3698 12.1876 31.1862 12.0666L31.2381 12.0144Z" fill="black" fill-opacity="0.180392"/>
<path d="M20.1254 16.6853C20.1544 16.6775 20.1833 16.6691 20.2119 16.66C20.4996 16.5677 20.3832 16.4424 20.6026 16.3022L20.6127 16.4028C20.8121 16.5012 21.2208 16.412 21.3331 16.578C21.0601 16.6585 20.4175 16.711 20.1254 16.6853Z" fill="black" fill-opacity="0.305882"/>
<path d="M38.0322 15.7104C37.9097 15.7067 37.8242 15.7011 37.7429 15.6234L37.7945 15.5709C38.1174 15.4711 38.3298 15.491 38.6658 15.4967L38.8064 15.5815L38.7774 15.6422C38.5456 15.7196 38.2794 15.7055 38.0322 15.7104Z" fill="black" fill-opacity="0.0235294"/>
<path d="M22.427 15.6894C22.5993 15.6633 22.6232 15.6517 22.7773 15.5726C22.69 15.531 22.6767 15.53 22.617 15.4572C22.7991 15.2711 23.6735 15.3028 23.9499 15.3186C23.6499 15.3412 23.2259 15.3589 22.9474 15.4373L22.983 15.4922C23.0979 15.5218 23.2125 15.5525 23.3269 15.5841L23.3363 15.6317C23.1561 15.6902 22.6455 15.6849 22.427 15.6894Z" fill="black" fill-opacity="0.160784"/>
<path d="M25.4152 15.4874C25.5992 15.4813 25.7449 15.4735 25.9282 15.4921C26.0421 15.5258 26.0586 15.5305 26.1505 15.6051L26.1076 15.6676C25.8366 15.7328 25.286 15.7471 25.0653 15.5611L25.0287 15.5939L24.9986 15.5753C25.1385 15.5916 25.2796 15.5318 25.4152 15.4874Z" fill="black" fill-opacity="0.0862745"/>
<path d="M34.0776 47.7403L34.1096 47.7053C34.2229 47.6872 34.257 47.6814 34.3636 47.6398C34.2964 47.5582 34.1008 47.6024 33.9029 47.5581L33.8671 47.4926L33.9098 47.4416C34.1146 47.3886 34.1766 47.3996 34.3901 47.418C34.3704 47.6514 34.462 47.458 34.415 47.7379C34.3195 47.7896 34.1802 47.7791 34.0776 47.7403Z" fill="black" fill-opacity="0.0392157"/>
<path d="M49.1864 32.9396L49.1127 32.9265C49.0124 32.7394 49.0876 32.2692 49.2568 32.1313L49.2529 32.5041L49.1864 32.9396Z" fill="black" fill-opacity="0.513725"/>
<path d="M46.7303 24.365L47.1044 24.4138L47.0921 24.4858C46.8559 24.531 46.7045 24.5174 46.4676 24.5083C46.3867 24.4627 46.387 24.4649 46.3245 24.3975L46.411 24.3511L46.7303 24.365Z" fill="black" fill-opacity="0.454902"/>
<path d="M38.041 15.7459L38.0852 15.7451C38.3093 15.7497 38.4003 15.7427 38.6084 15.8184L38.5564 15.8064L38.5218 15.8667C38.3443 15.8895 38.0087 15.8804 37.8492 15.8016L38.041 15.7459Z" fill="black" fill-opacity="0.74902"/>
</svg>
