<svg width="24" height="24" viewBox="0 0 24 24" fill="none" xmlns="http://www.w3.org/2000/svg">
<path d="M17.1539 3.18307L18.6775 3.17485C18.9806 3.17379 19.2887 3.16547 19.5902 3.19505C19.7212 3.20789 19.7817 3.23923 19.8508 3.35323L19.938 3.38276C20.0127 3.39049 20.0866 3.38829 20.1385 3.44084L20.1444 3.4639C20.1652 3.54277 20.1687 3.56478 20.2325 3.61653C20.3414 3.64744 20.343 3.63049 20.4128 3.70102C20.3925 3.75823 20.3787 3.75736 20.3301 3.80093C20.467 3.93567 20.619 3.7272 20.625 4.08183C20.6257 4.12402 20.7526 4.1427 20.7666 4.16656C20.8365 4.36036 20.877 4.87814 20.8664 5.06763C20.8404 5.53369 20.9086 7.17216 20.8142 7.52913C20.791 7.36948 20.816 7.09892 20.8071 6.94146C20.7766 6.40641 20.8717 4.83202 20.759 4.40972C20.6707 4.398 20.6828 4.38621 20.6124 4.41895C20.5984 4.48001 20.6549 5.00993 20.6544 5.14575C20.6514 6.09619 20.635 7.0467 20.6276 7.9961C20.6135 8.27693 20.581 8.36288 20.4244 8.5946C20.3511 8.70305 20.3374 8.81693 20.1991 8.86692C20.1594 8.95221 20.1166 9.16533 20.0905 9.19721C19.8645 9.47241 19.759 9.39663 19.6283 9.75368L19.624 9.76568C19.3637 9.86295 19.2957 9.99511 19.1387 10.2087C19.1288 10.2223 18.9953 10.141 18.9477 10.2645C18.8774 10.4471 18.9005 10.4784 18.7087 10.5183C18.6806 10.5242 18.484 10.786 18.4501 10.8201C18.442 10.8295 18.4044 10.9495 18.4001 10.964C18.2011 11.0702 18.0072 11.2154 17.9386 11.4356C17.7693 11.5183 17.5401 11.7021 17.4767 11.8825C17.474 11.8905 17.4713 11.8985 17.4686 11.9065C17.3002 11.9792 17.2001 12.074 17.0705 12.2034C17.0452 12.2871 17.0457 12.3703 16.9959 12.4118C16.9166 12.4062 16.8466 12.3901 16.7855 12.437C16.7411 12.498 16.74 12.5233 16.7269 12.5449C16.6078 12.7414 16.3677 12.7606 16.2668 13.0311L16.2584 13.0533C16.2516 13.0715 16.2463 13.0875 16.2405 13.1059C16.0667 13.2181 15.8492 13.3831 15.7853 13.5823C15.5896 13.6921 15.3802 13.8326 15.317 14.0568L15.3141 14.0676C15.1112 14.15 15.1492 14.1432 15.0385 14.3019C15.022 14.3255 14.8884 14.3049 14.8074 14.3899C14.7926 14.4682 14.8029 14.4941 14.7537 14.5374C14.726 14.5386 14.6848 14.5339 14.6718 14.5495C14.5338 14.7136 14.6357 15.1338 14.6231 15.3455C14.6187 15.4953 14.5806 15.7514 14.6874 15.8565C14.7496 15.8552 14.7587 15.8451 14.8153 15.8138C14.8242 16.1118 14.8311 16.4099 14.8361 16.7081C14.8219 16.8479 14.8201 17.3742 14.8528 17.4989C14.888 17.5279 14.9226 17.5576 14.9565 17.588C14.9378 17.6113 14.9155 17.6391 14.8897 17.6712C14.8965 17.7477 14.9083 17.9205 14.9101 17.9927C14.9191 18.3405 14.9139 18.6855 14.9106 19.0326C14.9082 19.2852 14.82 19.1391 14.8239 19.3013L14.8658 19.358C14.8458 19.418 14.8344 19.4268 14.7941 19.4774L14.7597 19.4471C14.7263 19.5386 14.7261 19.5508 14.7373 19.6477L14.7806 19.6778C14.6544 19.8728 14.6262 19.8849 14.5693 20.1165C14.3001 20.2002 14.446 20.1934 14.3092 20.3397L14.2215 20.3488C14.1323 20.3527 14.024 20.3485 13.9482 20.3907C13.8832 20.5365 13.9961 20.5025 13.9159 20.6097C13.5086 20.6392 13.7561 20.8362 13.2509 20.8121C13.2804 20.7731 13.3823 20.7656 13.4386 20.7562L13.4154 20.7336C13.0355 20.7097 12.2706 20.6907 11.9181 20.7451C11.9879 20.7644 12.0143 20.7804 12.0762 20.8136C12.0422 20.8138 11.9094 20.813 11.8831 20.8006C11.2013 20.4804 10.6649 20.0068 10.1485 19.4677C10.0145 19.3277 9.80544 19.1585 9.72901 18.9822C9.6058 18.939 9.54748 18.917 9.42959 18.8554L9.19004 19.0559C9.27786 18.9037 9.45031 18.8031 9.26281 18.6142C8.84389 18.1782 8.36562 17.7792 7.95645 17.3338C7.31757 16.6383 6.62523 16.0159 5.9653 15.3403C6.00486 15.2538 6.05851 15.165 5.96434 15.103L5.8737 15.1231C5.80754 15.0793 5.89306 14.9385 5.80534 14.8703C5.76985 14.8428 5.61371 14.7798 5.606 14.7548C5.51199 14.4493 5.45239 14.6393 5.08805 14.625L5.18 14.5895L5.19929 14.5436C5.1875 14.4621 5.0698 14.3294 5.00966 14.2218C4.82183 14.1508 4.32805 13.706 4.27435 13.541C4.13012 13.4471 4.0538 13.332 3.89354 13.3905C3.91306 13.351 3.94109 13.3319 3.97433 13.3027C3.70072 12.954 3.24845 12.4201 3.18491 11.9616L3.24528 11.9803C3.30434 11.8692 3.25951 10.7573 3.24931 10.5708C3.16152 11.1209 3.23255 11.3626 3.18713 11.8482C3.13395 11.5723 3.13742 10.7023 3.22941 10.4235C3.25906 10.3337 3.32497 10.257 3.36655 10.1768C3.40119 10.11 3.42985 9.98201 3.44818 9.90596C3.75908 9.80159 3.87533 9.25254 4.48993 9.15291L4.60449 8.94312C5.00494 8.85764 6.51751 8.85671 6.90889 8.95254C6.98389 8.99834 7.00217 9.05707 7.04012 9.13699C7.20959 9.20921 7.91945 9.17171 8.19186 9.20883C7.96341 9.21446 7.7957 9.2273 7.56842 9.25036C7.40199 9.26724 7.22253 9.24797 7.04759 9.27778L7.64445 9.28845C7.54941 9.2911 7.03402 9.30101 6.98968 9.32764C7.45695 9.36464 7.91185 9.37057 8.37158 9.40367L8.3948 9.44658C8.54682 9.47417 8.98355 9.49024 9.11448 9.42879C9.02316 9.42206 8.84413 9.41414 8.76043 9.39928C8.92173 9.38381 9.37625 9.44105 9.47731 9.33797C9.44347 9.30521 9.43545 9.29473 9.40789 9.25634C9.45132 9.20168 9.53762 9.19742 9.61794 9.17841C9.67198 9.10214 9.6545 9.08581 9.66045 8.97544C9.76302 8.82124 9.82355 8.99262 9.88679 8.70511C9.96901 8.61577 10.0635 8.66625 10.1223 8.60771C10.2634 8.46724 10.3187 8.19525 10.5345 8.17533C10.6318 8.16635 10.757 7.88724 10.8269 7.82381C10.9645 7.69892 11.1886 7.57695 11.3316 7.4412C11.3547 7.41928 11.3351 7.3301 11.4145 7.27999C11.5453 7.28768 11.7881 7.22321 11.8351 7.07939L11.7901 7.02342C11.8561 6.94165 11.9474 6.9942 12.0391 6.89271L12.0211 6.80913C12.0798 6.72157 12.0975 6.7921 12.1696 6.71862L12.1115 6.69942L12.1066 6.67453C12.2123 6.68564 12.2503 6.68703 12.3263 6.62602L12.3286 6.59058L12.2366 6.543C12.2964 6.47524 12.3947 6.50145 12.5018 6.43589L12.4969 6.39687L12.4233 6.37331L12.4156 6.35086C12.502 6.30293 12.9364 5.97823 12.957 5.92781C12.9091 5.90578 12.8978 5.91153 12.881 5.87557C13.083 5.76577 13.2276 5.63447 13.4244 5.51613C13.5254 5.43919 13.3753 5.46706 13.4776 5.34113C13.5518 5.24972 13.8251 4.99282 13.8415 4.88944L13.7697 4.86844C13.7956 4.83799 13.8556 4.82283 13.8978 4.80682C13.9684 4.77129 14.1879 4.43311 14.3023 4.35127C14.474 4.22843 14.6744 4.14378 14.7019 3.92988C14.714 3.83567 15.1072 3.8937 15.189 3.79524C15.1337 3.74862 15.1282 3.76048 15.1191 3.70643C15.2188 3.62161 15.33 3.67943 15.4455 3.6001C15.4612 3.531 15.4641 3.51155 15.4988 3.44778C15.5749 3.39795 15.6895 3.40341 15.7835 3.39872C16.0909 3.37423 16.4515 3.41131 16.7709 3.40777C16.9051 3.40629 17.3822 3.36242 17.4483 3.3728C17.5336 3.38304 18.0549 3.3791 18.0932 3.35653C18.0497 3.35534 17.9941 3.35988 17.9593 3.33776L18.0746 3.32248L18.0688 3.30422C17.918 3.3008 17.7461 3.29128 17.5977 3.30867C17.4842 3.31894 17.351 3.33145 17.2488 3.2798C17.2342 3.27073 17.2216 3.26323 17.2063 3.25491L17.1881 3.24516C17.0535 3.17217 16.69 3.20435 16.5206 3.2107L16.5142 3.18729L16.545 3.18169C16.7479 3.18415 16.9509 3.1846 17.1539 3.18307ZM12.9589 10.0638C13.664 10.289 14.0985 10.9961 13.9809 11.727C13.9892 11.7994 13.9894 11.8718 14.0351 11.9276L14.0705 11.9115C14.0582 11.8458 14.0578 11.8292 14.0604 11.7623C14.0877 11.7916 14.0874 11.7949 14.1257 11.8109C14.131 11.7608 14.1013 11.116 14.0826 11.0787C14.0641 11.141 14.0498 11.1857 14.026 11.2467C14.0265 11.1649 13.9877 11.0575 13.9898 11.0281C14.006 10.7985 14.1338 10.7973 13.8668 10.6851C13.6999 10.6149 13.7775 10.4173 13.7214 10.2838C13.6444 10.2426 13.6595 10.2563 13.5592 10.2633C13.5249 10.239 13.483 10.1239 13.4601 10.0764C13.4056 10.0368 13.3681 10.0457 13.3018 10.0492L13.2662 10.1046C13.2344 10.0816 13.2415 10.0666 13.2299 10.0156C13.192 10.0016 13.0373 10.0519 12.9589 10.0638ZM6.03514 8.94455C5.85425 8.91603 5.1642 8.9224 4.9828 8.94368C5.40591 9.00485 5.59048 9.02292 6.03514 8.94455ZM18.0004 7.70925C18.0016 7.77881 17.994 7.83359 18.0304 7.89012L18.0706 7.87189C18.144 7.73149 18.1032 7.42085 18.0614 7.26924L18.0429 7.25928C18.0386 7.39554 18.0425 7.54788 18.0041 7.67841L18.0004 7.70925ZM13.6478 12.4534C13.6725 12.5505 13.6518 12.5167 13.7241 12.5828L13.7771 12.5785C13.8651 12.4967 13.8942 12.3774 13.8364 12.2712L13.7747 12.2786C13.7366 12.3398 13.6942 12.3983 13.6478 12.4534ZM17.9354 7.93934L17.8172 8.20287C17.8236 8.23528 17.8276 8.23449 17.8502 8.25963C17.9597 8.15888 18.045 8.12707 18.0063 7.97297L17.9354 7.93934ZM15.1979 3.92339C15.0781 3.87856 14.9975 3.87389 14.872 3.90441C14.9834 3.95693 15.0712 3.93157 15.1979 3.92339Z" fill="black" fill-opacity="0.415686"/>
<path d="M14.9435 7.63803L14.9426 7.59078C14.932 6.8783 15.5498 6.03202 16.2989 5.99623C17.4385 5.94176 18.0031 6.58892 18.0041 7.67841L18.0005 7.70925L17.9354 7.93934L17.8172 8.20287C17.5483 8.73506 16.8724 9.14679 16.2792 9.01156C15.8279 8.90869 15.3978 8.61056 15.1856 8.19087C15.0931 8.00796 15.066 7.80563 14.9435 7.63803Z" fill="black"/>
<path d="M13.6478 12.4534C13.1637 13.0279 12.3287 13.1544 11.6961 12.7491C11.0636 12.3437 10.8297 11.5322 11.1494 10.8524C11.4691 10.1726 12.2433 9.83514 12.9589 10.0638C13.6641 10.2891 14.0985 10.9961 13.9809 11.727C13.9494 11.9227 13.8793 12.1102 13.7747 12.2786C13.7367 12.3399 13.6943 12.3983 13.6478 12.4534Z" fill="black"/>
<path d="M12.9589 10.0638C13.0373 10.0519 13.192 10.0016 13.2299 10.0156C13.2415 10.0666 13.2344 10.0816 13.2662 10.1046L13.3018 10.0492C13.3681 10.0457 13.4056 10.0368 13.4601 10.0764C13.483 10.124 13.5249 10.239 13.5592 10.2633C13.6595 10.2563 13.6444 10.2426 13.7214 10.2838C13.7775 10.4173 13.6999 10.6149 13.8668 10.6851C14.1338 10.7973 14.006 10.7985 13.9898 11.0281C13.9877 11.0575 14.0265 11.1649 14.026 11.2468C14.0498 11.1857 14.0642 11.141 14.0826 11.0787C14.1013 11.116 14.131 11.7609 14.1257 11.8109C14.0874 11.7949 14.0878 11.7916 14.0604 11.7623C14.0578 11.8292 14.0582 11.8458 14.0705 11.9115L14.0351 11.9276C13.9894 11.8718 13.9892 11.7994 13.9809 11.727C14.0985 10.9961 13.664 10.2891 12.9589 10.0638Z" fill="black" fill-opacity="0.454902"/>
<path d="M4.98279 8.94371C5.16419 8.92243 5.85424 8.91606 6.03513 8.94458C5.59048 9.02296 5.40591 9.00489 4.98279 8.94371Z" fill="black" fill-opacity="0.478431"/>
<path d="M18.004 7.67841C18.0425 7.54789 18.0385 7.39554 18.0428 7.25928L18.0614 7.26924C18.1031 7.42086 18.1439 7.7315 18.0706 7.87189L18.0304 7.89012C17.994 7.83359 18.0015 7.77882 18.0004 7.70925L18.004 7.67841Z" fill="black" fill-opacity="0.360784"/>
<path d="M13.7746 12.2786L13.8364 12.2712C13.8942 12.3774 13.8651 12.4967 13.777 12.5785L13.724 12.5828C13.6517 12.5167 13.6725 12.5506 13.6477 12.4534C13.6942 12.3983 13.7366 12.3399 13.7746 12.2786Z" fill="black" fill-opacity="0.32549"/>
<path d="M17.8173 8.20286L17.9355 7.93933L18.0064 7.97296C18.045 8.12707 17.9598 8.15887 17.8503 8.25963C17.8276 8.23448 17.8237 8.23528 17.8173 8.20286Z" fill="black" fill-opacity="0.431373"/>
<path d="M14.8719 3.90447C14.9975 3.87396 15.0781 3.87862 15.1979 3.92346C15.0712 3.93164 14.9833 3.957 14.8719 3.90447Z" fill="black" fill-opacity="0.470588"/>
<path d="M21.1717 2.72571C21.2127 2.7442 21.2212 2.74856 21.2584 2.77343C21.283 2.83254 21.2476 2.96065 21.2408 3.03813C21.2156 3.03935 21.2049 3.03337 21.1791 3.0262C21.1272 2.91054 21.1134 2.83755 21.1717 2.72571Z" fill="#2E0BA6" fill-opacity="0.27451"/>
<path d="M4.76181 15.0002C5.23496 14.5623 5.18654 14.5305 5.67519 15.0487C5.76385 15.1427 5.86585 15.2579 5.96523 15.3403C6.62516 16.0159 7.3175 16.6383 7.95639 17.3338C8.36556 17.7792 8.84382 18.1781 9.26274 18.6142C9.45024 18.8031 9.27779 18.9037 9.18997 19.0559C9.00505 19.3565 7.76903 19.9491 7.37675 20.0613C6.60228 20.2828 5.65159 20.5598 4.86219 20.7159C3.5192 20.9993 3.00514 20.0675 3.33894 18.8827C3.73604 17.4734 3.902 16.2303 4.76181 15.0002Z" fill="black"/>
<path d="M11.4146 7.28006C11.4794 7.25639 11.5645 7.22938 11.5591 7.14705C11.5422 6.88778 11.7186 7.00589 11.8387 6.89301L11.8146 6.80957L11.835 6.77526C12.1233 6.68357 11.9373 6.51037 12.2795 6.44167C12.3024 6.43708 12.5157 6.07647 12.6232 6.02261C12.704 5.98209 12.9601 5.78484 12.962 5.69294C12.9874 5.51378 13.1066 5.62687 13.2435 5.506C13.2556 5.43951 13.2535 5.41633 13.3011 5.36892C13.5237 5.31117 13.4454 5.30542 13.5228 5.12353C13.5814 5.08935 13.6186 5.07813 13.6812 5.05631C13.7376 4.97526 13.7191 4.96003 13.7246 4.84366C13.7767 4.80243 13.8286 4.80953 13.8979 4.80688C13.8556 4.82289 13.7956 4.83806 13.7698 4.8685L13.8416 4.8895C13.8251 4.99288 13.5519 5.24978 13.4776 5.34119C13.3754 5.46712 13.5255 5.43925 13.4245 5.5162C13.2277 5.63453 13.083 5.76583 12.881 5.87564C12.8978 5.91159 12.9091 5.90585 12.957 5.92788C12.9364 5.97829 12.5021 6.30299 12.4156 6.35092L12.4233 6.37338L12.4969 6.39693L12.5019 6.43596C12.3948 6.50151 12.2965 6.47531 12.2366 6.54306L12.3286 6.59064L12.3264 6.62608C12.2503 6.68709 12.2123 6.68571 12.1066 6.6746L12.1116 6.69949L12.1697 6.71868C12.0976 6.79216 12.0799 6.72163 12.0211 6.8092L12.0391 6.89278C11.9474 6.99426 11.8562 6.94171 11.7901 7.02349L11.8352 7.07946C11.7881 7.22327 11.5454 7.28774 11.4146 7.28006Z" fill="black" fill-opacity="0.333333"/>
<path d="M17.3016 2.82092C17.4343 2.91413 19.2797 2.83693 19.6005 2.85833C19.4628 2.88247 19.4024 2.88985 19.2726 2.95074L19.2715 2.97638L19.387 3.04222C19.3928 3.065 19.4014 3.09425 19.4044 3.11682L19.3376 3.12006C19.2367 2.97887 17.4263 2.97263 17.2314 3.04747L17.1991 3.08059L17.2311 3.15158L17.1539 3.18313C16.9509 3.18465 16.7479 3.1842 16.5449 3.18174C16.6769 3.15613 16.9704 3.16405 17.128 3.15331C17.131 3.07543 17.1045 3.1426 17.0721 3.04604C17.1362 2.91739 17.209 2.93527 17.3016 2.82092Z" fill="black" fill-opacity="0.137255"/>
<path d="M17.1539 3.18311L17.2312 3.15156L17.1991 3.08057L17.2315 3.04745C17.4264 2.97262 19.2368 2.97885 19.3377 3.12004L19.4044 3.11681C19.5668 3.14505 19.7621 3.16167 19.9017 3.23659C19.9458 3.30067 19.9324 3.2947 19.938 3.3828L19.8508 3.35327C19.7817 3.23927 19.7213 3.20793 19.5902 3.19509C19.2887 3.16551 18.9806 3.17383 18.6775 3.17488L17.1539 3.18311Z" fill="black" fill-opacity="0.172549"/>
<path d="M14.8361 16.7081C14.8495 16.8047 14.8577 16.9977 14.9036 17.0668C14.953 17.0952 14.9862 17.0822 15.0441 17.0729C15.1215 17.1697 15.0963 17.3912 15.0947 17.5263L15.0228 17.5541C15.0048 17.6464 15.0151 19.1714 15.0281 19.2052C15.0726 19.1367 15.0801 19.0374 15.0928 18.9546C15.1058 19.5539 14.9346 19.2367 14.8134 19.6247L14.7941 19.4775C14.8344 19.4269 14.8457 19.4181 14.8658 19.3581L14.8238 19.3014C14.82 19.1392 14.9082 19.2853 14.9106 19.0327C14.9139 18.6856 14.9191 18.3406 14.9101 17.9928C14.9083 17.9205 14.8965 17.7478 14.8897 17.6713C14.9155 17.6391 14.9378 17.6114 14.9565 17.5881C14.9226 17.5576 14.888 17.5279 14.8528 17.499C14.8201 17.3743 14.8219 16.848 14.8361 16.7081Z" fill="black" fill-opacity="0.301961"/>
<path d="M20.6277 7.99616C20.6351 7.04675 20.6514 6.09624 20.6545 5.14581C20.6549 5.00999 20.5984 4.48006 20.6125 4.41901C20.6828 4.38627 20.6707 4.39806 20.759 4.40977C20.7409 4.76373 20.6954 7.56031 20.7604 7.65591C20.7992 7.62418 20.8005 7.59505 20.8151 7.54398C20.827 7.96128 20.7044 7.78023 20.6277 7.99616Z" fill="black" fill-opacity="0.364706"/>
<path d="M20.759 4.40979C20.8717 4.83209 20.7767 6.40648 20.8071 6.94153C20.8161 7.09899 20.7911 7.36955 20.8142 7.5292L20.8151 7.54399C20.8005 7.59506 20.7992 7.6242 20.7604 7.65593C20.6953 7.56033 20.7409 4.76374 20.759 4.40979Z" fill="black" fill-opacity="0.505882"/>
<path d="M5.08802 14.625C5.45236 14.6392 5.51196 14.4493 5.60597 14.7547C5.61368 14.7798 5.76982 14.8427 5.8053 14.8703C5.89303 14.9384 5.8075 15.0793 5.87367 15.1231L5.9643 15.103C6.05847 15.165 6.00482 15.2538 5.96526 15.3403C5.86589 15.2578 5.76389 15.1427 5.67522 15.0487C5.18657 14.5305 5.235 14.5623 4.76184 15.0002C4.81537 14.8628 4.9702 14.7665 5.08802 14.625Z" fill="black" fill-opacity="0.509804"/>
<path d="M15.7834 3.39877C16.1563 3.32197 15.9843 3.17923 16.5142 3.18734L16.5206 3.21076L16.3549 3.21629C16.252 3.22655 16.1997 3.23569 16.0989 3.25962C16.388 3.29527 16.6799 3.30148 16.9703 3.27819L17.2488 3.27985C17.351 3.33151 17.4842 3.31899 17.5977 3.30873L17.4483 3.37285C17.3822 3.36247 16.905 3.40634 16.7708 3.40782C16.4515 3.41136 16.0909 3.37428 15.7834 3.39877Z" fill="black" fill-opacity="0.270588"/>
<path d="M12.0762 20.8137C12.0143 20.7805 11.9879 20.7645 11.9181 20.7452C12.2706 20.6907 13.0355 20.7097 13.4154 20.7336L13.4386 20.7562C13.3823 20.7657 13.2804 20.7732 13.2509 20.8122C12.7943 20.844 12.5327 20.8397 12.0762 20.8137Z" fill="black" fill-opacity="0.490196"/>
<path d="M15.0928 18.9546C15.0801 19.0374 15.0726 19.1366 15.0282 19.2052C15.0151 19.1713 15.0049 17.6464 15.0229 17.5541L15.0947 17.5262C15.1005 17.9693 15.1231 18.5208 15.0928 18.9546Z" fill="black" fill-opacity="0.556863"/>
<path d="M7.6444 9.28846C7.84783 9.2882 8.29069 9.26259 8.45517 9.27299C8.38596 9.31445 8.3069 9.31406 8.22801 9.30937L8.22403 9.32788C8.2983 9.40005 8.59315 9.3719 8.72419 9.39728C8.6216 9.40851 8.47767 9.40392 8.37152 9.40368C7.9118 9.37059 7.4569 9.36466 6.98962 9.32765C7.03397 9.30102 7.54936 9.29111 7.6444 9.28846Z" fill="black" fill-opacity="0.329412"/>
<path d="M3.18716 11.8481C3.23258 11.3626 3.16155 11.1209 3.24934 10.5708C3.25954 10.7572 3.30437 11.8692 3.24531 11.9803L3.18494 11.9616L3.18716 11.8481Z" fill="black" fill-opacity="0.521569"/>
<path d="M14.6231 15.3456L14.6651 15.412C14.8452 15.442 14.8075 15.6507 14.8153 15.8138C14.7587 15.8452 14.7496 15.8553 14.6873 15.8565C14.5806 15.7515 14.6187 15.4953 14.6231 15.3456Z" fill="black" fill-opacity="0.317647"/>
<path d="M8.19187 9.2088C8.34185 9.20705 8.3928 9.2081 8.54273 9.23344L8.55555 9.25256C8.5174 9.26346 8.49565 9.27173 8.45524 9.27295C8.29076 9.26255 7.8479 9.28816 7.64447 9.28842L7.04761 9.27776C7.22254 9.24794 7.40201 9.26721 7.56844 9.25033C7.79571 9.22727 7.96343 9.21443 8.19187 9.2088Z" fill="black" fill-opacity="0.462745"/>
<path d="M16.5206 3.21077C16.69 3.20442 17.0535 3.17224 17.188 3.24523L17.2063 3.25498C17.2215 3.2633 17.2341 3.2708 17.2488 3.27987L16.9702 3.2782C16.7752 3.24748 16.5075 3.31847 16.3549 3.2163L16.5206 3.21077Z" fill="black" fill-opacity="0.733333"/>
<path d="M13.9159 20.6097C13.9961 20.5025 13.8832 20.5365 13.9483 20.3906C14.024 20.3484 14.1323 20.3527 14.2215 20.3488C14.0351 20.4846 14.2369 20.5486 13.9159 20.6097Z" fill="black" fill-opacity="0.270588"/>
<path d="M8.72425 9.39734L8.76043 9.39935C8.84413 9.41421 9.02317 9.42214 9.11448 9.42886C8.98356 9.49032 8.54682 9.47424 8.39481 9.44665L8.37158 9.40374C8.47773 9.40397 8.62166 9.40857 8.72425 9.39734Z" fill="black" fill-opacity="0.752941"/>
<path d="M17.5977 3.30872C17.746 3.29133 17.9179 3.30085 18.0688 3.30427L18.0746 3.32253L17.9593 3.33781C17.9941 3.35994 18.0496 3.35539 18.0931 3.35658C18.0548 3.37915 17.5336 3.38309 17.4482 3.37285L17.5977 3.30872Z" fill="black" fill-opacity="0.368627"/>
<path d="M16.0989 3.25964C16.1997 3.23571 16.252 3.22657 16.3549 3.21631C16.5075 3.31847 16.7752 3.24748 16.9702 3.27821C16.6799 3.3015 16.388 3.29529 16.0989 3.25964Z" fill="black" fill-opacity="0.458824"/>
<path d="M14.7805 19.6777L14.7373 19.6477C14.726 19.5508 14.7262 19.5385 14.7596 19.4471L14.794 19.4774L14.8134 19.6247L14.7805 19.6777Z" fill="black" fill-opacity="0.439216"/>
</svg>
