<svg width="20" height="20" viewBox="0 0 20 20" fill="none" xmlns="http://www.w3.org/2000/svg">
<rect width="20" height="20" rx="10" fill="#8F282C"/>
<path d="M8.33366 11.604L13.417 6.52067C13.5698 6.36789 13.7469 6.2915 13.9482 6.2915C14.1496 6.2915 14.3267 6.36789 14.4795 6.52067C14.6323 6.67345 14.7087 6.85053 14.7087 7.05192C14.7087 7.25331 14.6323 7.43039 14.4795 7.58317L8.85449 13.2082C8.70171 13.3609 8.52463 13.4373 8.32324 13.4373C8.12185 13.4373 7.94477 13.3609 7.79199 13.2082L5.52116 10.9373C5.36838 10.7846 5.29199 10.6075 5.29199 10.4061C5.29199 10.2047 5.36838 10.0276 5.52116 9.87484C5.67394 9.72206 5.85102 9.64567 6.05241 9.64567C6.2538 9.64567 6.43088 9.72206 6.58366 9.87484L8.33366 11.604Z" fill="#FAFAFA"/>
</svg>
