<svg width="20" height="20" viewBox="0 0 20 20" fill="none" xmlns="http://www.w3.org/2000/svg">
<rect width="20" height="20" rx="10" fill="#A91B58"/>
<path d="M8.33341 11.6042L13.4167 6.52091C13.5695 6.36814 13.7466 6.29175 13.948 6.29175C14.1494 6.29175 14.3265 6.36814 14.4792 6.52091C14.632 6.67369 14.7084 6.85078 14.7084 7.05216C14.7084 7.25355 14.632 7.43064 14.4792 7.58341L8.85425 13.2084C8.70147 13.3612 8.52439 13.4376 8.323 13.4376C8.12161 13.4376 7.94453 13.3612 7.79175 13.2084L5.52091 10.9376C5.36814 10.7848 5.29175 10.6077 5.29175 10.4063C5.29175 10.2049 5.36814 10.0279 5.52091 9.87508C5.67369 9.7223 5.85078 9.64591 6.05216 9.64591C6.25355 9.64591 6.43064 9.7223 6.58341 9.87508L8.33341 11.6042Z" fill="#FAFAFA"/>
</svg>
