<svg width="20" height="20" viewBox="0 0 20 20" fill="none" xmlns="http://www.w3.org/2000/svg">
<rect width="20" height="20" rx="10" fill="#00477E"/>
<path d="M8.33333 11.6042L13.4167 6.52091C13.5694 6.36814 13.7465 6.29175 13.9479 6.29175C14.1493 6.29175 14.3264 6.36814 14.4792 6.52091C14.6319 6.67369 14.7083 6.85078 14.7083 7.05216C14.7083 7.25355 14.6319 7.43064 14.4792 7.58341L8.85417 13.2084C8.70139 13.3612 8.52431 13.4376 8.32292 13.4376C8.12153 13.4376 7.94445 13.3612 7.79167 13.2084L5.52083 10.9376C5.36806 10.7848 5.29167 10.6077 5.29167 10.4063C5.29167 10.2049 5.36806 10.0279 5.52083 9.87508C5.67361 9.7223 5.8507 9.64591 6.05208 9.64591C6.25347 9.64591 6.43056 9.7223 6.58333 9.87508L8.33333 11.6042Z" fill="#FAFAFA"/>
</svg>
