<svg width="20" height="20" viewBox="0 0 20 20" fill="none" xmlns="http://www.w3.org/2000/svg">
<rect width="20" height="20" rx="10" fill="#8F282C"/>
<path d="M8.33333 11.6045L13.4167 6.52116C13.5694 6.36838 13.7465 6.29199 13.9479 6.29199C14.1493 6.29199 14.3264 6.36838 14.4792 6.52116C14.6319 6.67394 14.7083 6.85102 14.7083 7.05241C14.7083 7.2538 14.6319 7.43088 14.4792 7.58366L8.85417 13.2087C8.70139 13.3614 8.52431 13.4378 8.32292 13.4378C8.12153 13.4378 7.94444 13.3614 7.79167 13.2087L5.52083 10.9378C5.36805 10.785 5.29167 10.608 5.29167 10.4066C5.29167 10.2052 5.36805 10.0281 5.52083 9.87533C5.67361 9.72255 5.85069 9.64616 6.05208 9.64616C6.25347 9.64616 6.43055 9.72255 6.58333 9.87533L8.33333 11.6045Z" fill="#FAFAFA"/>
</svg>
