<svg width="20" height="20" viewBox="0 0 20 20" fill="none" xmlns="http://www.w3.org/2000/svg">
<rect width="20" height="20" rx="10" fill="#0A3152"/>
<path d="M8.33317 11.6042L13.4165 6.52091C13.5693 6.36814 13.7464 6.29175 13.9478 6.29175C14.1491 6.29175 14.3262 6.36814 14.479 6.52091C14.6318 6.67369 14.7082 6.85078 14.7082 7.05216C14.7082 7.25355 14.6318 7.43064 14.479 7.58341L8.854 13.2084C8.70123 13.3612 8.52414 13.4376 8.32275 13.4376C8.12137 13.4376 7.94428 13.3612 7.7915 13.2084L5.52067 10.9376C5.36789 10.7848 5.2915 10.6077 5.2915 10.4063C5.2915 10.2049 5.36789 10.0279 5.52067 9.87508C5.67345 9.7223 5.85053 9.64591 6.05192 9.64591C6.25331 9.64591 6.43039 9.7223 6.58317 9.87508L8.33317 11.6042Z" fill="#FAFAFA"/>
</svg>
