<svg width="20" height="20" viewBox="0 0 20 20" fill="none" xmlns="http://www.w3.org/2000/svg">
<rect width="20" height="20" rx="10" fill="#E31837"/>
<path d="M8.33333 11.6042L13.4167 6.52082C13.5694 6.36805 13.7465 6.29166 13.9479 6.29166C14.1493 6.29166 14.3264 6.36805 14.4792 6.52082C14.6319 6.6736 14.7083 6.85068 14.7083 7.05207C14.7083 7.25346 14.6319 7.43055 14.4792 7.58332L8.85416 13.2083C8.70139 13.3611 8.5243 13.4375 8.32291 13.4375C8.12153 13.4375 7.94444 13.3611 7.79166 13.2083L5.52083 10.9375C5.36805 10.7847 5.29166 10.6076 5.29166 10.4062C5.29166 10.2049 5.36805 10.0278 5.52083 9.87499C5.67361 9.72221 5.85069 9.64582 6.05208 9.64582C6.25347 9.64582 6.43055 9.72221 6.58333 9.87499L8.33333 11.6042Z" fill="#FAFAFA"/>
</svg>
