<svg width="20" height="20" viewBox="0 0 20 20" fill="none" xmlns="http://www.w3.org/2000/svg">
<rect width="20" height="20" rx="10" fill="#00BCF1"/>
<path d="M8.33317 11.604L13.4165 6.52067C13.5693 6.36789 13.7464 6.2915 13.9478 6.2915C14.1491 6.2915 14.3262 6.36789 14.479 6.52067C14.6318 6.67345 14.7082 6.85053 14.7082 7.05192C14.7082 7.25331 14.6318 7.43039 14.479 7.58317L8.854 13.2082C8.70123 13.3609 8.52414 13.4373 8.32275 13.4373C8.12137 13.4373 7.94428 13.3609 7.7915 13.2082L5.52067 10.9373C5.36789 10.7846 5.2915 10.6075 5.2915 10.4061C5.2915 10.2047 5.36789 10.0276 5.52067 9.87484C5.67345 9.72206 5.85053 9.64567 6.05192 9.64567C6.25331 9.64567 6.43039 9.72206 6.58317 9.87484L8.33317 11.604Z" fill="#1E1E1E"/>
</svg>
