<svg width="20" height="20" viewBox="0 0 20 20" fill="none" xmlns="http://www.w3.org/2000/svg">
<rect width="20" height="20" rx="10" fill="#57BE88"/>
<path d="M8.33317 11.6041L13.4165 6.52079C13.5693 6.36801 13.7464 6.29163 13.9478 6.29163C14.1491 6.29163 14.3262 6.36801 14.479 6.52079C14.6318 6.67357 14.7082 6.85065 14.7082 7.05204C14.7082 7.25343 14.6318 7.43051 14.479 7.58329L8.854 13.2083C8.70123 13.3611 8.52414 13.4375 8.32275 13.4375C8.12137 13.4375 7.94428 13.3611 7.7915 13.2083L5.52067 10.9375C5.36789 10.7847 5.2915 10.6076 5.2915 10.4062C5.2915 10.2048 5.36789 10.0277 5.52067 9.87496C5.67345 9.72218 5.85053 9.64579 6.05192 9.64579C6.25331 9.64579 6.43039 9.72218 6.58317 9.87496L8.33317 11.6041Z" fill="#1E1E1E"/>
</svg>
