<svg width="20" height="20" viewBox="0 0 20 20" fill="none" xmlns="http://www.w3.org/2000/svg">
<rect width="20" height="20" rx="10" fill="#0A3152"/>
<path d="M8.33333 11.604L13.4167 6.52067C13.5694 6.36789 13.7465 6.2915 13.9479 6.2915C14.1493 6.2915 14.3264 6.36789 14.4792 6.52067C14.6319 6.67345 14.7083 6.85053 14.7083 7.05192C14.7083 7.25331 14.6319 7.43039 14.4792 7.58317L8.85417 13.2082C8.70139 13.3609 8.52431 13.4373 8.32292 13.4373C8.12153 13.4373 7.94444 13.3609 7.79167 13.2082L5.52083 10.9373C5.36805 10.7846 5.29167 10.6075 5.29167 10.4061C5.29167 10.2047 5.36805 10.0276 5.52083 9.87484C5.67361 9.72206 5.85069 9.64567 6.05208 9.64567C6.25347 9.64567 6.43055 9.72206 6.58333 9.87484L8.33333 11.604Z" fill="#FAFAFA"/>
</svg>
