<svg width="20" height="20" viewBox="0 0 20 20" fill="none" xmlns="http://www.w3.org/2000/svg">
<rect width="20" height="20" rx="10" fill="#0A3152"/>
<path d="M8.33317 11.6045L13.4165 6.52116C13.5693 6.36838 13.7464 6.29199 13.9478 6.29199C14.1491 6.29199 14.3262 6.36838 14.479 6.52116C14.6318 6.67394 14.7082 6.85102 14.7082 7.05241C14.7082 7.2538 14.6318 7.43088 14.479 7.58366L8.854 13.2087C8.70123 13.3614 8.52414 13.4378 8.32275 13.4378C8.12137 13.4378 7.94428 13.3614 7.7915 13.2087L5.52067 10.9378C5.36789 10.785 5.2915 10.608 5.2915 10.4066C5.2915 10.2052 5.36789 10.0281 5.52067 9.87533C5.67345 9.72255 5.85053 9.64616 6.05192 9.64616C6.25331 9.64616 6.43039 9.72255 6.58317 9.87533L8.33317 11.6045Z" fill="#FAFAFA"/>
</svg>
