<svg width="20" height="20" viewBox="0 0 20 20" fill="none" xmlns="http://www.w3.org/2000/svg">
<rect width="20" height="20" rx="10" fill="#97144D"/>
<path d="M8.33341 11.6035L13.4167 6.52018C13.5695 6.3674 13.7466 6.29102 13.948 6.29102C14.1494 6.29102 14.3265 6.3674 14.4792 6.52018C14.632 6.67296 14.7084 6.85004 14.7084 7.05143C14.7084 7.25282 14.632 7.4299 14.4792 7.58268L8.85425 13.2077C8.70147 13.3605 8.52439 13.4368 8.323 13.4368C8.12161 13.4368 7.94453 13.3605 7.79175 13.2077L5.52091 10.9368C5.36814 10.7841 5.29175 10.607 5.29175 10.4056C5.29175 10.2042 5.36814 10.0271 5.52091 9.87435C5.67369 9.72157 5.85078 9.64518 6.05216 9.64518C6.25355 9.64518 6.43064 9.72157 6.58341 9.87435L8.33341 11.6035Z" fill="#FAFAFA"/>
</svg>
