<svg width="20" height="20" viewBox="0 0 20 20" fill="none" xmlns="http://www.w3.org/2000/svg">
<rect width="20" height="20" rx="10" fill="#00477E"/>
<path d="M8.33334 11.6042L13.4167 6.52085C13.5694 6.36808 13.7465 6.29169 13.9479 6.29169C14.1493 6.29169 14.3264 6.36808 14.4792 6.52085C14.6319 6.67363 14.7083 6.85071 14.7083 7.0521C14.7083 7.25349 14.6319 7.43058 14.4792 7.58335L8.85417 13.2084C8.70139 13.3611 8.52431 13.4375 8.32292 13.4375C8.12153 13.4375 7.94445 13.3611 7.79167 13.2084L5.52084 10.9375C5.36806 10.7847 5.29167 10.6077 5.29167 10.4063C5.29167 10.2049 5.36806 10.0278 5.52084 9.87502C5.67362 9.72224 5.8507 9.64585 6.05209 9.64585C6.25348 9.64585 6.43056 9.72224 6.58334 9.87502L8.33334 11.6042Z" fill="#FAFAFA"/>
</svg>
