<svg width="104" height="43" viewBox="0 0 104 43" fill="none" xmlns="http://www.w3.org/2000/svg">
<g clip-path="url(#clip0_532_12597)">
<path d="M0.0116882 35.5081H104.012V12.1448H0.0116882V35.5081Z" fill="white"/>
<path d="M0.726471 34.7915H103.297V12.9332H0.726471V34.7915Z" fill="#2B61AB"/>
<path fill-rule="evenodd" clip-rule="evenodd" d="M9.94707 29.2732H12.5203V23.9698L16.666 18.3082H13.9498L11.4481 21.7482L9.16081 18.3082H6.08728L9.94707 24.0415V29.2732Z" fill="white"/>
<path fill-rule="evenodd" clip-rule="evenodd" d="M17.8096 29.2731H24.5285V26.9798H20.3113V24.8298H23.8852V22.6081H20.3113V20.6015H24.457V18.3798H17.8096V29.2731Z" fill="white"/>
<path fill-rule="evenodd" clip-rule="evenodd" d="M26.8873 26.1915L27.1017 29.1298C27.6735 29.2732 28.1739 29.4165 28.6027 29.4882C29.1031 29.5598 29.532 29.6315 29.9608 29.6315C31.1759 29.6315 32.1766 29.2731 32.8199 28.6281C33.5347 27.9831 33.8206 27.1232 33.8921 26.0482C33.8921 25.1882 33.6062 24.5432 33.1058 24.0415C32.6055 23.5398 31.9622 23.0382 31.1759 22.6798L29.8893 21.9632C29.6034 21.8198 29.4605 21.6765 29.3175 21.5332C29.1746 21.3898 29.1031 21.1748 29.1031 21.0315C29.1031 20.7448 29.246 20.5298 29.389 20.3865C29.6034 20.2431 29.8893 20.1715 30.2467 20.1715C30.5326 20.1715 30.89 20.2431 31.3904 20.3865C31.8192 20.5298 32.391 20.8165 32.9629 21.1748V18.5948C32.4625 18.3798 31.9622 18.3082 31.5333 18.1648C31.1044 18.0932 30.6756 18.0215 30.2467 18.0215C29.1746 18.0215 28.3168 18.3082 27.6735 18.8815C27.0302 19.4548 26.7443 20.1715 26.7443 21.0315C26.7443 21.6765 26.8873 22.2498 27.2447 22.7515C27.602 23.2532 28.1024 23.7548 28.8172 24.1132L29.5319 24.5432C30.1038 24.8298 30.5326 25.1165 30.8185 25.3315C31.1044 25.5465 31.3189 25.8332 31.3189 26.2632C31.3189 26.5498 31.1759 26.8365 30.9615 27.0515C30.6756 27.2665 30.3182 27.3382 29.8893 27.3382C29.389 27.3382 28.8886 27.2665 28.3883 27.0515C27.9594 26.8365 27.4591 26.5498 26.8873 26.1915Z" fill="white"/>
<path fill-rule="evenodd" clip-rule="evenodd" d="M75.8495 29.2732H77.7079V22.3215L84.6413 29.6315H84.8557V18.3082H82.9973V25.2598L76.0639 17.9498H75.8495V29.2732Z" fill="white"/>
<path fill-rule="evenodd" clip-rule="evenodd" d="M88.2866 29.2731H90.145V24.1848L95.0055 29.2731H97.4358L92.0034 23.6114L96.9354 18.3798H94.7196L90.145 23.2531V18.3798H88.2866V29.2731Z" fill="white"/>
<path fill-rule="evenodd" clip-rule="evenodd" d="M60.1244 0.0331421L36.4653 43.0331L28.3168 34.7915H33.8921L60.1244 0.0331421Z" fill="white"/>
<path fill-rule="evenodd" clip-rule="evenodd" d="M57.1938 4.61981L36.3223 41.7432L30.1753 35.5082H34.321L57.1938 4.61981Z" fill="#D71C23"/>
<path fill-rule="evenodd" clip-rule="evenodd" d="M66.9148 25.8332L68.7017 21.7482L70.4886 25.8332H66.9148ZM65.3423 29.2732L66.2 27.3381H71.132L71.9897 29.2732H73.9911L68.8447 17.9498H68.7017L63.4124 29.2732H65.3423Z" fill="white"/>
<path fill-rule="evenodd" clip-rule="evenodd" d="M56.9794 22.8948V19.8131H58.0515C58.7663 19.8131 59.2667 19.9565 59.624 20.1715C59.9814 20.3865 60.1244 20.8165 60.1244 21.3182C60.1244 21.8198 59.91 22.1782 59.624 22.4648C59.2667 22.7515 58.7663 22.8948 58.123 22.8948H56.9794ZM56.9794 27.7682V24.3281H58.3374C58.9807 24.3281 59.4811 24.4715 59.8385 24.7582C60.1959 25.0448 60.3388 25.4748 60.3388 25.9765C60.3388 26.5498 60.1244 26.9798 59.8385 27.2665C59.4811 27.5532 58.9807 27.6965 58.3374 27.6965L56.9794 27.7682ZM55.1209 29.2732V18.3082H58.3374C59.1952 18.3082 60.3388 18.4515 61.0536 19.0248C61.6254 19.5265 61.9828 20.1715 61.9828 21.1031C61.9828 21.6765 61.8398 22.1065 61.5539 22.5365C61.268 22.8948 60.8392 23.2532 60.2673 23.4682C60.9106 23.6115 61.3395 23.9698 61.6969 24.3998C62.0543 24.8298 62.1972 25.4031 62.1972 26.1198C62.1972 27.1948 61.8398 27.9832 61.1965 28.5565C60.4818 29.0582 59.4811 29.3448 58.123 29.3448L55.1209 29.2732Z" fill="white"/>
</g>
<defs>
<clipPath id="clip0_532_12597">
<rect width="104" height="43" fill="white"/>
</clipPath>
</defs>
</svg>
